<svg width="34" height="21" viewBox="0 0 34 21" fill="none" xmlns="http://www.w3.org/2000/svg">
<g id="Group">
<g id="Group_2">
<g id="Group_3">
<path id="Vector" d="M31.6668 -12.3334C32.8001 -12.3334 33.6668 -13.2 33.6668 -14.3334V-17C33.6668 -18.1334 32.8001 -19 31.6668 -19H2.3335C1.20014 -19 0.333496 -18.1334 0.333496 -17V-14.3334C0.333496 -13.2 1.20014 -12.3334 2.3335 -12.3334V-0.333359C2.3335 -0.0977345 2.37146 0.126095 2.441 0.333282H2.3335C1.20014 0.333282 0.333496 1.19992 0.333496 2.33328V5C0.333496 6.13336 1.20014 7 2.3335 7V19C2.3335 20.1334 3.20014 21 4.3335 21H29.6669C30.8002 21 31.6669 20.1334 31.6669 19V7C32.8002 7 33.6669 6.13336 33.6669 5V2.33336C33.6669 1.2 32.8002 0.333359 31.6669 0.333359H31.5594C31.6289 0.126171 31.6669 -0.0976562 31.6669 -0.333281V-12.3334H31.6668ZM1.66678 -14.3334V-17C1.66678 -17.4 1.93342 -17.6666 2.33342 -17.6666H31.6668C32.0668 -17.6666 32.3334 -17.4 32.3334 -17V-14.3334C32.3334 -13.9334 32.0668 -13.6667 31.6668 -13.6667H31.0001H3.00014H2.3335C1.9335 -13.6666 1.66678 -13.9334 1.66678 -14.3334ZM30.3335 19C30.3335 19.4 30.0669 19.6666 29.6669 19.6666H4.3335C3.9335 19.6666 3.66686 19.4 3.66686 19V7H30.3335V19ZM32.3335 2.33336V5C32.3335 5.4 32.0669 5.66664 31.6669 5.66664H31.0001H3.00014H2.3335C1.9335 5.66664 1.66686 5.4 1.66686 5V2.33336C1.66686 1.93336 1.9335 1.66672 2.3335 1.66672H4.3335H29.6669H31.6669C32.0668 1.66664 32.3335 1.93336 32.3335 2.33336ZM4.3335 0.333359C3.9335 0.333359 3.66686 0.0667191 3.66686 -0.333281V-12.3333H30.3335V-0.333281C30.3335 0.0667191 30.0669 0.333359 29.6669 0.333359H4.3335Z" fill="black"/>
<path id="Vector_2" d="M15.2668 12.333H18.8002C19.8668 12.333 20.8002 11.4664 20.8002 10.333C20.8002 9.19965 19.9336 8.33301 18.8002 8.33301H15.2668C14.1335 8.33301 13.2668 9.19965 13.2668 10.333C13.2668 11.4663 14.1336 12.333 15.2668 12.333ZM15.2002 9.66629H18.7336C19.1336 9.66629 19.4002 9.93293 19.4002 10.3329C19.4002 10.7329 19.1336 10.9996 18.7336 10.9996H15.2002C14.8002 10.9996 14.5336 10.733 14.5336 10.333C14.5336 9.93301 14.8002 9.66629 15.2002 9.66629Z" fill="black"/>
<path id="Vector_3" d="M5.66688 15.0003H9.00024C9.40024 15.0003 9.66688 14.7336 9.66688 14.3336C9.66688 13.9336 9.40024 13.667 9.00024 13.667H5.66688C5.26688 13.667 5.00024 13.9336 5.00024 14.3336C5.00024 14.7336 5.26688 15.0003 5.66688 15.0003Z" fill="black"/>
<path id="Vector_4" d="M5.66688 17.6663H7.66688C8.06688 17.6663 8.33352 17.3996 8.33352 16.9996C8.33352 16.5996 8.06688 16.333 7.66688 16.333H5.66688C5.26688 16.333 5.00024 16.5996 5.00024 16.9996C5.00024 17.3996 5.26688 17.6663 5.66688 17.6663Z" fill="black"/>
</g>
</g>
</g>
</svg>
