<svg width="62" height="61" viewBox="0 0 62 61" fill="none" xmlns="http://www.w3.org/2000/svg">
<g id="Illustration">
<g id="Group">
<path id="Vector" d="M60.5708 25.789C58.9046 15.0172 52.0729 1.78335 38.5763 0.398419C38.5763 0.398419 28.329 -0.832633 18.2274 1.03314C12.2321 2.14046 6.97509 5.43674 3.64868 10.1743C0.322265 14.9119 -0.788877 20.6887 0.559632 26.1962C1.43548 29.7734 2.02733 33.4756 1.86489 37.1514C1.5822 43.5487 1.74485 49.5201 8.03089 53.3352C13.6436 56.7418 20.7073 59.7462 27.4461 60.2724C32.0258 60.6301 37.1616 60.0513 41.5756 58.8737C64.07 52.8723 62.2371 36.5608 60.5708 25.789Z" fill="#F4F7FA"/>
<g id="Group_2">
<g id="Group_3">
<path id="Vector_2" d="M56.8964 14.6102L34.579 1.74112L33.8681 1.33791L34.0939 1.10578L32.8528 0.757446L31.1032 1.58127L4.66735 14.6236H4.62531V15.3658V16.5086V47.1196V48.9155L6.08942 49.0889L6.69035 48.903L6.51776 48.7128L23.3867 47.0723L25.0857 46.9071L40.2719 45.4302L41.8055 45.2811L55.5371 43.9445L56.9278 43.808V42.2917V16.1736V15.1985V14.6096L56.8964 14.6102ZM32.8536 2.59169L53.8886 14.6145L8.72657 14.6704L32.8536 2.59169ZM6.5094 46.9755V16.5069L23.3909 16.4V45.4262L6.5094 46.9755ZM25.1242 45.2651V16.3897L40.2724 16.2899V43.8615L25.1242 45.2651ZM55.4959 42.4539L41.855 43.7244V16.2819L55.4959 16.1927V42.4539Z" fill="#97A6B7"/>
<g id="Group_4">
<path id="Vector_3" d="M35.8139 2.10351L34.0954 2.96945L6.96805 16.6331L6.19427 15.0826L32.3587 1.97462L34.0954 1.11017L35.8139 2.10351Z" fill="#D8DEE8"/>
<path id="Vector_4" d="M58.001 14.934L57.3626 16.2917L34.0954 2.96945L32.3586 1.97462L34.0954 1.11017L35.8139 2.10351L58.001 14.934Z" fill="#D8DEE8"/>
<path id="Vector_5" d="M8.01667 48.8772L6.20795 49.0557V15.6947L8.01667 15.6874V48.8772Z" fill="#D8DEE8"/>
<path id="Vector_6" d="M26.4054 47.0646L24.6721 47.2344V15.6164L26.4054 15.6104V47.0646Z" fill="#D8DEE8"/>
<path id="Vector_7" d="M42.9101 45.4407L41.4028 45.5942V15.5487L42.9101 15.5416V45.4407Z" fill="#D8DEE8"/>
<path id="Vector_8" d="M57.9828 43.9701L56.7017 44.1016V15.4866L57.9828 15.4807V43.9701Z" fill="#D8DEE8"/>
<path id="Vector_9" d="M57.9828 43.9701L6.20795 49.0557V47.3214L57.9828 42.489V43.9701Z" fill="#D8DEE8"/>
<path id="Vector_10" d="M57.9828 16.439L6.20795 16.8169V15.0826L57.9828 14.9579V16.439Z" fill="#D8DEE8"/>
</g>
</g>
<g id="Group_5" opacity="0.3">
<path id="Vector_11" d="M7.77 16.4833C7.97218 16.2836 7.97218 15.9598 7.77 15.7601C7.56782 15.5605 7.24002 15.5605 7.03784 15.7601C6.83565 15.9598 6.83565 16.2836 7.03784 16.4833C7.24002 16.683 7.56782 16.683 7.77 16.4833Z" fill="#97A6B7"/>
<path id="Vector_12" d="M26.1823 16.2422C26.248 15.9674 26.0757 15.692 25.7974 15.6271C25.5191 15.5622 25.2403 15.7324 25.1746 16.0072C25.1089 16.282 25.2812 16.5574 25.5595 16.6223C25.8377 16.6872 26.1166 16.517 26.1823 16.2422Z" fill="#97A6B7"/>
<path id="Vector_13" d="M42.5638 16.2101C42.766 16.0104 42.766 15.6866 42.5638 15.4869C42.3616 15.2873 42.0338 15.2873 41.8317 15.4869C41.6295 15.6866 41.6295 16.0104 41.8317 16.2101C42.0338 16.4098 42.3616 16.4098 42.5638 16.2101Z" fill="#97A6B7"/>
<path id="Vector_14" d="M57.5151 16.2101C57.7172 16.0105 57.7172 15.6867 57.5151 15.487C57.3129 15.2873 56.9851 15.2873 56.7829 15.487C56.5807 15.6867 56.5807 16.0104 56.7829 16.2101C56.9851 16.4098 57.3129 16.4098 57.5151 16.2101Z" fill="#97A6B7"/>
<path id="Vector_15" d="M34.35 2.53722C34.5522 2.33754 34.5522 2.01378 34.35 1.8141C34.1478 1.61441 33.82 1.61441 33.6179 1.8141C33.4157 2.01378 33.4157 2.33754 33.6179 2.53722C33.82 2.73691 34.1478 2.73691 34.35 2.53722Z" fill="#97A6B7"/>
<path id="Vector_16" d="M26.0435 46.6547C26.2457 46.455 26.2457 46.1312 26.0435 45.9315C25.8413 45.7318 25.5135 45.7318 25.3113 45.9315C25.1092 46.1312 25.1092 46.455 25.3113 46.6547C25.5135 46.8543 25.8413 46.8543 26.0435 46.6547Z" fill="#97A6B7"/>
<path id="Vector_17" d="M7.53683 48.0551C7.60253 47.7802 7.43022 47.5048 7.15195 47.4399C6.87368 47.375 6.59484 47.5452 6.52913 47.8201C6.46342 48.0949 6.63573 48.3703 6.914 48.4352C7.19227 48.5001 7.47112 48.3299 7.53683 48.0551Z" fill="#97A6B7"/>
<path id="Vector_18" d="M42.7019 44.8663C42.7676 44.5915 42.5953 44.3161 42.317 44.2512C42.0387 44.1863 41.7599 44.3564 41.6942 44.6313C41.6285 44.9061 41.8008 45.1815 42.079 45.2464C42.3573 45.3113 42.6362 45.1411 42.7019 44.8663Z" fill="#97A6B7"/>
<path id="Vector_19" d="M57.5186 43.6505C57.7005 43.4708 57.7005 43.1795 57.5186 42.9999C57.3366 42.8202 57.0417 42.8202 56.8598 42.9999C56.6779 43.1795 56.6779 43.4708 56.8598 43.6505C57.0417 43.8302 57.3366 43.8302 57.5186 43.6505Z" fill="#97A6B7"/>
</g>
</g>
<g id="Group_6">
<g id="Group_7">
<path id="Vector_20" d="M47.6299 33.7413C46.6 33.4254 45.8271 32.7222 45.255 31.9288C44.1281 30.3663 43.7797 28.4523 43.7797 28.4523L44.0928 27.9568L44.7134 26.9763C45.2436 29.0878 49.3737 30.7837 49.3737 30.7837C49.6421 31.6853 50.6891 34.6804 47.6299 33.7413Z" fill="url(#paint0_linear_19_545)"/>
<path id="Vector_21" opacity="0.3" d="M47.961 32.8764C47.961 32.8764 46.5256 32.6987 45.2548 31.9288C44.1279 30.3663 43.7795 28.4523 43.7795 28.4523L44.0927 27.9568C44.4134 28.1712 44.8913 28.6111 45.074 29.3943C45.3596 30.6202 46.8188 30.1821 47.961 31.1692C49.1032 32.1563 47.961 32.8764 47.961 32.8764Z" fill="url(#paint1_linear_19_545)"/>
</g>
<g id="Group_8">
<path id="Vector_22" d="M40.1402 25.308C40.1402 25.308 38.6906 26.5605 39.4407 26.8801L40.6643 27.4013L40.9564 25.4269L40.1402 25.308Z" fill="url(#paint2_linear_19_545)"/>
<path id="Vector_23" d="M44.9169 26.9604L43.9241 31.9637L39.4958 30.0773L40.6779 25.1547L44.9169 26.9604Z" fill="#26264F"/>
<path id="Vector_24" d="M37.5389 21.0277C37.6378 20.8013 37.5321 20.5385 37.3028 20.4408L33.6757 18.8958C33.4464 18.7981 33.1803 18.9025 33.0814 19.1289L33.0626 19.1721C32.9637 19.3986 33.0694 19.6613 33.2987 19.759L36.9259 21.3041C37.1552 21.4017 37.4212 21.2973 37.5201 21.0709L37.5389 21.0277Z" fill="url(#paint3_linear_19_545)"/>
<path id="Vector_25" d="M38.4235 20.9011C38.5658 20.5754 38.4137 20.1974 38.0838 20.0568L38.0547 20.0444C37.7249 19.9039 37.3421 20.0541 37.1999 20.3799L36.7726 21.3582C36.6304 21.684 36.7824 22.062 37.1123 22.2025L37.1414 22.2149C37.4713 22.3555 37.854 22.2053 37.9963 21.8795L38.4235 20.9011Z" fill="#26264F"/>
<g id="Group_9">
<path id="Vector_26" d="M36.9651 22.6326C36.8079 22.9752 36.9153 23.3795 37.2222 23.5971C37.8332 24.0302 38.45 24.4574 39.0724 24.8788C39.7801 23.1732 40.4878 21.4677 41.1955 19.762C40.5053 19.6438 39.8151 19.5179 39.1251 19.3844C38.764 19.3145 38.4018 19.501 38.2487 19.8348C37.8209 20.7674 37.3929 21.7 36.9651 22.6326Z" fill="url(#paint4_linear_19_545)"/>
<path id="Vector_27" opacity="0.3" d="M36.9651 22.6326C36.8079 22.9752 36.9153 23.3795 37.2222 23.5971C37.8332 24.0302 38.45 24.4574 39.0724 24.8788C39.7801 23.1732 40.4878 21.4677 41.1955 19.762C40.5053 19.6438 39.8151 19.5179 39.1251 19.3844C38.764 19.3145 38.4018 19.501 38.2487 19.8348C37.8209 20.7674 37.3929 21.7 36.9651 22.6326Z" fill="url(#paint5_linear_19_545)"/>
</g>
<path id="Vector_28" d="M41.2071 19.7491L38.983 24.8422L44.9264 27.3739C46.1334 27.888 47.5332 27.3387 48.0538 26.1466L48.3931 25.3697C48.9137 24.1776 48.3574 22.795 47.1504 22.2809L41.2071 19.7491Z" fill="url(#paint6_linear_19_545)"/>
<path id="Vector_29" opacity="0.3" d="M47.1505 22.2809L44.9264 27.374C46.15 27.8952 47.5333 27.3388 48.0538 26.1467L48.3931 25.3697C48.9137 24.1776 48.3741 22.8021 47.1505 22.2809Z" fill="url(#paint7_linear_19_545)"/>
<path id="Vector_30" d="M45.6471 23.1122C45.7382 22.9036 45.6408 22.6616 45.4297 22.5717L42.2613 21.222C42.0502 21.1321 41.8051 21.2282 41.714 21.4368L41.7046 21.4584C41.6135 21.667 41.7109 21.909 41.9221 21.9989L45.0904 23.3485C45.3016 23.4385 45.5466 23.3423 45.6377 23.1338L45.6471 23.1122Z" fill="url(#paint8_linear_19_545)"/>
<path id="Vector_31" d="M44.6011 32.8663C44.8093 32.3896 44.5868 31.8364 44.1041 31.6308L39.0347 29.4714C38.552 29.2658 37.992 29.4856 37.7838 29.9623C37.5756 30.4391 37.7981 30.9923 38.2808 31.1979L43.3502 33.3572C43.8329 33.5629 44.3929 33.3431 44.6011 32.8663Z" fill="url(#paint9_linear_19_545)"/>
</g>
<g id="Group_10">
<path id="Vector_32" d="M47.2879 53.623L47.3638 54.8206C47.3638 54.8206 47.1916 55.0008 46.8603 54.8754L46.4985 53.6993L47.2879 53.623Z" fill="url(#paint10_linear_19_545)"/>
<path id="Vector_33" d="M47.1361 54.5036C47.1361 54.5036 47.73 54.7428 47.6147 55.0023C47.5528 55.1416 47.3386 55.4562 47.1535 55.7178C46.9822 55.9598 46.6727 56.0669 46.3862 55.9822C46.2901 55.9537 46.1918 55.9259 46.1047 55.9037C45.9247 55.8579 45.9142 55.6093 46.0895 55.5483C46.1745 55.5187 46.2587 55.4948 46.332 55.4836C46.5495 55.4504 46.8486 54.9431 46.8837 54.7399C46.9187 54.5367 47.1361 54.5036 47.1361 54.5036Z" fill="url(#paint11_linear_19_545)"/>
<path id="Vector_34" d="M48.5637 42.128C47.6889 42.4261 44.4541 43.6338 43.7335 46.4039C43.6951 46.5518 43.5964 46.963 43.592 47.6347C43.5734 50.4307 45.2196 52.7969 46.4168 54.1735C46.7942 54.1673 47.1717 54.161 47.5491 54.1548C47.7375 53.4412 47.9106 52.3739 47.6397 51.1729C47.2257 49.3375 46.1515 48.8614 46.3586 47.9605C46.7348 46.3245 50.5811 46.572 50.9436 45.107C51.0745 44.5779 50.7868 43.6798 48.5637 42.128Z" fill="url(#paint12_linear_19_545)"/>
<path id="Vector_35" d="M59.3833 58.867L57.7408 58.8292C57.6396 58.8269 57.5961 58.7023 57.6736 58.6379C57.75 58.5745 57.8556 58.5226 57.9906 58.5365C58.3028 58.5686 59.0037 58.137 59.3217 58.2296C59.4256 58.2599 59.51 58.5012 59.5533 58.5679C59.6382 58.699 59.5408 58.8707 59.3833 58.867Z" fill="url(#paint13_linear_19_545)"/>
<path id="Vector_36" d="M58.6453 57.6207L59.3217 58.2296C59.3217 58.2296 59.0856 58.4039 58.7411 58.3292L58.0497 57.8593L58.6453 57.6207Z" fill="url(#paint14_linear_19_545)"/>
<g id="Group_11">
<path id="Vector_37" d="M45.6618 49.3418C45.2081 48.1321 44.6641 46.6405 45.2854 45.7936C45.9142 44.9365 47.2917 45.6599 48.6737 44.9693C49.1863 44.7132 49.7131 44.2547 50.1514 43.425C50.9272 44.2161 51.0326 44.747 50.9435 45.107C50.5811 46.572 46.7347 46.3245 46.3586 47.9605C46.1514 48.8614 47.2256 49.3375 47.6396 51.173C47.8726 52.2054 47.7771 53.1385 47.6261 53.8335C47.4915 53.188 47.2823 52.5101 46.9625 51.8258C46.4668 50.765 46.1397 50.6163 45.6618 49.3418Z" fill="url(#paint15_linear_19_545)"/>
</g>
<path id="Vector_38" d="M48.0625 41.7786C48.595 44.1928 49.7295 47.8793 52.3288 51.7274C54.2531 54.5761 56.3671 56.6058 58.0252 57.9619C58.1432 57.9967 58.3443 58.0394 58.5908 58.0096C58.7739 57.9874 58.9192 57.9327 59.0169 57.8867C58.9027 57.2061 58.6618 56.2006 58.0905 55.1147C57.0452 53.1275 56.1143 53.1913 55.0644 51.4374C54.2956 50.1532 54.0456 48.789 53.5457 46.0606C53.1596 43.9538 53.1594 43.4502 52.6308 42.8461C51.562 41.6247 49.5551 41.6108 48.0625 41.7786Z" fill="url(#paint16_linear_19_545)"/>
<g id="Group_12">
<path id="Vector_39" d="M57.6898 55.564C57.3167 54.9825 56.6548 54.3769 55.3491 53.1823C53.9998 51.9478 54.0516 52.171 53.786 51.8062C52.5969 50.1728 53.2408 48.4274 52.9468 46.3211C52.7828 45.146 52.2574 43.6104 50.7278 41.8903C51.4447 42.0208 52.1311 42.3016 52.6308 42.8461C53.2444 43.5146 53.1992 44.1693 53.5457 46.0606C54.0457 48.789 54.2956 50.1532 55.0644 51.4374C56.1144 53.1913 57.0452 53.1275 58.0906 55.1146C58.6618 56.2006 58.9027 57.2061 59.0169 57.8867C58.9192 57.9327 58.774 57.9874 58.5908 58.0096C58.4455 58.0272 58.3167 58.0193 58.2107 58.0029C58.2969 56.6221 57.8791 55.859 57.6898 55.564Z" fill="url(#paint17_linear_19_545)"/>
</g>
<path id="Vector_40" d="M50.0683 29.1499C49.8889 28.8011 49.815 28.8031 49.7709 28.619C49.6705 28.1994 49.9297 27.6665 50.1494 27.6591C50.2911 27.6543 50.3028 27.8718 50.6027 28.2109C50.9701 28.6261 51.1931 28.5717 51.4093 28.9322C51.4599 29.0165 51.6875 29.3961 51.5475 29.6794C51.3689 30.041 50.6646 30.0982 50.3702 29.8193C50.2305 29.687 50.2892 29.5797 50.0683 29.1499Z" fill="url(#paint18_linear_19_545)"/>
<path id="Vector_41" d="M50.5962 29.5263C50.5962 29.5263 50.4704 30.1893 50.5599 30.7284C50.6409 31.2156 51.5547 31.7217 51.7298 31.8668C51.905 32.0119 51.2653 32.1694 50.6785 32.0936C50.0917 32.0177 48.485 31.5099 48.2409 31.2269C47.9967 30.9439 48.5252 31.0834 48.9696 31.0298C49.414 30.9762 49.8383 30.2406 49.8512 29.8651C49.8642 29.4897 50.5962 29.5263 50.5962 29.5263Z" fill="url(#paint19_linear_19_545)"/>
<g id="Group_13">
<path id="Vector_42" d="M50.4049 30.0211C50.4049 30.0211 49.9557 30.2159 49.5578 29.9017C49.2016 29.6203 49.7313 28.756 50.0936 28.7449C50.2145 28.7412 50.391 28.8268 50.4952 28.952C50.5567 29.0259 50.5604 29.0751 50.6633 29.194C50.7582 29.3036 50.8 29.3135 50.8144 29.3667C50.8325 29.4333 50.8014 29.5446 50.5575 29.7359C50.6791 29.7137 50.7839 29.7454 50.8244 29.8154C50.8309 29.8265 50.8444 29.8614 50.8404 29.8974C50.8258 30.0279 50.6533 30.0883 50.4049 30.0211Z" fill="url(#paint20_linear_19_545)"/>
</g>
<path id="Vector_43" d="M40.5326 27.715C40.5326 27.715 40.2605 27.6776 40.3453 27.1644C40.4118 26.7622 40.3615 26.6269 40.2653 26.6982C40.1692 26.7695 40.1556 27.0019 40.1556 27.0019C40.1556 27.0019 39.8049 26.7066 39.6605 26.3194C39.5161 25.9324 39.4233 26.2583 39.3923 26.4519C39.3614 26.6454 39.5986 27.2464 39.7327 27.3585C39.8668 27.4705 40.0627 27.9644 40.0627 27.9644L40.5326 27.715Z" fill="url(#paint21_linear_19_545)"/>
<path id="Vector_44" d="M39.8077 27.8525C40.1171 27.6384 40.4266 27.4244 40.7361 27.2103C41.1127 29.4965 41.9686 30.3938 42.6956 30.7863C44.4494 31.7331 46.0147 30.0458 49.3717 30.7344C50.2968 30.9241 51.9092 31.2775 52.8033 32.5791C53.0384 32.9212 53.122 33.1803 53.5122 35.6347C54.0111 38.772 54.0288 39.3195 53.9585 39.9951C53.8298 41.2313 53.7518 41.9805 53.1746 42.6436C51.6421 44.4044 48.3847 43.4965 47.9763 43.377C47.2219 43.1563 46.0494 42.8133 45.5835 41.8286C45.3643 41.3654 45.3876 40.9418 45.7245 39.2477C46.3918 35.8916 46.4771 35.6745 46.2908 35.307C45.6621 34.0667 43.6703 34.7764 41.9877 33.623C41.0039 32.9487 39.8949 31.4792 39.8077 27.8525Z" fill="url(#paint22_linear_19_545)"/>
<path id="Vector_45" opacity="0.3" d="M49.5028 42.9288C49.1744 42.2635 49.6158 41.6504 49.1316 40.8508C48.5144 39.8316 47.4041 40.1776 46.9863 39.4246C46.2717 38.1368 49.0842 36.3408 48.5127 34.2905C48.2399 33.3116 47.2871 32.6031 46.4912 32.3347C44.7242 31.7388 43.5684 33.2579 41.9117 32.7829C41.5191 32.6703 41.0685 32.437 40.6127 31.953C41.0155 32.7925 41.5159 33.2996 41.9877 33.6231C43.6704 34.7764 45.6622 34.0668 46.2908 35.307C46.4771 35.6745 46.3919 35.8917 45.7245 39.2477C45.3876 40.9419 45.3643 41.3654 45.5835 41.8286C46.0494 42.8133 47.2219 43.1563 47.9764 43.377C48.1999 43.4424 49.2773 43.7432 50.4579 43.714C49.9312 43.5027 49.6477 43.2223 49.5028 42.9288Z" fill="url(#paint23_linear_19_545)"/>
<path id="Vector_46" d="M47.3779 43.425C47.3779 43.425 44.4422 42.5416 45.5353 37.8345C46.2908 35.3069 45.9637 35.4636 45.9637 35.4636C45.9637 35.4636 50.0169 36.233 50.6705 35.4636C51.3241 34.6942 49.0318 31.1604 48.1791 30.577C48.1791 30.577 48.847 30.3469 49.3717 30.7344C49.8963 31.1218 51.9904 35.2269 52.5932 35.2583C53.1961 35.2896 52.3256 32.2843 51.9518 31.7187C51.9518 31.7187 52.7274 32.1348 53.1045 33.3362C53.4816 34.5375 54.3909 41.9329 53.5397 42.8417C52.6884 43.7505 50.7278 43.9072 50.7278 43.9072L47.3779 43.425Z" fill="url(#paint24_linear_19_545)"/>
</g>
</g>
<g id="Group_14">
<g id="Group_15">
<g id="Group_16">
<g id="Group_17">
<g id="Group_18">
<g id="Group_19">
<path id="Vector_47" d="M15.6916 47.3608C16.1073 47.8654 16.5064 48.2341 16.9357 48.7084C14.2814 49.5073 11.871 50.7579 9.18143 51.5727C9.76921 48.0381 10.8842 46.1721 8.44605 42.7881C7.30188 41.2001 4.57574 38.4014 4.64811 36.4184C4.73055 34.1592 6.33721 34.137 5.29965 32.5202C3.67797 29.9933 3.92782 26.6019 8.13568 26.3589C12.2886 26.119 15.9094 36.1669 14.8113 39.6731C14.4821 42.8416 13.5213 44.7258 15.6916 47.3608Z" fill="url(#paint25_linear_19_545)"/>
<g id="Clip path group">
<mask id="mask0_19_545" style="mask-type:luminance" maskUnits="userSpaceOnUse" x="4" y="26" width="13" height="26">
<g id="SVGID_00000128480513088779825720000001894393692164565432_">
<path id="Vector_48" d="M15.6916 47.3608C16.1073 47.8654 16.5064 48.2341 16.9357 48.7084C14.2814 49.5073 11.871 50.7579 9.18143 51.5727C9.76921 48.0381 10.8842 46.1721 8.44605 42.7881C7.30188 41.2001 4.57574 38.4014 4.64811 36.4184C4.73055 34.1592 6.33721 34.137 5.29965 32.5202C3.67797 29.9933 3.92782 26.6019 8.13568 26.3589C12.2886 26.119 15.9094 36.1669 14.8113 39.6731C14.4821 42.8416 13.5213 44.7258 15.6916 47.3608Z" fill="white"/>
</g>
</mask>
<g mask="url(#mask0_19_545)">
<g id="Group_20" opacity="0.7">
<g id="Group_21">
<path id="Vector_49" d="M12.7537 49.8958L12.8128 49.8869C12.6579 48.8879 12.5806 47.8648 12.5059 46.8753L12.4774 46.4994C12.4163 45.7035 12.3473 44.9927 12.2864 44.3656C12.2523 44.0143 12.2199 43.6805 12.1912 43.3575C12.1035 42.3693 12.044 41.6776 12.0145 41.3338L11.9948 41.1067C11.7535 38.3971 10.4162 34.803 9.69781 32.872C9.62007 32.6631 9.55057 32.4763 9.4918 32.3155C8.48181 29.5513 7.76604 26.5557 7.36438 23.4119L7.30499 23.4193C7.7072 26.5675 8.42402 29.5673 9.43553 32.3355C9.49431 32.4965 9.56385 32.6834 9.64166 32.8924C10.3591 34.8208 11.6946 38.4101 11.9352 41.1118L11.9549 41.3388C11.9844 41.6827 12.0439 42.3744 12.1316 43.3626C12.1603 43.6858 12.1927 44.0198 12.2268 44.3712C12.2877 44.9981 12.3567 45.7085 12.4177 46.5038L12.4462 46.8797C12.5211 47.8703 12.5984 48.8946 12.7537 49.8958Z" fill="#FCFDFE"/>
<path id="Vector_50" d="M12.348 44.8831L12.4072 44.8751C12.1615 43.092 11.1455 41.0953 9.46916 39.1009C8.0729 37.4398 6.25671 35.84 4.48622 34.7117L4.4538 34.7613C7.88545 36.9482 11.8195 41.0485 12.348 44.8831Z" fill="#FCFDFE"/>
<path id="Vector_51" d="M9.76606 33.214L9.81528 33.1805C8.9205 31.9 7.85662 30.7238 6.82773 29.5864C6.12362 28.8079 5.39551 28.003 4.72758 27.1713L4.68073 27.208C5.34975 28.0411 6.07845 28.8467 6.78312 29.6258C7.8108 30.7619 8.87343 31.9366 9.76606 33.214Z" fill="#FCFDFE"/>
<path id="Vector_52" d="M11.3941 37.9811C11.4826 35.8199 12.5932 32.9659 13.7709 31.8735L13.73 31.8304C12.5428 32.9316 11.4233 35.8046 11.3344 37.9787L11.3941 37.9811Z" fill="#FCFDFE"/>
</g>
</g>
</g>
</g>
</g>
</g>
</g>
</g>
</g>
<g id="Group_22">
<g id="Clip path group_2">
<mask id="mask1_19_545" style="mask-type:luminance" maskUnits="userSpaceOnUse" x="1" y="35" width="23" height="20">
<g id="SVGID_00000119813402581191410870000012863897005968841385_">
<path id="Vector_53" d="M23.6572 35.4992H1.30371V54.6059H23.6572V35.4992Z" fill="white"/>
</g>
</mask>
<g mask="url(#mask1_19_545)">
<g id="Group_23">
<g id="Group_24">
<g id="Group_25">
<path id="Vector_54" d="M19.6235 62.7372C21.0105 62.0482 22.3861 61.3324 23.7493 60.5903C23.7791 60.5994 23.3191 57.8457 21.3311 57.0207C17.4196 55.444 18.5612 52.3798 18.6247 50.7814C18.814 48.4938 17.5687 46.5306 15.1146 47.365C12.377 48.2469 10.5552 44.7437 9.83578 41.2246C9.62512 39.4586 7.03185 38.1446 4.99504 38.3562C2.90151 38.5328 1.36445 40.2351 1.9563 43.6942C2.43337 47.773 6.60561 48.8558 8.52939 50.3036C10.4208 51.7239 8.1233 54.2299 11.0033 55.0615C13.4539 55.8389 16.2567 56.0286 16.0333 58.1754C15.7781 60.3101 16.5322 61.714 19.6235 62.7372Z" fill="url(#paint26_linear_19_545)"/>
<g id="Clip path group_3">
<mask id="mask2_19_545" style="mask-type:luminance" maskUnits="userSpaceOnUse" x="1" y="38" width="23" height="25">
<g id="SVGID_00000121967667263797244730000015412193036755613069_">
<path id="Vector_55" d="M19.6235 62.7372C21.0105 62.0482 22.3861 61.3324 23.7493 60.5903C23.7791 60.5994 23.3191 57.8457 21.3311 57.0207C17.4196 55.444 18.5612 52.3798 18.6247 50.7814C18.814 48.4938 17.5687 46.5306 15.1146 47.365C12.377 48.2469 10.5552 44.7437 9.83578 41.2246C9.62512 39.4586 7.03185 38.1446 4.99504 38.3562C2.90151 38.5328 1.36445 40.2351 1.9563 43.6942C2.43337 47.773 6.60561 48.8558 8.52939 50.3036C10.4208 51.7239 8.1233 54.2299 11.0033 55.0615C13.4539 55.8389 16.2567 56.0286 16.0333 58.1754C15.7781 60.3101 16.5322 61.714 19.6235 62.7372Z" fill="white"/>
</g>
</mask>
<g mask="url(#mask2_19_545)">
<g id="Group_26">
<path id="Vector_56" d="M21.6914 62.1767C21.6835 62.1536 18.3295 57.2047 14.0222 52.7563C13.3823 52.0165 12.7109 51.2792 12.0617 50.5661C8.44579 46.5948 5.03043 42.8438 5.22699 37.2568L5.13595 37.2638C4.93854 42.8768 8.36241 46.6372 11.9873 50.6184C12.6363 51.3312 13.3075 52.0683 13.948 52.8088C18.2786 57.2813 21.5884 62.1774 21.6048 62.2094L21.6914 62.1767Z" fill="#BEB8F2"/>
<path id="Vector_57" d="M8.7424 46.8748L8.78993 46.8039C6.64068 45.9041 3.93266 44.5023 2.47782 43.7492C1.30037 43.1397 1.29677 43.1413 1.25439 43.1629L1.27389 43.1959L1.26474 43.234C1.32122 43.2463 1.80799 43.4982 2.42418 43.8172C3.88006 44.5708 6.58996 45.9737 8.7424 46.8748Z" fill="#BEB8F2"/>
<path id="Vector_58" d="M7.54504 45.0128C7.26999 43.215 7.71147 41.8102 8.13029 40.9483C8.58649 40.0094 9.13683 39.4569 9.21438 39.4159L9.19849 39.3906L9.21554 39.3424C9.18947 39.3381 9.16648 39.3521 9.1331 39.3793C8.65552 39.769 6.97103 41.8704 7.45469 45.0319L7.54504 45.0128Z" fill="#BEB8F2"/>
<path id="Vector_59" d="M16.6129 55.7507L16.6965 55.7115C14.9927 52.5239 16.6413 48.4019 17.4292 46.7777C17.4715 46.6904 17.4851 46.6621 17.4888 46.6485L17.4003 46.6394L17.4446 46.644L17.4004 46.6392C17.3974 46.6488 17.3734 46.6982 17.3457 46.7553C16.7774 47.9267 16.3643 49.0928 16.1175 50.2212C15.6437 52.3889 15.8103 54.2493 16.6129 55.7507Z" fill="#BEB8F2"/>
<path id="Vector_60" d="M9.12223 53.8054L9.10647 53.7713L9.10483 53.8098L9.06226 53.7853L9.08263 53.7402C9.08274 53.7401 9.08291 53.7401 9.08315 53.74C9.14066 53.7135 12.8568 52.5838 15.4254 54.2687L15.3648 54.3327C12.8218 52.6646 9.15671 53.7924 9.12223 53.8054Z" fill="#BEB8F2"/>
</g>
</g>
</g>
</g>
</g>
</g>
</g>
</g>
</g>
</g>
<g id="Group_27">
<g id="Group_28">
<path id="Vector_61" d="M17.7863 39.7077H15.9282H15.2415H13.9783C13.5885 39.7077 13.2572 39.9407 13.1425 40.2725L10.6544 47.5165V57.3912L15.353 56.8786L16.0468 56.8024L20.4175 56.3265L20.306 47.031L17.7863 39.7077Z" fill="url(#paint27_linear_19_545)"/>
<path id="Vector_62" d="M18.796 40.2532C18.685 39.9335 18.3661 39.7077 17.9974 39.7077H16.7783H16.099H14.8496C14.464 39.7077 14.1329 39.9396 14.0199 40.2694L11.5646 47.4605L11.5758 57.2824L16.2141 56.7806L16.9071 56.7066L21.2524 56.2347L21.1338 47.002L18.796 40.2532Z" fill="url(#paint28_linear_19_545)"/>
</g>
<path id="Vector_63" d="M16.156 41.4061V41.3324C16.156 41.33 16.1328 41.3213 16.116 41.32C15.8191 41.2965 15.5821 41.668 15.5821 42.1502C15.5821 42.6324 15.8169 43.0404 16.1138 43.0605C16.1306 43.0616 16.156 43.059 16.156 43.0566V43.0243L35.8259 44.358V42.9447L16.156 41.4061Z" fill="url(#paint29_linear_19_545)"/>
<g id="Group_29">
<path id="Vector_64" d="M39.5941 53.072L20.5271 50.8882V46.6741L39.5941 48.9025V53.072Z" fill="url(#paint30_linear_19_545)"/>
<path id="Vector_65" opacity="0.6" d="M39.5941 49.4748L20.5271 47.2525V46.6741L39.5941 48.9025V49.4748Z" fill="white"/>
</g>
<g id="Group_30">
<g id="Group_31">
<path id="Vector_66" d="M30.5797 58.6699L29.0241 57.8033L29.0112 56.04L27.4556 55.1733L27.4453 53.4091L25.888 52.5417L25.8751 50.7784L24.337 49.9106L24.3384 49.8982L24.3296 49.8943L24.3249 49.8907L24.336 48.0885L22.8509 47.1826L22.8386 47.1772L22.7798 47.1812L22.7672 47.2043L22.7465 45.4955L21.2542 44.6754L21.2397 44.6564L21.2283 42.9084L19.7178 42.0679L19.6705 41.9908L19.6591 40.2802L18.1812 39.4561L18.1022 39.3234L18.0906 37.6502L16.6497 36.8468L16.5329 36.6535L16.5222 35.0203L15.1132 34.2351L15.0285 34.0915L15.2247 34.0449L21.2653 32.5747L23.1587 32.1142L33.3457 56.7208L32.6913 57.1833L30.5797 58.6699Z" fill="#97A6B7"/>
<path id="Vector_67" d="M32.6913 57.1833L21.2653 32.5747L23.1587 32.1142L33.3457 56.7208L32.6913 57.1833Z" fill="white"/>
</g>
<path id="Vector_68" d="M23.6474 31.7307L20.4904 23.8028C20.3698 23.5006 20.0668 23.3085 19.739 23.3264L19.0886 23.3621C19.0675 23.3629 19.0471 23.3651 19.0261 23.3681C18.7103 23.4105 18.4511 23.645 18.3847 23.9583L18.2257 24.7049C18.1662 24.9803 17.9567 25.2007 17.6823 25.2758L12.8432 26.5933C11.7776 26.8836 11.1506 27.9718 11.443 29.0257L12.4958 32.8189C12.6111 33.2372 12.8794 33.5982 13.2479 33.8334L15.4877 35.2618C15.643 35.3608 15.8231 35.4091 16.004 35.4039C16.0997 35.4017 16.1954 35.3839 16.2881 35.3504L23.1146 32.8978C23.3444 32.8159 23.5298 32.6455 23.63 32.4251C23.731 32.2056 23.737 31.9555 23.6474 31.7307ZM20.3871 30.6507L15.6332 32.5026C15.4922 32.5569 15.3355 32.5517 15.1991 32.4877C15.0627 32.4244 14.9594 32.3076 14.9134 32.1654L13.8652 28.9335C13.8207 28.7973 13.8335 28.6491 13.8998 28.5219C13.9669 28.3946 14.0814 28.2985 14.2201 28.2554L19.1459 26.7146C19.2861 26.6707 19.4375 26.6849 19.5664 26.7526C19.696 26.8203 19.7925 26.9364 19.8339 27.0756L20.7097 29.9964C20.7903 30.2643 20.6501 30.5479 20.3871 30.6507Z" fill="url(#paint31_linear_19_545)"/>
<path id="Vector_69" opacity="0.3" d="M19.2459 24.2754C19.0447 25.0942 18.9693 26.1169 17.7137 26.1385C16.4574 26.1608 12.1368 27.2029 12.1866 28.245C12.2371 29.287 13.0909 33.2149 13.6938 33.4345C13.6938 33.4345 15.9389 34.9663 16.0037 35.404C15.8229 35.4092 15.6427 35.3608 15.4875 35.2618L13.2477 33.8334C12.8792 33.5982 12.6108 33.2372 12.4956 32.8189L11.4427 29.0258C11.1503 27.9718 11.7773 26.8836 12.843 26.5933L17.6821 25.2758C17.9564 25.2006 18.1659 24.9803 18.2255 24.7049L18.3845 23.9584C18.4508 23.645 18.7101 23.4105 19.0258 23.3681C19.2014 23.5959 19.3371 23.9047 19.2459 24.2754Z" fill="url(#paint32_linear_19_545)"/>
</g>
<g id="Group_32">
<path id="Vector_70" d="M23.2959 45.683C23.1158 45.9421 23.1824 46.2963 23.4446 46.4742L23.5302 46.5322C23.7925 46.7101 24.1511 46.6444 24.3313 46.3854L30.9253 36.9028C31.1054 36.6438 31.0388 36.2896 30.7766 36.1117L30.691 36.0536C30.4287 35.8757 30.0701 35.9415 29.8899 36.2005L23.2959 45.683Z" fill="url(#paint33_linear_19_545)"/>
<path id="Vector_71" d="M21.8772 44.6203C21.6971 44.8793 21.7637 45.2335 22.0259 45.4114L25.0204 47.4427C25.2827 47.6206 25.6413 47.5548 25.8214 47.2958L26.1172 46.8704C26.2974 46.6113 26.2308 46.2571 25.9685 46.0792L22.974 44.048C22.7118 43.8701 22.3531 43.9359 22.173 44.1949L21.8772 44.6203Z" fill="url(#paint34_linear_19_545)"/>
<path id="Vector_72" d="M20.9644 44.7852L14.5501 54.0092C14.3976 54.2284 14.3351 54.4834 14.3521 54.7302C14.3747 55.0653 14.5487 55.3887 14.8507 55.5935L17.977 57.7142C18.5013 58.0698 19.2189 57.9383 19.579 57.4204L25.9933 48.1964C26.2564 47.818 26.2569 47.3365 26.0328 46.967C25.9508 46.8303 25.8386 46.7077 25.6973 46.6119L22.5711 44.4913C22.0467 44.1356 21.3245 44.2673 20.9644 44.7852Z" fill="url(#paint35_linear_19_545)"/>
<g id="Group_33" opacity="0.5">
<path id="Vector_73" d="M18.1676 55.6936C18.0367 55.8819 18.0851 56.1393 18.2757 56.2686C18.4663 56.3979 18.7269 56.3501 18.8578 56.1618L24.1741 48.5169C24.305 48.3286 24.2566 48.0712 24.066 47.9419C23.8754 47.8126 23.6147 47.8604 23.4838 48.0487L18.1676 55.6936Z" fill="url(#paint36_linear_19_545)"/>
<path id="Vector_74" d="M15.9983 54.2221C15.8674 54.4104 15.9158 54.6678 16.1064 54.7971C16.297 54.9264 16.5576 54.8786 16.6885 54.6903L22.0048 47.0454C22.1357 46.8571 22.0873 46.5997 21.8967 46.4704C21.7061 46.3411 21.4454 46.3889 21.3145 46.5772L15.9983 54.2221Z" fill="url(#paint37_linear_19_545)"/>
</g>
<path id="Vector_75" d="M29.9987 34.6545L31.9184 32.8249C32.004 32.7433 32.1352 32.7335 32.2333 32.8001L32.6136 33.058L32.9302 33.2727L33.3156 33.5342C33.4137 33.6007 33.4516 33.7252 33.4052 33.8335L32.365 36.2603C32.3327 36.3358 32.277 36.3988 32.2057 36.4407L31.6081 36.7861C31.413 36.9007 31.1748 36.8834 30.9876 36.7565L30.6614 36.5352L30.3449 36.3205L30.0239 36.1027C29.8367 35.9758 29.735 35.7623 29.7732 35.5413L29.8885 34.8617C29.9025 34.7809 29.939 34.7113 29.9987 34.6545Z" fill="url(#paint38_linear_19_545)"/>
<path id="Vector_76" opacity="0.3" d="M14.3536 54.7312C14.3763 55.0664 14.5487 55.3887 14.8507 55.5935L17.977 57.7142C18.5013 58.0699 19.2189 57.9383 19.579 57.4204L25.9933 48.1964C26.2564 47.818 26.2562 47.3376 26.032 46.9681C25.7129 47.6674 25.2801 48.7077 24.5559 49.0908C23.865 49.4562 22.6589 50.4788 22.2665 51.8807C21.874 53.2826 20.401 55.936 18.9468 56.2726C17.4931 56.6094 16.3652 56.836 14.3536 54.7312Z" fill="url(#paint39_linear_19_545)"/>
</g>
<g id="Group_34">
<path id="Vector_77" d="M30.4751 53.4645L11.4835 51.2807V47.0667L30.4751 49.295V53.4645Z" fill="url(#paint40_linear_19_545)"/>
<path id="Vector_78" opacity="0.6" d="M30.4751 49.8673L11.4835 47.645V47.0667L30.4751 49.2951V49.8673Z" fill="white"/>
</g>
<g id="Group_35">
<path id="Vector_79" d="M30.4751 59.4325L11.4835 57.3127V53.0986L30.4751 55.2631V59.4325Z" fill="url(#paint41_linear_19_545)"/>
<path id="Vector_80" opacity="0.6" d="M30.4751 55.9171L11.4835 53.7596V53.0986L30.4751 55.2631V55.9171Z" fill="white"/>
</g>
<g id="Group_36">
<path id="Vector_81" d="M37.6179 40.9732H35.763H35.0767H33.8134C33.4232 40.9732 33.0864 41.2336 32.9708 41.5847L30.4751 49.2151V59.4327L35.0821 58.8772L35.7773 58.7939L40.1141 58.2699L40.0954 48.6929L37.6179 40.9732Z" fill="url(#paint42_linear_19_545)"/>
<path id="Vector_82" d="M40.6941 48.6654L40.7154 58.1973L31.1815 59.3501L31.18 49.1788L33.6647 41.5821C33.7785 41.2328 34.1242 40.973 34.5109 40.973H37.6627C38.0313 40.973 38.3362 41.225 38.4438 41.5627L40.6941 48.6654Z" fill="url(#paint43_linear_19_545)"/>
<path id="Vector_83" d="M36.9525 43.5627C36.9531 43.9913 36.7273 44.344 36.4473 44.3505C36.1662 44.3569 35.9372 44.0122 35.9366 43.5807C35.9361 43.1491 36.1643 42.7966 36.4453 42.7931C36.7252 42.7897 36.9519 43.1342 36.9525 43.5627Z" fill="url(#paint44_linear_19_545)"/>
<path id="Vector_84" opacity="0.2" d="M40.6942 48.741L40.7154 58.1973L31.5965 59.3C31.5781 57.9719 31.8852 56.551 33.1859 55.7169C34.1845 55.0753 35.5651 55.3328 36.437 54.5795C37.1372 53.974 37.1543 52.9698 37.3226 52.1824C37.6995 50.4307 39.2481 50.1829 40.4061 49.0526C40.4877 48.9723 40.5457 48.8674 40.6942 48.741Z" fill="url(#paint45_linear_19_545)"/>
</g>
</g>
<g id="Group_37">
<path id="Vector_85" d="M54.0423 15.0181C54.5595 15.2775 55.2093 15.0393 55.4936 14.4862C55.778 13.9331 55.5892 13.2744 55.072 13.015C55.0452 13.0016 55.0179 12.9903 54.9904 12.9795C55.0865 12.6734 55.1589 12.3649 55.2075 12.0564C55.2372 12.0563 55.2669 12.0558 55.2972 12.0531C55.8873 12.0012 56.3556 11.4656 56.3433 10.8569C56.3309 10.2482 55.8425 9.79684 55.2524 9.84881C55.2216 9.85154 55.1913 9.85633 55.1611 9.86164C55.0995 9.55999 55.0151 9.2653 54.9085 8.9801C54.9356 8.96443 54.9626 8.94821 54.989 8.92995C55.4939 8.58062 55.6553 7.89113 55.3495 7.38996C55.0438 6.88876 54.3866 6.7657 53.8818 7.11503C53.8559 7.13295 53.8316 7.15227 53.8075 7.17189C53.6081 6.95419 53.3894 6.7524 53.1528 6.56827C53.1694 6.54131 53.1857 6.51403 53.2004 6.48538C53.4848 5.93226 53.8564 5.32803 53.3351 5.07671C52.1292 4.4953 51.6118 4.993 51.3274 5.54614C51.3127 5.5748 51.3 5.60389 51.2878 5.63304C50.9976 5.55302 50.7036 5.49771 50.408 5.46718C50.4098 5.43643 50.4113 5.40561 50.4107 5.37441C50.3983 4.76572 50.5812 4.43632 49.9888 4.42494C48.6971 4.40014 48.2613 4.95386 48.2737 5.56253C48.2744 5.59436 48.277 5.62545 48.2802 5.65635C47.9842 5.73967 47.6935 5.84624 47.4106 5.9751C47.3971 5.94795 47.3832 5.92096 47.3672 5.89476C47.0614 5.39358 46.4043 5.2705 45.8994 5.61987C45.3945 5.96922 45.2331 6.65868 45.5389 7.15986C45.5545 7.18554 45.5717 7.20954 45.5891 7.23324C45.3656 7.45409 45.1562 7.69387 44.9627 7.95112C44.9377 7.93562 44.9123 7.92046 44.8855 7.90703C44.3683 7.64766 43.7185 7.88581 43.4341 8.43895C43.1498 8.99207 43.3386 9.65075 43.8558 9.91009C43.8826 9.92354 43.9099 9.93482 43.9374 9.94562C43.8413 10.2517 43.7688 10.5602 43.7203 10.8687C43.6906 10.8688 43.6608 10.8693 43.6307 10.8719C43.0405 10.9239 42.5722 11.4595 42.5845 12.0682C42.5969 12.6769 43.0853 13.1282 43.6754 13.0763C43.7062 13.0736 43.7365 13.0688 43.7666 13.0635C43.8283 13.3651 43.9127 13.6598 44.0193 13.945C43.9921 13.9607 43.9651 13.9769 43.9387 13.9952C43.4339 14.3445 43.2725 15.034 43.5782 15.5352C43.884 16.0364 44.8962 16.2692 45.4011 15.9199C45.4269 15.902 45.0962 15.7729 45.1202 15.7532C45.3196 15.971 45.5383 16.1727 45.7749 16.3569C45.7583 16.3838 45.742 16.4111 45.7273 16.4397C45.443 16.9929 45.6317 17.6515 46.149 17.9109C46.6662 18.1703 47.316 17.9321 47.6004 17.379C47.6151 17.3503 47.6278 17.3212 47.64 17.2921C47.9301 17.3721 48.2241 17.4274 48.5198 17.4579C48.5179 17.4887 48.5165 17.5195 48.5171 17.5507C48.5295 18.1594 49.0178 18.6107 49.6079 18.5588C50.198 18.5068 50.6664 17.9712 50.6541 17.3626C50.6534 17.3307 50.6507 17.2996 50.6475 17.2688C50.9435 17.1854 51.2343 17.0789 51.5172 16.95C51.5306 16.9772 51.5446 17.0041 51.5606 17.0303C51.8663 17.5315 52.5234 17.6546 53.0283 17.3053C53.5332 16.9559 53.6946 16.2664 53.3889 15.7652C53.3732 15.7396 53.356 15.7156 53.3386 15.6919C53.5622 15.4711 53.7715 15.2313 53.965 14.974C53.9901 14.9895 54.0155 15.0047 54.0423 15.0181ZM47.5946 15.0989C45.7167 14.1572 45.0312 11.7658 46.0636 9.75749C47.096 7.74918 49.4553 6.88454 51.3333 7.82621C53.2112 8.7679 53.8966 11.1593 52.8642 13.1676C51.8318 15.1759 49.4725 16.0406 47.5946 15.0989Z" fill="url(#paint46_linear_19_545)"/>
<path id="Vector_86" d="M55.2972 12.0532C55.8873 12.0012 56.3556 11.4656 56.3433 10.8569C56.3309 10.2482 55.8425 9.79684 55.2524 9.84881C55.2216 9.85152 55.1913 9.85635 55.1611 9.86161C55.0995 9.55994 55.0151 9.2653 54.9085 8.98008C54.9356 8.96443 54.9626 8.94819 54.989 8.92993C55.4939 8.5806 56.1185 7.7365 55.7623 7.26895C55.0863 6.38157 54.3867 6.76568 53.8818 7.11501C53.8559 7.13293 53.8316 7.15225 53.8075 7.17185C53.6081 6.95412 53.3894 6.75238 53.1528 6.56825C53.1694 6.54131 53.1857 6.51404 53.2004 6.48538C53.3552 6.18433 53.3689 5.85243 53.2666 5.57025C52.779 6.41793 52.2979 7.26916 51.8255 8.12501C53.3236 9.20926 53.8006 11.346 52.8641 13.1676C52.0706 14.7113 50.4932 15.5781 48.9529 15.4695C48.8842 15.6454 48.8168 15.8224 48.7432 15.9967C48.5435 16.4696 48.3167 16.9329 48.0896 17.3955C48.2324 17.4221 48.3759 17.443 48.5198 17.4579C48.5179 17.4887 48.5165 17.5195 48.5171 17.5507C48.5294 18.1594 48.9036 18.6766 49.9731 18.6205C50.5647 18.5896 50.6664 17.9713 50.654 17.3625C50.6534 17.3307 50.6507 17.2996 50.6475 17.2687C50.9435 17.1854 51.2342 17.0788 51.5172 16.95C51.5306 16.9771 51.5446 17.0041 51.5605 17.0303C51.8663 17.5315 52.927 17.7444 53.4318 17.3951C53.9367 17.0457 53.6946 16.2664 53.3888 15.7652C53.3732 15.7395 53.356 15.7155 53.3386 15.6918C53.5621 15.471 53.7715 15.2312 53.965 14.974C53.99 14.9895 54.0154 15.0046 54.0422 15.018C54.5594 15.2774 55.2092 15.0393 55.4936 14.4861C55.7779 13.933 55.5891 13.2743 55.0719 13.015C55.0451 13.0015 55.0178 12.9902 54.9903 12.9794C55.0864 12.6734 55.1589 12.3649 55.2075 12.0563C55.2372 12.0563 55.2669 12.0558 55.2972 12.0532Z" fill="url(#paint47_linear_19_545)"/>
<path id="Vector_87" d="M54.5986 15.0806C55.1158 15.34 55.7656 15.1018 56.05 14.5487C56.3343 13.9956 56.1455 13.3369 55.6283 13.0775C55.6015 13.0641 55.5742 13.0528 55.5467 13.042C55.6428 12.7359 55.7153 12.4275 55.7639 12.1189C55.7935 12.1188 55.8233 12.1183 55.8535 12.1156C56.4436 12.0637 56.9119 11.5282 56.8996 10.9194C56.8872 10.3107 56.3988 9.85935 55.8087 9.91129C55.7779 9.91403 55.7476 9.91882 55.7175 9.92412C55.6558 9.62245 55.5714 9.32779 55.4648 9.04259C55.4919 9.02692 55.519 9.0107 55.5453 8.99244C56.0502 8.64311 56.2116 7.9536 55.9059 7.45243C55.6001 6.95125 54.943 6.82817 54.4381 7.17749C54.4122 7.19541 54.3879 7.21473 54.3639 7.23436C54.1645 7.01665 53.9458 6.81488 53.7091 6.63075C53.7258 6.60382 53.742 6.5765 53.7568 6.54786C54.0411 5.99474 53.8523 5.33607 53.3351 5.07671C52.8179 4.81734 52.1681 5.05549 51.8837 5.60863C51.869 5.63729 51.8563 5.66638 51.8441 5.69553C51.5539 5.61551 51.26 5.5602 50.9643 5.52967C50.9662 5.49889 50.9676 5.4681 50.967 5.4369C50.9546 4.82821 50.4662 4.37687 49.8761 4.42881C49.286 4.48076 48.8177 5.01633 48.83 5.62502C48.8306 5.65685 48.8333 5.68792 48.8365 5.71882C48.5405 5.80216 48.2498 5.9087 47.9668 6.03757C47.9534 6.01042 47.9395 5.98344 47.9235 5.95722C47.6177 5.45605 46.9606 5.33296 46.4557 5.68231C45.9508 6.03168 45.7895 6.72115 46.0952 7.22232C46.1109 7.24798 46.128 7.272 46.1455 7.2957C45.9219 7.51653 45.7125 7.75632 45.519 8.01357C45.494 7.99806 45.4686 7.98293 45.4418 7.96949C44.9246 7.71011 44.2748 7.94827 43.9905 8.5014C43.7061 9.05454 43.8949 9.71319 44.4121 9.97256C44.4389 9.98599 44.4663 9.99729 44.4937 10.0081C44.3976 10.3142 44.3252 10.6226 44.2766 10.9312C44.2469 10.9313 44.2172 10.9318 44.187 10.9344C43.5969 10.9864 43.1285 11.522 43.1409 12.1307C43.1532 12.7394 43.6416 13.1907 44.2317 13.1388C44.2626 13.136 44.2929 13.1313 44.323 13.126C44.3846 13.4276 44.4691 13.7223 44.5756 14.0075C44.5485 14.0232 44.5215 14.0394 44.4951 14.0576C43.9902 14.407 43.8288 15.0965 44.1346 15.5976C44.4403 16.0988 45.0975 16.2219 45.6023 15.8726C45.6282 15.8546 45.6525 15.8353 45.6766 15.8157C45.876 16.0334 46.0947 16.2352 46.3313 16.4193C46.3147 16.4463 46.2984 16.4736 46.2837 16.5022C45.9993 17.0553 46.1881 17.714 46.7053 17.9734C47.2225 18.2327 47.8724 17.9946 48.1567 17.4415C48.1714 17.4128 48.1841 17.3837 48.1963 17.3545C48.4865 17.4345 48.7805 17.4899 49.0761 17.5204C49.0743 17.5512 49.0728 17.582 49.0734 17.6132C49.0858 18.2219 49.5742 18.6732 50.1643 18.6213C50.7544 18.5693 51.2228 18.0337 51.2104 17.425C51.2098 17.3932 51.2071 17.3621 51.2039 17.3312C51.4999 17.2479 51.7906 17.1414 52.0736 17.0125C52.087 17.0396 52.101 17.0666 52.117 17.0928C52.4227 17.594 53.0798 17.7171 53.5847 17.3677C54.0896 17.0184 54.251 16.3289 53.9452 15.8277C53.9296 15.802 53.9124 15.778 53.895 15.7543C54.1186 15.5335 54.3279 15.2937 54.5214 15.0364C54.5464 15.052 54.5718 15.0672 54.5986 15.0806ZM48.1509 15.1614C46.273 14.2197 45.5876 11.8283 46.62 9.81999C47.6524 7.81169 50.0117 6.94705 51.8896 7.88874C53.7675 8.83043 54.4529 11.2219 53.4205 13.2302C52.3881 15.2385 50.0289 16.1031 48.1509 15.1614Z" fill="url(#paint48_linear_19_545)"/>
</g>
</g>
</g>
<defs>
<linearGradient id="paint0_linear_19_545" x1="43.7796" y1="30.4489" x2="49.7641" y2="30.4489" gradientUnits="userSpaceOnUse">
<stop offset="0.0036" stop-color="#E38DDD"/>
<stop offset="1" stop-color="#9571F6"/>
</linearGradient>
<linearGradient id="paint1_linear_19_545" x1="43.7795" y1="30.4166" x2="48.4686" y2="30.4166" gradientUnits="userSpaceOnUse">
<stop offset="0.0036" stop-color="#E38DDD"/>
<stop offset="1" stop-color="#9571F6"/>
</linearGradient>
<linearGradient id="paint2_linear_19_545" x1="41.0507" y1="26.5165" x2="39.5026" y2="25.8405" gradientUnits="userSpaceOnUse">
<stop stop-color="#311944"/>
<stop offset="0.5554" stop-color="#6F2B60"/>
<stop offset="1" stop-color="#A03976"/>
</linearGradient>
<linearGradient id="paint3_linear_19_545" x1="37.5295" y1="21.0493" x2="33.0895" y2="19.1104" gradientUnits="userSpaceOnUse">
<stop stop-color="#311944"/>
<stop offset="0.5554" stop-color="#6F2B60"/>
<stop offset="1" stop-color="#A03976"/>
</linearGradient>
<linearGradient id="paint4_linear_19_545" x1="39.6628" y1="19.3002" x2="38.0726" y2="24.5775" gradientUnits="userSpaceOnUse">
<stop stop-color="#FFC444"/>
<stop offset="0.9964" stop-color="#F36F56"/>
</linearGradient>
<linearGradient id="paint5_linear_19_545" x1="39.6628" y1="19.3002" x2="38.0726" y2="24.5775" gradientUnits="userSpaceOnUse">
<stop stop-color="#FFC444"/>
<stop offset="0.9964" stop-color="#F36F56"/>
</linearGradient>
<linearGradient id="paint6_linear_19_545" x1="44.9978" y1="20.8914" x2="43.1968" y2="26.8681" gradientUnits="userSpaceOnUse">
<stop stop-color="#FFC444"/>
<stop offset="0.9964" stop-color="#F36F56"/>
</linearGradient>
<linearGradient id="paint7_linear_19_545" x1="47.8649" y1="22.4962" x2="46.2684" y2="27.7941" gradientUnits="userSpaceOnUse">
<stop stop-color="#FFC444"/>
<stop offset="0.9964" stop-color="#F36F56"/>
</linearGradient>
<linearGradient id="paint8_linear_19_545" x1="43.8566" y1="21.7001" x2="43.5032" y2="22.873" gradientUnits="userSpaceOnUse">
<stop stop-color="#FFC444"/>
<stop offset="0.9964" stop-color="#F36F56"/>
</linearGradient>
<linearGradient id="paint9_linear_19_545" x1="44.6012" y1="32.8663" x2="37.8105" y2="29.901" gradientUnits="userSpaceOnUse">
<stop stop-color="#FFC444"/>
<stop offset="0.9964" stop-color="#F36F56"/>
</linearGradient>
<linearGradient id="paint10_linear_19_545" x1="47.4501" y1="54.3195" x2="46.4221" y2="54.1423" gradientUnits="userSpaceOnUse">
<stop offset="0.0036" stop-color="#F36F56"/>
<stop offset="1" stop-color="#FFC444"/>
</linearGradient>
<linearGradient id="paint11_linear_19_545" x1="46.1835" y1="49.7989" x2="47.2437" y2="59.6028" gradientUnits="userSpaceOnUse">
<stop stop-color="#444B8C"/>
<stop offset="0.9964" stop-color="#26264F"/>
</linearGradient>
<linearGradient id="paint12_linear_19_545" x1="44.163" y1="45.4241" x2="52.9228" y2="52.7096" gradientUnits="userSpaceOnUse">
<stop offset="0.0036" stop-color="#26264F"/>
<stop offset="1" stop-color="#444B8C"/>
</linearGradient>
<linearGradient id="paint13_linear_19_545" x1="54.6613" y1="48.6803" x2="57.7997" y2="56.8368" gradientUnits="userSpaceOnUse">
<stop stop-color="#444B8C"/>
<stop offset="0.9964" stop-color="#26264F"/>
</linearGradient>
<linearGradient id="paint14_linear_19_545" x1="59.2939" y1="57.9381" x2="58.0684" y2="58.0549" gradientUnits="userSpaceOnUse">
<stop offset="0.0036" stop-color="#F36F56"/>
<stop offset="1" stop-color="#FFC444"/>
</linearGradient>
<linearGradient id="paint15_linear_19_545" x1="40.1007" y1="51.5598" x2="51.0043" y2="47.8324" gradientUnits="userSpaceOnUse">
<stop offset="0.0036" stop-color="#26264F"/>
<stop offset="1" stop-color="#444B8C"/>
</linearGradient>
<linearGradient id="paint16_linear_19_545" x1="51.4382" y1="45.4003" x2="57.6244" y2="57.9577" gradientUnits="userSpaceOnUse">
<stop offset="0.0036" stop-color="#26264F"/>
<stop offset="1" stop-color="#444B8C"/>
</linearGradient>
<linearGradient id="paint17_linear_19_545" x1="52.2279" y1="45.3481" x2="58.2856" y2="57.6448" gradientUnits="userSpaceOnUse">
<stop offset="0.0036" stop-color="#26264F"/>
<stop offset="1" stop-color="#444B8C"/>
</linearGradient>
<linearGradient id="paint18_linear_19_545" x1="50.688" y1="29.5363" x2="50.6134" y2="26.9706" gradientUnits="userSpaceOnUse">
<stop stop-color="#444B8C"/>
<stop offset="0.9964" stop-color="#26264F"/>
</linearGradient>
<linearGradient id="paint19_linear_19_545" x1="50.2633" y1="27.1577" x2="49.5696" y2="37.6929" gradientUnits="userSpaceOnUse">
<stop offset="0.0036" stop-color="#F36F56"/>
<stop offset="1" stop-color="#FFC444"/>
</linearGradient>
<linearGradient id="paint20_linear_19_545" x1="52.1151" y1="28.3328" x2="49.6118" y2="29.8879" gradientUnits="userSpaceOnUse">
<stop offset="0.0036" stop-color="#F36F56"/>
<stop offset="1" stop-color="#FFC444"/>
</linearGradient>
<linearGradient id="paint21_linear_19_545" x1="40.2183" y1="27.7488" x2="40.6351" y2="29.0964" gradientUnits="userSpaceOnUse">
<stop offset="0.0036" stop-color="#F36F56"/>
<stop offset="1" stop-color="#FFC444"/>
</linearGradient>
<linearGradient id="paint22_linear_19_545" x1="39.8077" y1="35.4636" x2="53.9886" y2="35.4636" gradientUnits="userSpaceOnUse">
<stop offset="0.0036" stop-color="#E38DDD"/>
<stop offset="1" stop-color="#9571F6"/>
</linearGradient>
<linearGradient id="paint23_linear_19_545" x1="40.6126" y1="37.8345" x2="50.4579" y2="37.8345" gradientUnits="userSpaceOnUse">
<stop offset="0.0036" stop-color="#E38DDD"/>
<stop offset="1" stop-color="#9571F6"/>
</linearGradient>
<linearGradient id="paint24_linear_19_545" x1="45.2914" y1="37.2082" x2="53.8924" y2="37.2082" gradientUnits="userSpaceOnUse">
<stop offset="0.0036" stop-color="#26264F"/>
<stop offset="1" stop-color="#444B8C"/>
</linearGradient>
<linearGradient id="paint25_linear_19_545" x1="10.6793" y1="38.5201" x2="9.28256" y2="73.7469" gradientUnits="userSpaceOnUse">
<stop offset="0.0036" stop-color="#E38DDD"/>
<stop offset="1" stop-color="#9571F6"/>
</linearGradient>
<linearGradient id="paint26_linear_19_545" x1="15.8861" y1="42.2569" x2="10.016" y2="59.1489" gradientUnits="userSpaceOnUse">
<stop stop-color="#AA80F9"/>
<stop offset="0.9964" stop-color="#6165D7"/>
</linearGradient>
<linearGradient id="paint27_linear_19_545" x1="18.4092" y1="39.8524" x2="13.9492" y2="59.0581" gradientUnits="userSpaceOnUse">
<stop stop-color="#FFC444"/>
<stop offset="0.9964" stop-color="#F36F56"/>
</linearGradient>
<linearGradient id="paint28_linear_19_545" x1="11.5646" y1="48.495" x2="21.2524" y2="48.495" gradientUnits="userSpaceOnUse">
<stop stop-color="#FFC444"/>
<stop offset="0.9964" stop-color="#F36F56"/>
</linearGradient>
<linearGradient id="paint29_linear_19_545" x1="26.2857" y1="40.7293" x2="25.2023" y2="45.3946" gradientUnits="userSpaceOnUse">
<stop stop-color="#FFC444"/>
<stop offset="0.9964" stop-color="#F36F56"/>
</linearGradient>
<linearGradient id="paint30_linear_19_545" x1="20.5271" y1="49.873" x2="39.5941" y2="49.873" gradientUnits="userSpaceOnUse">
<stop stop-color="#FFC444"/>
<stop offset="0.9964" stop-color="#F36F56"/>
</linearGradient>
<linearGradient id="paint31_linear_19_545" x1="22.9545" y1="33.3384" x2="12.5743" y2="25.3201" gradientUnits="userSpaceOnUse">
<stop stop-color="#FF9085"/>
<stop offset="1" stop-color="#FB6FBB"/>
</linearGradient>
<linearGradient id="paint32_linear_19_545" x1="19.3728" y1="31.0424" x2="12.5026" y2="25.7357" gradientUnits="userSpaceOnUse">
<stop stop-color="#FF9085"/>
<stop offset="1" stop-color="#FB6FBB"/>
</linearGradient>
<linearGradient id="paint33_linear_19_545" x1="23.1125" y1="46.2129" x2="30.9882" y2="36.2774" gradientUnits="userSpaceOnUse">
<stop stop-color="#40447E"/>
<stop offset="0.9964" stop-color="#3C3B6B"/>
</linearGradient>
<linearGradient id="paint34_linear_19_545" x1="26.6204" y1="41.9729" x2="23.8149" y2="46.109" gradientUnits="userSpaceOnUse">
<stop offset="0.0036" stop-color="#E38DDD"/>
<stop offset="1" stop-color="#9571F6"/>
</linearGradient>
<linearGradient id="paint35_linear_19_545" x1="22.7871" y1="52.8073" x2="17.7981" y2="49.3382" gradientUnits="userSpaceOnUse">
<stop offset="0.0036" stop-color="#E38DDD"/>
<stop offset="1" stop-color="#9571F6"/>
</linearGradient>
<linearGradient id="paint36_linear_19_545" x1="16.596" y1="57.7349" x2="25.739" y2="46.2008" gradientUnits="userSpaceOnUse">
<stop offset="0.0036" stop-color="#E38DDD"/>
<stop offset="1" stop-color="#9571F6"/>
</linearGradient>
<linearGradient id="paint37_linear_19_545" x1="14.5498" y1="56.1119" x2="23.6928" y2="44.5778" gradientUnits="userSpaceOnUse">
<stop offset="0.0036" stop-color="#E38DDD"/>
<stop offset="1" stop-color="#9571F6"/>
</linearGradient>
<linearGradient id="paint38_linear_19_545" x1="30.4126" y1="36.4131" x2="32.9347" y2="33.2314" gradientUnits="userSpaceOnUse">
<stop stop-color="#40447E"/>
<stop offset="0.9964" stop-color="#3C3B6B"/>
</linearGradient>
<linearGradient id="paint39_linear_19_545" x1="16.375" y1="56.806" x2="24.8906" y2="46.0634" gradientUnits="userSpaceOnUse">
<stop offset="0.0036" stop-color="#E38DDD"/>
<stop offset="1" stop-color="#9571F6"/>
</linearGradient>
<linearGradient id="paint40_linear_19_545" x1="11.4835" y1="50.2656" x2="30.4751" y2="50.2656" gradientUnits="userSpaceOnUse">
<stop stop-color="#FFC444"/>
<stop offset="0.9964" stop-color="#F36F56"/>
</linearGradient>
<linearGradient id="paint41_linear_19_545" x1="11.4835" y1="56.2655" x2="30.4751" y2="56.2655" gradientUnits="userSpaceOnUse">
<stop stop-color="#FFC444"/>
<stop offset="0.9964" stop-color="#F36F56"/>
</linearGradient>
<linearGradient id="paint42_linear_19_545" x1="38.0654" y1="40.6774" x2="35.4671" y2="53.2371" gradientUnits="userSpaceOnUse">
<stop stop-color="#FFC444"/>
<stop offset="0.9964" stop-color="#F36F56"/>
</linearGradient>
<linearGradient id="paint43_linear_19_545" x1="36.4762" y1="63.3301" x2="37.848" y2="87.6761" gradientUnits="userSpaceOnUse">
<stop stop-color="#FFC444"/>
<stop offset="0.9239" stop-color="#F47555"/>
<stop offset="0.9964" stop-color="#F36F56"/>
</linearGradient>
<linearGradient id="paint44_linear_19_545" x1="36.6106" y1="42.7886" x2="36.4055" y2="43.7801" gradientUnits="userSpaceOnUse">
<stop stop-color="#FFC444"/>
<stop offset="0.9964" stop-color="#F36F56"/>
</linearGradient>
<linearGradient id="paint45_linear_19_545" x1="38.3486" y1="48.0134" x2="36.7273" y2="55.8509" gradientUnits="userSpaceOnUse">
<stop stop-color="#FFC444"/>
<stop offset="0.9964" stop-color="#F36F56"/>
</linearGradient>
<linearGradient id="paint46_linear_19_545" x1="42.5843" y1="11.4935" x2="56.3435" y2="11.4935" gradientUnits="userSpaceOnUse">
<stop stop-color="#AB316D"/>
<stop offset="1" stop-color="#792D3D"/>
</linearGradient>
<linearGradient id="paint47_linear_19_545" x1="48.0896" y1="12.0975" x2="56.3435" y2="12.0975" gradientUnits="userSpaceOnUse">
<stop stop-color="#AB316D"/>
<stop offset="1" stop-color="#792D3D"/>
</linearGradient>
<linearGradient id="paint48_linear_19_545" x1="53.9802" y1="4.58225" x2="37.0426" y2="35.0255" gradientUnits="userSpaceOnUse">
<stop stop-color="#FF9085"/>
<stop offset="1" stop-color="#FB6FBB"/>
</linearGradient>
</defs>
</svg>
