<svg width="60" height="60" viewBox="0 0 60 60" fill="none" xmlns="http://www.w3.org/2000/svg">
<g id="Illustration">
<g id="Group">
<path id="Vector" d="M30.4406 0.644217C15.3256 0.19087 2.2329 11.3302 0.254797 25.9464C-1.90795 41.9273 9.99556 56.3062 24.6423 58.6092C42.8604 61.4738 60.531 44.902 58.9444 26.9242C57.749 13.3794 45.8052 1.10503 30.4406 0.644217Z" fill="#F4F7FA"/>
<g id="Group_2">
<g id="Group_3">
<g id="Group_4">
<path id="Vector_2" d="M35.1138 37.4795C34.2273 34.9496 33.3037 31.0807 34.2402 26.754C35.3155 21.7857 37.8605 20.7546 40.0736 15.427C43.6233 6.88172 40.7589 0.668804 42.7888 0.0475429C44.9016 -0.599056 50.2258 5.4513 50.1905 12.0114C50.1577 18.0866 45.5405 22.3607 45.0846 22.7705C41.5684 25.9315 38.7663 25.3151 36.5453 28.3002C34.4106 31.1693 34.6426 34.9057 35.1138 37.4795Z" fill="url(#paint0_linear_19_444)"/>
<g id="Clip path group">
<mask id="mask0_19_444" style="mask-type:luminance" maskUnits="userSpaceOnUse" x="33" y="0" width="18" height="38">
<g id="SVGID_00000167395633306905465940000008457141073164950966_">
<path id="Vector_3" d="M35.1138 37.4795C34.2273 34.9496 33.3037 31.0807 34.2402 26.754C35.3155 21.7857 37.8605 20.7546 40.0736 15.427C43.6233 6.88172 40.7589 0.668804 42.7888 0.0475429C44.9016 -0.599056 50.2258 5.4513 50.1905 12.0114C50.1577 18.0866 45.5405 22.3607 45.0846 22.7705C41.5684 25.9315 38.7663 25.3151 36.5453 28.3002C34.4106 31.1693 34.6426 34.9057 35.1138 37.4795Z" fill="white"/>
</g>
</mask>
<g mask="url(#mask0_19_444)">
<path id="Vector_4" opacity="0.5" d="M35.2004 43.1612C33.4589 36.2637 33.7825 30.3213 36.1621 25.4992C37.5997 22.5859 39.4847 20.6769 41.1477 18.9925C43.162 16.9526 44.9015 15.1908 45.5838 12.1916C46.5494 7.94696 44.9027 3.0946 40.6892 -2.23079L40.758 -2.28381C44.9883 3.0629 46.6405 7.93943 45.6689 12.2104C44.9812 15.2335 43.2337 17.0033 41.2102 19.0527C39.5517 20.7323 37.672 22.6361 36.2405 25.537C33.8701 30.3404 33.5486 36.263 35.285 43.1403L35.2004 43.1612Z" fill="white"/>
</g>
</g>
<g id="Clip path group_2">
<mask id="mask1_19_444" style="mask-type:luminance" maskUnits="userSpaceOnUse" x="33" y="0" width="18" height="38">
<g id="SVGID_00000167395633306905465940000008457141073164950966__2">
<path id="Vector_5" d="M35.1138 37.4795C34.2273 34.9496 33.3037 31.0807 34.2402 26.754C35.3155 21.7857 37.8605 20.7546 40.0736 15.427C43.6233 6.88172 40.7589 0.668804 42.7888 0.0475429C44.9016 -0.599056 50.2258 5.4513 50.1905 12.0114C50.1577 18.0866 45.5405 22.3607 45.0846 22.7705C41.5684 25.9315 38.7663 25.3151 36.5453 28.3002C34.4106 31.1693 34.6426 34.9057 35.1138 37.4795Z" fill="white"/>
</g>
</mask>
<g mask="url(#mask1_19_444)">
<path id="Vector_6" opacity="0.5" d="M45.3194 13.2521L45.307 13.1664C45.1082 11.785 44.6055 10.4392 43.8534 9.27448C42.6589 7.42478 41.0886 6.36994 39.9817 5.81072L40.0214 5.73402C41.1379 6.29809 42.7218 7.36216 43.9268 9.22814C44.6701 10.379 45.1718 11.7051 45.3806 13.0685C46.4611 11.977 47.303 10.6539 47.8183 9.23677C48.7077 6.79082 48.4883 4.57891 48.1476 3.15405L48.2325 3.13428C48.5758 4.57046 48.797 6.80002 47.9004 9.26586C47.3711 10.7214 46.5 12.0786 45.3811 13.1907L45.3194 13.2521Z" fill="white"/>
</g>
</g>
<g id="Clip path group_3">
<mask id="mask2_19_444" style="mask-type:luminance" maskUnits="userSpaceOnUse" x="33" y="0" width="18" height="38">
<g id="SVGID_00000167395633306905465940000008457141073164950966__3">
<path id="Vector_7" d="M35.1138 37.4795C34.2273 34.9496 33.3037 31.0807 34.2402 26.754C35.3155 21.7857 37.8605 20.7546 40.0736 15.427C43.6233 6.88172 40.7589 0.668804 42.7888 0.0475429C44.9016 -0.599056 50.2258 5.4513 50.1905 12.0114C50.1577 18.0866 45.5405 22.3607 45.0846 22.7705C41.5684 25.9315 38.7663 25.3151 36.5453 28.3002C34.4106 31.1693 34.6426 34.9057 35.1138 37.4795Z" fill="white"/>
</g>
</mask>
<g mask="url(#mask2_19_444)">
<path id="Vector_8" opacity="0.5" d="M40.1668 20.1255L40.2226 20.0486C40.7668 19.299 41.6616 17.7237 41.5399 15.5953C41.4284 13.6447 40.507 12.2536 39.9677 11.5981L40.0354 11.5438C40.5813 12.2074 41.5141 13.6156 41.627 15.5904C41.7461 17.6747 40.9026 19.2349 40.3487 20.0216C42.5167 19.8029 44.6011 19.0908 46.3827 17.9594C50.4649 15.367 51.9087 11.3 52.3399 9.67175L52.4243 9.69353C51.9905 11.3316 50.5378 15.4231 46.4299 18.0318C44.6107 19.1871 42.4779 19.9079 40.2622 20.1165L40.1668 20.1255Z" fill="white"/>
</g>
</g>
<g id="Clip path group_4">
<mask id="mask3_19_444" style="mask-type:luminance" maskUnits="userSpaceOnUse" x="33" y="0" width="18" height="38">
<g id="SVGID_00000167395633306905465940000008457141073164950966__4">
<path id="Vector_9" d="M35.1138 37.4795C34.2273 34.9496 33.3037 31.0807 34.2402 26.754C35.3155 21.7857 37.8605 20.7546 40.0736 15.427C43.6233 6.88172 40.7589 0.668804 42.7888 0.0475429C44.9016 -0.599056 50.2258 5.4513 50.1905 12.0114C50.1577 18.0866 45.5405 22.3607 45.0846 22.7705C41.5684 25.9315 38.7663 25.3151 36.5453 28.3002C34.4106 31.1693 34.6426 34.9057 35.1138 37.4795Z" fill="white"/>
</g>
</mask>
<g mask="url(#mask3_19_444)">
<path id="Vector_10" opacity="0.5" d="M35.7851 26.5018L35.7829 26.459C35.7329 25.4586 35.7329 24.4451 35.7829 23.4466C35.8906 21.2951 36.233 19.1402 36.8002 17.0418L36.8845 17.064C36.3187 19.1566 35.9775 21.3054 35.87 23.4509C35.8209 24.4323 35.8202 25.4282 35.8679 26.4118C38.2719 26.2985 40.5758 25.7457 42.7161 24.7686C47.5571 22.5587 50.2025 18.7443 51.3485 16.6672L51.425 16.7084C50.2739 18.7948 47.6165 22.6265 42.7528 24.8468C40.5892 25.8345 38.2595 26.3906 35.8285 26.4999L35.7851 26.5018Z" fill="white"/>
</g>
</g>
</g>
</g>
<g id="Group_5">
<g id="Group_6">
<path id="Vector_11" d="M35.225 36.3556C34.7163 34.5546 34.2247 31.7093 35.4545 28.9856C37.5998 24.2339 42.5693 25.2005 46.6433 19.9193C49.9291 15.6597 48.4296 12.7841 52.2589 9.77666C55.0071 7.61832 58.6201 6.8685 59.1371 7.65287C59.6929 8.49615 56.0726 10.206 54.4256 14.4325C52.2825 19.9324 56.055 23.0879 53.7727 26.536C52.0367 29.1587 49.207 28.3112 43.0374 31.2662C39.4504 32.9841 36.835 34.9814 35.225 36.3556Z" fill="url(#paint1_linear_19_444)"/>
<g id="Clip path group_5">
<mask id="mask4_19_444" style="mask-type:luminance" maskUnits="userSpaceOnUse" x="34" y="7" width="26" height="30">
<g id="SVGID_00000109015333095395878730000017444486591331417506_">
<path id="Vector_12" d="M35.225 36.3556C34.7163 34.5546 34.2247 31.7093 35.4545 28.9856C37.5998 24.2339 42.5693 25.2005 46.6433 19.9193C49.9291 15.6597 48.4296 12.7841 52.2589 9.77666C55.0071 7.61832 58.6201 6.8685 59.1371 7.65287C59.6929 8.49615 56.0726 10.206 54.4256 14.4325C52.2825 19.9324 56.055 23.0879 53.7727 26.536C52.0367 29.1587 49.207 28.3112 43.0374 31.2662C39.4504 32.9841 36.835 34.9814 35.225 36.3556Z" fill="white"/>
</g>
</mask>
<g mask="url(#mask4_19_444)">
<path id="Vector_13" opacity="0.5" d="M34.3811 42.6249L34.2939 42.6247C34.3009 36.0469 35.9412 31.325 39.1691 28.5902C40.7044 27.2896 42.192 26.7572 43.6307 26.2424C45.399 25.6096 47.0693 25.0119 48.6067 23.0426C49.981 21.2823 50.2373 19.7178 50.5086 18.0614C50.7586 16.5353 51.0171 14.9572 52.1412 13.0569C53.8269 10.2072 56.6662 8.01091 60.5802 6.52899L60.6114 6.6094C56.7164 8.08414 53.8919 10.268 52.2164 13.1004C51.1006 14.9868 50.8434 16.5568 50.5947 18.0751C50.3215 19.7426 50.0635 21.3176 48.6758 23.0952C47.1228 25.0844 45.441 25.6862 43.6604 26.3234C42.2291 26.8356 40.7491 27.3652 39.2259 28.6557C36.0181 31.3732 34.3881 36.0732 34.3811 42.6249Z" fill="white"/>
</g>
</g>
<g id="Clip path group_6">
<mask id="mask5_19_444" style="mask-type:luminance" maskUnits="userSpaceOnUse" x="34" y="7" width="26" height="30">
<g id="SVGID_00000109015333095395878730000017444486591331417506__2">
<path id="Vector_14" d="M35.225 36.3556C34.7163 34.5546 34.2247 31.7093 35.4545 28.9856C37.5998 24.2339 42.5693 25.2005 46.6433 19.9193C49.9291 15.6597 48.4296 12.7841 52.2589 9.77666C55.0071 7.61832 58.6201 6.8685 59.1371 7.65287C59.6929 8.49615 56.0726 10.206 54.4256 14.4325C52.2825 19.9324 56.055 23.0879 53.7727 26.536C52.0367 29.1587 49.207 28.3112 43.0374 31.2662C39.4504 32.9841 36.835 34.9814 35.225 36.3556Z" fill="white"/>
</g>
</mask>
<g mask="url(#mask5_19_444)">
<path id="Vector_15" opacity="0.5" d="M50.807 16.8153L50.7659 16.7024C50.3864 15.6588 50.213 14.5799 50.2507 13.4959C50.3393 10.9407 51.5948 9.06079 52.3353 8.16763L52.4027 8.22221C51.6692 9.10695 50.4255 10.9689 50.3378 13.4988C50.3019 14.5329 50.46 15.5622 50.8078 16.5603C51.4012 14.9861 52.287 13.8483 53.4417 13.1777C54.655 12.4732 55.7601 12.5039 56.9303 12.5365C57.6536 12.5564 58.4016 12.5775 59.1853 12.4106C61.5845 11.8999 63.6945 9.72852 65.4569 5.95679L65.5361 5.99286C63.7616 9.79049 61.6311 11.9781 59.2037 12.4948C58.4097 12.6638 57.6562 12.6427 56.9278 12.6225C55.7706 12.5903 54.6776 12.5599 53.4859 13.2519C52.3217 13.928 51.4342 15.0889 50.848 16.7024L50.807 16.8153Z" fill="white"/>
</g>
</g>
<g id="Clip path group_7">
<mask id="mask6_19_444" style="mask-type:luminance" maskUnits="userSpaceOnUse" x="34" y="7" width="26" height="30">
<g id="SVGID_00000109015333095395878730000017444486591331417506__3">
<path id="Vector_16" d="M35.225 36.3556C34.7163 34.5546 34.2247 31.7093 35.4545 28.9856C37.5998 24.2339 42.5693 25.2005 46.6433 19.9193C49.9291 15.6597 48.4296 12.7841 52.2589 9.77666C55.0071 7.61832 58.6201 6.8685 59.1371 7.65287C59.6929 8.49615 56.0726 10.206 54.4256 14.4325C52.2825 19.9324 56.055 23.0879 53.7727 26.536C52.0367 29.1587 49.207 28.3112 43.0374 31.2662C39.4504 32.9841 36.835 34.9814 35.225 36.3556Z" fill="white"/>
</g>
</mask>
<g mask="url(#mask6_19_444)">
<path id="Vector_17" opacity="0.5" d="M48.0988 23.7178L48.0919 23.6729C47.9405 22.6951 47.8477 21.6991 47.8158 20.7127C47.7477 18.605 47.9539 16.4813 48.4289 14.4006L48.5139 14.4196C48.0406 16.4932 47.8351 18.6096 47.9029 20.7099C47.9342 21.6779 48.0244 22.6549 48.1711 23.6149C49.6147 23.3123 50.9546 22.7372 52.154 21.9051C53.9778 20.6398 55.0315 19.0701 55.5943 17.9761L55.6721 18.0151C55.1047 19.1179 54.0426 20.7001 52.2041 21.9756C50.9824 22.8231 49.6163 23.4062 48.1438 23.7086L48.0988 23.7178Z" fill="white"/>
</g>
</g>
<g id="Clip path group_8">
<mask id="mask7_19_444" style="mask-type:luminance" maskUnits="userSpaceOnUse" x="34" y="7" width="26" height="30">
<g id="SVGID_00000109015333095395878730000017444486591331417506__4">
<path id="Vector_18" d="M35.225 36.3556C34.7163 34.5546 34.2247 31.7093 35.4545 28.9856C37.5998 24.2339 42.5693 25.2005 46.6433 19.9193C49.9291 15.6597 48.4296 12.7841 52.2589 9.77666C55.0071 7.61832 58.6201 6.8685 59.1371 7.65287C59.6929 8.49615 56.0726 10.206 54.4256 14.4325C52.2825 19.9324 56.055 23.0879 53.7727 26.536C52.0367 29.1587 49.207 28.3112 43.0374 31.2662C39.4504 32.9841 36.835 34.9814 35.225 36.3556Z" fill="white"/>
</g>
</mask>
<g mask="url(#mask7_19_444)">
<path id="Vector_19" opacity="0.5" d="M49.0686 28.0486C48.7081 28.0486 48.3407 28.0365 47.9666 28.0112C46.1559 27.8885 44.3776 27.4637 42.681 26.7485L42.6196 26.7227L42.6683 26.6775C43.5407 25.8678 44.2192 24.8596 44.6304 23.7619C44.9677 22.8615 45.1276 21.9147 45.1058 20.9479L45.193 20.9459C45.2151 21.9237 45.0534 22.8812 44.7122 23.7917C44.304 24.8815 43.6353 25.884 42.7764 26.695C44.4455 27.3908 46.1934 27.8047 47.9725 27.9253C51.9346 28.1939 55.1475 26.9547 57.1451 25.8679L57.1872 25.9434C55.368 26.933 52.5456 28.0486 49.0686 28.0486Z" fill="white"/>
</g>
</g>
<g id="Clip path group_9">
<mask id="mask8_19_444" style="mask-type:luminance" maskUnits="userSpaceOnUse" x="34" y="7" width="26" height="30">
<g id="SVGID_00000109015333095395878730000017444486591331417506__5">
<path id="Vector_20" d="M35.225 36.3556C34.7163 34.5546 34.2247 31.7093 35.4545 28.9856C37.5998 24.2339 42.5693 25.2005 46.6433 19.9193C49.9291 15.6597 48.4296 12.7841 52.2589 9.77666C55.0071 7.61832 58.6201 6.8685 59.1371 7.65287C59.6929 8.49615 56.0726 10.206 54.4256 14.4325C52.2825 19.9324 56.055 23.0879 53.7727 26.536C52.0367 29.1587 49.207 28.3112 43.0374 31.2662C39.4504 32.9841 36.835 34.9814 35.225 36.3556Z" fill="white"/>
</g>
</mask>
<g mask="url(#mask8_19_444)">
<path id="Vector_21" opacity="0.5" d="M45.3165 31.8626C44.8379 31.2879 43.7919 30.2685 42.1635 29.8992C39.3099 29.2522 37.0782 31.1536 36.8332 31.3726L36.754 31.4433L36.7605 31.338C36.8222 30.3249 37.0148 29.3265 37.333 28.3707C37.8718 26.7525 38.7517 25.284 39.9483 24.006L40.0124 24.0645C38.8243 25.3334 37.9507 26.7913 37.4158 28.3977C37.1108 29.3139 36.922 30.2696 36.8543 31.24C37.3378 30.8334 39.4854 29.2037 42.1829 29.8153C43.8365 30.1903 44.8982 31.2247 45.3838 31.808L45.3165 31.8626Z" fill="white"/>
</g>
</g>
</g>
</g>
<g id="Group_7">
<g id="Group_8">
<path id="Vector_22" d="M34.989 34.8047C36.0096 33.9382 37.585 32.7427 39.7006 31.6785C44.6275 29.2002 47.1239 30.1302 49.8157 27.8297C53.1249 25.0015 52.4817 20.9209 53.568 20.947C55.165 20.9853 58.375 29.8496 54.4618 33.5548C51.9556 35.9278 47.4238 35.3361 46.4987 35.1909C44.3087 34.8471 43.7145 34.0823 41.495 33.7965C38.796 33.449 36.4836 34.1691 34.989 34.8047Z" fill="url(#paint2_linear_19_444)"/>
<g id="Clip path group_10">
<mask id="mask9_19_444" style="mask-type:luminance" maskUnits="userSpaceOnUse" x="34" y="20" width="23" height="16">
<g id="SVGID_00000148643963608039970720000010419930068548421257_">
<path id="Vector_23" d="M34.989 34.8047C36.0096 33.9382 37.585 32.7427 39.7006 31.6785C44.6275 29.2002 47.1239 30.1302 49.8157 27.8297C53.1249 25.0015 52.4817 20.9209 53.568 20.947C55.165 20.9853 58.375 29.8496 54.4618 33.5548C51.9556 35.9278 47.4238 35.3361 46.4987 35.1909C44.3087 34.8471 43.7145 34.0823 41.495 33.7965C38.796 33.449 36.4836 34.1691 34.989 34.8047Z" fill="white"/>
</g>
</mask>
<g mask="url(#mask9_19_444)">
<g id="Group_9">
<path id="Vector_24" opacity="0.5" d="M33.7763 35.5675L33.7229 35.4994C36.6448 33.2674 39.5633 32.1579 42.3988 32.2041C43.9273 32.2286 45.1152 32.5749 46.1631 32.8803C47.5423 33.2823 48.7336 33.6293 50.174 33.0441C52.0132 32.2965 53.4181 30.3635 54.13 27.6011C55.2705 23.175 52.7457 19.4802 51.9447 18.4533L52.0138 18.4007C52.8208 19.4355 55.3647 23.1586 54.2145 27.6223C53.4957 30.4118 52.0725 32.3655 50.2072 33.1236C48.7383 33.7207 47.5335 33.3695 46.1384 32.9629C45.0958 32.659 43.914 32.3146 42.3974 32.2903C39.5837 32.2438 36.682 33.3477 33.7763 35.5675Z" fill="white"/>
<path id="Vector_25" opacity="0.5" d="M53.1769 30.17L53.1932 30.085C53.4363 28.8166 53.4363 27.5328 53.1932 26.2693C52.9253 24.8771 52.3502 23.5225 51.53 22.352L51.6017 22.303C52.4288 23.4833 53.0087 24.8493 53.2788 26.2533C53.5185 27.4989 53.5239 28.7643 53.2949 30.0154C53.9844 29.6652 54.9162 29.0291 55.5962 27.9455C57.0459 25.6352 56.2056 23.0926 56.0224 22.6064L56.1041 22.5763C56.2898 23.0692 57.1415 25.6465 55.6702 27.991C54.9534 29.1334 53.9614 29.7856 53.2554 30.1316L53.1769 30.17Z" fill="white"/>
<path id="Vector_26" opacity="0.5" d="M51.334 34.9967C50.4321 34.9967 49.4596 34.8742 48.4579 34.5537C47.2395 34.164 46.1167 33.5316 45.1207 32.6745L45.021 32.5886L45.1529 32.5991C47.0661 32.7503 48.8585 31.9085 49.8293 30.4013C50.866 28.7914 50.5235 27.0616 50.3939 26.5698L50.4783 26.5481C50.6102 27.0484 50.9585 28.8082 49.9028 30.4476C48.937 31.9472 47.1739 32.8009 45.2772 32.6938C46.2394 33.5006 47.3179 34.0985 48.4848 34.4718C51.8067 35.5344 54.8078 34.4012 55.9438 33.8645L55.9814 33.9422C55.1782 34.3216 53.4504 34.9967 51.334 34.9967Z" fill="white"/>
<path id="Vector_27" opacity="0.5" d="M46.4819 37.1059C46.0144 36.1178 44.9021 34.3079 42.7045 33.286C41.7796 32.8561 40.7793 32.6185 39.7314 32.5801L39.7288 32.4941C41.4834 32.3251 42.7607 31.8348 43.5251 31.0369C43.5939 30.965 43.6828 30.8656 43.8174 30.7152C43.9985 30.5127 44.2721 30.2068 44.6923 29.7503C45.1117 29.2946 45.5361 28.842 45.9537 28.4051L46.0171 28.4641C45.5999 28.9008 45.1759 29.353 44.7568 29.8082C44.3371 30.2642 44.0637 30.5699 43.8828 30.7722C43.7476 30.9233 43.6583 31.0231 43.5884 31.0961C42.8799 31.8356 41.7445 32.3155 40.2091 32.5252C41.0968 32.6095 41.9467 32.8386 42.7416 33.2081C44.964 34.2414 46.0885 36.0709 46.561 37.0694L46.4819 37.1059Z" fill="white"/>
</g>
</g>
</g>
</g>
</g>
</g>
<g id="Group_10">
<path id="Vector_28" d="M5.19653 35.9246L28.2507 37.3121L53.8472 35.8553L28.6017 43.7604L5.19653 35.9246Z" fill="url(#paint3_linear_19_444)"/>
<g id="Group_11">
<path id="Vector_29" d="M23.8588 59.7971L5.09926 52.5716C3.25519 52.0814 1.82245 50.2769 1.82245 48.5269V48.5076C1.82245 46.7576 3.25519 45.5835 5.09926 45.9048L25.1872 51.4371L23.8588 59.7971Z" fill="url(#paint4_linear_19_444)"/>
<g id="Group_12">
<path id="Vector_30" d="M53.8786 53.7837L24.741 59.4052C22.888 59.6096 21.3644 58.3333 21.3644 56.5516V55.3429C21.3644 53.5613 22.888 51.9971 24.741 51.8515L53.8786 47.1673C52.5694 49.5745 52.2673 51.8265 53.8786 53.7837Z" fill="url(#paint5_linear_19_444)"/>
<path id="Vector_31" d="M54.1361 54.1077L24.989 59.7803C22.5719 60.051 20.569 58.3789 20.569 56.048V56.0224C20.569 53.6915 22.5719 51.6408 24.989 51.4546L54.1361 46.8166C54.3142 46.8029 54.4583 46.9493 54.4583 47.1437C54.4583 47.338 54.3142 47.5072 54.1361 47.5215L24.989 52.2595C23.0445 52.4159 21.4389 54.0681 21.4389 55.9402V55.9657C21.4389 57.8378 23.0445 59.1866 24.989 58.9754L54.1361 53.4029C54.3142 53.3835 54.4583 53.5254 54.4583 53.7198C54.4583 53.9141 54.3142 54.0878 54.1361 54.1077Z" fill="url(#paint6_linear_19_444)"/>
</g>
</g>
<g id="Group_13">
<path id="Vector_32" d="M24.628 51.4568L5.09926 45.9048C3.25519 45.5835 1.82245 43.1962 1.82245 40.5685V40.5397C1.82245 37.912 3.25519 35.8268 5.09926 35.8945L25.7881 38.9952L24.628 51.4568Z" fill="url(#paint7_linear_19_444)"/>
<g id="Group_14">
<path id="Vector_33" d="M53.8786 46.3066L26.3992 50.7453C23.6448 50.9505 21.3644 48.9517 21.3644 46.2765V44.4616C21.3644 41.7864 23.6448 39.5563 26.3992 39.4822L53.8786 36.372C52.5652 39.979 52.2716 43.3566 53.8786 46.3066Z" fill="url(#paint8_linear_19_444)"/>
<path id="Vector_34" d="M54.1361 46.8166L24.989 51.4546C22.5719 51.6408 20.569 48.9477 20.569 45.4478V45.4094C20.569 41.9095 22.5719 39.013 24.989 38.9536L54.1361 35.869C54.3142 35.8646 54.4583 36.0976 54.4583 36.3894C54.4583 36.6812 54.3142 36.9221 54.1361 36.9274L24.989 40.1622C23.0445 40.2198 21.4389 42.5543 21.4389 45.3653V45.4036C21.4389 48.2146 23.0445 50.386 24.989 50.2461L54.1361 45.7583C54.3142 45.7454 54.4583 45.9716 54.4583 46.2634C54.4583 46.5552 54.3142 46.8029 54.1361 46.8166Z" fill="url(#paint9_linear_19_444)"/>
</g>
</g>
<path id="Vector_35" opacity="0.5" d="M18.7113 48.8234L14.1841 47.6131C13.2318 45.0458 13.3034 42.6874 14.1841 39.8687L18.7113 40.6613C17.8754 43.6275 18.0019 46.3142 18.7113 48.8234Z" fill="white"/>
</g>
<g id="Group_15">
<path id="Vector_36" d="M54.6838 34.3936L4.88965 33.9193V35.3228C4.88965 35.7037 5.10684 36.0276 5.40097 36.0853L19.4813 38.849C19.6484 38.8818 19.8178 38.8905 19.9864 38.875L54.1427 35.7239C54.4476 35.6958 54.6838 35.3709 54.6838 34.9795V34.3936Z" fill="url(#paint10_linear_19_444)"/>
<g id="Group_16">
<path id="Vector_37" d="M38.6544 32.1186L5.43766 34.686C4.84326 34.7319 4.35999 34.2438 4.35999 33.5955V7.62316C4.35999 6.97488 4.84326 6.44934 5.43766 6.44934H38.6544C39.144 6.44934 39.54 6.9244 39.54 7.51045V30.989C39.54 31.575 39.144 32.0807 38.6544 32.1186Z" fill="url(#paint11_linear_19_444)"/>
<path id="Vector_38" d="M39.184 32.1186L5.96732 34.686C5.37292 34.7319 4.88965 34.2438 4.88965 33.5955V7.62316C4.88965 6.97488 5.37292 6.44934 5.96732 6.44934H39.184C39.6737 6.44934 40.0696 6.9244 40.0696 7.51045V30.989C40.0696 31.575 39.6737 32.0807 39.184 32.1186Z" fill="url(#paint12_linear_19_444)"/>
<path id="Vector_39" d="M38.1492 30.4633L7.21132 32.6935C6.72761 32.7284 6.33453 32.3277 6.33453 31.7984V9.0596C6.33453 8.53037 6.72761 8.09955 7.21132 8.09738L38.1492 7.95734C38.5532 7.95551 38.8799 8.34479 38.8799 8.82684V29.5378C38.8799 30.0199 38.5532 30.4342 38.1492 30.4633Z" fill="url(#paint13_linear_19_444)"/>
<path id="Vector_40" d="M23.7488 7.15976C23.7488 7.40108 23.5778 7.59728 23.3667 7.59799C23.1553 7.59871 22.9838 7.40319 22.9838 7.16134C22.9838 6.91946 23.1553 6.72326 23.3667 6.72308C23.5778 6.72293 23.7488 6.91843 23.7488 7.15976Z" fill="white"/>
<path id="Vector_41" opacity="0.48" d="M31.181 24.9952C28.6203 23.4883 26.6068 25.3977 24.6636 23.5137C23.4856 22.3715 24.064 21.5197 22.6144 19.8129C21.0088 17.9223 19.9636 18.5578 18.35 16.8563C16.3098 14.7049 17.3302 13.031 15.5728 11.4864C13.4409 9.61247 11.1417 11.3469 9.11226 9.54976C8.23694 8.77467 7.75668 7.64779 7.50586 6.44934H5.52018C5.17221 6.44934 4.88965 6.7578 4.88965 7.13833V34.0609C4.88965 34.4414 5.17223 34.728 5.52018 34.701L39.3735 32.0727C39.5396 32.0598 39.6869 31.9537 39.7815 31.7999C37.3033 31.7011 35.7808 30.7925 34.8076 29.8532C32.9038 28.0155 33.234 26.2034 31.181 24.9952Z" fill="white"/>
</g>
<path id="Vector_42" d="M38.3552 32.0021L4.88965 34.7046L19.4813 37.5687C19.6484 37.6015 19.8178 37.6102 19.9864 37.5946L54.6838 34.3936L38.8876 32.0204C38.7109 31.9939 38.5327 31.9878 38.3552 32.0021Z" fill="url(#paint14_linear_19_444)"/>
<path id="Vector_43" opacity="0.3" d="M9.77277 34.7726L37.6338 32.4891L46.2566 33.7741L18.6355 36.2151L9.77277 34.7726Z" fill="url(#paint15_linear_19_444)"/>
<g id="Group_17">
<path id="Vector_44" d="M36.4237 16.7267L30.2649 13.585L23.8044 10.2893L10.0276 17.3172L10.0715 17.3377V17.5872L23.8178 23.9872L36.4114 16.9752V16.737L36.4049 16.7372L36.4237 16.7267Z" fill="white"/>
<path id="Vector_45" d="M31.804 20.3416L23.8044 24.8092L15.0095 20.7478V26.6239C15.0095 27.587 15.752 28.3922 16.7231 28.4797C18.2966 28.6215 20.8042 28.7616 23.6073 28.591C26.3363 28.4248 28.7262 28.0002 30.2105 27.6847C31.1407 27.487 31.8041 26.6745 31.8041 25.7348L31.804 20.3416Z" fill="white"/>
<g id="Group_18">
<path id="Vector_46" d="M36.4161 25.8864C36.3274 25.8912 36.3351 25.8133 36.3351 25.7177V17.2768C36.3351 17.0858 36.1553 16.9648 35.9778 16.9689L23.8977 17.2489C23.8012 17.2511 23.7228 17.1704 23.7228 17.0706C23.7228 16.9708 23.8012 16.8865 23.8977 16.8844L35.9778 16.6191C36.3326 16.6113 36.4971 16.8912 36.4971 17.2729V25.709C36.4971 25.8046 36.5047 25.8816 36.4161 25.8864Z" fill="white"/>
</g>
<path id="Vector_47" d="M36.6728 16.831C36.5907 16.6742 36.7055 16.6031 36.4972 16.6077L23.8977 16.8844C23.8012 16.8865 23.7228 16.9708 23.7228 17.0706C23.7228 17.1704 23.8012 17.2511 23.8977 17.2488L35.9778 16.9689C36.0763 16.9666 36.1754 17.003 36.2442 17.0683L36.4114 16.9752L36.6728 16.831Z" fill="url(#paint16_linear_19_444)"/>
<path id="Vector_48" d="M36.8006 24.1126L36.6428 23.8583C36.5907 23.7615 36.4822 23.7059 36.3763 23.7127C36.2703 23.7194 36.1685 23.7883 36.1192 23.8919L35.9799 24.1717C35.9477 24.2392 35.9247 24.3138 35.9247 24.3883V26.6879C35.9247 26.7373 36.1673 26.7634 36.4114 26.7495C36.655 26.7355 36.8964 26.6818 36.8964 26.6326V24.3343C36.8964 24.255 36.8368 24.1799 36.8006 24.1126Z" fill="white"/>
</g>
</g>
<g id="Group_19">
<path id="Vector_49" d="M49.1819 46.0415C48.4401 46.6844 47.3213 46.6321 46.6317 45.9349C45.7719 45.0658 44.1592 44.4761 41.2691 46.2826C36.107 49.5093 41.8125 58.6362 45.0729 58.9029C48.3332 59.1695 49.42 58.3679 51.0501 58.9029C52.6803 59.4379 54.9897 55.8575 55.9406 52.6163C56.8915 49.3751 54.4463 45.5275 52.001 45.1034C50.7976 44.8946 49.8902 45.4276 49.1819 46.0415Z" fill="url(#paint17_linear_19_444)"/>
<path id="Vector_50" opacity="0.3" d="M53.4428 55.8173C53.4428 55.8173 53.4428 55.8173 52.2014 56.5755C50.96 57.3336 50.4393 54.3863 48.1566 52.5348C45.874 50.6834 41.3886 52.0162 41.6289 48.8335C41.7487 47.2468 42.5553 46.0777 43.3341 45.304C42.7313 45.4844 42.0465 45.7967 41.2692 46.2826C36.107 49.5093 41.8125 58.6362 45.0728 58.9029C48.3332 59.1695 49.4199 58.3679 51.0501 58.9029C52.4497 59.3622 54.3499 56.788 55.4613 53.9994L53.4428 55.8173Z" fill="url(#paint18_linear_19_444)"/>
<path id="Vector_51" d="M48.3429 46.5864C48.3429 46.5864 50.6764 42.8324 46.7373 41.7592C42.7981 40.6859 41.1229 39.246 41.1229 39.246C41.1229 39.246 42.119 42.3748 42.8434 44.7277C43.5679 47.0807 47.0508 47.6125 48.3429 46.5864Z" fill="url(#paint19_linear_19_444)"/>
<path id="Vector_52" d="M49.4179 42.2108C48.7388 42.2882 49.0104 41.239 48.3593 41.9392C47.7925 42.5486 47.6925 45.9055 47.6761 46.7657C47.6739 46.8776 47.7624 46.9706 47.8757 46.9757C47.9951 46.9811 48.0948 46.8869 48.0942 46.7688C48.0857 44.9194 50.1057 42.8321 50.3235 42.4079C50.5499 41.967 50.0971 42.1334 49.4179 42.2108Z" fill="url(#paint20_linear_19_444)"/>
<path id="Vector_53" opacity="0.3" d="M46.656 44.4031C46.3477 42.717 45.026 43.0277 42.3546 40.7471C41.9241 40.3796 41.5658 40.0289 41.2668 39.699C41.5687 40.6504 42.2864 42.9184 42.8435 44.7278C43.4894 46.8259 46.3286 47.4759 47.8522 46.8646C47.3487 46.4246 46.8881 45.6731 46.656 44.4031Z" fill="url(#paint21_linear_19_444)"/>
</g>
</g>
</g>
<defs>
<linearGradient id="paint0_linear_19_444" x1="47.449" y1="6.15138" x2="36.2658" y2="24.3848" gradientUnits="userSpaceOnUse">
<stop stop-color="#FCB148"/>
<stop offset="0.0521" stop-color="#FDBA46"/>
<stop offset="0.1424" stop-color="#FFC244"/>
<stop offset="0.3183" stop-color="#FFC444"/>
<stop offset="0.4849" stop-color="#FDB946"/>
<stop offset="0.7754" stop-color="#F99C4D"/>
<stop offset="0.8658" stop-color="#F8924F"/>
<stop offset="1" stop-color="#F8924F"/>
</linearGradient>
<linearGradient id="paint1_linear_19_444" x1="50.8456" y1="9.58077" x2="41.939" y2="36.4866" gradientUnits="userSpaceOnUse">
<stop stop-color="#AA80F9"/>
<stop offset="0.9964" stop-color="#6165D7"/>
</linearGradient>
<linearGradient id="paint2_linear_19_444" x1="56.8625" y1="24.3387" x2="30.3663" y2="46.3755" gradientUnits="userSpaceOnUse">
<stop offset="0.0036" stop-color="#E38DDD"/>
<stop offset="1" stop-color="#9571F6"/>
</linearGradient>
<linearGradient id="paint3_linear_19_444" x1="5.19654" y1="39.8078" x2="53.8472" y2="39.8078" gradientUnits="userSpaceOnUse">
<stop stop-color="#AA80F9"/>
<stop offset="0.9964" stop-color="#6165D7"/>
</linearGradient>
<linearGradient id="paint4_linear_19_444" x1="11.3602" y1="57.1664" x2="14.548" y2="49.825" gradientUnits="userSpaceOnUse">
<stop stop-color="#FFC444"/>
<stop offset="0.9964" stop-color="#F36F56"/>
</linearGradient>
<linearGradient id="paint5_linear_19_444" x1="21.3644" y1="53.297" x2="53.8786" y2="53.297" gradientUnits="userSpaceOnUse">
<stop offset="0.494" stop-color="#EAEDF3"/>
<stop offset="1" stop-color="white"/>
</linearGradient>
<linearGradient id="paint6_linear_19_444" x1="20.569" y1="53.3124" x2="54.4583" y2="53.3124" gradientUnits="userSpaceOnUse">
<stop stop-color="#FFC444"/>
<stop offset="0.9964" stop-color="#F36F56"/>
</linearGradient>
<linearGradient id="paint7_linear_19_444" x1="16.2255" y1="35.5148" x2="10.4241" y2="55.3006" gradientUnits="userSpaceOnUse">
<stop stop-color="#AA80F9"/>
<stop offset="0.9964" stop-color="#6165D7"/>
</linearGradient>
<linearGradient id="paint8_linear_19_444" x1="21.3644" y1="43.5659" x2="53.8786" y2="43.5659" gradientUnits="userSpaceOnUse">
<stop offset="0.494" stop-color="#EAEDF3"/>
<stop offset="1" stop-color="white"/>
</linearGradient>
<linearGradient id="paint9_linear_19_444" x1="20.569" y1="43.6663" x2="54.4583" y2="43.6663" gradientUnits="userSpaceOnUse">
<stop stop-color="#AA80F9"/>
<stop offset="0.9964" stop-color="#6165D7"/>
</linearGradient>
<linearGradient id="paint10_linear_19_444" x1="25.9103" y1="36.3288" x2="22.4219" y2="37.8123" gradientUnits="userSpaceOnUse">
<stop stop-color="#40447E"/>
<stop offset="0.9964" stop-color="#3C3B6B"/>
</linearGradient>
<linearGradient id="paint11_linear_19_444" x1="21.2005" y1="19.6143" x2="17.3258" y2="21.262" gradientUnits="userSpaceOnUse">
<stop stop-color="#40447E"/>
<stop offset="0.9964" stop-color="#3C3B6B"/>
</linearGradient>
<linearGradient id="paint12_linear_19_444" x1="4.88964" y1="20.5692" x2="40.0696" y2="20.5692" gradientUnits="userSpaceOnUse">
<stop stop-color="#40447E"/>
<stop offset="0.9964" stop-color="#3C3B6B"/>
</linearGradient>
<linearGradient id="paint13_linear_19_444" x1="29.6773" y1="13.6242" x2="10.107" y2="29.7308" gradientUnits="userSpaceOnUse">
<stop stop-color="#FF9085"/>
<stop offset="1" stop-color="#FB6FBB"/>
</linearGradient>
<linearGradient id="paint14_linear_19_444" x1="4.88964" y1="34.7983" x2="54.6837" y2="34.7983" gradientUnits="userSpaceOnUse">
<stop stop-color="#40447E"/>
<stop offset="0.9964" stop-color="#3C3B6B"/>
</linearGradient>
<linearGradient id="paint15_linear_19_444" x1="9.77276" y1="34.3521" x2="46.2566" y2="34.3521" gradientUnits="userSpaceOnUse">
<stop stop-color="#40447E"/>
<stop offset="0.9964" stop-color="#3C3B6B"/>
</linearGradient>
<linearGradient id="paint16_linear_19_444" x1="32.0978" y1="15.38" x2="13.0036" y2="31.0948" gradientUnits="userSpaceOnUse">
<stop stop-color="#FF9085"/>
<stop offset="1" stop-color="#FB6FBB"/>
</linearGradient>
<linearGradient id="paint17_linear_19_444" x1="50.2965" y1="47.7272" x2="41.3408" y2="60.0429" gradientUnits="userSpaceOnUse">
<stop stop-color="#FF9085"/>
<stop offset="1" stop-color="#FB6FBB"/>
</linearGradient>
<linearGradient id="paint18_linear_19_444" x1="50.2964" y1="47.7272" x2="41.3408" y2="60.0429" gradientUnits="userSpaceOnUse">
<stop stop-color="#FF9085"/>
<stop offset="1" stop-color="#FB6FBB"/>
</linearGradient>
<linearGradient id="paint19_linear_19_444" x1="44.3584" y1="38.2529" x2="46.7459" y2="49.7575" gradientUnits="userSpaceOnUse">
<stop stop-color="#A1F094"/>
<stop offset="1" stop-color="#4FC3BA"/>
</linearGradient>
<linearGradient id="paint20_linear_19_444" x1="50.6803" y1="41.0945" x2="46.0673" y2="47.4383" gradientUnits="userSpaceOnUse">
<stop stop-color="#311944"/>
<stop offset="1" stop-color="#6B3976"/>
</linearGradient>
<linearGradient id="paint21_linear_19_444" x1="43.5264" y1="38.4256" x2="45.9138" y2="49.9302" gradientUnits="userSpaceOnUse">
<stop stop-color="#38E8C7"/>
<stop offset="1" stop-color="#425F63"/>
</linearGradient>
</defs>
</svg>
