<svg width="63" height="61" viewBox="0 0 63 61" fill="none" xmlns="http://www.w3.org/2000/svg">
<g id="Illustration">
<g id="Group">
<path id="Vector" d="M56.1271 47.4178C43.6129 63.4249 14.3059 63.6819 6.19289 54.7906C2.95487 51.2424 2.09994 45.1484 0.843219 36.1971C0.23823 31.8881 0.151597 28.4147 0.100246 26.0317C-0.076884 17.9253 -0.165045 13.8717 1.13993 11.1141C4.87787 3.22031 17.8629 0.14801 26.2558 0.00548476C26.8416 -0.00464569 27.4328 -0.000737526 28.0285 0.0171654C37.856 0.309988 48.9457 4.40092 55.7851 13.1428C56.4921 14.0446 57.1522 14.9963 57.7618 15.9986C64.0048 26.2645 62.9543 38.6861 56.1271 47.4178Z" fill="#F4F7FA"/>
<g id="Group_2">
<g id="Group_3">
<g id="Group_4">
<path id="Vector_2" d="M33.543 10.9418C35.627 10.3722 37.9178 11.1361 39.4566 12.6548C40.3936 13.5795 41.2861 14.8581 41.757 16.0901C42.4194 17.8229 42.1677 19.7291 41.5827 21.4467C40.8954 23.4647 39.2333 24.6059 37.7693 26.0534C37.4823 26.3371 35.9559 27.9905 37.2897 27.7586C39.1497 27.4351 39.6526 28.8863 39.6527 28.8866C40.0461 30.0221 39.7668 31.2415 39.0555 32.172C37.1553 34.6575 33.7301 36.2807 30.9889 37.6283C29.6995 38.2622 28.3846 38.8385 27.0562 39.383C26.7278 39.5176 26.3512 39.4486 26.0923 39.2058C25.8333 38.963 25.74 38.5914 25.8534 38.2551C25.9714 37.9053 26.0637 37.5575 26.1392 37.2415C26.8646 34.2025 25.3468 31.0258 23.9443 28.418C23.1254 26.8954 22.4912 25.6168 22.5174 23.8493C22.5283 23.1148 22.5869 22.2887 23.0434 21.6791C23.4564 21.1277 24.3675 20.5254 25.0786 20.5613C25.9643 20.6061 26.4837 21.5683 27.2835 21.8486C28.5758 22.3016 27.6938 19.628 27.5633 19.0614C27.3552 18.158 27.6602 17.2951 27.846 16.4147C27.9879 15.7421 28.1806 15.0745 28.4946 14.4607C29.4537 12.5858 31.581 11.4781 33.543 10.9418Z" fill="#D8DEE8"/>
<g id="Clip path group">
<mask id="mask0_19_723" style="mask-type:luminance" maskUnits="userSpaceOnUse" x="22" y="10" width="21" height="30">
<g id="SVGID_00000034088530930172495620000006392322935198778514_">
<path id="Vector_3" d="M33.543 10.9418C35.627 10.3722 37.9178 11.1361 39.4566 12.6548C40.3936 13.5795 41.2861 14.8581 41.757 16.0901C42.4194 17.8229 42.1677 19.7291 41.5827 21.4467C40.8954 23.4647 39.2333 24.6059 37.7693 26.0534C37.4823 26.3371 35.9559 27.9905 37.2897 27.7586C39.1497 27.4351 39.6526 28.8863 39.6527 28.8866C40.0461 30.0221 39.7668 31.2415 39.0555 32.172C37.1553 34.6575 33.7301 36.2807 30.9889 37.6283C29.6995 38.2622 28.3846 38.8385 27.0562 39.383C26.7278 39.5176 26.3512 39.4486 26.0923 39.2058C25.8333 38.963 25.74 38.5914 25.8534 38.2551C25.9714 37.9053 26.0637 37.5575 26.1392 37.2415C26.8646 34.2025 25.3468 31.0258 23.9443 28.418C23.1254 26.8954 22.4912 25.6168 22.5174 23.8493C22.5283 23.1148 22.5869 22.2887 23.0434 21.6791C23.4564 21.1277 24.3675 20.5254 25.0786 20.5613C25.9643 20.6061 26.4837 21.5683 27.2835 21.8486C28.5758 22.3016 27.6938 19.628 27.5633 19.0614C27.3552 18.158 27.6602 17.2951 27.846 16.4147C27.9879 15.7421 28.1806 15.0745 28.4946 14.4607C29.4537 12.5858 31.581 11.4781 33.543 10.9418Z" fill="white"/>
</g>
</mask>
<g mask="url(#mask0_19_723)">
<g id="Group_5" opacity="0.8">
<g id="Group_6">
<path id="Vector_4" d="M25.9581 40.4412C25.9642 40.4515 25.9726 40.4606 25.9832 40.4677C26.0216 40.4936 26.0736 40.4834 26.0995 40.445C26.1356 40.3914 29.7484 35.0106 32.9472 28.6497C34.8267 24.912 36.198 21.5716 37.0229 18.7213C38.0572 15.1474 38.2311 12.3338 37.5397 10.3586C37.5244 10.3147 37.4767 10.2919 37.433 10.3072C37.3893 10.3225 37.3663 10.3703 37.3816 10.4139C38.0612 12.3557 37.8864 15.1349 36.862 18.6747C36.0399 21.5151 34.6724 24.8459 32.7975 28.5744C29.6035 34.9259 25.9966 40.2979 25.9605 40.3514C25.9418 40.3792 25.942 40.4142 25.9581 40.4412Z" fill="white"/>
</g>
<g id="Group_7">
<path id="Vector_5" d="M35.2575 23.2989C35.2598 23.3027 35.2623 23.3063 35.2652 23.3098C35.2949 23.3453 35.3477 23.3501 35.3832 23.3204C35.4447 23.2691 41.5444 18.1965 43.308 18.5725C43.3533 18.5821 43.3978 18.5533 43.4074 18.508C43.4171 18.4628 43.3882 18.4183 43.343 18.4086C41.5003 18.0157 35.5291 22.9803 35.2759 23.1918C35.2438 23.2186 35.2368 23.2642 35.2575 23.2989Z" fill="white"/>
</g>
<g id="Group_8">
<path id="Vector_6" d="M31.2426 8.63714C31.2504 8.65018 31.2618 8.66127 31.2763 8.66869C34.7233 10.4402 37.3021 16.8625 37.3278 16.9271C37.345 16.9702 37.3936 16.9912 37.4366 16.9741C37.4796 16.9571 37.5006 16.9084 37.4836 16.8653C37.4771 16.849 36.8247 15.2143 35.7505 13.3803C34.7569 11.6831 33.1864 9.46199 31.3528 8.51966C31.3117 8.4985 31.2612 8.51473 31.24 8.55588C31.2263 8.58256 31.2283 8.61315 31.2426 8.63714Z" fill="white"/>
</g>
<g id="Group_9">
<path id="Vector_7" d="M29.142 35.3325C29.1452 35.3379 29.1491 35.343 29.1536 35.3477C29.1857 35.3811 29.2387 35.3822 29.2721 35.3502C32.1426 32.5952 38.719 32.591 38.7851 32.5912C38.8314 32.5914 38.8691 32.5541 38.8693 32.5078C38.8694 32.4615 38.8321 32.4238 38.7859 32.4237C38.7692 32.4236 37.0945 32.4205 35.0838 32.7621C33.223 33.0782 30.684 33.7628 29.1561 35.2292C29.1274 35.2568 29.1225 35.2998 29.142 35.3325Z" fill="white"/>
</g>
<g id="Group_10">
<path id="Vector_8" d="M31.8615 30.4746C31.8795 30.5048 31.9155 30.5215 31.9517 30.5135C31.9969 30.5034 32.0254 30.4587 32.0153 30.4135C32.0084 30.3826 31.3137 27.2843 30.0588 23.7785C28.8984 20.5369 27.0073 16.2731 24.5874 14.3684C24.551 14.3397 24.4983 14.346 24.4697 14.3824C24.4411 14.4187 24.4474 14.4713 24.4837 14.5C26.8723 16.3801 28.7481 20.6141 29.901 23.8349C31.1525 27.331 31.8449 30.4191 31.8517 30.4498C31.8537 30.4588 31.8571 30.4671 31.8615 30.4746Z" fill="white"/>
</g>
</g>
</g>
</g>
</g>
</g>
<g id="Group_11">
<g id="Group_12">
<path id="Vector_9" d="M15.0543 14.0378C15.2785 14.0577 15.4928 14.0807 15.6883 14.0997C16.2953 14.1589 17.6261 14.5272 18.0849 13.9227C18.8413 12.9253 16.9196 11.2339 16.4358 10.474C15.8374 9.53413 15.0958 8.48759 14.9755 7.34606C14.7926 5.60995 15.9819 3.26146 17.4496 2.35478C19.4741 1.10415 22.3023 1.95522 24.1212 3.18299C26.7562 4.96163 28.6077 7.89544 29.3592 10.9598C30.1692 14.2627 29.0521 17.6816 29.3723 21.0293C29.8755 26.291 37.333 19.5875 35.8756 33.424C35.5539 36.4784 35.0291 39.8199 33.3131 42.4379C32.6014 43.5236 31.1787 45.0323 29.7606 44.9452C27.7499 44.8217 27.8398 41.9772 27.216 40.6641C26.4868 39.1292 25.2147 37.9164 23.801 37.0093C22.0029 35.8555 19.9183 34.8236 19.2036 32.6452C18.7394 31.2305 19.4379 29.7737 20.3317 28.6733C20.8242 28.0668 21.8741 27.3734 21.7167 26.4799C21.5861 25.7387 20.5446 25.1941 20.0016 24.8034C18.3314 23.6015 16.7075 22.3066 15.2222 20.8811C13.8893 19.6018 11.6349 17.6612 11.8174 15.5823C11.9642 13.9092 13.6929 13.9168 15.0543 14.0378Z" fill="url(#paint0_linear_19_723)"/>
<g id="Clip path group_2">
<mask id="mask1_19_723" style="mask-type:luminance" maskUnits="userSpaceOnUse" x="11" y="1" width="26" height="44">
<g id="SVGID_00000109025821799828969870000017489067663932807301_">
<path id="Vector_10" d="M15.0543 14.0378C15.2785 14.0577 15.4928 14.0807 15.6883 14.0997C16.2953 14.1589 17.6261 14.5272 18.0849 13.9227C18.8413 12.9253 16.9196 11.2339 16.4358 10.474C15.8374 9.53413 15.0958 8.48759 14.9755 7.34606C14.7926 5.60995 15.9819 3.26146 17.4496 2.35478C19.4741 1.10415 22.3023 1.95522 24.1212 3.18299C26.7562 4.96163 28.6077 7.89544 29.3592 10.9598C30.1692 14.2627 29.0521 17.6816 29.3723 21.0293C29.8755 26.291 37.333 19.5875 35.8756 33.424C35.5539 36.4784 35.0291 39.8199 33.3131 42.4379C32.6014 43.5236 31.1787 45.0323 29.7606 44.9452C27.7499 44.8217 27.8398 41.9772 27.216 40.6641C26.4868 39.1292 25.2147 37.9164 23.801 37.0093C22.0029 35.8555 19.9183 34.8236 19.2036 32.6452C18.7394 31.2305 19.4379 29.7737 20.3317 28.6733C20.8242 28.0668 21.8741 27.3734 21.7167 26.4799C21.5861 25.7387 20.5446 25.1941 20.0016 24.8034C18.3314 23.6015 16.7075 22.3066 15.2222 20.8811C13.8893 19.6018 11.6349 17.6612 11.8174 15.5823C11.9642 13.9092 13.6929 13.9168 15.0543 14.0378Z" fill="white"/>
</g>
</mask>
<g mask="url(#mask1_19_723)">
<g id="Group_13" opacity="0.8">
<g id="Group_14">
<path id="Vector_11" d="M25.7703 48.5598C25.7908 48.5598 25.8115 48.5536 25.8295 48.5408C29.2615 46.0893 30.8766 42.3465 30.7673 37.0983C30.672 32.523 29.3308 27.5584 28.0338 22.7574C27.0124 18.9767 26.0477 15.4056 25.872 12.5372C25.7313 10.2391 25.0751 8.15456 23.9216 6.34147C22.9991 4.89152 21.7587 3.61179 20.2348 2.53776C17.6427 0.710876 15.0895 0.10449 15.064 0.0985729C15.0091 0.085757 14.9543 0.120035 14.9416 0.174901C14.9288 0.22981 14.963 0.28461 15.0178 0.297361C15.043 0.303212 17.5631 0.9027 20.1231 2.70872C22.4797 4.37129 25.3548 7.4282 25.6683 12.5497C25.8452 15.4387 26.8126 19.0196 27.8367 22.8106C30.389 32.2584 33.2819 42.9668 25.7108 48.3747C25.665 48.4074 25.6544 48.4712 25.6871 48.517C25.7071 48.5449 25.7384 48.5598 25.7703 48.5598Z" fill="white"/>
</g>
<g id="Group_15">
<path id="Vector_12" d="M25.689 11.7614C25.6993 11.7614 25.7099 11.7598 25.7203 11.7565C25.7477 11.7476 26.4009 11.5298 27.1156 10.6802C27.7673 9.90533 28.5963 8.43039 28.8447 5.80394C28.85 5.74783 28.8089 5.69805 28.7527 5.69277C28.6971 5.68718 28.6469 5.72864 28.6416 5.78473C28.3991 8.3476 27.5991 9.78272 26.9707 10.5354C26.2926 11.3474 25.6637 11.5603 25.6574 11.5623C25.6039 11.5798 25.5746 11.6373 25.592 11.6908C25.6061 11.7339 25.646 11.7614 25.689 11.7614Z" fill="white"/>
</g>
<g id="Group_16">
<path id="Vector_13" d="M26.7094 18.1741C26.7611 18.1741 26.8054 18.135 26.8108 18.0824C26.8165 18.0264 26.7757 17.9763 26.7197 17.9706C26.7023 17.9688 24.9517 17.7805 22.6575 16.7681C20.5423 15.8347 17.5184 13.9892 15.1249 10.4982C15.093 10.4518 15.0296 10.4399 14.983 10.4718C14.9366 10.5036 14.9247 10.5671 14.9566 10.6136C17.3793 14.1472 20.441 16.0143 22.5827 16.9582C24.9048 17.9816 26.6812 18.1718 26.699 18.1736C26.7025 18.174 26.706 18.1741 26.7094 18.1741Z" fill="white"/>
</g>
<g id="Group_17">
<path id="Vector_14" d="M30.3926 33.821C30.4039 33.821 30.4154 33.8191 30.4266 33.8151C30.4976 33.7901 32.1829 33.182 33.5752 31.4786C34.3933 30.4778 34.9348 29.3066 35.1849 27.9976C35.4965 26.3663 35.3532 24.5164 34.759 22.4991C34.7432 22.445 34.6865 22.4142 34.6323 22.4301C34.5782 22.446 34.5474 22.5028 34.5632 22.5568C35.8844 27.0416 34.6725 29.8097 33.4233 31.342C32.0678 33.0047 30.3756 33.6167 30.3586 33.6227C30.3055 33.6415 30.2777 33.6997 30.2964 33.7528C30.3112 33.7948 30.3506 33.821 30.3926 33.821Z" fill="white"/>
</g>
<g id="Group_18">
<path id="Vector_15" d="M29.7991 30.3773C29.8495 30.3773 29.8933 30.3399 29.9001 30.2886C29.9075 30.2327 29.8682 30.1815 29.8123 30.1741C29.7307 30.1633 21.6306 29.063 19.6457 25.9979C19.615 25.9507 19.5519 25.9371 19.5046 25.9677C19.4573 25.9984 19.4438 26.0616 19.4744 26.1089C20.3317 27.4326 22.33 28.5534 25.414 29.4401C27.7003 30.0975 29.7651 30.3737 29.7856 30.3764C29.7902 30.377 29.7946 30.3773 29.7991 30.3773Z" fill="white"/>
</g>
</g>
</g>
</g>
</g>
</g>
<g id="Group_19">
<g id="Group_20">
<path id="Vector_16" d="M1.86752 17.6025C2.63364 14.8414 5.0594 12.7503 7.83454 12.0283C9.52425 11.5887 11.5869 11.4401 13.3103 11.7401C15.7342 12.1621 17.735 13.7432 19.2946 15.5759C21.1271 17.7292 21.2986 20.3977 21.9536 23.0485C22.082 23.5681 22.9291 26.4298 23.5706 24.7527C24.4651 22.414 26.4599 22.8265 26.4603 22.8265C28.0211 23.1494 29.2207 24.2954 29.7978 25.7377C31.3393 29.5902 30.8628 34.5947 30.5368 38.6328C30.3834 40.5322 30.1472 42.4215 29.8655 44.3046C29.7958 44.7702 29.4615 45.1524 29.0091 45.2825C28.5567 45.4126 28.07 45.2666 27.7638 44.9091C27.4454 44.5372 27.1118 44.1958 26.8031 43.8953C23.8334 41.0053 19.1836 40.5776 15.2603 40.4047C12.9695 40.3037 11.0822 40.1581 9.08628 38.9281C8.25692 38.417 7.35561 37.7893 6.97109 36.8552C6.62327 36.0103 6.55563 34.5633 7.07945 33.7775C7.73181 32.7989 9.18073 32.8605 10.0432 32.1397C11.4368 30.9749 7.79192 30.1643 7.05777 29.9283C5.88724 29.552 5.11119 28.6186 4.23432 27.8091C3.56446 27.1908 2.93467 26.5179 2.44861 25.7434C0.963882 23.3776 1.14623 20.2019 1.86752 17.6025Z" fill="url(#paint1_linear_19_723)"/>
<g id="Clip path group_3">
<mask id="mask2_19_723" style="mask-type:luminance" maskUnits="userSpaceOnUse" x="1" y="11" width="30" height="35">
<g id="SVGID_00000072967846315884857570000010850193287897814436_">
<path id="Vector_17" d="M1.86752 17.6025C2.63364 14.8414 5.0594 12.7503 7.83454 12.0283C9.52425 11.5887 11.5869 11.4401 13.3103 11.7401C15.7342 12.1621 17.735 13.7432 19.2946 15.5759C21.1271 17.7292 21.2986 20.3977 21.9536 23.0485C22.082 23.5681 22.9291 26.4298 23.5706 24.7527C24.4651 22.414 26.4599 22.8265 26.4603 22.8265C28.0211 23.1494 29.2207 24.2954 29.7978 25.7377C31.3393 29.5902 30.8628 34.5947 30.5368 38.6328C30.3834 40.5322 30.1472 42.4215 29.8655 44.3046C29.7958 44.7702 29.4615 45.1524 29.0091 45.2825C28.5567 45.4126 28.07 45.2666 27.7638 44.9091C27.4454 44.5372 27.1118 44.1958 26.8031 43.8953C23.8334 41.0053 19.1836 40.5776 15.2603 40.4047C12.9695 40.3037 11.0822 40.1581 9.08628 38.9281C8.25692 38.417 7.35561 37.7893 6.97109 36.8552C6.62327 36.0103 6.55563 34.5633 7.07945 33.7775C7.73181 32.7989 9.18073 32.8605 10.0432 32.1397C11.4368 30.9749 7.79192 30.1643 7.05777 29.9283C5.88724 29.552 5.11119 28.6186 4.23432 27.8091C3.56446 27.1908 2.93467 26.5179 2.44861 25.7434C0.963882 23.3776 1.14623 20.2019 1.86752 17.6025Z" fill="white"/>
</g>
</mask>
<g mask="url(#mask2_19_723)">
<g id="Group_21" opacity="0.8">
<g id="Group_22">
<path id="Vector_18" d="M30.3255 46.2743C30.3414 46.2743 30.3575 46.2709 30.3728 46.2637C30.4283 46.2375 30.4521 46.1713 30.426 46.1158C30.3894 46.0382 26.7123 38.2686 21.6374 30.3052C18.6553 25.6259 15.7808 21.7954 13.0935 18.9202C9.72423 15.3152 6.6368 13.2067 3.91699 12.6531C3.85662 12.6408 3.79815 12.6797 3.78592 12.7398C3.77365 12.7999 3.81252 12.8586 3.87262 12.8708C6.54628 13.415 9.59399 15.5014 12.9312 19.0719C15.6091 21.9372 18.4752 25.7568 21.45 30.4246C26.5174 38.3762 30.1884 46.1331 30.2249 46.2105C30.2439 46.2507 30.2838 46.2743 30.3255 46.2743Z" fill="white"/>
</g>
<g id="Group_23">
<path id="Vector_19" d="M17.11 24.0398C17.1158 24.0398 17.1217 24.0394 17.1276 24.0385C17.1883 24.0288 17.2295 23.9718 17.2199 23.9112C17.2031 23.8064 15.5658 13.4127 17.1916 11.6587C17.2333 11.6137 17.2307 11.5435 17.1857 11.5017C17.1407 11.46 17.0703 11.4627 17.0286 11.5077C15.3299 13.3402 16.9314 23.514 17.0004 23.9462C17.0091 24.0009 17.0563 24.0398 17.11 24.0398Z" fill="white"/>
</g>
<g id="Group_24">
<path id="Vector_20" d="M-2.32008 18.6584C-2.29997 18.6584 -2.2796 18.653 -2.2613 18.6415C2.09746 15.9172 11.1654 17.34 11.2565 17.3547C11.3172 17.3644 11.3741 17.3232 11.3839 17.2626C11.3936 17.202 11.3524 17.145 11.2918 17.1352C11.2689 17.1315 8.96344 16.7648 6.14455 16.7433C3.5364 16.7229 -0.0605049 17.0039 -2.37909 18.453C-2.43114 18.4856 -2.44695 18.5541 -2.41444 18.6062C-2.39333 18.6399 -2.35711 18.6584 -2.32008 18.6584Z" fill="white"/>
</g>
<g id="Group_25">
<path id="Vector_21" d="M26.6672 39.178C26.6755 39.178 26.684 39.1771 26.6924 39.1752C26.7522 39.1613 26.7894 39.1016 26.7756 39.0418C25.586 33.9009 30.0467 26.4055 30.0918 26.3304C30.1235 26.2778 30.1065 26.2096 30.0539 26.1779C30.0012 26.1464 29.933 26.1633 29.9014 26.2158C29.89 26.2348 28.7495 28.1406 27.7733 30.6633C26.8699 32.998 25.9258 36.3554 26.5591 39.092C26.571 39.1433 26.6167 39.178 26.6672 39.178Z" fill="white"/>
</g>
<g id="Group_26">
<path id="Vector_22" d="M22.9792 32.7812C23.0259 32.7812 23.0693 32.7515 23.0847 32.7048C23.104 32.6465 23.0723 32.5837 23.014 32.5645C22.9741 32.5513 18.9726 31.239 14.1264 30.2883C9.64538 29.4092 3.50355 28.6685 -0.309567 30.1322C-0.366857 30.1542 -0.39548 30.2184 -0.373472 30.2758C-0.351487 30.3331 -0.287276 30.3616 -0.229899 30.3397C3.53394 28.895 9.63131 29.6329 14.0836 30.5064C18.9164 31.4544 22.9047 32.7624 22.9444 32.7755C22.9559 32.7794 22.9677 32.7812 22.9792 32.7812Z" fill="white"/>
</g>
</g>
</g>
</g>
</g>
</g>
</g>
<g id="Group_27">
<g id="Group_28">
<path id="Vector_23" d="M59.4631 13.3097H58.1705V11.6047C58.1705 11.0257 57.7461 10.5724 57.167 10.5724H55.6613V9.27979H57.167C58.4726 9.27979 59.4631 10.2991 59.4631 11.6047V13.3097Z" fill="url(#paint2_linear_19_723)"/>
</g>
<path id="Vector_24" d="M60.1517 12.3973H57.4444C57.1272 12.3973 56.8779 12.651 56.8779 12.9681V26.9148C56.8779 27.4585 57.3109 27.9087 57.8546 27.9087H59.7415C60.2852 27.9087 60.7558 27.4585 60.7558 26.9148V12.9681C60.7558 12.651 60.4689 12.3973 60.1517 12.3973Z" fill="url(#paint3_linear_19_723)"/>
<path id="Vector_25" d="M56.1392 5.62561C56.1392 6.61911 54.9595 7.47806 53.2506 7.88168C53.0168 7.93664 52.7739 7.9834 52.5221 8.02115C52.0544 8.09008 51.5589 8.12781 51.0454 8.12781C50.2553 8.12781 49.5079 8.03921 48.8402 7.88168C47.1313 7.47806 45.9516 6.61911 45.9516 5.62561C45.9516 5.61168 45.9516 5.59853 45.9524 5.58458C45.9556 5.47302 45.9745 5.36263 46.0073 5.25514C46.3708 4.04835 48.4882 3.12085 51.0454 3.12085H51.0609C53.6116 3.12085 55.7208 4.05082 56.0834 5.25514C56.1162 5.36263 56.1351 5.47236 56.1384 5.58395C56.1392 5.5979 56.1392 5.61168 56.1392 5.62561Z" fill="url(#paint4_linear_19_723)"/>
<path id="Vector_26" d="M55.5093 37.0331V45.7773H55.5542C55.5009 46.2335 54.153 46.6657 52.3186 46.7995C51.915 46.829 51.4876 46.8438 51.0454 46.8438C48.5941 46.8438 46.6013 46.3856 46.5365 45.7773H46.537V37.0331H55.5093Z" fill="url(#paint5_linear_19_723)"/>
<path id="Vector_27" d="M56.2286 40.0745C56.1539 40.3026 55.9185 40.4204 55.5575 40.5615C54.8627 40.8322 53.701 41.0536 52.3202 41.1356C51.9125 41.1594 51.4851 41.1786 51.0454 41.1786C49.1166 41.1786 47.4331 40.9088 46.5332 40.5585C46.1722 40.4174 45.9368 40.3026 45.8621 40.0745H45.8526V5.63007H56.1936V40.0745H56.2286Z" fill="url(#paint6_linear_19_723)"/>
<path id="Vector_28" d="M56.1936 40.0745H56.2286C56.1539 40.3026 55.9185 40.4204 55.5575 40.5615C54.8627 40.8322 53.701 41.0536 52.3202 41.1356C51.9125 41.1594 51.4851 41.1786 51.0454 41.1786C49.1166 41.1786 47.4331 40.9088 46.5332 40.5585C46.1722 40.4174 45.9368 40.3026 45.8621 40.0745H45.8526V33.6115H45.8621C46.123 34.2197 48.3438 34.6883 51.0454 34.6883C51.6549 34.6883 52.2297 34.6713 52.7736 34.6262C54.5998 34.4744 55.9655 34.1031 56.1936 33.6707L56.1936 40.0745Z" fill="url(#paint7_linear_19_723)"/>
<path id="Vector_29" d="M56.229 33.642C56.2248 33.6521 56.2197 33.6614 56.2138 33.6714V33.642H56.229Z" fill="url(#paint8_linear_19_723)"/>
<path id="Vector_30" d="M56.4009 28.6655C56.3385 28.6729 56.2762 28.6803 56.2138 28.6868C54.9652 28.8321 53.7116 28.9239 52.4565 28.9633C50.2332 29.033 48.0066 28.9379 45.7948 28.6778C45.7596 28.6737 45.7251 28.6696 45.6898 28.6655C45.1451 28.5999 44.7661 28.1098 44.8415 27.5946C44.9113 27.118 45.3256 26.7682 45.7948 26.7682H45.7981C45.8359 26.7682 45.8753 26.7783 45.9138 26.7833C48.0993 27.0458 50.3005 27.1444 52.4975 27.0697C53.7264 27.0287 54.9545 26.9365 56.1769 26.7896C56.1892 26.788 56.2015 26.7882 56.2139 26.7874C56.7168 26.7464 57.1753 27.0989 57.2492 27.6026C57.3246 28.1178 56.9456 28.5999 56.4009 28.6655Z" fill="url(#paint9_linear_19_723)"/>
<path id="Vector_31" d="M56.4009 35.1466C56.3385 35.154 56.2762 35.1614 56.2138 35.1679C55.0013 35.309 53.7838 35.3993 52.5656 35.4411C50.3062 35.5174 48.0427 35.4231 45.7949 35.1589C45.7596 35.1548 45.7252 35.1507 45.6898 35.1466C45.1451 35.081 44.7661 34.5819 44.8416 34.0667C44.9113 33.5901 45.3256 33.2313 45.7949 33.2313H45.7982C45.8359 33.2313 45.8753 33.2504 45.9139 33.2553C48.0805 33.5154 50.262 33.6193 52.4401 33.5488C53.6879 33.5078 54.9349 33.4178 56.1769 33.2685C56.1893 33.2669 56.2016 33.2682 56.2139 33.2674C56.7168 33.2264 57.1754 33.5794 57.2492 34.0831C57.3247 34.5983 56.9456 35.0809 56.4009 35.1466Z" fill="url(#paint10_linear_19_723)"/>
<path id="Vector_32" d="M57.1606 13.3365C57.186 13.8566 56.7775 14.2996 56.2483 14.3201C56.2368 14.3209 56.2253 14.321 56.2138 14.3218C54.9775 14.3702 53.7404 14.4013 52.5032 14.4153C50.2824 14.4399 48.0616 14.4087 45.8425 14.3201C45.826 14.3193 45.8104 14.3185 45.7949 14.3168C45.2887 14.2725 44.9056 13.841 44.9302 13.3365C44.9523 12.8574 45.3297 12.4791 45.7949 12.4381C45.8227 12.4357 45.8507 12.434 45.8794 12.434C45.8917 12.434 45.904 12.434 45.9171 12.4348C48.1182 12.5226 50.3201 12.5538 52.5221 12.5276C53.7395 12.5144 54.957 12.4833 56.1736 12.4348C56.1876 12.434 56.2007 12.434 56.2138 12.434C56.7167 12.4357 57.136 12.8295 57.1606 13.3365Z" fill="url(#paint11_linear_19_723)"/>
<path id="Vector_33" d="M56.8019 7.45394C56.8019 7.74844 56.5631 7.98718 56.2686 7.98718H45.7016C45.4071 7.98718 45.1683 7.74844 45.1683 7.45394V5.85917C45.1683 5.56467 45.4071 5.32593 45.7016 5.32593H56.2686C56.5631 5.32593 56.8019 5.56467 56.8019 5.85917V7.45394Z" fill="url(#paint12_linear_19_723)"/>
<path id="Vector_34" opacity="0.3" d="M57.2391 34.0842C57.3145 34.5994 56.9304 35.081 56.3857 35.1466C56.3234 35.154 56.2696 35.1614 56.1936 35.1679V40.0745H56.2286C56.154 40.3026 55.8894 40.4447 55.5093 40.5858V45.7772H55.5542C55.5009 46.2335 54.153 46.6657 52.3186 46.7994C53.6313 45.8896 52.317 41.183 52.317 41.183C52.317 41.183 52.3178 41.1716 52.3203 41.1469C52.3457 40.8418 52.5254 38.7001 52.5844 37.0872C52.6115 36.3563 52.6131 35.7338 52.5656 35.4409C52.7223 35.1554 52.7564 34.8807 52.7597 34.6337C52.7671 34.0078 52.3918 33.5599 52.3918 33.5599V28.9854C52.3918 28.978 52.4274 28.9707 52.4323 28.9633C52.9976 28.1954 52.524 27.1543 52.4854 27.0739C52.4838 27.0706 52.489 27.069 52.489 27.069C52.489 27.069 52.3821 15.7574 52.492 14.4235C52.4945 14.421 52.4721 14.4177 52.4746 14.4153C53.2261 13.6835 52.4678 12.5579 52.4678 12.5579V7.88169C52.4678 7.88169 53.4517 6.86113 52.5649 5.58458C52.4919 5.47957 52.3918 5.37291 52.3157 5.26462V5.25641C52.3157 4.25883 51.6715 3.59622 51.0431 3.15814C53.5937 3.16225 55.7208 4.03327 56.0834 5.32591H56.3369C56.6314 5.32591 56.8779 5.49516 56.8779 5.78968V7.34842C56.8779 7.64294 56.6314 7.8351 56.3369 7.8351H56.1936V12.434C56.7258 12.4357 57.1258 12.8295 57.1504 13.3365C57.1759 13.8566 56.7622 14.2996 56.2331 14.3201C56.2216 14.3209 56.1936 14.3209 56.1936 14.3218V26.7884C56.7258 26.7474 57.1652 27.0993 57.239 27.6031C57.3145 28.1183 56.9304 28.5998 56.3857 28.6655C56.3233 28.6729 56.2696 28.6802 56.1936 28.6868V33.2695C56.7258 33.2285 57.1652 33.5805 57.2391 34.0842Z" fill="url(#paint13_linear_19_723)"/>
</g>
<g id="Group_29">
<path id="Vector_35" d="M2.12274 35.2843H3.76905L7.20694 25.3516L5.94799 24.4348L2.12274 35.2843Z" fill="#97A6B7"/>
<path id="Vector_36" d="M14.146 50.3218L51.2512 47.0863V33.3073H40.6658L14.1627 49.9778L14.146 50.3218Z" fill="url(#paint14_linear_19_723)"/>
<path id="Vector_37" d="M39.6006 24.4597L46.67 25.1988L53.1584 34.3718H40.6658L39.6006 24.4597Z" fill="url(#paint15_linear_19_723)"/>
<path id="Vector_38" d="M43.797 32.9474L40.3748 33.8674L34.0806 19.1958L36.3328 16.4271L43.797 32.9474Z" fill="#97A6B7"/>
<path id="Vector_39" d="M3.57645 36.1432V46.4404L14.1801 50.3218L14.1876 50.3334L26.0549 49.4105L27.9934 49.9916L41.7467 48.5389V33.0762L35.3202 18.3359L21.1396 28.9604L7.17402 23.8288L7.17841 23.8132L3.57645 36.1432Z" fill="url(#paint16_linear_19_723)"/>
<path id="Vector_40" d="M28.0601 49.9916V33.819V32.1727L26.1592 34.3345V49.4105L28.0601 49.9916Z" fill="url(#paint17_linear_19_723)"/>
<path id="Vector_41" d="M17.1975 24.0466L22.3626 24.4256L23.6645 33.5979L23.783 34.4321L26.6237 34.7873L36.5987 15.9033L35.5875 16.3276L17.1975 24.0466Z" fill="url(#paint18_linear_19_723)"/>
<path id="Vector_42" d="M36.2101 16.6208L43.797 32.8511H44.5395L36.5984 15.831L36.2101 16.6208Z" fill="url(#paint19_linear_19_723)"/>
<path id="Vector_43" d="M3.57645 34.7874V46.4404L14.0695 50.3218V34.4968L7.14123 23.8288L7.16202 23.8132L3.57645 34.7874Z" fill="url(#paint20_linear_19_723)"/>
<path id="Vector_44" d="M1.64297 35.0294L2.07915 35.3031L6.15808 24.8775L11.7745 34.3347L23.783 34.4321L23.6645 33.5979L22.5994 24.3655L17.1975 24.0314L5.99623 23.1945H5.99359L5.97123 23.2077L5.94034 23.3002L1.64297 35.0294Z" fill="url(#paint21_linear_19_723)"/>
<path id="Vector_45" d="M32.2421 36.653V47.1929L36.8898 46.8791L37.2283 46.8686L37.2763 36.653H32.2421Z" fill="#97A6B7"/>
<g id="Group_30">
<path id="Vector_46" d="M16.4266 44.1281L23.8021 43.8418V36.8583L16.4266 36.6749V44.1281Z" fill="white"/>
<g id="Group_31">
<path id="Vector_47" d="M20.5325 43.2082L23.2698 43.1172V37.481L20.5325 37.4274V43.2082Z" fill="url(#paint22_linear_19_723)"/>
<path id="Vector_48" d="M16.9588 43.3165L20.0003 43.2235V37.4178L16.9588 37.3602V43.3165Z" fill="url(#paint23_linear_19_723)"/>
</g>
</g>
<g id="Group_32">
<path id="Vector_49" d="M43.0848 43.5151L49.9586 43.2535V36.844L43.0515 36.6749L43.0848 43.5151Z" fill="white"/>
<g id="Group_33">
<path id="Vector_50" d="M46.8619 42.6742L49.3812 42.591L49.3791 37.4178L46.8506 37.3683L46.8619 42.6742Z" fill="url(#paint24_linear_19_723)"/>
<path id="Vector_51" d="M43.6647 42.7733L46.3774 42.6882L46.3643 37.3595L43.6411 37.3065L43.6647 42.7733Z" fill="url(#paint25_linear_19_723)"/>
</g>
</g>
<g id="Group_34">
<path id="Vector_52" d="M4.73444 42.352L12.0925 43.6V36.4983L4.63693 36.5403L4.73444 42.352Z" fill="white"/>
<g id="Group_35">
<path id="Vector_53" d="M8.28207 42.2804L11.4074 42.7531L11.3987 37.1459L8.2377 37.1126L8.28207 42.2804Z" fill="url(#paint26_linear_19_723)"/>
<path id="Vector_54" d="M5.20348 41.8148L7.80823 42.2087L7.75899 37.1076L5.1301 37.0799L5.20348 41.8148Z" fill="url(#paint27_linear_19_723)"/>
</g>
</g>
<path id="Vector_55" d="M36.8804 36.653V46.8791L37.2236 46.8686L37.2763 36.653H36.8804Z" fill="url(#paint28_linear_19_723)"/>
<g id="Group_36">
<g id="Group_37">
<path id="Vector_56" d="M32.2421 47.1925V49.5756L36.5992 50.7218L37.086 49.9822L38.9112 47.2118L37.0409 46.8558L32.2421 47.1925Z" fill="url(#paint29_linear_19_723)"/>
<path id="Vector_57" d="M32.2421 47.1926V49.5756L36.5992 50.7218L37.086 49.9823L36.4853 48.8453L33.5972 47.6161L32.2421 47.1926Z" fill="url(#paint30_linear_19_723)"/>
<g id="Group_38">
<path id="Vector_58" d="M36.5001 49.7995L35.4357 49.5475V48.672L33.6108 48.4554V47.6162L39.0854 47.1926V47.9613L40.5301 48.1595V48.9606L41.7467 49.1913V50.0368L36.5001 50.7217V49.7995Z" fill="url(#paint31_linear_19_723)"/>
</g>
<path id="Vector_59" d="M36.5002 49.7995L41.7467 49.1912V50.0368L36.5002 50.7216V49.7995Z" fill="#97A6B7"/>
<path id="Vector_60" d="M35.4357 48.672L40.5301 48.1595V48.9606L35.4357 49.5475V48.672Z" fill="#97A6B7"/>
</g>
<path id="Vector_61" d="M39.0854 47.1926V47.9613L33.6108 48.4554V47.6538L39.0854 47.1926Z" fill="#97A6B7"/>
</g>
<g id="Group_39">
<path id="Vector_62" d="M36.5762 31.7866V27.4758C36.5762 26.5947 35.8817 25.8558 35.0006 25.8558H34.3227C33.4416 25.8558 32.7744 26.5948 32.7744 27.4758V31.7866H36.5762Z" fill="white"/>
<path id="Vector_63" d="M34.3227 26.1599H35.0006C35.6691 26.1599 36.196 26.8073 36.196 27.4758V31.3304H33.1546V27.4758C33.1546 26.8073 33.6541 26.1599 34.3227 26.1599Z" fill="url(#paint32_linear_19_723)"/>
</g>
<path id="Vector_64" opacity="0.3" d="M1.64297 35.0294L2.07915 35.3031L6.15808 24.8775L11.7745 34.3347L23.783 34.4321L26.6237 34.7874L36.5987 15.9033L35.5875 16.3276L35.5368 16.4269L26.2178 33.9994L23.6849 33.6115H12.4021L5.99623 23.2317L5.99492 23.2263L5.99359 23.2266L5.94034 23.3087L1.64297 35.0294Z" fill="url(#paint33_linear_19_723)"/>
</g>
<g id="Group_40">
<path id="Vector_65" d="M42.9556 57.4759C42.9556 57.4759 41.1299 58.3057 41.1001 58.4381C41.0703 58.5705 42.2742 58.3937 42.7657 58.4128C43.2571 58.4319 43.6614 58.2867 43.6169 58.0785C43.5724 57.8703 43.4004 57.3467 43.4004 57.3467L42.9556 57.4759Z" fill="url(#paint34_linear_19_723)"/>
<path id="Vector_66" d="M42.8888 56.8025L42.9998 57.6245C42.9998 57.6245 43.2889 57.7274 43.483 57.6057L43.5658 56.7042L42.8888 56.8025Z" fill="url(#paint35_linear_19_723)"/>
<path id="Vector_67" d="M51.4864 56.8222L51.6987 57.1631C51.7581 57.2584 51.7758 57.3732 51.7473 57.4818C51.6731 57.7653 51.5247 58.3178 51.4601 58.4619C51.372 58.6581 50.1906 58.7746 50.1906 58.7746C50.1906 58.7746 50.0852 58.6264 50.3305 58.4473C50.5758 58.2683 50.7335 58.2401 50.82 57.9758C50.9066 57.7116 50.9644 56.9642 50.9644 56.9642L51.4864 56.8222Z" fill="url(#paint36_linear_19_723)"/>
<path id="Vector_68" d="M50.6025 55.9559C50.68 56.0178 51.0595 57.1695 51.0595 57.1695C51.0595 57.1695 51.1823 57.3265 51.4156 57.0947C51.6489 56.863 51.5212 56.9908 51.5212 56.9908L51.4775 55.858L50.6025 55.9559Z" fill="url(#paint37_linear_19_723)"/>
<path id="Vector_69" d="M41.8843 40.2886C41.788 42.7406 41.7841 45.4044 41.9251 48.2503C42.084 51.4549 42.4032 54.4168 42.8055 57.1018C42.955 57.1066 43.1122 57.1073 43.2763 57.1027C43.3872 57.0996 43.4946 57.0942 43.5984 57.0871C43.8071 56.5304 44.0539 55.7982 44.2749 54.9237C44.5072 54.0042 44.6473 53.1793 44.7472 52.3906C45.0987 49.6135 44.6867 49.3712 44.9721 47.313C45.2247 45.4903 45.584 45.4191 46.0059 42.8312C46.4636 40.0232 46.1229 39.6019 45.9572 39.4497C45.2518 38.8019 43.5949 39.2429 41.8843 40.2886Z" fill="url(#paint38_linear_19_723)"/>
<path id="Vector_70" opacity="0.3" d="M45.9572 39.4498C45.2844 38.8319 43.7458 39.2059 42.1208 40.1491C43.9903 42.1688 44.194 43.4791 43.9699 44.3292C43.7166 45.2901 42.9466 45.5668 42.9495 46.6175C42.9531 47.9086 44.1184 48.2506 44.0936 49.6169C44.0772 50.5204 43.5652 50.511 43.4443 51.6268C43.3012 52.9471 43.9701 53.4021 43.7535 54.3789C43.6603 54.7992 43.3942 55.3483 42.6365 55.914C42.6911 56.3152 42.7471 56.7122 42.8055 57.1019C42.955 57.1065 43.1122 57.1074 43.2763 57.1027C43.3872 57.0997 43.4946 57.0943 43.5984 57.0871C43.8071 56.5304 44.0539 55.7983 44.2749 54.9238C44.5072 54.0042 44.6473 53.1794 44.7472 52.3906C45.0987 49.6135 44.6867 49.3712 44.9721 47.3131C45.2247 45.4903 45.5841 45.4191 46.0059 42.8312C46.4636 40.0232 46.1228 39.6019 45.9572 39.4498Z" fill="url(#paint39_linear_19_723)"/>
<path id="Vector_71" d="M43.0423 40.2475C44.6519 42.6027 46.3881 45.534 47.9408 49.0426C49.1142 51.694 49.9652 54.1835 50.59 56.4021C50.6746 56.4413 50.874 56.5194 51.1288 56.4857C51.4765 56.4397 51.6848 56.2178 51.7392 56.1559C51.9936 54.5654 51.9655 53.2184 51.8792 52.2462C51.824 51.6238 51.7261 50.5873 51.3294 49.3076C50.885 47.8743 50.5795 47.7937 49.9998 46.2773C49.398 44.7032 49.5438 44.3105 48.9675 42.3407C48.7308 41.5315 48.3345 40.3273 47.6806 38.8869C46.1345 39.3404 44.5884 39.794 43.0423 40.2475Z" fill="url(#paint40_linear_19_723)"/>
<path id="Vector_72" d="M35.6107 43.2366C35.9202 43.718 36.9857 43.6617 37.7134 43.4016C39.4147 42.7932 40.5036 40.6294 40.5994 38.9075C40.62 38.5378 40.607 38.1764 40.6819 38.1654C40.8704 38.1377 41.3544 40.3731 41.7343 42.2683C42.0397 42.38 42.5028 42.4988 43.032 42.412C43.8981 42.2702 44.0011 41.7321 44.9697 41.3813C45.5349 41.1766 46.0887 41.1761 47.1962 41.1752C48.4464 41.1741 48.4808 41.3283 48.7216 41.2164C48.7216 41.2164 48.7803 41.1894 48.8324 41.147C49.593 40.5275 47.7412 32.3903 47.7412 32.3903C47.291 30.4121 47.1722 29.7091 46.4558 29.1835C45.3344 28.3609 43.5719 28.5769 42.5155 29.036C41.7902 29.3512 40.962 29.9721 40.5027 30.3131C40.2143 30.5273 39.9143 30.7671 39.6013 31.0405C38.8422 31.7035 38.3137 32.165 37.8783 32.8056C36.1226 35.3889 38.1517 37.5418 36.559 40.8454C36.0113 41.9812 35.2865 42.7325 35.6107 43.2366Z" fill="url(#paint41_linear_19_723)"/>
<path id="Vector_73" d="M40.3313 28.5704C40.3313 28.5704 40.7884 29.0894 41.2797 29.3584C41.7237 29.6015 42.7025 29.192 42.9289 29.144C43.1554 29.0959 42.8836 29.7057 42.4564 30.1259C42.0292 30.5462 40.617 31.5074 40.2361 31.5234C39.8552 31.5395 40.2974 31.206 40.5313 30.8176C40.7652 30.4292 40.4356 29.6262 40.1404 29.3788C39.8452 29.1313 40.3313 28.5704 40.3313 28.5704Z" fill="url(#paint42_linear_19_723)"/>
<g id="Group_41">
<path id="Vector_74" d="M39.281 28.9764C38.6712 28.9236 38.0813 27.507 38.383 27.2302C38.4949 27.1275 38.6111 27.2897 39.4762 27.4584C39.911 27.5431 40.1733 27.559 40.3876 27.7819C40.452 27.8488 40.5693 27.9765 40.6032 28.1618C40.6167 28.2356 40.6174 28.3371 40.6048 28.5393C40.5935 28.7187 40.5968 28.7109 40.5922 28.7639C40.581 28.8912 40.5463 29.1152 40.4221 29.4256C40.3704 29.3689 40.302 29.3012 40.2155 29.2345C40.1823 29.2088 40.0507 29.1094 39.9011 29.0491C39.6323 28.9408 39.4199 28.9885 39.281 28.9764Z" fill="url(#paint43_linear_19_723)"/>
<path id="Vector_75" d="M40.6117 29.0797C40.6117 29.0797 40.5886 29.5759 40.121 29.7938C39.7023 29.9889 39.1465 29.1147 39.2994 28.7809C39.3504 28.6695 39.5084 28.5484 39.6702 28.5109C39.7658 28.4887 39.8127 28.5078 39.9682 28.4685C40.1115 28.4323 40.1394 28.399 40.1948 28.4101C40.2641 28.4241 40.3523 28.5029 40.4184 28.8113C40.4527 28.691 40.5289 28.6103 40.6114 28.6053C40.6246 28.6045 40.6627 28.6082 40.694 28.6283C40.8072 28.7009 40.7851 28.8849 40.6117 29.0797Z" fill="url(#paint44_linear_19_723)"/>
<path id="Vector_76" d="M40.3682 28.5374C40.3682 28.5374 40.4099 28.9444 40.3682 29.0754C40.3265 29.2065 40.1541 29.3864 39.8859 29.4126C39.6177 29.4388 39.4411 29.4126 39.4411 29.4126C39.4411 29.4126 39.6415 29.8796 39.7249 29.8975C39.8083 29.9154 40.3192 29.891 40.4122 29.8049C40.5053 29.7188 40.6195 29.3425 40.5922 29.1762C40.5648 29.0099 40.4122 28.6336 40.4122 28.6336L40.3682 28.5374Z" fill="url(#paint45_linear_19_723)"/>
</g>
<g id="Group_42">
<path id="Vector_77" d="M26.9577 55.103C27.1021 55.2021 27.2995 55.1654 27.3985 55.021L40.0027 36.2986C40.1018 36.1543 40.0651 35.9569 39.9207 35.8578L39.8731 35.8252C39.7288 35.7261 39.5314 35.7628 39.4323 35.9072L26.8282 54.6296C26.7291 54.774 26.7658 54.9713 26.9102 55.0704L26.9577 55.103Z" fill="url(#paint46_linear_19_723)"/>
</g>
<path id="Vector_78" d="M36.0372 42.667C36.0372 42.667 35.3804 42.9807 34.9155 43.0464C34.4507 43.1121 34.3497 43.4834 34.4787 43.6199C34.6077 43.7563 35.3475 43.6069 35.5949 43.4677C35.8422 43.3286 36.0372 42.667 36.0372 42.667Z" fill="url(#paint47_linear_19_723)"/>
<path id="Vector_79" d="M29.8812 51.2848L29.3542 50.9409C29.2123 50.8483 29.0222 50.8883 28.9296 51.0302L26.5502 54.6762L27.5909 55.3554L29.9704 51.7094C30.063 51.5675 30.0231 51.3774 29.8812 51.2848Z" fill="url(#paint48_linear_19_723)"/>
<path id="Vector_80" d="M34.6971 44.2162L34.1702 43.8724C34.0283 43.7798 33.8382 43.8197 33.7455 43.9616L32.8073 45.3992C32.7148 45.5411 32.7547 45.7312 32.8966 45.8239L33.4235 46.1677C33.5655 46.2603 33.7555 46.2204 33.8482 46.0785L34.7863 44.6409C34.879 44.4989 34.839 44.3088 34.6971 44.2162Z" fill="url(#paint49_linear_19_723)"/>
<g id="Group_43">
<path id="Vector_81" d="M37.7658 38.5797L37.273 37.948C37.0919 37.7157 37.1124 37.3836 37.3206 37.1754L37.9812 36.5148C38.1172 36.3788 38.3114 36.3185 38.5005 36.3534L39.075 36.4595L39.0044 36.8414L38.4299 36.7353C38.3665 36.7236 38.3014 36.7438 38.2558 36.7895L37.5952 37.45C37.5254 37.5198 37.5185 37.6313 37.5793 37.7091L38.072 38.3409L37.7658 38.5797Z" fill="url(#paint50_linear_19_723)"/>
</g>
<g id="Group_44">
<path id="Vector_82" d="M29.976 54.9833L24.5515 54.8167C23.9175 54.7972 23.0716 55.1623 22.6185 55.6286L22.0823 56.1803L30.1115 57.321L31.0214 56.4304C31.7929 55.6752 31.2599 55.0227 29.976 54.9833Z" fill="url(#paint51_linear_19_723)"/>
<path id="Vector_83" d="M29.3274 58.0884L21.6187 56.6574L22.0823 56.1803L30.1115 57.321L29.3274 58.0884Z" fill="url(#paint52_linear_19_723)"/>
</g>
<path id="Vector_84" d="M28.4091 54.9095C28.3788 54.8342 28.3093 54.7818 28.2285 54.7735L25.9422 54.5389C25.7949 54.5237 25.6512 54.5906 25.5679 54.713L25.2791 55.137C25.2475 55.1834 25.2423 55.2429 25.2655 55.2941C25.2887 55.3452 25.337 55.3805 25.3927 55.3873L27.8345 55.6834C27.8744 55.6882 27.9142 55.6727 27.9402 55.642L28.3728 55.1327C28.4254 55.0708 28.4394 54.9849 28.4091 54.9095Z" fill="url(#paint53_linear_19_723)"/>
<g id="Group_45">
<path id="Vector_85" d="M59.477 55.8377C59.3387 55.8377 59.1988 55.8275 59.0582 55.8064C56.4755 55.4199 54.171 53.7921 52.013 50.83C50.2059 48.3495 48.884 45.4601 47.8218 43.1384C47.6445 42.7508 47.476 42.3825 47.3155 42.0388C45.1734 37.4538 39.8434 36.6209 39.7899 36.613L39.8461 36.2287C39.903 36.237 41.2594 36.4415 42.9089 37.237C44.4351 37.973 46.4995 39.375 47.6673 41.8744C47.8282 42.2189 47.9973 42.5883 48.175 42.9768C49.2299 45.2827 50.5428 48.1524 52.3269 50.6013C54.4205 53.4751 56.6411 55.052 59.1157 55.4223C60.2203 55.5875 61.2787 54.9792 61.69 53.9429C62.2728 52.4743 61.6353 51.272 59.7952 50.3695C57.6564 49.3205 56.2865 47.7808 55.0778 46.4225C53.7809 44.965 52.7565 43.8137 51.2559 43.7928L51.2614 43.4045C52.933 43.4278 54.0614 44.6959 55.3679 46.1643C56.5528 47.496 57.8958 49.0053 59.9662 50.0208C62.5248 51.2757 62.5121 52.9243 62.0509 54.0862C61.6251 55.1592 60.6025 55.8377 59.477 55.8377Z" fill="url(#paint54_linear_19_723)"/>
</g>
<path id="Vector_86" d="M40.5963 36.4209C40.5963 36.4209 40.0096 35.3412 39.4411 35.4526C38.8726 35.564 39.0745 36.4438 39.0745 36.4438C39.0745 36.4438 39.4588 36.1362 39.818 36.4209C40.1773 36.7055 40.2815 36.7477 40.5963 36.4209Z" fill="url(#paint55_linear_19_723)"/>
<path id="Vector_87" d="M46.7311 29.4256C46.8556 29.5177 50.867 34.3587 48.0231 37.0434C45.1793 39.7281 40.1875 36.9501 40.1875 36.9501L40.7639 35.964C40.5816 36.0321 43.9707 37.0316 45.4773 35.076C46.0112 34.383 44.8566 33.0444 44.6137 31.7826C44.2165 29.7197 44.6253 27.8684 46.7311 29.4256Z" fill="url(#paint56_linear_19_723)"/>
</g>
<g id="Group_46">
<g id="Group_47">
<path id="Vector_88" d="M19.3979 57.5716C18.2334 57.5716 17.237 57.2889 16.5026 56.9853C15.2265 56.4576 14.4666 55.7736 14.4349 55.7448C14.392 55.7058 14.3889 55.6395 14.4278 55.5966C14.4668 55.5537 14.5332 55.5505 14.5761 55.5895C14.6062 55.6168 17.6346 58.3096 21.6096 57.0037C21.6647 56.9856 21.724 57.0156 21.7421 57.0707C21.7602 57.1257 21.7302 57.185 21.6751 57.2031C20.8686 57.4681 20.1025 57.5716 19.3979 57.5716Z" fill="url(#paint57_linear_19_723)"/>
</g>
<g id="Group_48">
<path id="Vector_89" d="M20.0095 59.5258C19.8673 59.5258 19.731 59.522 19.6009 59.5153C18.2219 59.4441 17.2771 59.0533 17.2376 59.0367C17.1842 59.0143 17.159 58.9528 17.1815 58.8994C17.2039 58.8459 17.2653 58.8208 17.3188 58.8432C17.3563 58.8589 21.1101 60.3855 24.4207 57.8269C24.4667 57.7914 24.5325 57.7999 24.568 57.8458C24.6034 57.8916 24.595 57.9575 24.5491 57.993C22.949 59.2296 21.2598 59.5258 20.0095 59.5258Z" fill="url(#paint58_linear_19_723)"/>
</g>
<g id="Group_49">
<path id="Vector_90" d="M23.3874 60.8545C23.3415 60.8545 23.2995 60.8242 23.2864 60.7779C23.2707 60.7221 23.3032 60.6642 23.359 60.6485C24.7719 60.2506 25.9642 59.4795 26.9027 58.3566C26.9398 58.3122 27.006 58.3062 27.0505 58.3434C27.095 58.3806 27.1009 58.4467 27.0637 58.4912C26.0976 59.6471 24.8703 60.4409 23.4159 60.8505C23.4064 60.8532 23.3968 60.8545 23.3874 60.8545Z" fill="url(#paint59_linear_19_723)"/>
</g>
</g>
</g>
</g>
<defs>
<linearGradient id="paint0_linear_19_723" x1="28.7182" y1="-13.152" x2="11.2973" y2="121.718" gradientUnits="userSpaceOnUse">
<stop offset="0.0036" stop-color="#E38DDD"/>
<stop offset="1" stop-color="#9571F6"/>
</linearGradient>
<linearGradient id="paint1_linear_19_723" x1="19.7305" y1="0.505031" x2="6.60379" y2="102.131" gradientUnits="userSpaceOnUse">
<stop stop-color="#FFC444"/>
<stop offset="0.9964" stop-color="#F36F56"/>
</linearGradient>
<linearGradient id="paint2_linear_19_723" x1="55.6613" y1="11.2948" x2="59.4631" y2="11.2948" gradientUnits="userSpaceOnUse">
<stop stop-color="#444B8C"/>
<stop offset="0.9964" stop-color="#26264F"/>
</linearGradient>
<linearGradient id="paint3_linear_19_723" x1="56.8779" y1="20.153" x2="60.7558" y2="20.153" gradientUnits="userSpaceOnUse">
<stop stop-color="#444B8C"/>
<stop offset="0.9964" stop-color="#26264F"/>
</linearGradient>
<linearGradient id="paint4_linear_19_723" x1="45.9516" y1="5.62433" x2="56.1392" y2="5.62433" gradientUnits="userSpaceOnUse">
<stop stop-color="#444B8C"/>
<stop offset="0.9964" stop-color="#26264F"/>
</linearGradient>
<linearGradient id="paint5_linear_19_723" x1="46.5365" y1="41.9384" x2="55.5542" y2="41.9384" gradientUnits="userSpaceOnUse">
<stop stop-color="#444B8C"/>
<stop offset="0.9964" stop-color="#26264F"/>
</linearGradient>
<linearGradient id="paint6_linear_19_723" x1="45.8526" y1="23.4043" x2="56.2286" y2="23.4043" gradientUnits="userSpaceOnUse">
<stop stop-color="#AA80F9"/>
<stop offset="0.9964" stop-color="#6165D7"/>
</linearGradient>
<linearGradient id="paint7_linear_19_723" x1="45.8526" y1="37.395" x2="56.2286" y2="37.395" gradientUnits="userSpaceOnUse">
<stop stop-color="#444B8C"/>
<stop offset="0.9964" stop-color="#26264F"/>
</linearGradient>
<linearGradient id="paint8_linear_19_723" x1="56.2138" y1="33.6567" x2="56.229" y2="33.6567" gradientUnits="userSpaceOnUse">
<stop stop-color="#444B8C"/>
<stop offset="0.9964" stop-color="#26264F"/>
</linearGradient>
<linearGradient id="paint9_linear_19_723" x1="44.832" y1="27.8768" x2="57.2587" y2="27.8768" gradientUnits="userSpaceOnUse">
<stop stop-color="#444B8C"/>
<stop offset="0.9964" stop-color="#26264F"/>
</linearGradient>
<linearGradient id="paint10_linear_19_723" x1="44.832" y1="34.349" x2="57.2588" y2="34.349" gradientUnits="userSpaceOnUse">
<stop stop-color="#444B8C"/>
<stop offset="0.9964" stop-color="#26264F"/>
</linearGradient>
<linearGradient id="paint11_linear_19_723" x1="44.929" y1="13.4287" x2="57.1617" y2="13.4287" gradientUnits="userSpaceOnUse">
<stop stop-color="#444B8C"/>
<stop offset="0.9964" stop-color="#26264F"/>
</linearGradient>
<linearGradient id="paint12_linear_19_723" x1="45.1683" y1="6.65655" x2="56.8019" y2="6.65655" gradientUnits="userSpaceOnUse">
<stop stop-color="#444B8C"/>
<stop offset="0.9964" stop-color="#26264F"/>
</linearGradient>
<linearGradient id="paint13_linear_19_723" x1="51.0431" y1="24.9788" x2="57.2485" y2="24.9788" gradientUnits="userSpaceOnUse">
<stop stop-color="#444B8C"/>
<stop offset="0.9964" stop-color="#26264F"/>
</linearGradient>
<linearGradient id="paint14_linear_19_723" x1="51.2512" y1="41.8146" x2="14.146" y2="41.8146" gradientUnits="userSpaceOnUse">
<stop stop-color="#D8DEE8"/>
<stop offset="1" stop-color="white"/>
</linearGradient>
<linearGradient id="paint15_linear_19_723" x1="53.1584" y1="29.4158" x2="39.6006" y2="29.4158" gradientUnits="userSpaceOnUse">
<stop stop-color="#FF9085"/>
<stop offset="1" stop-color="#FB6FBB"/>
</linearGradient>
<linearGradient id="paint16_linear_19_723" x1="26.0566" y1="63.1376" x2="20.0833" y2="22.0034" gradientUnits="userSpaceOnUse">
<stop stop-color="#D8DEE8"/>
<stop offset="1" stop-color="white"/>
</linearGradient>
<linearGradient id="paint17_linear_19_723" x1="26.5133" y1="45.3437" x2="24.9154" y2="53.8658" gradientUnits="userSpaceOnUse">
<stop stop-color="#D8DEE8"/>
<stop offset="1" stop-color="white"/>
</linearGradient>
<linearGradient id="paint18_linear_19_723" x1="36.5987" y1="25.3453" x2="17.1975" y2="25.3453" gradientUnits="userSpaceOnUse">
<stop stop-color="#FF9085"/>
<stop offset="1" stop-color="#FB6FBB"/>
</linearGradient>
<linearGradient id="paint19_linear_19_723" x1="44.5395" y1="24.3411" x2="36.2101" y2="24.3411" gradientUnits="userSpaceOnUse">
<stop stop-color="#FF9085"/>
<stop offset="1" stop-color="#FB6FBB"/>
</linearGradient>
<linearGradient id="paint20_linear_19_723" x1="14.0695" y1="37.0675" x2="3.57644" y2="37.0675" gradientUnits="userSpaceOnUse">
<stop stop-color="#D8DEE8"/>
<stop offset="1" stop-color="white"/>
</linearGradient>
<linearGradient id="paint21_linear_19_723" x1="23.783" y1="29.2488" x2="1.64298" y2="29.2488" gradientUnits="userSpaceOnUse">
<stop stop-color="#FF9085"/>
<stop offset="1" stop-color="#FB6FBB"/>
</linearGradient>
<linearGradient id="paint22_linear_19_723" x1="28.8425" y1="16.3957" x2="17.1049" y2="56.7703" gradientUnits="userSpaceOnUse">
<stop offset="0.0036" stop-color="#E38DDD"/>
<stop offset="1" stop-color="#9571F6"/>
</linearGradient>
<linearGradient id="paint23_linear_19_723" x1="26.1358" y1="13.9561" x2="13.9305" y2="55.9396" gradientUnits="userSpaceOnUse">
<stop offset="0.0036" stop-color="#E38DDD"/>
<stop offset="1" stop-color="#9571F6"/>
</linearGradient>
<linearGradient id="paint24_linear_19_723" x1="54.4887" y1="18.059" x2="43.7132" y2="55.124" gradientUnits="userSpaceOnUse">
<stop offset="0.0036" stop-color="#E38DDD"/>
<stop offset="1" stop-color="#9571F6"/>
</linearGradient>
<linearGradient id="paint25_linear_19_723" x1="52.0063" y1="15.9292" x2="40.8524" y2="54.296" gradientUnits="userSpaceOnUse">
<stop offset="0.0036" stop-color="#E38DDD"/>
<stop offset="1" stop-color="#9571F6"/>
</linearGradient>
<linearGradient id="paint26_linear_19_723" x1="16.3288" y1="17.553" x2="5.45924" y2="54.9416" gradientUnits="userSpaceOnUse">
<stop offset="0.0036" stop-color="#E38DDD"/>
<stop offset="1" stop-color="#9571F6"/>
</linearGradient>
<linearGradient id="paint27_linear_19_723" x1="12.6873" y1="18.2554" x2="2.88018" y2="51.9896" gradientUnits="userSpaceOnUse">
<stop offset="0.0036" stop-color="#E38DDD"/>
<stop offset="1" stop-color="#9571F6"/>
</linearGradient>
<linearGradient id="paint28_linear_19_723" x1="37.2763" y1="41.766" x2="36.8804" y2="41.766" gradientUnits="userSpaceOnUse">
<stop stop-color="#D8DEE8"/>
<stop offset="1" stop-color="white"/>
</linearGradient>
<linearGradient id="paint29_linear_19_723" x1="38.9112" y1="48.7888" x2="32.2421" y2="48.7888" gradientUnits="userSpaceOnUse">
<stop stop-color="#D8DEE8"/>
<stop offset="1" stop-color="white"/>
</linearGradient>
<linearGradient id="paint30_linear_19_723" x1="37.086" y1="48.9572" x2="32.2421" y2="48.9572" gradientUnits="userSpaceOnUse">
<stop stop-color="#D8DEE8"/>
<stop offset="1" stop-color="white"/>
</linearGradient>
<linearGradient id="paint31_linear_19_723" x1="41.7467" y1="48.9571" x2="33.6108" y2="48.9571" gradientUnits="userSpaceOnUse">
<stop stop-color="#D8DEE8"/>
<stop offset="1" stop-color="white"/>
</linearGradient>
<linearGradient id="paint32_linear_19_723" x1="37.9399" y1="24.111" x2="29.347" y2="37.4992" gradientUnits="userSpaceOnUse">
<stop offset="0.0036" stop-color="#E38DDD"/>
<stop offset="1" stop-color="#9571F6"/>
</linearGradient>
<linearGradient id="paint33_linear_19_723" x1="-7.70262" y1="11.8552" x2="63.5986" y2="48.1049" gradientUnits="userSpaceOnUse">
<stop stop-color="#FF9085"/>
<stop offset="1" stop-color="#FB6FBB"/>
</linearGradient>
<linearGradient id="paint34_linear_19_723" x1="42.0711" y1="54.5972" x2="42.5246" y2="60.3694" gradientUnits="userSpaceOnUse">
<stop stop-color="#311944"/>
<stop offset="1" stop-color="#A03976"/>
</linearGradient>
<linearGradient id="paint35_linear_19_723" x1="43.2419" y1="57.8108" x2="43.1594" y2="51.8325" gradientUnits="userSpaceOnUse">
<stop stop-color="#FFC444"/>
<stop offset="0.9964" stop-color="#F36F56"/>
</linearGradient>
<linearGradient id="paint36_linear_19_723" x1="50.6417" y1="53.9238" x2="51.0952" y2="59.6959" gradientUnits="userSpaceOnUse">
<stop stop-color="#311944"/>
<stop offset="1" stop-color="#A03976"/>
</linearGradient>
<linearGradient id="paint37_linear_19_723" x1="51.0965" y1="57.7024" x2="51.014" y2="51.7241" gradientUnits="userSpaceOnUse">
<stop stop-color="#FFC444"/>
<stop offset="0.9964" stop-color="#F36F56"/>
</linearGradient>
<linearGradient id="paint38_linear_19_723" x1="41.8152" y1="48.1261" x2="46.2353" y2="48.1261" gradientUnits="userSpaceOnUse">
<stop stop-color="#AA80F9"/>
<stop offset="0.9964" stop-color="#6165D7"/>
</linearGradient>
<linearGradient id="paint39_linear_19_723" x1="41.8151" y1="48.1263" x2="46.2353" y2="48.1263" gradientUnits="userSpaceOnUse">
<stop stop-color="#AA80F9"/>
<stop offset="0.9964" stop-color="#6165D7"/>
</linearGradient>
<linearGradient id="paint40_linear_19_723" x1="43.0423" y1="47.6904" x2="51.9405" y2="47.6904" gradientUnits="userSpaceOnUse">
<stop stop-color="#AA80F9"/>
<stop offset="0.9964" stop-color="#6165D7"/>
</linearGradient>
<linearGradient id="paint41_linear_19_723" x1="41.9385" y1="40.771" x2="44.991" y2="32.2593" gradientUnits="userSpaceOnUse">
<stop stop-color="#FFC444"/>
<stop offset="0.9964" stop-color="#F36F56"/>
</linearGradient>
<linearGradient id="paint42_linear_19_723" x1="41.528" y1="31.8831" x2="41.528" y2="28.3116" gradientUnits="userSpaceOnUse">
<stop stop-color="#FFC444"/>
<stop offset="0.9964" stop-color="#F36F56"/>
</linearGradient>
<linearGradient id="paint43_linear_19_723" x1="39.2822" y1="30.3236" x2="39.4804" y2="27.6629" gradientUnits="userSpaceOnUse">
<stop stop-color="#444B8C"/>
<stop offset="0.9964" stop-color="#26264F"/>
</linearGradient>
<linearGradient id="paint44_linear_19_723" x1="39.0034" y1="30.8538" x2="40.6732" y2="27.6069" gradientUnits="userSpaceOnUse">
<stop stop-color="#FFC444"/>
<stop offset="0.9964" stop-color="#F36F56"/>
</linearGradient>
<linearGradient id="paint45_linear_19_723" x1="39.9413" y1="30.3727" x2="40.1395" y2="27.712" gradientUnits="userSpaceOnUse">
<stop stop-color="#444B8C"/>
<stop offset="0.9964" stop-color="#26264F"/>
</linearGradient>
<linearGradient id="paint46_linear_19_723" x1="39.9798" y1="35.8984" x2="26.8511" y2="55.0299" gradientUnits="userSpaceOnUse">
<stop stop-color="#444B8C"/>
<stop offset="0.9964" stop-color="#26264F"/>
</linearGradient>
<linearGradient id="paint47_linear_19_723" x1="34.4271" y1="43.1704" x2="36.0372" y2="43.1704" gradientUnits="userSpaceOnUse">
<stop stop-color="#FFC444"/>
<stop offset="0.9964" stop-color="#F36F56"/>
</linearGradient>
<linearGradient id="paint48_linear_19_723" x1="29.6694" y1="51.1393" x2="27.0207" y2="54.9991" gradientUnits="userSpaceOnUse">
<stop stop-color="#444B8C"/>
<stop offset="0.9964" stop-color="#26264F"/>
</linearGradient>
<linearGradient id="paint49_linear_19_723" x1="34.4601" y1="44.0535" x2="33.1336" y2="45.9866" gradientUnits="userSpaceOnUse">
<stop stop-color="#444B8C"/>
<stop offset="0.9964" stop-color="#26264F"/>
</linearGradient>
<linearGradient id="paint50_linear_19_723" x1="38.7395" y1="36.2293" x2="37.3312" y2="38.2815" gradientUnits="userSpaceOnUse">
<stop stop-color="#444B8C"/>
<stop offset="0.9964" stop-color="#26264F"/>
</linearGradient>
<linearGradient id="paint51_linear_19_723" x1="22.2733" y1="54.9733" x2="31.2852" y2="56.3994" gradientUnits="userSpaceOnUse">
<stop stop-color="#AA80F9"/>
<stop offset="0.9964" stop-color="#6165D7"/>
</linearGradient>
<linearGradient id="paint52_linear_19_723" x1="21.655" y1="56.4282" x2="30.0427" y2="57.7556" gradientUnits="userSpaceOnUse">
<stop stop-color="#444B8C"/>
<stop offset="0.9964" stop-color="#3E4177"/>
</linearGradient>
<linearGradient id="paint53_linear_19_723" x1="25.31" y1="54.8428" x2="28.3743" y2="55.3278" gradientUnits="userSpaceOnUse">
<stop stop-color="#444B8C"/>
<stop offset="0.9964" stop-color="#3E4177"/>
</linearGradient>
<linearGradient id="paint54_linear_19_723" x1="52.2104" y1="43.3806" x2="48.1366" y2="49.3172" gradientUnits="userSpaceOnUse">
<stop stop-color="#444B8C"/>
<stop offset="0.9964" stop-color="#26264F"/>
</linearGradient>
<linearGradient id="paint55_linear_19_723" x1="39.0397" y1="36.0475" x2="40.5963" y2="36.0475" gradientUnits="userSpaceOnUse">
<stop stop-color="#FFC444"/>
<stop offset="0.9964" stop-color="#F36F56"/>
</linearGradient>
<linearGradient id="paint56_linear_19_723" x1="44.5262" y1="35.1067" x2="41.3074" y2="26.1312" gradientUnits="userSpaceOnUse">
<stop stop-color="#FFC444"/>
<stop offset="0.9964" stop-color="#F36F56"/>
</linearGradient>
<linearGradient id="paint57_linear_19_723" x1="21.7474" y1="56.5669" x2="14.4006" y2="56.5669" gradientUnits="userSpaceOnUse">
<stop stop-color="#AA80F9"/>
<stop offset="0.9964" stop-color="#6165D7"/>
</linearGradient>
<linearGradient id="paint58_linear_19_723" x1="24.4047" y1="57.3692" x2="17.4798" y2="59.823" gradientUnits="userSpaceOnUse">
<stop stop-color="#AA80F9"/>
<stop offset="0.9964" stop-color="#6165D7"/>
</linearGradient>
<linearGradient id="paint59_linear_19_723" x1="27.1693" y1="58.5241" x2="23.3571" y2="60.8993" gradientUnits="userSpaceOnUse">
<stop stop-color="#AA80F9"/>
<stop offset="0.9964" stop-color="#6165D7"/>
</linearGradient>
</defs>
</svg>
