<svg width="61" height="60" viewBox="0 0 61 60" fill="none" xmlns="http://www.w3.org/2000/svg">
<g id="Illustration">
<g id="Group">
<path id="Vector" d="M58.2431 17.1241C59.8468 2.51795 45.6862 -2.55649 35.6475 1.18331C25.5273 4.95344 23.181 -1.29624 8.95049 0.489398C-5.45872 2.29744 1.85706 24.9163 1.85706 24.9163C1.85706 24.9163 4.14978 44.5847 6.86607 53.6508C9.56765 62.6678 35.4275 59.4055 41.7183 59.1364C47.9729 58.8689 53.4078 59.3853 58.8495 49.4847C64.2813 39.6021 56.6448 31.6819 58.2431 17.1241Z" fill="#F4F7FA"/>
<g id="Group_2">
<g id="Group_3">
<path id="Vector_2" d="M38.7798 54.5202C38.2942 54.5152 37.2422 54.0765 37.0151 53.849C35.5039 52.3354 32.4904 49.6852 32.3558 47.4281C32.3328 47.0426 34.0013 46.4837 34.1992 46.1039C35.1765 45.4893 35.5536 45.3368 36.1957 44.2962C38.0913 41.2239 32.3796 36.5581 38.0752 34.0017C42.2472 32.1291 46.0849 33.1865 44.8184 26.5147C43.552 19.8429 47.4282 6.94961 55.09 10.7972C59.4871 13.0053 56.0292 19.2184 58.6288 23.1884C61.0992 26.9611 59.7921 30.4643 55.8186 33.3775C51.8452 36.2907 54.3408 37.8699 56.0321 41.5331C58.0637 45.9335 51.119 47.5822 47.8479 48.0698C45.2137 48.4625 38.7712 51.2396 38.7798 54.5202Z" fill="url(#paint0_linear_19_880)"/>
<g id="Group_4">
<g id="Clip path group">
<mask id="mask0_19_880" style="mask-type:luminance" maskUnits="userSpaceOnUse" x="31" y="10" width="29" height="47">
<g id="SVGID_00000150097477552427932820000016778773829642721209_">
<path id="Vector_3" d="M31.2037 46.9778C32.6026 50.0085 33.9013 53.1502 35.2935 56.2099C37.1969 56.1384 39.4341 56.008 39.5755 53.6406C39.7721 50.3491 45.2187 48.4415 47.8528 48.0632C51.113 47.5949 58.0657 45.9278 56.0323 41.5322C54.3395 37.8729 51.8456 36.2894 55.8189 33.3771C59.7922 30.4649 61.0984 26.9613 58.6287 23.1881C56.0299 19.2174 59.487 13.0073 55.0899 10.797C47.4282 6.94557 43.551 19.8501 44.8191 26.5119C46.0873 33.1737 42.2411 32.158 38.077 33.9939C32.3922 36.5004 38.0634 41.3491 36.2056 44.2329C34.7492 46.4937 33.3636 46.2773 31.2037 46.9778Z" fill="white"/>
</g>
</mask>
<g mask="url(#mask0_19_880)">
<g id="Group_5" opacity="0.8">
<g id="Group_6">
<path id="Vector_4" d="M34.7647 50.8191C38.2055 48.6045 41.2547 45.8935 43.8273 42.7615C46.2992 39.752 48.3357 36.3503 49.88 32.6509C52.8779 25.4695 53.973 17.2804 53.047 8.96899L52.9573 8.979C54.9118 26.521 48.0925 42.1338 34.7158 50.7432L34.7647 50.8191Z" fill="#FCFDFE"/>
</g>
<g id="Group_7">
<path id="Vector_5" d="M57.0875 43.2588L57.1054 43.1703C52.8243 42.3086 45.9287 43.0914 41.7339 44.9153L41.7699 44.9981C45.9503 43.1804 52.8218 42.4002 57.0875 43.2588Z" fill="#FCFDFE"/>
</g>
<g id="Group_8">
<path id="Vector_6" d="M37.3694 49.1004C38.9469 47.295 39.5516 44.7663 39.1668 41.5848C38.8859 39.2631 38.0939 36.6524 36.8127 33.8253L36.7305 33.8626C38.0079 36.6812 38.7975 39.283 39.0772 41.5956C39.4588 44.7507 38.8614 47.2557 37.3015 49.041L37.3694 49.1004Z" fill="#FCFDFE"/>
</g>
<g id="Group_9">
<path id="Vector_7" d="M50.2668 31.6134C53.0126 28.1241 57.4811 26.7463 60.7462 26.2048L60.7314 26.1157C57.4506 26.6598 52.9595 28.0456 50.1959 31.5576L50.2668 31.6134Z" fill="#FCFDFE"/>
</g>
<g id="Group_10">
<path id="Vector_8" d="M52.8845 21.7237C52.6513 16.6592 49.2408 12.5831 47.2286 10.6042L47.1653 10.6686C49.168 12.6382 52.5626 16.6941 52.7945 21.7278L52.8845 21.7237Z" fill="#FCFDFE"/>
</g>
</g>
</g>
</g>
</g>
</g>
</g>
<g id="Group_11">
<g id="Group_12">
<g id="Group_13">
<path id="Vector_9" d="M25.2168 49.825C25.637 49.7516 26.4864 49.2213 26.6508 48.9918C27.7451 47.4643 29.9797 44.7377 29.7747 42.7619C29.7397 42.4245 28.2138 42.1778 27.9881 41.8767C27.0533 41.4833 26.7047 41.4048 25.9998 40.5942C23.9189 38.2012 28.2051 33.3428 22.9036 31.9384C19.0203 30.9097 15.8443 32.3732 15.9914 26.4094C16.1385 20.4455 10.9411 9.82141 4.84784 14.2484C1.35087 16.7891 5.23372 21.6821 3.546 25.494C1.94223 29.1163 3.57448 31.9668 7.43396 33.9258C11.2934 35.8848 9.35516 37.6094 8.4111 41.0259C7.27708 45.1298 13.532 45.5693 16.437 45.5259C18.7763 45.4909 24.7567 46.9801 25.2168 49.825Z" fill="url(#paint1_linear_19_880)"/>
<g id="Group_14">
<g id="Clip path group_2">
<mask id="mask1_19_880" style="mask-type:luminance" maskUnits="userSpaceOnUse" x="2" y="13" width="29" height="38">
<g id="SVGID_00000031205689853282147230000011245733773461844612_">
<path id="Vector_10" d="M30.7095 42.2071C29.9288 45.0336 29.2508 47.9419 28.4799 50.7926C26.8198 51.0019 24.862 51.2076 24.402 49.1756C23.7626 46.3505 18.7693 45.4731 16.4321 45.5205C13.5393 45.5791 7.27489 45.1248 8.41113 41.0247C9.35702 37.6115 11.2933 35.8835 7.43402 33.9252C3.57479 31.967 1.94329 29.116 3.54635 25.4934C5.23334 21.6811 1.35159 16.7906 4.84821 14.248C10.9409 9.81757 16.1407 20.4512 15.9907 26.4067C15.8408 32.3621 19.0301 30.9335 22.9013 31.9316C28.1863 33.2942 23.9612 38.3055 25.9826 40.5405C27.5671 42.2927 28.7374 41.9076 30.7095 42.2071Z" fill="white"/>
</g>
</mask>
<g mask="url(#mask1_19_880)">
<g id="Group_15" opacity="0.8">
<g id="Group_16">
<path id="Vector_11" d="M28.1698 46.0443C24.8715 44.6149 21.8421 42.6994 19.1658 40.3511C16.5941 38.0946 14.3441 35.4361 12.4782 32.4494C8.85619 26.6514 6.73992 19.7088 6.35825 12.3722L6.43745 12.3681C7.24301 27.8527 15.379 40.4148 28.2014 45.9715L28.1698 46.0443Z" fill="#FCFDFE"/>
</g>
<g id="Group_17">
<path id="Vector_12" d="M7.74211 42.6718L7.71399 42.5976C11.3023 41.2406 17.3912 40.9365 21.2873 41.9198L21.2679 41.9967C17.3852 41.0168 11.3175 41.3196 7.74211 42.6718Z" fill="#FCFDFE"/>
</g>
<g id="Group_18">
<path id="Vector_13" d="M25.667 44.9257C24.0423 43.5854 23.1578 41.4797 23.038 38.6669C22.9506 36.6144 23.2651 34.2385 23.9728 31.6053L24.0494 31.6259C23.3438 34.2512 23.0301 36.619 23.1172 38.6636C23.236 41.4529 24.1109 43.5392 25.7174 44.8645L25.667 44.9257Z" fill="#FCFDFE"/>
</g>
<g id="Group_19">
<path id="Vector_14" d="M11.9951 31.6051C9.11771 28.9717 5.04789 28.4142 2.14044 28.4101L2.14057 28.3307C5.06202 28.3348 9.15256 28.8962 12.0486 31.5466L11.9951 31.6051Z" fill="#FCFDFE"/>
</g>
<g id="Group_20">
<path id="Vector_15" d="M8.31663 23.4053C7.79712 18.9819 10.1726 14.9627 11.6349 12.9605L11.6989 13.0073C10.2436 15.0001 7.879 18.9996 8.39531 23.3961L8.31663 23.4053Z" fill="#FCFDFE"/>
</g>
</g>
</g>
</g>
</g>
</g>
</g>
<g id="Group_21">
<g id="Group_22">
<g id="Clip path group_3">
<mask id="mask2_19_880" style="mask-type:luminance" maskUnits="userSpaceOnUse" x="10" y="0" width="21" height="52">
<g id="SVGID_00000162348981117779677420000006327351321110062726_">
<path id="Vector_16" d="M17.6708 50.8614C20.3573 51.2599 23.0547 51.6083 25.761 51.9061C25.7945 51.9492 27.9327 47.507 25.9233 44.3162C21.9227 38.1053 26.6704 34.8243 28.3851 32.578C30.997 29.4639 31.3516 24.9033 26.3871 24.4104C21.5757 23.8385 23.0397 15.7749 25.5047 9.93058C26.9968 7.16653 24.6173 2.66046 21.4851 0.918769C18.3071 -0.930504 14.3764 -0.0153985 11.7103 5.57887C8.25029 11.9535 13.1263 17.7126 14.411 21.7391C15.6772 25.6931 9.84091 27.0054 13.1211 31.1024C15.8415 34.6894 19.6631 37.7812 17.1625 40.6593C14.6287 43.488 14.2825 46.2751 17.6708 50.8614Z" fill="white"/>
</g>
</mask>
<g mask="url(#mask2_19_880)">
<path id="Vector_17" d="M17.6708 50.8614C20.3573 51.2599 23.0547 51.6083 25.761 51.9061C25.7945 51.9492 27.9327 47.507 25.9233 44.3162C21.9227 38.1053 26.6704 34.8243 28.3851 32.578C30.9799 29.462 31.1905 25.3729 26.828 24.1118C22.011 22.6343 22.9602 15.7399 25.5047 9.93058C26.9968 7.16653 24.6173 2.66046 21.4851 0.918769C18.3071 -0.930504 14.3764 -0.0153985 11.7103 5.57887C8.25029 11.9535 13.1263 17.7126 14.411 21.7391C15.6772 25.6931 9.84091 27.0054 13.1211 31.1024C15.8415 34.6894 19.6631 37.7812 17.1625 40.6593C14.6287 43.488 14.2825 46.2751 17.6708 50.8614Z" fill="url(#paint2_linear_19_880)"/>
</g>
</g>
<g id="Clip path group_4">
<mask id="mask3_19_880" style="mask-type:luminance" maskUnits="userSpaceOnUse" x="10" y="0" width="21" height="52">
<g id="SVGID_00000162348981117779677420000006327351321110062726__2">
<path id="Vector_18" d="M17.6708 50.8614C20.3573 51.2599 23.0547 51.6083 25.761 51.9061C25.7945 51.9492 27.9327 47.507 25.9233 44.3162C21.9227 38.1053 26.6704 34.8243 28.3851 32.578C30.997 29.4639 31.3516 24.9033 26.3871 24.4104C21.5757 23.8385 23.0397 15.7749 25.5047 9.93058C26.9968 7.16653 24.6173 2.66046 21.4851 0.918769C18.3071 -0.930504 14.3764 -0.0153985 11.7103 5.57887C8.25029 11.9535 13.1263 17.7126 14.411 21.7391C15.6772 25.6931 9.84091 27.0054 13.1211 31.1024C15.8415 34.6894 19.6631 37.7812 17.1625 40.6593C14.6287 43.488 14.2825 46.2751 17.6708 50.8614Z" fill="white"/>
</g>
</mask>
<g mask="url(#mask3_19_880)">
<g id="Group_23" opacity="0.8">
<g id="Group_24">
<path id="Vector_19" d="M21.0755 52.0961C21.1268 51.7845 21.2403 41.1209 19.6583 30.8092C19.4928 29.0926 19.2802 27.3526 19.0747 25.6698C18.5238 21.1591 17.9541 16.4948 18.2842 12.0936C18.6535 7.16798 20.1382 3.04766 22.8231 -0.502747L22.9075 -0.452741C16.9453 7.43149 18.0272 16.2903 19.1727 25.6692C19.3784 27.3524 19.5909 29.093 19.7562 30.8084C21.4066 41.5652 21.1841 52.0802 21.1718 52.1215L21.0761 52.0937L21.124 52.1076L21.0755 52.0961Z" fill="#FCFDFE"/>
</g>
<g id="Group_25">
<path id="Vector_20" d="M18.2262 16.9869C16.0592 13.5218 13.6031 8.7707 12.2836 6.21825C11.7196 5.12723 11.2742 4.26549 11.2105 4.20318L11.2383 4.18325L11.2426 4.13135C11.3089 4.14146 11.3536 4.21855 12.3733 6.19095C13.6922 8.74228 16.1472 13.4913 18.3123 16.9534L18.2262 16.9869Z" fill="#FCFDFE"/>
</g>
<g id="Group_26">
<path id="Vector_21" d="M18.2913 13.1901L18.2555 13.0519C19.3566 10.8417 21.0127 9.04252 23.0447 7.84888C24.6578 6.90128 26.0263 6.61069 26.3785 6.58356C26.4538 6.57785 26.4845 6.58246 26.5057 6.60299L26.4341 6.65436C26.4441 6.6641 26.4541 6.66587 26.4544 6.66596C26.3316 6.64355 24.9987 6.86359 23.3493 7.78014C21.8626 8.60631 19.7324 10.2977 18.2913 13.1901Z" fill="#FCFDFE"/>
</g>
<g id="Group_27">
<path id="Vector_22" d="M20.4865 37.7429C20.8615 34.7714 22.5102 31.9197 25.3867 29.267C26.8848 27.8855 28.6595 26.6167 30.6615 25.4959C30.7663 25.4373 30.8491 25.3909 30.8616 25.3806L30.9337 25.4433C30.9162 25.4579 30.8594 25.4899 30.7211 25.5673C27.9394 27.1246 21.3833 31.43 20.5844 37.7597L20.4865 37.7429Z" fill="#FCFDFE"/>
</g>
<g id="Group_28">
<path id="Vector_23" d="M20.1377 34.4273C18.1921 29.4659 11.8197 27.4013 11.7097 27.3711C11.7092 27.3709 11.709 27.3708 11.7087 27.3708L11.7154 27.3302L11.6897 27.3638L11.6674 27.3157L11.7135 27.2883C11.7726 27.291 18.2608 29.384 20.2309 34.4079L20.1377 34.4273Z" fill="#FCFDFE"/>
</g>
<g id="Group_29">
<path id="Vector_24" d="M21.0829 50.3722C21.3715 49.1058 22.4948 47.1241 26.2074 44.8742C26.2946 44.8214 26.3699 44.7758 26.3812 44.7657L26.4122 44.791L26.4705 44.7999C26.4681 44.8237 26.4681 44.8237 26.2695 44.9441C22.58 47.1799 21.4652 49.1427 21.1798 50.3956L21.0829 50.3722Z" fill="#FCFDFE"/>
</g>
<g id="Group_30">
<path id="Vector_25" d="M21.064 47.8592C20.9017 45.4921 17.6659 42.8905 15.7514 41.5503C15.6861 41.5046 15.6442 41.4752 15.6296 41.4636L15.6929 41.4049C15.7069 41.416 15.7471 41.4441 15.8095 41.4877C17.7379 42.8377 20.9978 45.461 21.1624 47.8624L21.064 47.8592Z" fill="#FCFDFE"/>
</g>
</g>
</g>
</g>
</g>
</g>
</g>
<g id="Group_31">
<g id="Group_32">
<g id="Group_33">
<path id="Vector_26" d="M20.456 3.97255L14.4521 53.8755C14.3621 54.6237 14.8778 55.2944 15.6002 55.3661L40.6071 58.1115C42.139 58.2068 42.9777 57.4241 43.0723 56.6285L49.3757 3.57334C49.4697 2.78214 48.7181 2.06563 47.1797 2.06561L21.9453 2.59711C21.2148 2.60933 20.5456 3.22824 20.456 3.97255Z" fill="url(#paint3_linear_19_880)"/>
<path id="Vector_27" d="M19.3305 3.8869L13.2937 54.0395C13.2032 54.7915 13.7206 55.4656 14.4457 55.5378L40.3708 58.119C41.1836 58.1999 41.9285 57.6119 42.0236 56.8122L48.3623 3.48283C48.4568 2.68755 47.8598 2.04831 47.0381 2.06217L20.8257 2.50446C20.0924 2.51681 19.4206 3.13889 19.3305 3.8869Z" fill="url(#paint4_linear_19_880)"/>
<path id="Vector_28" d="M19.8225 6.65304L14.2271 53.1544C14.1426 53.857 14.6272 54.4857 15.3058 54.5516L39.6875 56.9217C40.4431 56.9952 41.1355 56.4464 41.2241 55.7019L47.082 6.43801C47.1701 5.69746 46.6158 5.09828 45.8526 5.1064L21.2207 5.3687C20.5349 5.37599 19.9066 5.95391 19.8225 6.65304Z" fill="url(#paint5_linear_19_880)"/>
<path id="Vector_29" d="M32.8972 3.85223C32.8652 4.1192 33.0568 4.33292 33.3254 4.32953C33.5943 4.32615 33.8385 4.10652 33.8704 3.83901C33.9024 3.57149 33.7101 3.3578 33.4412 3.36175C33.1726 3.36567 32.9291 3.58525 32.8972 3.85223Z" fill="#CECECE"/>
<g id="Group_34">
<path id="Vector_30" d="M24.0378 37.8677C29.0293 28.6392 36.4858 25.8769 38.7308 16.3658C39.9443 11.2248 39.1175 6.30408 37.725 2.21908L47.0382 2.06193C47.8598 2.04808 48.4568 2.68733 48.3623 3.48258L42.0236 56.8119C41.9285 57.6117 41.1836 58.1997 40.3708 58.1187L19.9911 56.0897C19.8404 47.8206 21.8128 41.9814 24.0378 37.8677Z" fill="#CECECE"/>
</g>
</g>
</g>
<g id="Group_35">
<path id="Vector_31" d="M27.9281 26.7999L26.6277 27.3944C26.4207 27.489 26.3249 27.7299 26.4137 27.9329L26.7377 28.6737C26.4171 28.8891 26.1192 29.1282 25.847 29.3891L25.1998 28.9186C25.0215 28.7889 24.7682 28.8321 24.6338 29.0148L23.7926 30.1573C23.6581 30.3401 23.6919 30.5951 23.8686 30.7272L24.5066 31.2042C24.3344 31.5463 24.1919 31.903 24.08 32.27L23.287 32.1814C23.0667 32.1568 22.8649 32.3202 22.8358 32.5465L22.6531 33.969C22.6237 34.1976 22.7791 34.4052 23.0006 34.4325L23.7919 34.5301C23.8086 34.9155 23.8605 35.3035 23.9455 35.6904L23.2023 36.0142C22.9943 36.1048 22.8955 36.3532 22.9816 36.5696L23.5249 37.9341C23.6125 38.1542 23.8546 38.2598 24.0656 38.1695L24.8195 37.8469C25.0318 38.1906 25.27 38.5129 25.5334 38.8089L25.0364 39.4857C24.8965 39.6761 24.933 39.952 25.1186 40.1022L26.2902 41.0509C26.4794 41.2042 26.7481 41.1721 26.8898 40.979L27.3972 40.2876C27.7541 40.4824 28.1275 40.6461 28.5133 40.7759L28.4176 41.6588C28.3908 41.9056 28.5637 42.1367 28.8044 42.1747L30.3221 42.4146C30.567 42.4533 30.7864 42.2818 30.8117 42.0318L30.9026 41.1333C31.3081 41.1215 31.7156 41.0716 32.121 40.9846L32.4951 41.8401C32.5988 42.0771 32.8682 42.1948 33.097 42.1022L34.5348 41.52C34.7659 41.4264 34.8663 41.1575 34.759 40.9199L34.3691 40.0561C34.7176 39.8314 35.0415 39.5791 35.336 39.3005L36.1027 39.8737C36.3135 40.0314 36.6041 39.9967 36.751 39.7959L37.6697 38.5408C37.8166 38.3401 37.7626 38.0517 37.5498 37.897L36.768 37.3287C36.9438 36.9604 37.0862 36.5769 37.1927 36.1825L38.142 36.2996C38.3996 36.3314 38.6249 36.1552 38.6447 35.9065L38.7674 34.3594C38.787 34.1134 38.5948 33.8909 38.3389 33.8624L37.3944 33.7569C37.355 33.3575 37.278 32.9582 37.1655 32.5632L38.0181 32.1983C38.2476 32.1001 38.3448 31.8398 38.235 31.6177L37.5545 30.2412C37.4466 30.023 37.1759 29.9265 36.9498 30.025L36.1102 30.3908C35.8724 30.0622 35.6104 29.7582 35.3262 29.4825L35.8495 28.7694C35.9905 28.5773 35.9408 28.3118 35.7391 28.1767L34.4901 27.3403C34.2924 27.2079 34.0196 27.2544 33.8804 27.4439L33.3646 28.1462C33.0064 27.9834 32.6355 27.8518 32.2564 27.7519L32.3419 26.9071C32.3649 26.6793 32.1926 26.4798 31.9575 26.4612L30.4994 26.3459C30.2682 26.3276 30.0613 26.495 30.037 26.7201L29.9474 27.5466C29.5667 27.5781 29.1864 27.644 28.8098 27.7418L28.4724 26.9944C28.3807 26.7913 28.137 26.7044 27.9281 26.7999ZM32.2162 38.2637C29.9642 39.2036 27.3851 38.1039 26.4495 35.8686C25.5363 33.6866 26.5207 31.1936 28.6533 30.2428C30.8136 29.2797 33.4041 30.2278 34.4364 32.4197C35.4946 34.6663 34.4988 37.311 32.2162 38.2637Z" fill="white"/>
<path id="Vector_32" d="M25.4405 13.8252L24.6053 14.413C24.4721 14.5067 24.4326 14.6809 24.5171 14.8024L24.8251 15.245C24.6267 15.4362 24.4465 15.6398 24.2865 15.8542L23.7829 15.6399C23.644 15.5808 23.4721 15.6479 23.3988 15.7898L22.9398 16.6781C22.8664 16.8204 22.9189 16.9849 23.0574 17.0455L23.5569 17.2642C23.4753 17.518 23.416 17.777 23.3793 18.0382L22.8148 18.1027C22.6577 18.1206 22.5348 18.2608 22.5401 18.4159L22.5731 19.3908C22.5784 19.5475 22.7107 19.661 22.8689 19.6441L23.433 19.584C23.4882 19.8371 23.5681 20.0863 23.671 20.3295L23.1887 20.6625C23.0535 20.7559 23.0125 20.9366 23.0971 21.0664L23.6304 21.8843C23.7163 22.016 23.8969 22.0469 24.0337 21.9531L24.5218 21.6184C24.7078 21.8116 24.9092 21.9864 25.1249 22.1395L24.8561 22.6669C24.7804 22.8154 24.8366 22.9917 24.9821 23.0608L25.8988 23.4962C26.0465 23.5663 26.2283 23.5015 26.3045 23.3513L26.5771 22.814C26.8443 22.8845 27.1191 22.9319 27.3983 22.9549L27.4304 23.5503C27.4394 23.7167 27.5835 23.8403 27.7525 23.8261L28.816 23.737C28.9871 23.7226 29.1177 23.5749 29.1075 23.4072L29.0707 22.8046C29.3453 22.7317 29.6168 22.6338 29.8826 22.512L30.2297 23.0109C30.3258 23.149 30.5211 23.1825 30.6657 23.0853L31.5725 22.4762C31.7179 22.3785 31.7563 22.1875 31.6584 22.0499L31.3018 21.5489C31.5123 21.3476 31.703 21.1323 31.8709 20.9046L32.4479 21.1573C32.6064 21.2267 32.7973 21.1586 32.874 21.0051L33.3532 20.047C33.4297 19.894 33.3626 19.7152 33.2037 19.6476L32.619 19.3988C32.697 19.1322 32.751 18.8609 32.7798 18.5881L33.4274 18.5191C33.6029 18.5005 33.7342 18.3518 33.7207 18.1873L33.6363 17.1641C33.6228 17.0013 33.4706 16.8857 33.2965 16.9056L32.653 16.9791C32.5834 16.7249 32.4886 16.4764 32.3704 16.2359L32.9025 15.871C33.0456 15.7729 33.0825 15.5891 32.9851 15.4608L32.3803 14.6644C32.2843 14.538 32.092 14.5148 31.9506 14.6124L31.4251 14.9753C31.229 14.7958 31.0191 14.6357 30.797 14.4972L31.0729 13.9536C31.1471 13.8073 31.0847 13.6408 30.9338 13.5819L29.9969 13.2162C29.8482 13.1582 29.6681 13.2285 29.5943 13.3732L29.3206 13.9102C29.0588 13.8559 28.7915 13.8239 28.5219 13.8141L28.4872 13.2455C28.4778 13.0922 28.3381 12.9861 28.1753 13.0082L27.1631 13.1456C27.0022 13.1675 26.8786 13.3085 26.8868 13.4607L26.9169 14.0198C26.6585 14.097 26.4038 14.197 26.155 14.3177L25.8388 13.8733C25.7526 13.7525 25.5744 13.731 25.4405 13.8252ZM29.6493 20.7178C28.218 21.69 26.3259 21.3778 25.4306 20.0513C24.553 18.7511 24.9569 16.9478 26.3254 15.9942C27.7034 15.0341 29.5756 15.2708 30.5155 16.5521C31.4747 17.8597 31.0907 19.7386 29.6493 20.7178Z" fill="white"/>
</g>
</g>
<g id="Group_36">
<g id="Clip path group_5">
<mask id="mask4_19_880" style="mask-type:luminance" maskUnits="userSpaceOnUse" x="0" y="25" width="36" height="34">
<g id="SVGID_00000128444940086600710710000001098320714832754310_">
<path id="Vector_33" d="M6.14166 55.0884C1.00577 49.8416 -1.91143 33.0837 3.22366 28.0835C8.2812 23.1589 30.5593 27.1689 34.3009 33.2631C39.4054 41.5769 28.7219 50.3937 23.9699 55.2853C19.1476 60.2492 11.1764 60.2318 6.14166 55.0884Z" fill="white"/>
</g>
</mask>
<g mask="url(#mask4_19_880)">
<g id="Group_37">
<path id="Vector_34" d="M31.823 36.9068C31.823 36.9068 31.5847 35.7241 31.876 35.4858C32.1673 35.2475 33.1293 33.5882 33.0851 34.056C33.041 34.5238 32.838 35.1239 32.838 35.1239C32.838 35.1239 33.7471 35.2122 33.5176 35.7506C33.2881 36.289 32.7104 36.3189 32.7566 36.5951C32.8027 36.8715 31.8583 37.8688 31.823 36.9068Z" fill="white"/>
<path id="Vector_35" d="M31.615 36.6748C32.0652 36.6434 32.5154 36.612 32.9656 36.5806C34.0277 40.8725 33.2659 45.0359 30.8687 46.567C27.1235 48.9592 20.1631 44.4522 18.6547 39.5447C17.9927 37.3907 18.1434 34.282 19.4666 33.6781C19.8339 33.5104 20.4038 33.4843 21.6387 34.1776C25.3263 36.248 25.4232 40.1611 27.2979 40.4925C28.1314 40.6398 29.4774 40.1084 31.615 36.6748Z" fill="url(#paint6_linear_19_880)"/>
<path id="Vector_36" d="M16.6951 63.2147H21.6004C21.3692 59.0587 21.3723 55.2061 21.5139 51.715C19.2216 52.0697 16.9292 52.4244 14.6368 52.7792C14.9641 57.2599 15.8399 60.6457 16.6101 62.962C16.6384 63.0472 16.6668 63.1314 16.6951 63.2147Z" fill="url(#paint7_linear_19_880)"/>
<path id="Vector_37" opacity="0.3" d="M16.6952 63.2147H19.5626C19.2639 61.6309 18.2808 60.6584 17.7499 59.5236C17.0976 58.1294 16.8476 55.89 18.6057 52.165C17.2827 52.3697 15.9598 52.5744 14.6368 52.7791C14.9641 57.2598 15.8399 60.6457 16.6101 62.9619C16.6384 63.0472 16.6668 63.1313 16.6952 63.2147Z" fill="url(#paint8_linear_19_880)"/>
<path id="Vector_38" d="M15.3653 63.2147C15.7349 59.2399 16.1311 55.3168 16.5515 51.4467C12.0167 50.9887 10.3732 52.5191 9.84205 53.1359C8.33685 54.8834 8.65296 57.7502 9.51643 63.2147H15.3653Z" fill="url(#paint9_linear_19_880)"/>
<path id="Vector_39" d="M4.43466 35.685C6.43311 34.4142 8.22384 33.4233 10.3556 32.9522C12.2489 32.5339 13.6829 32.6667 15.4575 32.8014C18.8943 33.0625 21.0431 33.2257 22.4536 34.8443C23.7011 36.2758 23.7282 38.1336 23.7368 38.529C23.7714 40.122 23.1518 40.9347 22.6966 42.255C21.9639 44.3797 22.7054 44.7778 22.9205 50.4271C22.9205 50.4271 23.1341 57.1293 21.4263 58.15C20.6955 58.5868 20.0723 60.0885 16.3431 59.7188C13.8424 59.471 13.0292 59.425 11.7628 59.8536C10.0384 60.437 9.35734 59.3185 8.64594 58.9998C7.96378 58.694 7.8769 57.5163 7.79453 55.4629C7.66744 52.2954 7.67527 50.1425 7.66354 49.3718C7.60978 45.8359 6.7144 43.1362 5.56769 39.6785C4.85047 37.5159 5.01185 36.9152 4.43466 35.685Z" fill="url(#paint10_linear_19_880)"/>
<path id="Vector_40" opacity="0.4" d="M19.9767 56.3144C18.1425 55.5318 18.1531 53.912 16.44 53.2361C14.0395 52.289 10.9902 54.1625 10.8728 53.8911C10.7425 53.5896 15.2233 52.4052 16.4953 49.0729C16.9787 47.8066 17.1043 45.9532 16.1931 45.1715C15.1063 44.2391 13.602 45.7383 11.9124 44.9039C9.9695 43.9444 10.3051 41.1455 8.64835 40.6768C7.77075 40.4285 6.83606 40.976 6.16479 41.4998C7.01204 44.1459 7.61954 46.4793 7.66353 49.3718C7.67526 50.1425 7.66746 52.2954 7.79453 55.4629C7.8769 57.5163 7.96378 58.694 8.64594 58.9998C9.35734 59.3184 9.97105 59.8495 11.6954 59.266C12.9618 58.8375 13.9771 59.0181 16.4778 59.266C20.207 59.6356 20.6955 58.5867 21.4263 58.15C21.9022 57.8655 22.1285 57.4378 22.2799 56.6161C21.5324 56.6967 20.7392 56.6397 19.9767 56.3144Z" fill="url(#paint11_linear_19_880)"/>
<path id="Vector_41" d="M8.28676 44.5407C8.28676 44.5407 7.89027 39.1505 11.5379 38.977C15.1856 38.8034 21.3652 36.5411 22.28 39.5369C23.1947 42.5329 23.4176 54.3559 22.989 55.8635C22.5603 57.3712 21.2143 60.5152 19.4821 60.0191C17.7499 59.5231 8.18103 61.5235 7.75811 59.5267C7.33519 57.5299 6.06642 46.2575 8.28676 44.5407Z" fill="url(#paint12_linear_19_880)"/>
<g id="Group_38">
<path id="Vector_42" d="M15.1216 29.2986C15.0816 30.1876 14.9449 30.887 14.8253 31.3647C14.6883 31.9119 14.6033 32.0506 14.4983 32.1612C14.3403 32.3278 14.1071 32.4621 12.8169 32.7099C12.1148 32.8447 12.0259 32.8353 12.0069 32.9032C11.9144 33.2346 13.7428 34.4788 15.7096 34.3075C16.9133 34.2027 18.0367 33.5791 17.9891 33.2177C17.9412 32.8538 16.7375 32.9834 16.4166 32.3127C16.1934 31.8462 16.5051 31.2174 16.8614 30.7019C16.5756 30.0899 15.4073 29.9105 15.1216 29.2986Z" fill="white"/>
<g id="Group_39">
<path id="Vector_43" d="M17.3203 29.7683C17.6222 29.4088 17.6745 28.7559 17.3717 28.3252C17.1111 27.9546 16.6739 27.8804 16.4122 27.8359C15.6536 27.707 14.6735 27.9742 14.301 28.6588C14.0804 29.0644 14.4635 29.9524 14.5224 30.1115C14.5892 30.2914 14.724 30.3591 14.8446 30.4988C15.0117 30.6927 15.2731 31.0006 15.6991 31.5151C15.742 31.3723 15.805 31.1961 15.9002 31.0064C15.9369 30.9334 16.0837 30.6486 16.2952 30.4172C16.7189 29.9534 17.034 30.109 17.3203 29.7683Z" fill="url(#paint13_linear_19_880)"/>
<path id="Vector_44" d="M15.0761 31.0684C15.0761 31.0684 15.5339 31.9183 16.5364 31.9067C17.434 31.8962 17.6721 29.8973 17.1235 29.4412C16.9405 29.289 16.5619 29.2097 16.2469 29.2801C16.0608 29.3217 15.9947 29.3946 15.6893 29.4565C15.4076 29.5138 15.3309 29.4788 15.2432 29.5449C15.1337 29.6276 15.0452 29.8399 15.1891 30.4356C15.0276 30.2538 14.8264 30.1765 14.6775 30.2372C14.6538 30.247 14.5902 30.2855 14.5522 30.3469C14.4149 30.5694 14.6086 30.8731 15.0761 31.0684Z" fill="white"/>
<path id="Vector_45" d="M15.2092 29.4227C15.2506 29.4572 15.1101 29.6111 15.0881 29.8384C15.0454 30.2795 15.4646 30.8341 15.9187 30.9035C16.1872 30.9445 16.2701 30.7858 16.7188 30.7625C16.9967 30.7481 17.2248 30.7955 17.3677 30.8348C17.4821 31.3272 17.3243 31.8036 16.9882 32.0107C16.6263 32.2335 16.1884 32.0632 16.0053 31.992C15.8828 31.9443 15.4903 31.7925 15.3011 31.415C15.1039 31.0216 15.3297 30.8029 15.0939 30.5313C14.9749 30.3944 14.8126 30.3291 14.6651 30.0684C14.625 29.9975 14.5991 29.9354 14.5835 29.8936C14.8273 29.6614 15.1492 29.3728 15.2092 29.4227Z" fill="url(#paint14_linear_19_880)"/>
<path id="Vector_46" d="M17.0335 30.9972C17.0335 30.9972 16.8349 31.0878 16.5021 31.0512C16.4859 31.0494 16.4677 31.0532 16.4652 31.0615C16.4559 31.0927 16.6624 31.2462 16.8628 31.2013C17.005 31.1693 17.121 31.0425 17.104 31.0078C17.0967 30.9931 17.065 30.9933 17.0335 30.9972Z" fill="white"/>
</g>
</g>
<path id="Vector_47" d="M10.4599 32.9297C10.4599 32.9297 12.8067 38.2854 12.3574 39.9656C11.908 41.6459 10.5864 40.4828 10.5335 40.1392C10.4806 39.7956 7.74542 33.8319 7.74542 33.8319C7.74542 33.8319 8.80151 32.6959 10.4599 32.9297Z" fill="url(#paint15_linear_19_880)"/>
<path id="Vector_48" d="M18.0939 33.0366C18.0411 33.0664 20.0426 37.8957 19.8047 38.991C19.5668 40.0863 21.5995 39.452 21.3761 38.54C21.1528 37.6281 20.5591 33.8115 20.1472 33.4301C19.7353 33.0487 18.4309 32.8463 18.0939 33.0366Z" fill="url(#paint16_linear_19_880)"/>
<path id="Vector_49" d="M13.2627 41.6128L19.9831 40.4828C19.9831 40.4828 20.7727 44.2286 17.5827 44.7049C14.3927 45.1812 13.342 43.3574 13.2627 41.6128Z" fill="url(#paint17_linear_19_880)"/>
<g id="Group_40">
<path id="Vector_50" d="M26.0742 38.7749L18.9316 39.7888C18.8532 39.7999 18.7894 39.8575 18.7703 39.9343L16.3513 49.6516C16.3166 49.791 16.5029 50.1117 16.6434 50.0819L23.6346 48.3918C23.7059 48.3766 23.7628 48.3228 23.7819 48.2525L26.4013 39.1454C26.4379 39.0106 26.2125 38.7553 26.0742 38.7749Z" fill="url(#paint18_linear_19_880)"/>
<path id="Vector_51" d="M26.2089 38.993L19.0664 40.0068C18.988 40.0179 18.9242 40.0755 18.9051 40.1523L16.486 49.8696C16.4513 50.0091 16.5745 50.1366 16.715 50.1068L23.7694 48.6097C23.8407 48.5946 23.8976 48.5408 23.9167 48.4705L26.4238 39.2364C26.4605 39.1016 26.3472 38.9733 26.2089 38.993Z" fill="url(#paint19_linear_19_880)"/>
<path id="Vector_52" d="M24.2837 39.5427L24.4836 38.7673C24.5016 38.6973 24.4444 38.6307 24.3725 38.6381L21.7622 38.9052C21.7172 38.9099 21.6803 38.943 21.6711 38.9873L21.4932 39.8405C21.4786 39.9106 21.5376 39.9741 21.6086 39.9646L24.1969 39.6197C24.2388 39.6141 24.2731 39.5836 24.2837 39.5427Z" fill="url(#paint20_linear_19_880)"/>
<path id="Vector_53" opacity="0.3" d="M20.6287 47.4139C20.9399 45.8558 20.0726 44.9507 20.7349 43.6968C21.6717 41.9233 24.1212 42.3827 24.7233 40.9674C24.8857 40.5858 24.9259 40.0377 24.571 39.2253L26.2089 38.993C26.3472 38.9733 26.4604 39.1015 26.4238 39.2364L23.9166 48.4705C23.8976 48.5409 23.8407 48.5945 23.7694 48.6097L19.4821 49.5197C20.1853 48.7673 20.5022 48.0472 20.6287 47.4139Z" fill="white"/>
</g>
<path id="Vector_54" d="M15.2771 46.8275C15.2771 46.8275 16.3386 46.501 16.7296 46.1952C17.1207 45.8893 17.5206 45.4213 18.1391 45.3812C18.7577 45.3414 19.4098 45.5911 19.1325 45.6922C18.8552 45.7931 18.3813 46.4122 17.9979 46.6761C17.6144 46.94 16.6883 47.0551 16.5142 47.0606C16.3401 47.0662 15.6998 47.5464 15.6998 47.5464L15.2771 46.8275Z" fill="white"/>
<path id="Vector_55" d="M15.9082 45.4605C16.4761 45.9365 16.7182 46.4042 16.7728 46.8369C17.0145 48.7551 13.7218 51.1817 10.5801 51.4454C8.25449 51.6407 5.92677 50.6535 4.46065 49.1462C1.59982 46.2048 1.43098 40.6743 4.43469 35.6851C5.20261 36.0654 5.97052 36.4458 6.73843 36.8262C8.87937 37.8866 10.1708 40.1861 9.83946 42.5522C9.62085 44.1133 10.1238 45.5226 11.0291 46.1646C12.1852 46.9845 14.2264 46.7153 15.9082 45.4605Z" fill="url(#paint21_linear_19_880)"/>
</g>
</g>
</g>
</g>
<g id="Group_41">
<path id="Vector_56" d="M32.573 26.7821L37.12 25.356L38.1585 20.7051L33.1292 16.5769C32.8236 16.296 33.3161 15.584 33.7296 15.5487C35.7459 15.3762 37.8268 16.0386 39.4089 17.5602C42.2577 20.3 42.3923 24.8444 39.7146 27.7515C36.9892 30.7104 32.3813 30.9027 29.4188 28.1798C27.853 26.7406 26.8153 25.0048 26.8171 23.0336C26.8175 22.6179 27.5554 22.1702 27.8614 22.4515L32.573 26.7821Z" fill="url(#paint22_linear_19_880)"/>
<path id="Vector_57" d="M39.5952 25.1431L57.0657 40.0818C58.1878 41.0649 58.2805 42.7791 57.2709 43.8774C56.2617 44.9755 54.5464 45.0277 53.4723 43.993L37.1064 27.8509L39.5952 25.1431Z" fill="url(#paint23_linear_19_880)"/>
<path id="Vector_58" d="M32.321 27.0905L36.868 25.6644L37.9065 21.0135L33.1949 16.683C32.8894 16.4021 33.064 15.8924 33.4776 15.8571C35.4939 15.6846 37.5748 16.347 39.1569 17.8686C42.0057 20.6084 42.1403 25.1528 39.4626 28.0599C36.7371 31.0188 32.1292 31.2111 29.1667 28.4882C27.601 27.049 26.8084 25.0835 26.8102 23.1122C26.8106 22.6966 27.3033 22.4786 27.6093 22.7599L32.321 27.0905Z" fill="url(#paint24_linear_19_880)"/>
<path id="Vector_59" d="M39.3432 25.4515L56.8137 40.3902C57.9358 41.3733 58.0285 43.0875 57.0189 44.1858C56.0097 45.2839 54.2944 45.3361 53.2203 44.3014L36.8544 28.1593L39.3432 25.4515Z" fill="url(#paint25_linear_19_880)"/>
<path id="Vector_60" d="M38.5957 27.2524C38.1927 27.6909 38.2214 28.3731 38.6599 28.7761C39.0984 29.1791 39.7806 29.1504 40.1836 28.7119C40.5867 28.2734 40.5579 27.5912 40.1194 27.1882C39.6809 26.7851 38.9987 26.8139 38.5957 27.2524Z" fill="url(#paint26_linear_19_880)"/>
<path id="Vector_61" d="M40.0762 29.4796L54.2556 42.5124C54.515 42.7509 54.9186 42.7339 55.157 42.4745C55.3954 42.2151 55.3784 41.8115 55.119 41.5731L40.9395 28.5403L40.0762 29.4796Z" fill="url(#paint27_linear_19_880)"/>
</g>
</g>
</g>
<defs>
<linearGradient id="paint0_linear_19_880" x1="61.072" y1="17.1029" x2="7.61412" y2="84.2755" gradientUnits="userSpaceOnUse">
<stop stop-color="#FFC444"/>
<stop offset="0.9964" stop-color="#F36F56"/>
</linearGradient>
<linearGradient id="paint1_linear_19_880" x1="0.560852" y1="20.5674" x2="56.4735" y2="71.1755" gradientUnits="userSpaceOnUse">
<stop offset="0.0036" stop-color="#E38DDD"/>
<stop offset="1" stop-color="#9571F6"/>
</linearGradient>
<linearGradient id="paint2_linear_19_880" x1="21.8487" y1="1.86448" x2="17.658" y2="50.5579" gradientUnits="userSpaceOnUse">
<stop stop-color="#FF9085"/>
<stop offset="1" stop-color="#FB6FBB"/>
</linearGradient>
<linearGradient id="paint3_linear_19_880" x1="14.4419" y1="30.0925" x2="49.3835" y2="30.0925" gradientUnits="userSpaceOnUse">
<stop stop-color="#444B8C"/>
<stop offset="0.9964" stop-color="#26264F"/>
</linearGradient>
<linearGradient id="paint4_linear_19_880" x1="13.2834" y1="30.0942" x2="48.3721" y2="30.0942" gradientUnits="userSpaceOnUse">
<stop stop-color="#444B8C"/>
<stop offset="0.9964" stop-color="#26264F"/>
</linearGradient>
<linearGradient id="paint5_linear_19_880" x1="25.7083" y1="8.62485" x2="42.1133" y2="78.8678" gradientUnits="userSpaceOnUse">
<stop offset="0.0036" stop-color="#E38DDD"/>
<stop offset="1" stop-color="#9571F6"/>
</linearGradient>
<linearGradient id="paint6_linear_19_880" x1="31.6762" y1="40.1347" x2="19.489" y2="40.5744" gradientUnits="userSpaceOnUse">
<stop stop-color="#FFC444"/>
<stop offset="0.9964" stop-color="#F36F56"/>
</linearGradient>
<linearGradient id="paint7_linear_19_880" x1="26.0173" y1="75.5989" x2="18.5669" y2="56.0546" gradientUnits="userSpaceOnUse">
<stop stop-color="#AA80F9"/>
<stop offset="0.9964" stop-color="#6165D7"/>
</linearGradient>
<linearGradient id="paint8_linear_19_880" x1="24.6729" y1="76.1114" x2="17.2224" y2="56.5671" gradientUnits="userSpaceOnUse">
<stop stop-color="#AA80F9"/>
<stop offset="0.9964" stop-color="#6165D7"/>
</linearGradient>
<linearGradient id="paint9_linear_19_880" x1="22.766" y1="75.7098" x2="12.9779" y2="57.2248" gradientUnits="userSpaceOnUse">
<stop stop-color="#AA80F9"/>
<stop offset="0.9964" stop-color="#6165D7"/>
</linearGradient>
<linearGradient id="paint10_linear_19_880" x1="9.3679" y1="55.499" x2="22.1976" y2="25.8546" gradientUnits="userSpaceOnUse">
<stop stop-color="#FFC444"/>
<stop offset="0.9964" stop-color="#F36F56"/>
</linearGradient>
<linearGradient id="paint11_linear_19_880" x1="11.3279" y1="55.8882" x2="24.8673" y2="24.6039" gradientUnits="userSpaceOnUse">
<stop stop-color="#FF9085"/>
<stop offset="1" stop-color="#FB6FBB"/>
</linearGradient>
<linearGradient id="paint12_linear_19_880" x1="7.01306" y1="49.214" x2="23.199" y2="49.214" gradientUnits="userSpaceOnUse">
<stop offset="0.0036" stop-color="#6165D7"/>
<stop offset="1" stop-color="#AA80F9"/>
</linearGradient>
<linearGradient id="paint13_linear_19_880" x1="14.2332" y1="29.6598" x2="17.5745" y2="29.6598" gradientUnits="userSpaceOnUse">
<stop stop-color="#311944"/>
<stop offset="1" stop-color="#893976"/>
</linearGradient>
<linearGradient id="paint14_linear_19_880" x1="14.5835" y1="30.7693" x2="17.4047" y2="30.7693" gradientUnits="userSpaceOnUse">
<stop stop-color="#311944"/>
<stop offset="1" stop-color="#893976"/>
</linearGradient>
<linearGradient id="paint15_linear_19_880" x1="7.74542" y1="36.8748" x2="12.4145" y2="36.8748" gradientUnits="userSpaceOnUse">
<stop offset="0.0036" stop-color="#6165D7"/>
<stop offset="1" stop-color="#AA80F9"/>
</linearGradient>
<linearGradient id="paint16_linear_19_880" x1="18.0928" y1="36.2671" x2="21.3933" y2="36.2671" gradientUnits="userSpaceOnUse">
<stop offset="0.0036" stop-color="#6165D7"/>
<stop offset="1" stop-color="#AA80F9"/>
</linearGradient>
<linearGradient id="paint17_linear_19_880" x1="13.2627" y1="42.6323" x2="20.0697" y2="42.6323" gradientUnits="userSpaceOnUse">
<stop offset="0.0036" stop-color="#6165D7"/>
<stop offset="1" stop-color="#AA80F9"/>
</linearGradient>
<linearGradient id="paint18_linear_19_880" x1="24.7731" y1="47.0122" x2="20.132" y2="43.4922" gradientUnits="userSpaceOnUse">
<stop offset="0.0036" stop-color="#26264F"/>
<stop offset="1" stop-color="#444B8C"/>
</linearGradient>
<linearGradient id="paint19_linear_19_880" x1="17.316" y1="42.8633" x2="28.2156" y2="47.3073" gradientUnits="userSpaceOnUse">
<stop offset="0.0036" stop-color="#26264F"/>
<stop offset="1" stop-color="#444B8C"/>
</linearGradient>
<linearGradient id="paint20_linear_19_880" x1="23.053" y1="44.6989" x2="22.9747" y2="38.1023" gradientUnits="userSpaceOnUse">
<stop stop-color="#AA80F9"/>
<stop offset="0.9964" stop-color="#6165D7"/>
</linearGradient>
<linearGradient id="paint21_linear_19_880" x1="11.8789" y1="51.8155" x2="-0.220728" y2="21.4901" gradientUnits="userSpaceOnUse">
<stop stop-color="#FFC444"/>
<stop offset="0.9964" stop-color="#F36F56"/>
</linearGradient>
<linearGradient id="paint22_linear_19_880" x1="36.7496" y1="19.0832" x2="22.2194" y2="46.2069" gradientUnits="userSpaceOnUse">
<stop stop-color="#40447E"/>
<stop offset="0.9964" stop-color="#3C3B6B"/>
</linearGradient>
<linearGradient id="paint23_linear_19_880" x1="51.8831" y1="27.1902" x2="37.3516" y2="54.3164" gradientUnits="userSpaceOnUse">
<stop stop-color="#40447E"/>
<stop offset="0.9964" stop-color="#3C3B6B"/>
</linearGradient>
<linearGradient id="paint24_linear_19_880" x1="36.5407" y1="19.4148" x2="22.0105" y2="46.5385" gradientUnits="userSpaceOnUse">
<stop stop-color="#AA80F9"/>
<stop offset="0.9964" stop-color="#6165D7"/>
</linearGradient>
<linearGradient id="paint25_linear_19_880" x1="51.6311" y1="27.4986" x2="37.0995" y2="54.6248" gradientUnits="userSpaceOnUse">
<stop stop-color="#AA80F9"/>
<stop offset="0.9964" stop-color="#6165D7"/>
</linearGradient>
<linearGradient id="paint26_linear_19_880" x1="35.7017" y1="32.3994" x2="39.3857" y2="27.9868" gradientUnits="userSpaceOnUse">
<stop stop-color="#AA80F9"/>
<stop offset="0.9964" stop-color="#6165D7"/>
</linearGradient>
<linearGradient id="paint27_linear_19_880" x1="44.0824" y1="40.2107" x2="47.8266" y2="35.7261" gradientUnits="userSpaceOnUse">
<stop stop-color="#AA80F9"/>
<stop offset="0.9964" stop-color="#6165D7"/>
</linearGradient>
</defs>
</svg>
