<svg width="63" height="61" viewBox="0 0 63 61" fill="none" xmlns="http://www.w3.org/2000/svg">
<g id="Illustration">
<g id="Group">
<path id="Vector" d="M40.9959 1.2744C36.4803 0.266985 31.7855 -0.215862 27.195 0.0919335C23.1265 0.364731 18.5147 1.10929 15.2406 3.77629C13.6804 5.04728 11.8197 7.33109 11.3093 9.34586C11.3092 9.3461 8.62285 19.951 3.25017 22.2234C-2.12257 24.496 -5.85365 63.2802 34.8897 59.4927C34.8897 59.4927 58.8202 58.5002 60.2611 29.9126C60.6091 23.0068 60.4147 15.4148 56.2448 9.6404C53.0494 5.21541 48.5724 3.2479 43.4278 1.87119C42.6242 1.65614 41.813 1.45668 40.9959 1.2744Z" fill="#F4F7FA"/>
<g id="Group_2">
<path id="Vector_2" d="M44.6425 27.0667L42.2751 26.2915L39.1834 35.7337L41.5507 36.5089L44.6425 27.0667Z" fill="#97A6B7"/>
<path id="Vector_3" d="M46.8642 18.775L45.74 17.9905L42.282 26.265C42.8747 27.123 43.6638 27.3814 44.7588 27.4923L46.8642 18.775Z" fill="#BFC8D6"/>
<path id="Vector_4" d="M44.4243 17.9034C43.2505 16.6649 43.4086 14.8631 43.4491 14.4015C43.81 10.2875 48.2036 9.41847 49.4158 4.37351C49.735 3.04542 49.6427 2.22252 49.948 2.17637C50.6755 2.06642 52.6721 6.51723 52.2465 11.1663C52.1587 12.1254 51.5127 18.0643 48.1996 18.9523C46.9688 19.2822 45.3804 18.9123 44.4243 17.9034Z" fill="url(#paint0_linear_19_318)"/>
<path id="Vector_5" opacity="0.3" d="M45.0433 17.9189C44.9281 17.7049 44.305 16.5477 44.3908 15.1467C44.6162 11.4642 49.565 9.48628 50.1856 4.62552C50.3308 3.48827 50.2202 2.40413 50.3284 2.39792C50.4988 2.38815 51.4365 5.04076 50.9043 7.82058C50.0676 12.1905 45.9294 15.1472 46.8621 17.2358C46.9722 17.4823 47.3513 18.1607 47.0753 18.5842C46.8781 18.8868 46.383 18.9655 46.0169 18.8734C45.7047 18.795 45.3926 18.5677 45.0433 17.9189Z" fill="url(#paint1_linear_19_318)"/>
</g>
<g id="Group_3">
<path id="Vector_6" d="M47.4263 23.4928C47.2941 22.8087 47.6112 22.0392 48.2508 20.5282C49.338 17.9598 49.8816 16.6756 50.9942 16.1135C51.9456 15.6329 52.9822 15.7999 55.0555 16.1338C57.4422 16.5181 58.6355 16.7102 58.9789 17.4778C59.2838 18.1593 58.774 18.8314 55.0034 23.6104C53.5671 25.4308 52.8319 26.3445 51.9995 26.5106C50.143 26.8811 47.7835 25.3411 47.4263 23.4928Z" fill="url(#paint2_linear_19_318)"/>
<path id="Vector_7" opacity="0.3" d="M52.767 15.8264C51.4723 17.9211 49.6622 20.993 47.8527 24.5372C48.1823 25.0601 48.6604 25.521 49.21 25.8711C51.2798 21.7671 53.3808 18.2522 54.7394 16.0829C53.9405 15.955 53.3041 15.8589 52.767 15.8264Z" fill="url(#paint3_linear_19_318)"/>
<path id="Vector_8" opacity="0.3" d="M58.9789 17.4777C58.8714 17.2376 58.6808 17.0538 58.3964 16.9028C56.9657 18.9161 54.0811 22.6349 49.9785 26.2679C50.6424 26.536 51.3515 26.6399 51.9995 26.5106C52.8319 26.3444 53.5671 25.4309 55.0033 23.6104C58.774 18.8313 59.2838 18.1593 58.9789 17.4777Z" fill="url(#paint4_linear_19_318)"/>
<path id="Vector_9" d="M42.1273 37.9339L40.8438 37.087L48.8541 25.3342L49.8418 25.986L42.1273 37.9339Z" fill="#97A6B7"/>
<path id="Vector_10" d="M47.0469 23.3724L46.7488 24.0788C46.6602 24.2888 46.733 24.532 46.9223 24.6588L51.1117 27.4632C51.2971 27.5873 51.5438 27.5659 51.705 27.4116L52.2704 26.8705C52.4902 26.66 52.4585 26.3001 52.2052 26.1313L47.7486 23.1616C47.5003 22.9962 47.1628 23.0976 47.0469 23.3724Z" fill="url(#paint5_linear_19_318)"/>
</g>
<g id="Group_4">
<g id="Group_5">
<path id="Vector_11" d="M24.6329 33.7649C26.3625 25.9518 33.3627 2.94021 19.0055 4.36863C9.34402 5.32986 15.8288 13.1943 9.65344 15.7318C3.47813 18.2693 2.59084 25.7373 10.7982 35.3494C19.0055 44.9616 29.6121 48.5654 29.6121 48.5654C29.6121 48.5654 22.9032 41.578 24.6329 33.7649Z" fill="#AABBCC"/>
<g id="Group_6">
<g id="Clip path group">
<mask id="mask0_19_318" style="mask-type:luminance" maskUnits="userSpaceOnUse" x="4" y="4" width="26" height="45">
<g id="SVGID_00000051346117902643834400000004232409965383562129_">
<path id="Vector_12" d="M24.6329 33.7649C26.3625 25.9517 33.3966 3.33521 19.0055 4.36863C9.73837 5.0341 15.8288 13.1942 9.65344 15.7318C3.47813 18.2693 2.59084 25.7373 10.7982 35.3494C19.0055 44.9616 29.6121 48.5654 29.6121 48.5654C29.6121 48.5654 22.9032 41.578 24.6329 33.7649Z" fill="white"/>
</g>
</mask>
<g mask="url(#mask0_19_318)">
<g id="Group_7" opacity="0.8">
<g id="Group_8">
<path id="Vector_13" d="M31.0729 49.4567C31.0562 49.4567 31.0393 49.4529 31.0234 49.4449C15.3059 41.5862 17.4368 25.158 18.71 15.3425C18.8597 14.1884 19.0011 13.0983 19.0959 12.1463C19.5491 7.59604 18.6106 5.249 17.7435 4.08135C16.8113 2.82604 15.76 2.6313 15.7495 2.62949C15.6892 2.61905 15.6487 2.5618 15.6589 2.50151C15.6693 2.4412 15.7265 2.40059 15.7866 2.41082C15.8325 2.41856 16.923 2.61562 17.9086 3.93181C18.8059 5.12985 19.7784 7.53129 19.3166 12.1683C19.2214 13.1236 19.0798 14.2153 18.9299 15.3711C17.6643 25.1281 15.5461 41.4583 31.1226 49.2465C31.1773 49.2739 31.1995 49.3405 31.1722 49.3953C31.1527 49.4342 31.1136 49.4567 31.0729 49.4567Z" fill="white"/>
</g>
<g id="Group_9">
<path id="Vector_14" d="M18.1904 20.9625C18.1538 20.9625 18.118 20.9444 18.0969 20.9114C18.0845 20.892 16.8361 18.957 14.8635 17.1835C13.0528 15.5556 10.2425 13.7335 7.13753 14.2982C7.07741 14.309 7.01951 14.2692 7.00856 14.2089C6.99758 14.1486 7.03754 14.0909 7.09781 14.0799C9.62687 13.62 12.3648 14.6374 15.0155 17.0219C17.0093 18.8155 18.2712 20.7722 18.2837 20.7918C18.3167 20.8434 18.3016 20.912 18.25 20.945C18.2315 20.9568 18.2109 20.9625 18.1904 20.9625Z" fill="white"/>
</g>
<g id="Group_10">
<path id="Vector_15" d="M18.3983 32.0669C18.3668 32.0669 18.3356 32.0536 18.3137 32.0278C18.2966 32.0077 16.5703 29.9911 13.9257 28.2058C11.4934 26.5638 7.76308 24.7863 3.80418 25.6438C3.74442 25.6569 3.68525 25.6188 3.67232 25.5589C3.65931 25.499 3.69737 25.44 3.75723 25.427C7.79447 24.5527 11.5852 26.3573 14.0545 28.0251C16.723 29.8275 18.4655 31.8639 18.4828 31.8842C18.5224 31.9309 18.5167 32.0009 18.4701 32.0406C18.4492 32.0583 18.4236 32.0669 18.3983 32.0669Z" fill="white"/>
</g>
<g id="Group_11">
<path id="Vector_16" d="M18.8001 15.417C18.7796 15.417 18.7589 15.4113 18.7404 15.3995C18.6888 15.3665 18.6737 15.2979 18.7067 15.2463C18.7192 15.2267 19.9811 13.27 21.9749 11.4765C24.6257 9.09193 27.3635 8.07472 29.8926 8.53443C29.9529 8.54539 29.9928 8.60313 29.9819 8.6634C29.9709 8.72367 29.9129 8.76354 29.8529 8.7527C26.7479 8.18797 23.9376 10.0101 22.1269 11.638C20.1543 13.4116 18.9059 15.3465 18.8935 15.3659C18.8724 15.3989 18.8366 15.417 18.8001 15.417Z" fill="white"/>
</g>
<g id="Group_12">
<path id="Vector_17" d="M18.0086 28.3381C17.99 28.3381 17.9712 28.3335 17.9539 28.3236C17.9007 28.2934 17.882 28.2257 17.9123 28.1724C17.9256 28.149 19.2665 25.8114 21.399 23.9322C22.6562 22.8242 23.9395 22.0886 25.2132 21.7458C26.8124 21.3153 28.3975 21.5058 29.9245 22.3119C29.9787 22.3405 29.9995 22.4076 29.9709 22.4618C29.9423 22.5159 29.8752 22.5367 29.821 22.5081C27.1359 21.0905 24.3518 21.6257 21.5456 24.0986C19.4407 25.9536 18.1182 28.2589 18.1051 28.282C18.0847 28.318 18.0472 28.3381 18.0086 28.3381Z" fill="white"/>
</g>
<g id="Group_13">
<path id="Vector_18" d="M20.005 38.0982C19.9864 38.0982 19.9676 38.0935 19.9503 38.0837C19.897 38.0534 19.8784 37.9857 19.9087 37.9324C19.922 37.909 21.2629 35.5715 23.3954 33.6922C24.6526 32.5842 25.9359 31.8486 27.2096 31.5058C28.8087 31.0753 30.3939 31.2657 31.9209 32.0719C31.9751 32.1005 31.9958 32.1676 31.9673 32.2218C31.9387 32.2759 31.8715 32.2967 31.8174 32.2681C29.1323 30.8505 26.3481 31.3857 23.542 33.8586C21.4371 35.7136 20.1146 38.0189 20.1015 38.042C20.0811 38.078 20.0436 38.0982 20.005 38.0982Z" fill="white"/>
</g>
</g>
</g>
</g>
</g>
</g>
<g id="Group_14">
<g id="Group_15">
<path id="Vector_19" d="M20.9494 40.1598C18.8627 36.9544 18.9919 35.651 16.1726 31.1505C12.9922 26.0736 11.0613 23.1065 7.53989 23.1349C5.13914 23.1542 2.3199 24.5634 1.10039 26.3951C-0.940366 29.4604 1.65325 33.4772 2.53948 34.8498C4.02474 37.15 5.53403 37.8508 5.4613 40.0025C5.39993 41.8183 4.29176 42.3001 4.2696 43.6587C4.20665 47.5154 13.0467 49.1914 14.4777 49.4628C20.085 50.5259 25.4964 49.8039 29.6289 48.7743C25.0956 45.7013 22.4981 42.5386 20.9494 40.1598Z" fill="#D8DEE8"/>
<g id="Clip path group_2">
<mask id="mask1_19_318" style="mask-type:luminance" maskUnits="userSpaceOnUse" x="0" y="23" width="30" height="27">
<g id="SVGID_00000031182938949068132610000000524486683290046138_">
<path id="Vector_20" d="M20.9494 40.1598C18.8627 36.9544 18.9919 35.651 16.1726 31.1505C12.9922 26.0736 11.0613 23.1065 7.53989 23.1349C5.13914 23.1542 2.3199 24.5634 1.10039 26.3951C-0.940366 29.4604 1.65325 33.4772 2.53948 34.8498C4.02474 37.15 5.53403 37.8508 5.4613 40.0025C5.39993 41.8183 4.29176 42.3001 4.2696 43.6587C4.20665 47.5154 13.0467 49.1914 14.4777 49.4628C20.085 50.5259 25.4964 49.8039 29.6289 48.7743C25.0956 45.7013 22.4981 42.5386 20.9494 40.1598Z" fill="white"/>
</g>
</mask>
<g mask="url(#mask1_19_318)">
<g id="Group_16" opacity="0.8">
<g id="Group_17">
<path id="Vector_21" d="M30.5061 49.029C30.5009 49.029 30.4956 49.0286 30.4902 49.0278C25.6237 48.2261 21.14 46.4471 17.1636 43.7403C13.9831 41.5752 11.1186 38.8153 8.64971 35.5371C4.4468 29.9565 2.82707 24.7342 2.81118 24.6821C2.79557 24.6308 2.82448 24.5765 2.87583 24.5609C2.92725 24.5452 2.98144 24.5742 2.99708 24.6255C3.01286 24.6773 4.62487 29.872 8.80917 35.4258C12.6678 40.5474 19.567 47.0314 30.5218 48.8361C30.5748 48.8448 30.6106 48.8948 30.6019 48.9477C30.594 48.9953 30.5529 49.029 30.5061 49.029Z" fill="white"/>
</g>
<g id="Group_18">
<path id="Vector_22" d="M8.86911 35.7628C8.85346 35.7628 8.83759 35.759 8.82284 35.751C8.77568 35.7254 8.75819 35.6664 8.78379 35.6193C8.8099 35.5711 11.3884 30.7284 10.8362 24.0591C10.8317 24.0056 10.8715 23.9587 10.925 23.9543C10.9792 23.95 11.0254 23.9896 11.0298 24.0431C11.587 30.7728 8.98092 35.6633 8.95455 35.712C8.93693 35.7444 8.90355 35.7628 8.86911 35.7628Z" fill="white"/>
</g>
<g id="Group_19">
<path id="Vector_23" d="M8.54181 35.7484C7.99546 35.7484 6.83895 35.7044 5.38467 35.3991C3.50832 35.0053 0.734668 34.0836 -1.82339 31.9295C-1.86445 31.8949 -1.86969 31.8337 -1.83512 31.7926C-1.80053 31.7516 -1.73923 31.7463 -1.69822 31.7809C0.8267 33.9071 3.56518 34.8179 5.41788 35.2075C7.42765 35.6302 8.85829 35.5481 8.8725 35.5472C8.92665 35.5437 8.97215 35.5846 8.97547 35.6382C8.97879 35.6917 8.9381 35.7378 8.88455 35.7412C8.88044 35.7414 8.75953 35.7484 8.54181 35.7484Z" fill="white"/>
</g>
<g id="Group_20">
<path id="Vector_24" d="M10.6275 43.2444C8.30853 43.2444 4.70253 42.5748 -0.317953 39.82C-0.364983 39.7942 -0.382191 39.7351 -0.356379 39.6881C-0.330568 39.641 -0.27157 39.6238 -0.224476 39.6496C5.39152 42.7312 9.21235 43.1842 11.4286 43.0216C13.8231 42.846 14.9083 41.9335 14.919 41.9243C14.9597 41.8893 15.021 41.8939 15.056 41.9344C15.091 41.9749 15.0866 42.0362 15.0461 42.0713C15.0011 42.1103 13.9146 43.0291 11.4645 43.2138C11.2071 43.2332 10.9279 43.2444 10.6275 43.2444Z" fill="white"/>
</g>
<g id="Group_21">
<path id="Vector_25" d="M6.83904 52.613C6.78977 52.613 6.74755 52.5756 6.7425 52.5255C6.73713 52.4722 6.77605 52.4245 6.82942 52.4191C13.2179 51.7758 16.6256 49.9782 18.3593 48.5834C20.2242 47.0832 20.5939 45.729 20.5974 45.7155C20.611 45.6636 20.664 45.6326 20.7159 45.6459C20.7678 45.6595 20.799 45.7125 20.7855 45.7644C20.7704 45.8221 20.3955 47.1947 18.4811 48.7348C16.7268 50.146 13.2848 51.9643 6.84889 52.6124C6.84557 52.6128 6.84229 52.613 6.83904 52.613Z" fill="white"/>
</g>
<g id="Group_22">
<path id="Vector_26" d="M15.4526 42.4681C15.4283 42.4681 15.4041 42.4591 15.3852 42.4409C15.3466 42.4037 15.3454 42.3423 15.3825 42.3036C15.3916 42.2942 16.2955 41.3401 16.9313 39.5152C17.5181 37.8309 17.99 35.0383 16.9059 31.2994C16.891 31.2478 16.9206 31.194 16.9722 31.179C17.0236 31.164 17.0776 31.1937 17.0925 31.2453C18.1925 35.0392 17.7097 37.8772 17.1109 39.59C16.4603 41.4512 15.5605 42.3989 15.5225 42.4383C15.5035 42.4582 15.478 42.4681 15.4526 42.4681Z" fill="white"/>
</g>
</g>
</g>
</g>
</g>
</g>
</g>
<g id="Group_23">
<path id="Vector_27" d="M47.2369 51.3659C42.3119 55.2846 32.0379 52.0938 30.1723 51.4674C28.3066 52.0938 18.032 55.2846 13.1069 51.3659C7.67738 47.0463 10.543 42.5826 14.3135 39.5308C18.084 36.4797 16.5758 34.2313 15.7463 25.592C15.6875 24.9779 15.6497 24.3998 15.6324 23.8548C15.4054 16.7274 18.6458 15.1903 23.0324 11.9131C25.3468 10.1845 28.0329 10.0809 30.1723 10.425C32.311 10.0809 34.9978 10.1845 37.3114 11.9131C42.0336 15.4408 45.4271 16.9527 44.5976 25.592C43.9385 32.4588 42.8503 35.2882 44.3238 37.6921C44.7054 38.3127 45.2567 38.9045 46.0303 39.5308C49.8009 42.5826 52.6665 47.0463 47.2369 51.3659Z" fill="url(#paint6_linear_19_318)"/>
<path id="Vector_28" opacity="0.2" d="M47.2369 51.3659C42.3119 55.2846 32.0379 52.0938 30.1723 51.4674C28.3066 52.0938 18.032 55.2846 13.1069 51.3659C7.67738 47.0463 10.543 42.5826 14.3135 39.5308C18.084 36.4797 16.5758 34.2313 15.7463 25.592C15.6875 24.9779 15.6497 24.3998 15.6324 23.8548C15.9371 23.9131 16.4212 25.2616 16.5283 25.4725C17.2138 26.8195 17.9196 28.1593 18.5493 29.5301C19.2906 31.1428 19.8795 32.8073 20.4421 34.4826C20.9398 35.9649 21.6132 37.5445 21.6207 39.1226C21.6328 41.6949 18.5839 43.7799 19.2023 46.2925C19.5696 47.7842 21.2053 48.5481 22.6358 48.8685C26.1574 49.6575 30.2711 48.5711 33.5952 47.4408C35.6592 46.7389 37.3559 45.6518 38.794 44.083C39.9824 42.7864 41.1747 42.7461 42.8005 43.2803C43.6195 43.5488 45.0832 44.2731 45.8614 43.5862C46.8508 42.7137 45.6329 40.8303 45.1775 39.9851C44.8554 39.3868 44.5229 38.5611 44.3238 37.6921C44.7054 38.3127 45.2566 38.9045 46.0303 39.5308C49.8009 42.5826 52.6665 47.0463 47.2369 51.3659Z" fill="url(#paint7_linear_19_318)"/>
<path id="Vector_29" d="M37.717 28.4181C37.717 28.4181 41.0546 25.5955 41.3456 27.323C41.9523 30.9247 39.0975 32.913 37.5482 31.8361C35.9989 30.7593 37.717 28.4181 37.717 28.4181Z" fill="url(#paint8_linear_19_318)"/>
<path id="Vector_30" d="M23.098 28.6352C23.098 28.6352 19.7604 25.8126 19.4694 27.5402C18.8627 31.1419 21.7175 33.1302 23.2668 32.0533C24.8161 30.9765 23.098 28.6352 23.098 28.6352Z" fill="url(#paint9_linear_19_318)"/>
<path id="Vector_31" d="M53.012 53.5697C51.6093 54.4192 49.1013 54.2743 36.9618 54.3549C34.6231 54.3704 31.9272 54.3941 28.8129 54.4348C27.2579 54.4555 25.8095 54.4769 24.4608 54.4969C14.9647 54.6388 10.4034 54.7002 8.44469 53.5933C6.66273 52.587 7.7489 51.0158 7.97812 50.6845C8.87132 49.3921 10.9794 48.592 11.7476 48.3081C15.3817 46.9631 20.3342 46.5527 25.059 46.433C27.1958 46.3783 29.2861 46.3827 31.1871 46.3871C33.29 46.3916 35.0719 46.3953 36.6579 46.4315C39.6643 46.4995 41.9631 46.6814 44.3935 47.199C51.0918 48.6253 55.6982 51.9423 53.012 53.5697Z" fill="url(#paint10_linear_19_318)"/>
<path id="Vector_32" d="M40.9442 50.3185L36.9618 54.3549C34.6231 54.3704 31.9272 54.3941 28.8129 54.4348C27.2579 54.4555 25.8095 54.4769 24.4608 54.4969L20.352 50.9544C19.6651 50.3622 19.9431 49.3056 20.8511 49.0719C22.7506 48.5832 24.1015 47.6175 25.059 46.433C28.0713 42.7042 27.1752 36.8082 27.1752 36.8082L33.6272 37.3014C32.9757 41.8953 34.629 44.7161 36.658 46.4315C37.9371 47.5133 39.3656 48.1551 40.46 48.5248C41.2688 48.7976 41.5225 49.7322 40.9442 50.3185Z" fill="url(#paint11_linear_19_318)"/>
<path id="Vector_33" d="M38.1244 22.2672C36.4119 20.3621 34.3638 19.5056 34.3149 19.5906C34.3149 19.5906 32.9509 18.5873 30.6135 19.3045C30.6063 19.3077 28.519 19.7628 28.285 19.8221C21.9569 21.4255 20.5937 24.3409 20.6562 27.418C20.6594 27.5702 23.307 41.1527 30.1087 41.1527C36.2878 41.1527 38.7927 31.9535 39.6902 27.0798C38.6052 26.9223 40.1291 24.4974 38.1244 22.2672Z" fill="url(#paint12_linear_19_318)"/>
<g id="Group_24">
<path id="Vector_34" d="M27.1156 29.1618C27.1156 29.1618 27.064 29.1937 26.9686 29.235C26.8735 29.2772 26.7345 29.3287 26.5628 29.3716C26.3913 29.415 26.187 29.4482 25.9649 29.46C25.743 29.4722 25.5032 29.4603 25.2653 29.4185C25.028 29.3756 24.7923 29.3034 24.5858 29.1986C24.3789 29.0955 24.2032 28.9624 24.076 28.8284C24.0451 28.7936 24.0152 28.7613 23.9885 28.7292C23.964 28.6952 23.9407 28.663 23.9189 28.6326C23.8762 28.5722 23.8493 28.5116 23.8241 28.4664C23.8016 28.4186 23.7891 28.3783 23.7788 28.3526C23.7698 28.3261 23.765 28.312 23.765 28.312C23.765 28.312 23.8173 28.3454 23.8977 28.4039C23.9414 28.4301 23.9904 28.4641 24.0493 28.4977C24.0782 28.5144 24.109 28.5321 24.1414 28.5508C24.1745 28.5676 24.2091 28.5852 24.2453 28.6036C24.3901 28.6744 24.5606 28.7424 24.7483 28.7998C24.7954 28.8133 24.8434 28.8272 24.8919 28.8412C24.9415 28.8525 24.9909 28.8656 25.0411 28.8782C25.1426 28.8998 25.2452 28.9242 25.3505 28.9406C25.769 29.0169 26.206 29.0548 26.5423 29.0922C26.7104 29.1098 26.8533 29.1267 26.9547 29.14C27.0559 29.1523 27.1156 29.1618 27.1156 29.1618Z" fill="url(#paint13_linear_19_318)"/>
<path id="Vector_35" d="M33.2828 29.1618C33.2828 29.1618 33.3344 29.1937 33.4298 29.235C33.525 29.2772 33.6639 29.3287 33.8356 29.3716C34.0071 29.415 34.2114 29.4482 34.4335 29.46C34.6554 29.4722 34.8952 29.4603 35.1331 29.4185C35.3705 29.3756 35.6061 29.3034 35.8126 29.1986C36.0195 29.0955 36.1952 28.9624 36.3224 28.8284C36.3533 28.7936 36.3832 28.7613 36.4099 28.7292C36.4345 28.6952 36.4577 28.663 36.4795 28.6326C36.5222 28.5722 36.5491 28.5116 36.5744 28.4664C36.5968 28.4186 36.6094 28.3783 36.6196 28.3526C36.6287 28.3261 36.6334 28.312 36.6334 28.312C36.6334 28.312 36.5811 28.3454 36.5007 28.4039C36.457 28.4301 36.408 28.4641 36.3491 28.4977C36.3202 28.5144 36.2894 28.5321 36.257 28.5508C36.224 28.5676 36.1893 28.5852 36.1531 28.6036C36.0083 28.6744 35.8377 28.7424 35.6501 28.7998C35.603 28.8133 35.5551 28.8272 35.5065 28.8412C35.457 28.8525 35.4075 28.8656 35.3574 28.8782C35.2559 28.8998 35.1532 28.9242 35.0479 28.9406C34.6295 29.0169 34.1924 29.0548 33.8561 29.0922C33.6881 29.1098 33.5452 29.1267 33.4438 29.14C33.3425 29.1523 33.2828 29.1618 33.2828 29.1618Z" fill="url(#paint14_linear_19_318)"/>
<g id="Group_25">
<path id="Vector_36" d="M24.909 26.2241C24.0098 25.965 23.4144 26.5817 22.9489 27.2812C22.9732 27.2448 23.1697 27.2269 23.2102 27.2166C23.8105 27.0624 24.0858 26.7437 24.7118 26.8993C25.2772 27.0399 27.6897 27.6807 27.7955 27.6807C27.925 27.6807 27.9735 27.1017 27.9735 27.1017C27.8277 26.8901 25.2858 26.3327 24.909 26.2241Z" fill="url(#paint15_linear_19_318)"/>
<path id="Vector_37" d="M35.7255 26.2241C36.6247 25.965 37.2201 26.5817 37.6855 27.2812C37.6613 27.2448 37.4648 27.2269 37.4243 27.2166C36.824 27.0624 36.5487 26.7437 35.9227 26.8993C35.3573 27.0399 32.9448 27.6807 32.839 27.6807C32.7095 27.6807 32.661 27.1017 32.661 27.1017C32.8068 26.8901 35.3487 26.3327 35.7255 26.2241Z" fill="url(#paint16_linear_19_318)"/>
</g>
</g>
<path id="Vector_38" d="M32.6472 36.4152C32.6472 36.4152 31.7483 35.638 30.9135 36.0025C30.7602 36.0694 30.6304 36.1537 30.5243 36.2378C30.3156 36.4034 30.0222 36.4045 29.8144 36.2377C29.7072 36.1517 29.5785 36.0666 29.4317 36.0025C28.597 35.638 27.698 36.4152 27.698 36.4152C27.7622 36.4132 28.1095 36.8952 28.1893 36.9768C28.6236 37.4205 29.3498 37.7113 30.1726 37.7113C30.9953 37.7113 31.7214 37.4206 32.1557 36.9771C32.2353 36.8958 32.5826 36.4133 32.6472 36.4152Z" fill="url(#paint17_linear_19_318)"/>
<path id="Vector_39" d="M21.0265 25.7865C21.0265 25.7865 21.2224 27.1591 20.65 27.0951C20.6692 26.1192 21.0265 25.7865 21.0265 25.7865Z" fill="url(#paint18_linear_19_318)"/>
<g id="Group_26">
<path id="Vector_40" d="M40.3098 24.8204C40.0843 26.1697 39.6865 27.0955 39.6865 27.0955C38.7098 22.4121 31.4252 21.0923 30.1623 20.8971C28.8987 21.0923 21.6267 22.4121 20.65 27.0955C20.65 27.0955 20.1716 25.9797 19.9675 24.4129C19.5283 21.0428 20.3586 15.583 29.9486 14.6433V14.6093C30.0226 14.6144 30.1076 14.6203 30.1705 14.6263C30.2333 14.6204 30.3183 14.6144 30.3923 14.6093V14.6433C40.3793 15.6222 40.8637 21.5019 40.3098 24.8204Z" fill="url(#paint19_linear_19_318)"/>
<path id="Vector_41" opacity="0.2" d="M40.3098 24.8203C40.0843 26.1697 39.6865 27.0955 39.6865 27.0955C38.7098 22.4121 31.4252 21.0923 30.1623 20.8971C28.8987 21.0923 21.6267 22.4121 20.65 27.0955C20.65 27.0955 20.1716 25.9797 19.9675 24.4129C20.2115 22.9607 20.9561 21.0479 23.1092 20.4875C26.6583 19.5632 28.1741 16.5686 32.1299 18.2693C36.0857 19.9699 35.8269 20.8202 38.2299 21.5596C39.4277 21.9278 40.0924 23.3556 40.3098 24.8203Z" fill="url(#paint20_linear_19_318)"/>
</g>
</g>
<g id="Group_27">
<path id="Vector_42" d="M13.5845 31.4125C12.8883 37.6879 12.0974 44.201 11.3898 50.5329C11.343 50.9479 11.2969 51.3667 11.2514 51.7804C8.46045 51.7804 5.90841 52.0728 3.11807 52.0728C2.37584 45.3483 1.50485 38.0902 0.763245 31.4125H13.5845Z" fill="url(#paint21_linear_19_318)"/>
<path id="Vector_43" d="M13.2739 30.5275H1.07384C0.90582 30.5275 0.795502 30.6699 0.795502 30.838V31.4124H13.5073V30.838C13.5073 30.67 13.4419 30.5275 13.2739 30.5275Z" fill="url(#paint22_linear_19_318)"/>
<path id="Vector_44" opacity="0.3" d="M11.3898 50.5418C11.343 50.9568 11.2969 51.3712 11.2514 51.7849C8.46045 51.7849 5.90841 52.075 3.11807 52.075C2.37584 45.3506 1.50485 38.0902 0.763245 31.4125H2.185C2.0537 32.6193 2.09853 34.5121 3.63042 35.7551C3.76877 35.8672 3.89748 35.9831 4.01595 36.0939C5.83859 37.791 5.40568 39.3245 4.48411 41.7549C4.42582 41.908 4.37715 42.0711 4.33683 42.2408C3.69767 44.9351 5.32307 49.5089 9.15919 50.1513C10.0596 50.3024 10.7948 50.4266 11.3898 50.5418Z" fill="url(#paint23_linear_19_318)"/>
<path id="Vector_45" opacity="0.3" d="M11.4155 51.1238V55.9511H11.334C11.2828 56.3534 9.4403 56.6236 7.17384 56.6236C4.90739 56.6236 3.06488 56.3534 3.01367 55.9511H3.04822V51.1238H3.01367C3.06488 51.4457 4.90739 51.7963 7.17384 51.7963C9.4403 51.7963 11.2828 51.4457 11.334 51.1238H11.4155Z" fill="#D8DEE8"/>
<path id="Vector_46" d="M11.4155 51.1238V55.227H11.334C11.2828 55.5488 9.4403 55.8995 7.17384 55.8995C4.90739 55.8995 3.06488 55.5489 3.01367 55.227H3.04822V51.1238H3.01367C3.06488 51.4457 4.90739 51.7963 7.17384 51.7963C9.4403 51.7963 11.2828 51.4457 11.334 51.1238H11.4155Z" fill="#D8DEE8"/>
<path id="Vector_47" d="M8.03642 55.8718C8.03642 56.0045 7.92891 56.112 7.79627 56.112H5.9434C5.81076 56.112 5.70325 56.0045 5.70325 55.8718V55.8694C5.70325 55.7368 5.81076 55.6293 5.9434 55.6293H7.79627C7.92891 55.6293 8.03642 55.7368 8.03642 55.8694V55.8718Z" fill="#D8DEE8"/>
</g>
<g id="Group_28">
<path id="Vector_48" d="M53.5734 53.4245C55.1895 49.759 52.9283 45.2131 48.523 43.2709C44.1177 41.3287 39.2364 42.7257 37.6204 46.3913C36.0043 50.0568 38.2655 54.6027 42.6708 56.5449C47.0761 58.4871 51.9574 57.0901 53.5734 53.4245Z" fill="#97A6B7"/>
<path id="Vector_49" d="M48.378 43.6012C52.5631 45.4462 54.7112 49.7649 53.176 53.2472C51.6408 56.7294 47.0036 58.0567 42.8185 56.2117C38.6334 54.3666 36.4852 50.048 38.0204 46.5657C39.5556 43.0834 44.1929 41.7561 48.378 43.6012Z" fill="url(#paint24_linear_19_318)"/>
<path id="Vector_50" d="M59.2796 40.4825C60.8957 36.8169 58.6345 32.271 54.2292 30.3288C49.8239 28.3866 44.9426 29.7837 43.3266 33.4492C41.7105 37.1147 43.9717 41.6606 48.377 43.6028C52.7823 45.545 57.6636 44.148 59.2796 40.4825Z" fill="#97A6B7"/>
<path id="Vector_51" d="M54.0837 30.6587C58.2688 32.5038 60.417 36.8224 58.8818 40.3047C57.3466 43.787 52.7094 45.1142 48.5243 43.2692C44.3392 41.4242 42.191 37.1055 43.7262 33.6232C45.2614 30.1409 49.8986 28.8137 54.0837 30.6587Z" fill="url(#paint25_linear_19_318)"/>
<path id="Vector_52" d="M58.0745 39.9486C57.8858 40.377 57.644 40.7691 57.3578 41.1222C56.7441 41.8815 55.9257 42.4603 54.9847 42.8364C54.4462 43.0516 53.8674 43.2 53.2642 43.2773C51.8517 43.4598 50.304 43.2515 48.8203 42.5975C45.0807 40.9488 43.1617 37.0907 44.5332 33.9793C45.1608 32.5563 46.3679 31.5359 47.8515 31.0051C48.4331 30.7976 49.0565 30.6645 49.7043 30.6123C50.7637 30.5273 51.8879 30.6569 52.9961 31.0253C53.2608 31.1131 53.5255 31.2148 53.7873 31.3304C57.527 32.9791 59.4467 36.8372 58.0745 39.9486Z" fill="url(#paint26_linear_19_318)"/>
<g id="Group_29">
<path id="Vector_53" d="M47.9267 44.6248C51.4323 46.1703 53.2318 49.7878 51.9458 52.7048C50.6599 55.6217 46.7755 56.7335 43.2698 55.188C39.7642 53.6425 37.9647 50.025 39.2507 47.1081C40.5366 44.1911 44.421 43.0793 47.9267 44.6248Z" fill="url(#paint27_linear_19_318)"/>
<path id="Vector_54" opacity="0.3" d="M47.9267 44.6248C44.8147 43.2529 41.4047 43.9751 39.7784 46.1949C40.8644 46.1906 41.8974 46.4176 42.7831 46.9975C44.6401 48.2133 44.5495 50.1284 46.0848 51.8899C46.971 52.9067 48.3922 53.8639 50.7976 54.3156C51.2791 53.866 51.6717 53.3266 51.9458 52.7048C53.2318 49.7878 51.4323 46.1703 47.9267 44.6248Z" fill="url(#paint28_linear_19_318)"/>
</g>
<path id="Vector_55" d="M53.2643 43.2774C51.8517 43.4599 50.304 43.2516 48.8204 42.5976C45.0807 40.9489 43.1618 37.0908 44.5332 33.9794C45.1608 32.5564 46.3679 31.5359 47.8515 31.0052L53.2643 43.2774Z" fill="white"/>
<path id="Vector_56" d="M57.3578 41.1223C56.7441 41.8815 55.9257 42.4603 54.9847 42.8364L49.7043 30.6123C50.7637 30.5273 51.8879 30.6569 52.9961 31.0253L57.3578 41.1223Z" fill="white"/>
</g>
<g id="Group_30">
<g id="Group_31">
<path id="Vector_57" d="M38.4818 49.7128H34.242V55.3369H38.4818V49.7128Z" fill="url(#paint29_linear_19_318)"/>
<path id="Vector_58" d="M36.3619 55.8313C37.5327 55.8313 38.4818 55.6099 38.4818 55.3368C38.4818 55.0638 37.5327 54.8424 36.3619 54.8424C35.1911 54.8424 34.242 55.0638 34.242 55.3368C34.242 55.6099 35.1911 55.8313 36.3619 55.8313Z" fill="url(#paint30_linear_19_318)"/>
<path id="Vector_59" d="M36.3619 50.2072C37.5327 50.2072 38.4818 49.9858 38.4818 49.7127C38.4818 49.4397 37.5327 49.2183 36.3619 49.2183C35.1911 49.2183 34.242 49.4397 34.242 49.7127C34.242 49.9858 35.1911 50.2072 36.3619 50.2072Z" fill="url(#paint31_linear_19_318)"/>
<g id="Group_32">
<path id="Vector_60" d="M38.0023 45.3142H34.7215V49.6662H38.0023V45.3142Z" fill="url(#paint32_linear_19_318)"/>
<path id="Vector_61" d="M38.0023 49.6663C38.0023 49.8776 37.2679 50.0489 36.3619 50.0489C35.4559 50.0489 34.7215 49.8776 34.7215 49.6663C34.7215 49.455 35.4559 49.2837 36.3619 49.2837C37.2679 49.2837 38.0023 49.455 38.0023 49.6663Z" fill="url(#paint33_linear_19_318)"/>
</g>
<path id="Vector_62" d="M36.3619 45.6968C37.2679 45.6968 38.0023 45.5255 38.0023 45.3142C38.0023 45.1029 37.2679 44.9316 36.3619 44.9316C35.4559 44.9316 34.7215 45.1029 34.7215 45.3142C34.7215 45.5255 35.4559 45.6968 36.3619 45.6968Z" fill="#97A6B7"/>
<path id="Vector_63" d="M36.0975 39.377L35.6482 40.205C35.2992 40.8482 35.1164 41.5684 35.1164 42.3003V45.3142C35.1164 45.4746 35.674 45.6047 36.3619 45.6047C37.0498 45.6047 37.6074 45.4746 37.6074 45.3142V42.4188C37.6074 41.6022 37.47 40.7914 37.201 40.0203L37.0021 39.4502C36.8602 39.0435 36.3029 38.9984 36.0975 39.377Z" fill="url(#paint34_linear_19_318)"/>
<path id="Vector_64" opacity="0.3" d="M37.201 40.0203L37.0021 39.4502C36.968 39.3526 36.9099 39.276 36.8386 39.2209C36.9648 39.545 37.0435 39.9019 37.0347 40.285C37.0082 41.4302 36.2213 41.9186 35.9132 43.1494C35.7694 43.7237 35.7132 44.5287 36.0523 45.5956C36.1513 45.6015 36.255 45.6047 36.3619 45.6047C37.0498 45.6047 37.6074 45.4746 37.6074 45.3142V42.4189C37.6074 41.6022 37.47 40.7914 37.201 40.0203Z" fill="url(#paint35_linear_19_318)"/>
</g>
<g id="Group_33">
<path id="Vector_65" d="M31.9883 58.6845L32.0063 53.7662L39.531 52.4269L39.513 57.3452L31.9883 58.6845Z" fill="url(#paint36_linear_19_318)"/>
<path id="Vector_66" d="M32.0696 58.6876C31.1733 58.6843 30.4508 57.5807 30.4558 56.2225C30.4608 54.8644 31.1914 53.766 32.0876 53.7693C32.9838 53.7726 33.7063 54.8762 33.7013 56.2344C33.6964 57.5926 32.9658 58.6909 32.0696 58.6876Z" fill="url(#paint37_linear_19_318)"/>
<path id="Vector_67" d="M39.513 57.3244C38.6168 57.3211 37.8943 56.2175 37.8993 54.8593C37.9042 53.5011 38.6348 52.4028 39.531 52.4061C40.4273 52.4094 41.1498 53.513 41.1448 54.8712C41.1398 56.2293 40.4093 57.3277 39.513 57.3244Z" fill="url(#paint38_linear_19_318)"/>
</g>
</g>
<g id="Group_34">
<path id="Vector_68" d="M17.1203 39.9337H14.2975C14.065 39.9337 13.9037 40.1043 13.9037 40.3369V42.5956H17.5267V40.3369C17.5267 40.1043 17.3528 39.9337 17.1203 39.9337Z" fill="url(#paint39_linear_19_318)"/>
<g id="Group_35">
<path id="Vector_69" d="M16.0072 41.9425C16.3794 41.7883 16.5561 41.3616 16.402 40.9894C16.2478 40.6172 15.8211 40.4405 15.4489 40.5946C15.0767 40.7488 14.9 41.1755 15.0541 41.5477C15.2083 41.9199 15.635 42.0966 16.0072 41.9425Z" fill="#BFC8D6"/>
<path id="Vector_70" opacity="0.4" d="M15.9548 41.3257C15.9847 41.199 15.9062 41.072 15.7795 41.0421C15.6528 41.0122 15.5259 41.0907 15.4959 41.2174C15.466 41.3441 15.5445 41.471 15.6712 41.5009C15.7979 41.5309 15.9248 41.4524 15.9548 41.3257Z" fill="#BFC8D6"/>
</g>
<path id="Vector_71" d="M24.584 52.5472C24.484 54.3707 23.4447 55.8573 22.2331 56.9849C22.2128 57.0038 22.1922 57.0223 22.1712 57.0401C21.8534 57.3091 21.4496 57.4574 21.0315 57.4574H10.4208C9.97494 57.4574 9.54618 57.2891 9.21954 56.9853C8.00727 55.8577 6.96688 54.3707 6.86723 52.5472C6.72065 49.8661 7.95497 47.264 8.99536 45.5831C9.31668 45.064 9.88632 44.7397 10.4969 44.7397H20.9529C21.5638 44.7397 22.132 45.0633 22.454 45.5827C23.4952 47.2636 24.7305 49.8658 24.584 52.5472Z" fill="url(#paint40_linear_19_318)"/>
<path id="Vector_72" d="M18.6147 42.5216H12.8031C12.5705 42.5216 12.3509 42.7018 12.3509 42.9343V44.7398H19.0795V42.9343C19.0795 42.7018 18.8472 42.5216 18.6147 42.5216Z" fill="url(#paint41_linear_19_318)"/>
<path id="Vector_73" d="M13.7994 42.5216H12.8031C12.5705 42.5216 12.3509 42.7018 12.3509 42.9343V44.7398H13.3121V42.9343C13.3121 42.7018 13.5668 42.5216 13.7994 42.5216Z" fill="url(#paint42_linear_19_318)"/>
<g id="Group_36">
<path id="Vector_74" opacity="0.4" d="M23.4824 52.3717C23.3948 53.9685 22.4847 55.2954 21.424 56.2827C21.1383 56.5489 20.7622 56.7183 20.3718 56.7183H11.0805C10.6901 56.7183 10.3148 56.5475 10.0287 56.2813C8.9673 55.2939 8.05604 53.9794 7.96885 52.3825C7.89558 51.0432 8.2158 49.7223 8.67337 48.5659C8.67727 48.5567 8.68083 48.5451 8.68441 48.5362C8.89114 48.3141 11.9654 48.1367 15.7278 48.1367C19.4496 48.1367 22.4985 48.3085 22.7636 48.527C22.7689 48.5409 22.7747 48.5544 22.7803 48.5687C23.2365 49.7233 23.5553 51.0356 23.4824 52.3717Z" fill="url(#paint43_linear_19_318)"/>
<path id="Vector_75" opacity="0.6" d="M22.7825 48.5571C22.7825 48.5607 22.7818 48.5642 22.7804 48.5681C22.6836 48.7959 19.5631 48.9795 15.7278 48.9795C11.8497 48.9795 8.70258 48.792 8.6734 48.5603C8.67304 48.5592 8.67303 48.5582 8.67303 48.5571C8.67303 48.5489 8.67659 48.5411 8.68444 48.5333C8.89117 48.3113 11.9654 48.1351 15.7278 48.1351C19.4496 48.1351 22.4986 48.3077 22.7636 48.5262C22.7761 48.5365 22.7825 48.5468 22.7825 48.5571Z" fill="url(#paint44_linear_19_318)"/>
</g>
<path id="Vector_76" d="M20.3364 48.6214C20.3364 48.3561 20.1214 48.1411 19.8561 48.1411H11.5743C11.309 48.1411 11.0939 48.3561 11.0939 48.6214V54.0195C11.0939 54.2848 11.309 54.4999 11.5743 54.4999H19.8561C20.1214 54.4999 20.3364 54.2848 20.3364 54.0195V48.6214Z" fill="#F4F7FA"/>
<path id="Vector_77" opacity="0.3" d="M22.1712 57.0401C21.8534 57.3091 21.4496 57.4574 21.0315 57.4574H10.4208C9.97494 57.4574 9.54618 57.2891 9.21954 56.9853C8.00727 55.8577 6.96688 54.3707 6.86723 52.5472C6.72065 49.8661 7.95497 47.264 8.99536 45.5831C9.31668 45.064 9.88632 44.7397 10.4969 44.7397H11.6764C11.1747 45.0355 10.2681 45.6756 10.1404 47.1313C10.1115 47.4593 10.0614 47.8616 10.0137 48.306C9.99663 48.464 9.97992 48.6299 9.96425 48.7985C9.75646 51.0861 9.80093 54.2338 12.7734 55.4283C15.5296 56.5359 19.2663 55.332 21.318 56.3503C21.6503 56.5155 21.9385 56.7391 22.1712 57.0401Z" fill="white"/>
</g>
</g>
</g>
<defs>
<linearGradient id="paint0_linear_19_318" x1="49.1083" y1="9.84236" x2="43.582" y2="25.1934" gradientUnits="userSpaceOnUse">
<stop stop-color="#FFC444"/>
<stop offset="0.9248" stop-color="#F47555"/>
<stop offset="0.9964" stop-color="#F36F56"/>
</linearGradient>
<linearGradient id="paint1_linear_19_318" x1="47.6884" y1="10.0399" x2="48.7275" y2="27.5164" gradientUnits="userSpaceOnUse">
<stop stop-color="#FFC444"/>
<stop offset="0.9964" stop-color="#F36F56"/>
</linearGradient>
<linearGradient id="paint2_linear_19_318" x1="57.8241" y1="15.9913" x2="43.1192" y2="28.5847" gradientUnits="userSpaceOnUse">
<stop offset="0.0036" stop-color="#E38DDD"/>
<stop offset="1" stop-color="#9571F6"/>
</linearGradient>
<linearGradient id="paint3_linear_19_318" x1="50.1587" y1="19.7791" x2="52.2983" y2="21.191" gradientUnits="userSpaceOnUse">
<stop offset="0.0036" stop-color="#E38DDD"/>
<stop offset="1" stop-color="#9571F6"/>
</linearGradient>
<linearGradient id="paint4_linear_19_318" x1="53.4103" y1="21.0673" x2="56.0227" y2="22.7912" gradientUnits="userSpaceOnUse">
<stop offset="0.0036" stop-color="#E38DDD"/>
<stop offset="1" stop-color="#9571F6"/>
</linearGradient>
<linearGradient id="paint5_linear_19_318" x1="50.1501" y1="22.9962" x2="47.1744" y2="35.1826" gradientUnits="userSpaceOnUse">
<stop offset="0.494" stop-color="#EBEFF2"/>
<stop offset="1" stop-color="white"/>
</linearGradient>
<linearGradient id="paint6_linear_19_318" x1="50.6178" y1="-0.938231" x2="27.0625" y2="45.191" gradientUnits="userSpaceOnUse">
<stop stop-color="#40447E"/>
<stop offset="0.9964" stop-color="#3C3B6B"/>
</linearGradient>
<linearGradient id="paint7_linear_19_318" x1="29.3782" y1="76.6284" x2="32.0667" y2="-26.3001" gradientUnits="userSpaceOnUse">
<stop stop-color="#40447E"/>
<stop offset="0.9964" stop-color="#3C3B6B"/>
</linearGradient>
<linearGradient id="paint8_linear_19_318" x1="38.9831" y1="36.4126" x2="39.4804" y2="17.374" gradientUnits="userSpaceOnUse">
<stop stop-color="#FFC444"/>
<stop offset="0.9964" stop-color="#F36F56"/>
</linearGradient>
<linearGradient id="paint9_linear_19_318" x1="21.4793" y1="36.1701" x2="21.9766" y2="17.1314" gradientUnits="userSpaceOnUse">
<stop stop-color="#FFC444"/>
<stop offset="0.9964" stop-color="#F36F56"/>
</linearGradient>
<linearGradient id="paint10_linear_19_318" x1="31.7104" y1="68.4489" x2="29.1964" y2="31.331" gradientUnits="userSpaceOnUse">
<stop stop-color="#FFC444"/>
<stop offset="0.9964" stop-color="#F36F56"/>
</linearGradient>
<linearGradient id="paint11_linear_19_318" x1="31.8717" y1="68.4379" x2="29.3577" y2="31.3202" gradientUnits="userSpaceOnUse">
<stop stop-color="#FFC444"/>
<stop offset="0.9964" stop-color="#F36F56"/>
</linearGradient>
<linearGradient id="paint12_linear_19_318" x1="28.9819" y1="33.882" x2="24.3976" y2="61.1411" gradientUnits="userSpaceOnUse">
<stop stop-color="#FFC444"/>
<stop offset="0.9964" stop-color="#F36F56"/>
</linearGradient>
<linearGradient id="paint13_linear_19_318" x1="23.5669" y1="28.8883" x2="27.1637" y2="28.8883" gradientUnits="userSpaceOnUse">
<stop stop-color="#311944"/>
<stop offset="1" stop-color="#6B3976"/>
</linearGradient>
<linearGradient id="paint14_linear_19_318" x1="36.8315" y1="28.8883" x2="33.2347" y2="28.8883" gradientUnits="userSpaceOnUse">
<stop stop-color="#311944"/>
<stop offset="1" stop-color="#6B3976"/>
</linearGradient>
<linearGradient id="paint15_linear_19_318" x1="22.6519" y1="26.9222" x2="28.0456" y2="26.9222" gradientUnits="userSpaceOnUse">
<stop stop-color="#311944"/>
<stop offset="1" stop-color="#6B3976"/>
</linearGradient>
<linearGradient id="paint16_linear_19_318" x1="37.9826" y1="26.9222" x2="32.5889" y2="26.9222" gradientUnits="userSpaceOnUse">
<stop stop-color="#311944"/>
<stop offset="1" stop-color="#6B3976"/>
</linearGradient>
<linearGradient id="paint17_linear_19_318" x1="28.6327" y1="38.5711" x2="30.2804" y2="36.2643" gradientUnits="userSpaceOnUse">
<stop stop-color="#FF9085"/>
<stop offset="1" stop-color="#FB6FBB"/>
</linearGradient>
<linearGradient id="paint18_linear_19_318" x1="20.8467" y1="27.0012" x2="20.8766" y2="25.8553" gradientUnits="userSpaceOnUse">
<stop stop-color="#40447E"/>
<stop offset="0.9964" stop-color="#3C3B6B"/>
</linearGradient>
<linearGradient id="paint19_linear_19_318" x1="30.0823" y1="26.3729" x2="30.3713" y2="15.3109" gradientUnits="userSpaceOnUse">
<stop stop-color="#AA80F9"/>
<stop offset="0.9964" stop-color="#6165D7"/>
</linearGradient>
<linearGradient id="paint20_linear_19_318" x1="29.8863" y1="34.2787" x2="30.7839" y2="-0.0885696" gradientUnits="userSpaceOnUse">
<stop stop-color="#AA80F9"/>
<stop offset="0.9964" stop-color="#6165D7"/>
</linearGradient>
<linearGradient id="paint21_linear_19_318" x1="7.40999" y1="28.0279" x2="5.48813" y2="55.5746" gradientUnits="userSpaceOnUse">
<stop offset="0.0036" stop-color="#E38DDD"/>
<stop offset="1" stop-color="#9571F6"/>
</linearGradient>
<linearGradient id="paint22_linear_19_318" x1="8.45359" y1="18.2286" x2="6.60868" y2="36.4868" gradientUnits="userSpaceOnUse">
<stop offset="0.0036" stop-color="#E38DDD"/>
<stop offset="1" stop-color="#9571F6"/>
</linearGradient>
<linearGradient id="paint23_linear_19_318" x1="0.763234" y1="41.7437" x2="11.3898" y2="41.7437" gradientUnits="userSpaceOnUse">
<stop offset="0.0036" stop-color="#E38DDD"/>
<stop offset="1" stop-color="#9571F6"/>
</linearGradient>
<linearGradient id="paint24_linear_19_318" x1="38.5759" y1="42.2491" x2="48.1663" y2="52.7066" gradientUnits="userSpaceOnUse">
<stop offset="0.0081" stop-color="#97A6B7"/>
<stop offset="0.2838" stop-color="#EBEFF2"/>
<stop offset="1" stop-color="#97A6B7"/>
</linearGradient>
<linearGradient id="paint25_linear_19_318" x1="44.2817" y1="29.3067" x2="53.872" y2="39.7642" gradientUnits="userSpaceOnUse">
<stop offset="0.0081" stop-color="#97A6B7"/>
<stop offset="0.2838" stop-color="#EBEFF2"/>
<stop offset="1" stop-color="#97A6B7"/>
</linearGradient>
<linearGradient id="paint26_linear_19_318" x1="54.4859" y1="29.7101" x2="50.1402" y2="39.6166" gradientUnits="userSpaceOnUse">
<stop offset="0.494" stop-color="#EBEFF2"/>
<stop offset="1" stop-color="white"/>
</linearGradient>
<linearGradient id="paint27_linear_19_318" x1="39.716" y1="43.4923" x2="47.7493" y2="52.252" gradientUnits="userSpaceOnUse">
<stop stop-color="#FF9085"/>
<stop offset="1" stop-color="#FB6FBB"/>
</linearGradient>
<linearGradient id="paint28_linear_19_318" x1="41.2622" y1="42.0743" x2="49.2956" y2="50.834" gradientUnits="userSpaceOnUse">
<stop stop-color="#FF9085"/>
<stop offset="1" stop-color="#FB6FBB"/>
</linearGradient>
<linearGradient id="paint29_linear_19_318" x1="38.7181" y1="52.301" x2="33.7661" y2="52.7713" gradientUnits="userSpaceOnUse">
<stop stop-color="#311944"/>
<stop offset="1" stop-color="#6B3976"/>
</linearGradient>
<linearGradient id="paint30_linear_19_318" x1="38.9828" y1="55.0879" x2="34.0307" y2="55.5582" gradientUnits="userSpaceOnUse">
<stop stop-color="#311944"/>
<stop offset="1" stop-color="#6B3976"/>
</linearGradient>
<linearGradient id="paint31_linear_19_318" x1="34.242" y1="49.7127" x2="38.4818" y2="49.7127" gradientUnits="userSpaceOnUse">
<stop stop-color="#311944"/>
<stop offset="1" stop-color="#6B3976"/>
</linearGradient>
<linearGradient id="paint32_linear_19_318" x1="34.7215" y1="47.4902" x2="38.0023" y2="47.4902" gradientUnits="userSpaceOnUse">
<stop offset="0.0081" stop-color="#97A6B7"/>
<stop offset="0.2838" stop-color="#EBEFF2"/>
<stop offset="1" stop-color="#97A6B7"/>
</linearGradient>
<linearGradient id="paint33_linear_19_318" x1="34.7215" y1="49.6663" x2="38.0023" y2="49.6663" gradientUnits="userSpaceOnUse">
<stop offset="0.0081" stop-color="#97A6B7"/>
<stop offset="0.2838" stop-color="#EBEFF2"/>
<stop offset="1" stop-color="#97A6B7"/>
</linearGradient>
<linearGradient id="paint34_linear_19_318" x1="35.1164" y1="42.3611" x2="37.6074" y2="42.3611" gradientUnits="userSpaceOnUse">
<stop stop-color="#FF9085"/>
<stop offset="1" stop-color="#FB6FBB"/>
</linearGradient>
<linearGradient id="paint35_linear_19_318" x1="35.8003" y1="42.4128" x2="37.6074" y2="42.4128" gradientUnits="userSpaceOnUse">
<stop stop-color="#FF9085"/>
<stop offset="1" stop-color="#FB6FBB"/>
</linearGradient>
<linearGradient id="paint36_linear_19_318" x1="33.8968" y1="56.13" x2="40.8961" y2="53.9721" gradientUnits="userSpaceOnUse">
<stop stop-color="#311944"/>
<stop offset="1" stop-color="#6B3976"/>
</linearGradient>
<linearGradient id="paint37_linear_19_318" x1="35.2864" y1="60.7247" x2="31.9112" y2="55.9939" gradientUnits="userSpaceOnUse">
<stop stop-color="#311944"/>
<stop offset="1" stop-color="#6B3976"/>
</linearGradient>
<linearGradient id="paint38_linear_19_318" x1="34.029" y1="56.5587" x2="41.0283" y2="54.4009" gradientUnits="userSpaceOnUse">
<stop stop-color="#311944"/>
<stop offset="1" stop-color="#6B3976"/>
</linearGradient>
<linearGradient id="paint39_linear_19_318" x1="17.5338" y1="26.0214" x2="15.8046" y2="40.6931" gradientUnits="userSpaceOnUse">
<stop stop-color="white"/>
<stop offset="1" stop-color="#D8DEE8"/>
</linearGradient>
<linearGradient id="paint40_linear_19_318" x1="6.85533" y1="51.0986" x2="24.5959" y2="51.0986" gradientUnits="userSpaceOnUse">
<stop stop-color="#FF9085"/>
<stop offset="1" stop-color="#FB6FBB"/>
</linearGradient>
<linearGradient id="paint41_linear_19_318" x1="12.3509" y1="43.6307" x2="19.0794" y2="43.6307" gradientUnits="userSpaceOnUse">
<stop stop-color="white"/>
<stop offset="1" stop-color="#D8DEE8"/>
</linearGradient>
<linearGradient id="paint42_linear_19_318" x1="12.3509" y1="43.6307" x2="13.7994" y2="43.6307" gradientUnits="userSpaceOnUse">
<stop stop-color="white"/>
<stop offset="1" stop-color="#D8DEE8"/>
</linearGradient>
<linearGradient id="paint43_linear_19_318" x1="7.95841" y1="52.4275" x2="23.4928" y2="52.4275" gradientUnits="userSpaceOnUse">
<stop stop-color="#FF9085"/>
<stop offset="1" stop-color="#FB6FBB"/>
</linearGradient>
<linearGradient id="paint44_linear_19_318" x1="8.67303" y1="48.5573" x2="22.7825" y2="48.5573" gradientUnits="userSpaceOnUse">
<stop stop-color="#FF9085"/>
<stop offset="1" stop-color="#FB6FBB"/>
</linearGradient>
</defs>
</svg>
