<svg width="60" height="60" viewBox="0 0 60 60" fill="none" xmlns="http://www.w3.org/2000/svg">
<g id="Illustration">
<g id="Group">
<path id="Vector" d="M14.536 3.45479C12.5007 6.30404 14.8028 10.9823 11.8049 13.1098C8.88671 15.1807 5.36517 11.6988 2.61678 13.4789C-1.46033 16.1197 -0.850126 28.4058 4.98932 36.0969C6.74542 38.4099 8.22355 39.3182 8.85505 41.9198C10.2111 47.5061 5.20442 50.7681 6.12157 53.5336C8.18664 59.7605 40.8949 65.3114 54.2371 46.8033C60.4684 38.1592 61.5193 25.5934 56.1342 15.9846C46.4033 -1.37838 19.1028 -2.93843 14.536 3.45479Z" fill="#F4F7FA"/>
<g id="Group_2">
<path id="Vector_2" d="M43.2359 53.0354C41.0498 53.1212 24.5192 53.4956 13.5395 40.4856C5.20413 30.609 4.59292 18.3804 5.91745 11.479C6.30935 9.43697 7.52247 3.11603 10.2561 2.76327C11.1583 2.64686 12.267 3.17524 12.7822 4.0146C14.2617 6.42495 10.2871 10.4859 11.6424 11.9567C12.0328 12.3804 12.7878 12.5049 13.2638 12.2693C14.554 11.6307 13.1666 8.65684 14.634 6.11962C15.7281 4.22767 18.1921 2.95477 19.1577 3.56587C20.4857 4.40622 18.7144 8.64062 17.8444 12.7593C17.8444 12.7593 15.6305 23.2398 20.1063 34.1378C25.401 47.0296 39.8409 51.9664 43.2359 53.0354Z" fill="url(#paint0_linear_19_683)"/>
<path id="Vector_3" opacity="0.3" d="M26.2704 47.9584C24.0941 45.6122 23.2274 42.1899 17.9525 36.576C12.4123 30.6797 10.5103 31.4133 9.54333 28.5035C7.10274 21.1591 18.6 14.6223 16.7851 5.63929C16.6874 5.15583 16.5556 4.69157 16.3968 4.24522C15.7133 4.72151 15.0665 5.37193 14.634 6.11986C13.1666 8.6571 14.554 11.631 13.2638 12.2696C12.7878 12.5052 12.0329 12.3806 11.6425 11.957C10.2871 10.4862 14.2618 6.42521 12.7822 4.01486C12.267 3.1755 11.1584 2.64712 10.2561 2.76351C7.52247 3.11624 6.30935 9.43721 5.91745 11.4792C4.59292 18.3806 5.20413 30.6092 13.5395 40.4859C24.5192 53.4958 41.0497 53.1215 43.2359 53.0357C42.433 52.7829 41.012 52.3134 39.2409 51.574C32.1053 51.9669 28.3542 50.2048 26.2704 47.9584Z" fill="url(#paint1_linear_19_683)"/>
</g>
<g id="Group_3">
<path id="Vector_4" d="M45.06 51.941C45.5946 51.0064 39.5826 48.5603 35.4287 41.9449C33.8475 39.4267 30.4548 32.9907 30.4607 24.9469C30.4631 21.5896 31.0579 17.4422 29.7375 16.9913C29.2097 16.811 28.3067 17.2019 27.9134 17.7939C27.5669 18.3154 27.7877 18.7347 27.4884 19.9598C27.456 20.0926 27.139 21.39 26.8919 21.3691C26.5773 21.3424 26.9593 19.2292 25.8704 17.0642C25.6183 16.5628 24.8869 15.1051 24.2652 15.1671C22.8877 15.3045 21.4447 22.5296 22.5141 29.1762C23.9917 38.3596 30.203 46.0488 37.3988 49.825C40.7395 51.5782 44.6421 52.6715 45.06 51.941Z" fill="url(#paint2_linear_19_683)"/>
<path id="Vector_5" opacity="0.3" d="M32.9831 42.5589C28.0301 37.2801 24.3626 33.2651 24.9571 28.6958C25.2949 26.0992 26.7068 25.6456 27.8756 22.8587C28.5018 21.3657 28.9435 19.4752 28.8494 17.0734C28.4818 17.2181 28.1243 17.4765 27.9134 17.794C27.5669 18.3155 27.7877 18.7348 27.4884 19.9599C27.456 20.0927 27.139 21.3902 26.8919 21.3692C26.5773 21.3426 26.9593 19.2293 25.8704 17.0643C25.6183 16.5629 24.8869 15.1053 24.2652 15.1673C22.8877 15.3046 21.4447 22.5297 22.5141 29.1764C23.9917 38.3597 30.203 46.0489 37.3988 49.8252C40.7004 51.5578 44.5504 52.6457 45.0434 51.9658C44.0233 51.6545 43.0154 51.2482 42.0306 50.7309C39.3095 49.3016 37.2007 47.054 32.9831 42.5589Z" fill="url(#paint3_linear_19_683)"/>
</g>
<g id="Group_4">
<path id="Vector_6" d="M45.4213 17.5003C44.4348 17.7346 43.0696 18.0589 42.7749 17.5687C42.4651 17.0531 43.5231 15.9419 43.2971 15.7381C43.1178 15.5763 42.5054 16.3243 41.7121 16.1961C41.2826 16.1268 40.7813 15.7975 40.7151 15.3844C40.6156 14.7626 41.5775 14.4242 41.4812 13.7427C41.4368 13.4283 41.1726 13.0791 40.8593 13.021C40.191 12.8972 39.9005 14.2099 38.8283 14.4308C38.1547 14.5696 37.3558 14.2396 36.9362 13.7199C36.2384 12.8556 36.8276 11.7618 36.2782 11.4139C35.8343 11.1329 35.2844 11.7422 34.3311 11.9639C32.8496 12.3083 31.0768 11.5573 30.0989 10.4228C28.7779 8.89044 28.7199 6.44105 29.6611 4.95054C31.7656 1.61801 39.4681 2.12528 41.4083 5.13296C42.0248 6.0886 42.9042 8.60602 43.3054 10.8242C43.4187 11.4509 43.5313 12.2608 44.1809 12.7942C45.0157 13.4796 45.8229 12.9576 46.9171 13.5968C47.8171 14.1226 48.6356 15.273 48.3763 16.114C48.1488 16.8525 47.173 17.0843 45.4213 17.5003Z" fill="url(#paint4_linear_19_683)"/>
<path id="Vector_7" d="M34.7044 21.2911C34.7355 21.4786 31.9884 24.6022 31.5379 26.1049L36.7942 27.6994C36.7942 27.6994 40.048 25.3091 41.0834 25.3092L34.7044 21.2911Z" fill="url(#paint5_linear_19_683)"/>
<path id="Vector_8" d="M34.7308 20.842C34.6393 20.8444 33.6411 22.4271 33.5681 22.8284C33.5681 22.8284 37.9067 25.0224 38.7654 26.3697L41.8706 25.1004C41.8706 25.1004 36.6962 20.7891 34.7308 20.842Z" fill="url(#paint6_linear_19_683)"/>
<path id="Vector_9" d="M31.1178 26.749C31.1178 26.749 31.9024 24.8122 32.3887 24.4953C32.875 24.1783 35.7434 25.199 37.5379 27.2241L36.6789 27.9353L31.1178 26.749Z" fill="url(#paint7_linear_19_683)"/>
<path id="Vector_10" d="M24.3806 11.1906C24.3806 11.1906 23.0938 10.8147 22.3297 11.0026C21.5656 11.1906 21.8436 12.1449 21.9782 12.4339C22.1128 12.7229 23.9829 12.0896 23.9829 12.0896L24.3806 11.1906Z" fill="url(#paint8_linear_19_683)"/>
<path id="Vector_11" d="M53.091 21.226C53.0292 20.6302 53.0577 20.1488 53.0978 19.8123C53.1569 19.3164 53.2448 19.1046 53.4057 19.0424C53.5303 18.9942 53.6591 19.0512 53.6983 19.0686C54.1326 19.2608 54.248 20.0154 54.2085 20.4954C54.1616 21.0678 53.8754 21.4839 53.6983 21.6975C53.4959 21.5403 53.2935 21.3831 53.091 21.226Z" fill="url(#paint9_linear_19_683)"/>
<path id="Vector_12" d="M24.2287 10.7164C23.9986 11.3075 23.7685 11.8986 23.5385 12.4897C24.355 13.0905 25.5911 13.8075 27.1838 13.9998C28.8579 14.2019 29.3474 13.6335 30.66 14.0759C32.0888 14.5576 31.9869 15.3921 33.9329 16.4805C35.4706 17.3405 36.3056 17.2508 36.3812 17.7641C36.4799 18.4342 35.1051 18.9169 33.2398 21.0773C32.5366 21.8916 32.4329 22.1694 32.5102 22.3906C32.7556 23.0929 34.5285 22.372 36.3772 23.1567C38.8556 24.2087 39.4006 27.0881 40.6091 26.8414C40.8554 26.7911 40.9149 26.6548 41.7401 25.7105C42.4999 24.8409 43.1517 24.1529 43.6018 23.6899C44.2325 23.9818 45.0214 24.4244 45.8152 25.1036C47.5436 26.5824 47.7173 27.8327 49.3648 28.5925C49.8947 28.8369 50.7311 29.2226 51.4932 28.898C51.959 28.6996 52.4132 28.2289 53.198 25.2869C53.5679 23.9004 53.8083 22.7253 53.9629 21.8769C53.5733 21.586 53.1838 21.2952 52.7941 21.0043C52.3226 21.5183 51.6894 22.3405 51.2984 23.4851C50.8804 24.7085 51.0281 25.4544 50.6052 25.6375C50.0809 25.8645 49.3712 24.9268 47.6909 23.3234C45.3969 21.1343 44.9572 21.2002 43.4912 19.545C42.1376 18.0168 42.1847 17.5905 41.3023 16.5535C40.7868 15.9477 39.1992 14.2463 31.7015 12.2717C29.8692 11.7892 27.3266 11.1962 24.2287 10.7164Z" fill="url(#paint10_linear_19_683)"/>
<path id="Vector_13" opacity="0.3" d="M36.2178 21.2601C36.0133 19.8331 39.7997 18.6745 39.5512 17.4655C39.4196 16.8253 38.2893 16.8176 36.4138 16.1157C32.9884 14.8338 33.3221 13.5735 30.832 12.9053C28.1419 12.1834 26.8366 13.4085 24.8854 12.2121C24.5175 11.9865 24.2069 11.7234 23.9437 11.4487C23.8087 11.7957 23.6736 12.1427 23.5385 12.4897C24.3551 13.0905 25.5911 13.8075 27.1838 13.9998C28.858 14.2019 29.3475 13.6336 30.66 14.076C32.0889 14.5576 31.9869 15.3921 33.933 16.4805C35.4707 17.3405 36.3056 17.2508 36.3812 17.7641C36.48 18.4342 35.1052 18.9169 33.2398 21.0773C32.5367 21.8916 32.4329 22.1694 32.5102 22.3906C32.7556 23.0929 34.5286 22.372 36.3773 23.1567C38.8557 24.2087 39.4007 27.0881 40.6092 26.8414C40.6316 26.8368 40.6525 26.8315 40.6726 26.825C40.6446 25.8551 40.4226 24.7838 39.7336 23.8864C38.4311 22.1897 36.3661 22.2952 36.2178 21.2601Z" fill="url(#paint11_linear_19_683)"/>
<path id="Vector_14" opacity="0.3" d="M51.0065 28.3007C50.0079 28.2623 49.733 26.9628 47.5042 25.0903C46.6157 24.3437 44.7062 22.7248 43.7764 23.3034C43.6907 23.3568 43.4644 23.5194 43.3201 23.982C43.421 23.8766 43.5152 23.779 43.6018 23.6899C44.2326 23.9818 45.0215 24.4244 45.8153 25.1036C47.5437 26.5824 47.7173 27.8327 49.3649 28.5925C49.8948 28.8369 50.7311 29.2226 51.4932 28.898C51.815 28.7609 52.1314 28.4934 52.555 27.3712C51.9216 28.131 51.4037 28.3159 51.0065 28.3007Z" fill="url(#paint12_linear_19_683)"/>
<path id="Vector_15" d="M45.0545 17.0229C45.0545 17.0229 43.1545 18.4596 41.8706 17.3103C41.8706 17.3103 41.4244 19.4192 44.1737 20.842C44.1737 20.842 43.1459 19.889 45.3993 18.4633L45.0545 17.0229Z" fill="url(#paint13_linear_19_683)"/>
<path id="Vector_16" d="M47.4816 15.8624C47.4816 15.8624 47.4302 17.9265 46.6146 18.9398C46.4996 19.0826 46.3094 19.1427 46.1344 19.0878C45.6933 18.9492 44.863 18.541 44.6736 17.4068C44.6736 17.4068 44.2352 16.8011 44.298 16.5361C44.3607 16.2712 44.8307 16.3674 44.9818 16.7016C45.1328 17.0359 45.3381 16.4433 45.2712 16.3318C45.2043 16.2202 45.8086 15.0708 47.4816 15.8624Z" fill="url(#paint14_linear_19_683)"/>
<path id="Vector_17" d="M31.4887 26.5131C27.7485 27.9529 27.2707 29.1831 27.1838 29.6505C27.1676 29.7375 27.0826 30.2406 27.0084 30.8906C26.8649 32.1466 26.9388 32.3987 26.7896 32.8314C26.5322 33.5782 25.9784 33.7952 25.3094 34.3732C23.3763 36.0434 23.9682 37.7155 22.2164 38.9337C21.3908 39.5078 20.6933 39.53 20.1428 39.6831C18.4218 40.1615 16.3531 42.4143 14.9258 50.3358C15.2785 50.7371 15.6312 51.1384 15.9838 51.5397C17.8132 47.4361 20.0669 44.9837 21.7508 43.5166C25.1727 40.5353 27.8675 40.2068 31.1603 36.8375C33.3813 34.5648 34.629 32.1831 35.3193 30.5991C34.0424 29.237 32.7655 27.8751 31.4887 26.5131Z" fill="url(#paint15_linear_19_683)"/>
<path id="Vector_18" opacity="0.3" d="M32.8774 27.9943C30.2615 28.3681 29.3513 29.2375 29.0079 29.9788C28.4764 31.1266 29.3031 31.965 29.0809 34.2837C29.0372 34.739 28.8294 36.9076 27.6216 38.4427C25.8314 40.7179 23.1643 39.9244 20.9819 41.1788C19.5144 42.0223 17.9993 43.9453 17.5138 48.6063C18.971 46.2031 20.5144 44.5937 21.7508 43.5166C25.1727 40.5353 27.8675 40.2068 31.1603 36.8375C33.3813 34.5648 34.629 32.1831 35.3193 30.5991C34.5053 29.7308 33.6913 28.8626 32.8774 27.9943Z" fill="url(#paint16_linear_19_683)"/>
<path id="Vector_19" d="M30.778 26.8005C29.6308 27.3904 28.5253 28.7305 28.6239 30.173C28.7147 31.5002 29.8017 32.5768 30.8381 33.0674C32.6524 33.9263 33.8209 32.757 37.5443 32.7386C39.7073 32.7278 41.671 33.1107 41.7036 33.5541C41.7346 33.9761 39.979 33.9429 38.931 35.3417C38.5339 35.8717 38.4149 36.3717 38.1284 38.4062C37.9743 39.5002 37.7937 40.882 37.6176 42.4922C37.8463 42.7473 38.075 43.0025 38.3037 43.2576C40.3966 40.9002 43.5333 37.1538 45.8 33.3695C46.1358 32.8089 46.5754 32.0423 46.3491 31.2477C45.9094 29.7039 43.4402 29.7554 38.5135 28.3473C33.7568 26.9878 32.4902 25.92 30.778 26.8005Z" fill="url(#paint17_linear_19_683)"/>
<path id="Vector_20" d="M41.0834 31.2557L42.5792 30.4308C37.871 28.7385 32.582 28.1667 29.3759 27.9744C28.9959 28.4614 28.7196 29.0342 28.6408 29.6413C34.8539 29.5352 41.0834 31.2557 41.0834 31.2557Z" fill="url(#paint18_linear_19_683)"/>
<path id="Vector_21" d="M39.9979 31.9489L40.6725 31.6205C35.7974 30.2542 30.7402 30.4204 28.6836 30.5767C28.8664 31.3901 29.412 32.0866 30.0473 32.5788C34.0218 31.3171 39.9979 31.9489 39.9979 31.9489Z" fill="url(#paint19_linear_19_683)"/>
<g id="Group_5">
<path id="Vector_22" d="M14.7443 49.4882C14.7443 49.4882 14.1957 49.8271 13.9814 49.8186C13.7672 49.8102 13.0014 49.6706 13.097 50.402C13.1925 51.1335 13.8001 54.2287 14.1196 54.9791C14.439 55.7296 14.6602 55.9458 15.4584 55.8167C15.7923 55.7627 15.2447 54.94 15.3299 54.4879C15.4151 54.0358 16.3718 51.2132 16.3718 51.2132C16.3718 51.2132 15.5621 50.2996 15.4889 50.0097C15.4156 49.7198 15.2504 49.1582 14.7443 49.4882Z" fill="url(#paint20_linear_19_683)"/>
<path id="Vector_23" d="M14.4206 53.6413V51.2599C14.4206 50.8718 14.3308 50.489 14.1582 50.1414L13.9975 49.8178C13.9922 49.818 13.9864 49.8188 13.9815 49.8186C13.7672 49.8102 12.7004 49.3874 12.9193 50.4818C13.064 51.2051 13.7308 54.4253 14.0503 55.1758C14.3697 55.9262 14.7691 56.0066 15.5673 55.8774C15.709 55.8545 15.5829 55.6324 15.5229 55.4198L15.1062 55.0814C14.6725 54.7291 14.4206 54.2 14.4206 53.6413Z" fill="#B2B8C1"/>
</g>
<g id="Group_6">
<path id="Vector_24" d="M37.058 41.7385C37.058 41.7385 36.5436 42.0562 36.3427 42.0483C36.1419 42.0403 35.4238 41.9094 35.5134 42.5952C35.603 43.281 36.1727 46.183 36.4722 46.8867C36.7718 47.5903 36.9791 47.7931 37.7275 47.672C38.0406 47.6213 37.5272 46.85 37.607 46.4261C37.6869 46.0022 38.5839 43.3558 38.5839 43.3558C38.5839 43.3558 37.8247 42.4992 37.7561 42.2274C37.6874 41.9556 37.5325 41.429 37.058 41.7385Z" fill="url(#paint21_linear_19_683)"/>
<path id="Vector_25" d="M36.7545 45.6323V43.3996C36.7545 43.0357 36.6703 42.6768 36.5084 42.3509L36.3577 42.0475C36.3528 42.0477 36.3473 42.0485 36.3427 42.0483C36.1419 42.0404 35.1416 41.644 35.3469 42.67C35.4825 43.3482 36.1077 46.3675 36.4072 47.0711C36.7068 47.7747 37.0812 47.85 37.8296 47.729C37.9624 47.7075 37.8442 47.4992 37.788 47.2999L37.3972 46.9826C36.9906 46.6522 36.7545 46.1562 36.7545 45.6323Z" fill="white"/>
</g>
</g>
</g>
</g>
<defs>
<linearGradient id="paint0_linear_19_683" x1="24.2369" y1="37.7615" x2="18.4727" y2="18.3531" gradientUnits="userSpaceOnUse">
<stop stop-color="#FF9085"/>
<stop offset="1" stop-color="#FB6FBB"/>
</linearGradient>
<linearGradient id="paint1_linear_19_683" x1="24.2369" y1="37.7617" x2="18.4727" y2="18.3533" gradientUnits="userSpaceOnUse">
<stop stop-color="#FF9085"/>
<stop offset="1" stop-color="#FB6FBB"/>
</linearGradient>
<linearGradient id="paint2_linear_19_683" x1="32.8324" y1="37.9856" x2="39.618" y2="58.9263" gradientUnits="userSpaceOnUse">
<stop stop-color="#FFC444"/>
<stop offset="0.9964" stop-color="#F36F56"/>
</linearGradient>
<linearGradient id="paint3_linear_19_683" x1="32.7805" y1="38.0026" x2="39.5661" y2="58.9433" gradientUnits="userSpaceOnUse">
<stop stop-color="#FFC444"/>
<stop offset="0.9964" stop-color="#F36F56"/>
</linearGradient>
<linearGradient id="paint4_linear_19_683" x1="29.1821" y1="-5.62783" x2="47.7897" y2="28.7416" gradientUnits="userSpaceOnUse">
<stop stop-color="#444B8C"/>
<stop offset="0.9964" stop-color="#26264F"/>
</linearGradient>
<linearGradient id="paint5_linear_19_683" x1="33.7192" y1="21.8697" x2="41.3075" y2="33.1062" gradientUnits="userSpaceOnUse">
<stop stop-color="#FFC444"/>
<stop offset="0.9964" stop-color="#F36F56"/>
</linearGradient>
<linearGradient id="paint6_linear_19_683" x1="37.6274" y1="17.2966" x2="37.7247" y2="24.3498" gradientUnits="userSpaceOnUse">
<stop stop-color="#311944"/>
<stop offset="1" stop-color="#A03976"/>
</linearGradient>
<linearGradient id="paint7_linear_19_683" x1="31.1178" y1="26.1868" x2="37.5379" y2="26.1868" gradientUnits="userSpaceOnUse">
<stop stop-color="#311944"/>
<stop offset="1" stop-color="#A03976"/>
</linearGradient>
<linearGradient id="paint8_linear_19_683" x1="23.056" y1="13.1157" x2="22.6182" y2="30.3351" gradientUnits="userSpaceOnUse">
<stop stop-color="#FFC444"/>
<stop offset="0.9964" stop-color="#F36F56"/>
</linearGradient>
<linearGradient id="paint9_linear_19_683" x1="53.8011" y1="13.8854" x2="53.3626" y2="31.1313" gradientUnits="userSpaceOnUse">
<stop stop-color="#FFC444"/>
<stop offset="0.9964" stop-color="#F36F56"/>
</linearGradient>
<linearGradient id="paint10_linear_19_683" x1="23.5385" y1="19.8694" x2="53.9629" y2="19.8694" gradientUnits="userSpaceOnUse">
<stop offset="0.0036" stop-color="#E38DDD"/>
<stop offset="1" stop-color="#9571F6"/>
</linearGradient>
<linearGradient id="paint11_linear_19_683" x1="23.5385" y1="19.1525" x2="40.6725" y2="19.1525" gradientUnits="userSpaceOnUse">
<stop offset="0.0036" stop-color="#E38DDD"/>
<stop offset="1" stop-color="#9571F6"/>
</linearGradient>
<linearGradient id="paint12_linear_19_683" x1="43.3201" y1="26.1017" x2="52.555" y2="26.1017" gradientUnits="userSpaceOnUse">
<stop offset="0.0036" stop-color="#E38DDD"/>
<stop offset="1" stop-color="#9571F6"/>
</linearGradient>
<linearGradient id="paint13_linear_19_683" x1="41.8438" y1="18.9325" x2="45.3993" y2="18.9325" gradientUnits="userSpaceOnUse">
<stop stop-color="#FFC444"/>
<stop offset="0.9964" stop-color="#F36F56"/>
</linearGradient>
<linearGradient id="paint14_linear_19_683" x1="47.7299" y1="20.8277" x2="41.9657" y2="6.59974" gradientUnits="userSpaceOnUse">
<stop stop-color="#FFC444"/>
<stop offset="0.9964" stop-color="#F36F56"/>
</linearGradient>
<linearGradient id="paint15_linear_19_683" x1="14.9258" y1="39.0264" x2="35.3193" y2="39.0264" gradientUnits="userSpaceOnUse">
<stop offset="0.0036" stop-color="#E38DDD"/>
<stop offset="1" stop-color="#9571F6"/>
</linearGradient>
<linearGradient id="paint16_linear_19_683" x1="17.5138" y1="38.3003" x2="35.3193" y2="38.3003" gradientUnits="userSpaceOnUse">
<stop offset="0.0036" stop-color="#E38DDD"/>
<stop offset="1" stop-color="#9571F6"/>
</linearGradient>
<linearGradient id="paint17_linear_19_683" x1="28.6178" y1="34.8685" x2="46.4112" y2="34.8685" gradientUnits="userSpaceOnUse">
<stop offset="0.0036" stop-color="#E38DDD"/>
<stop offset="1" stop-color="#9571F6"/>
</linearGradient>
<linearGradient id="paint18_linear_19_683" x1="29.4726" y1="39.0304" x2="35.261" y2="30.2747" gradientUnits="userSpaceOnUse">
<stop offset="0.494" stop-color="#EBEFF2"/>
<stop offset="1" stop-color="white"/>
</linearGradient>
<linearGradient id="paint19_linear_19_683" x1="29.4459" y1="39.0128" x2="35.2344" y2="30.2571" gradientUnits="userSpaceOnUse">
<stop offset="0.494" stop-color="#EBEFF2"/>
<stop offset="1" stop-color="white"/>
</linearGradient>
<linearGradient id="paint20_linear_19_683" x1="13.0888" y1="52.6196" x2="16.3718" y2="52.6196" gradientUnits="userSpaceOnUse">
<stop stop-color="#311944"/>
<stop offset="1" stop-color="#A03976"/>
</linearGradient>
<linearGradient id="paint21_linear_19_683" x1="35.5057" y1="44.6744" x2="38.5839" y2="44.6744" gradientUnits="userSpaceOnUse">
<stop stop-color="#311944"/>
<stop offset="1" stop-color="#A03976"/>
</linearGradient>
</defs>
</svg>
