<svg width="61" height="61" viewBox="0 0 61 61" fill="none" xmlns="http://www.w3.org/2000/svg">
<g id="Illustration">
<g id="Group">
<path id="Vector" d="M59.3905 25.9226C57.7567 15.095 51.0582 1.79261 37.8246 0.400477C37.8246 0.400477 27.7769 -0.836945 17.8722 1.0385C11.9937 2.15156 6.83917 5.46492 3.57761 10.227C0.315979 14.9891 -0.773509 20.7959 0.548733 26.3319C1.40752 29.9276 1.98783 33.649 1.82856 37.3438C1.55139 43.7742 1.71085 49.7766 7.8744 53.6115C13.3777 57.0357 20.3038 60.0556 26.9113 60.5846C31.4017 60.9441 36.4375 60.3624 40.7654 59.1787C62.8214 53.1462 61.0243 36.7502 59.3905 25.9226Z" fill="#F4F7FA"/>
<g id="Group_2">
<path id="Vector_2" d="M42.3169 36.7546C41.4322 36.644 39.9427 36.4577 38.6885 35.32C36.4083 33.2517 36.3856 29.3815 37.281 26.7589C38.0501 24.5061 39.8978 22.8047 43.5932 19.4019C47.0736 16.197 48.3598 15.672 48.4294 14.0779C48.5286 11.8053 46.0149 10.573 46.5233 7.93944C46.5843 7.62343 46.7938 6.53801 47.646 5.99284C49.1047 5.05962 51.4227 6.36457 52.5849 7.42394C53.7059 8.44579 55.067 10.4381 54.6274 12.321C54.3089 13.6853 53.3158 13.8331 53.3078 15.0375C53.2998 16.2493 54.3028 16.4651 55.0703 18.3213C55.3769 19.0628 55.9923 20.5513 55.5479 22.0044C54.9732 23.8832 53.1468 24.0021 53.0678 25.4939C53.0108 26.5718 53.9457 26.8622 54.1337 28.0653C54.3812 29.6492 53.0625 31.0759 51.9495 32.2482C50.6388 33.6287 47.1028 37.3532 42.3169 36.7546Z" fill="url(#paint0_linear_19_210)"/>
<path id="Vector_3" opacity="0.16" d="M48.3633 6.55712C47.6355 7.33175 50.6301 9.48452 50.6499 13.1432C50.6711 17.0797 47.2354 20.3581 45.6477 21.8732C42.9387 24.4581 41.5348 24.3214 39.9814 26.9225C39.3666 27.952 38.0858 30.0966 38.777 32.5595C38.8412 32.7884 39.5947 35.3286 41.814 36.1435C44.3313 37.0679 46.8205 35.0696 48.9653 33.3478C50.2613 32.3074 52.8503 30.2291 52.3121 28.6485C51.9831 27.6823 50.5613 27.1246 49.4805 27.1026C47.938 27.071 46.879 28.1263 46.6933 27.8946C46.526 27.6859 47.2243 26.6289 48.2937 25.7311C50.4329 23.9352 51.8701 24.6119 53.4092 23.0347C53.5958 22.8436 55.0523 21.3072 54.7195 19.4952C54.5275 18.4501 53.7353 17.2861 52.8615 17.2465C51.8733 17.2016 51.2072 18.6143 50.9476 18.4555C50.6993 18.3036 51.1576 16.9197 51.8078 15.619C52.7631 13.7078 53.3368 13.5686 53.6031 12.429C54.0093 10.6902 53.1096 9.14908 52.9772 8.92942C51.7359 6.87108 48.9856 5.89482 48.3633 6.55712Z" fill="white"/>
</g>
<g id="Group_3">
<path id="Vector_4" d="M43.3631 45.8123C42.5129 45.5409 41.0816 45.084 40.0522 43.7348C38.1805 41.2818 38.852 37.4717 40.2027 35.0572C41.3628 32.9832 43.4848 31.6496 47.7289 28.9823C51.7259 26.4703 53.0849 26.1903 53.4391 24.6355C53.944 22.4189 51.6929 20.7451 52.665 18.2487C52.7816 17.9492 53.1822 16.9203 54.1179 16.5408C55.7197 15.8911 57.7653 17.6003 58.7183 18.8557C59.6376 20.0666 60.6189 22.2759 59.8491 24.0468C59.2913 25.3298 58.2882 25.2927 58.0644 26.4757C57.8393 27.6659 58.7869 28.0624 59.2089 30.0288C59.3776 30.8144 59.716 32.3912 59.0185 33.7385C58.1165 35.4805 56.2991 35.2618 55.954 36.7143C55.7047 37.7639 56.572 38.2212 56.5413 39.4389C56.5008 41.042 54.9482 42.2026 53.6435 43.1509C52.1072 44.2676 47.9622 47.2804 43.3631 45.8123Z" fill="url(#paint1_linear_19_210)"/>
<path id="Vector_5" opacity="0.16" d="M54.7222 17.2275C53.8676 17.8555 56.4266 20.5228 55.7902 24.1244C55.1055 27.9995 51.1392 30.592 49.3062 31.7901C46.1789 33.8343 44.8227 33.4419 42.8289 35.7143C42.0398 36.6137 40.3958 38.4874 40.634 41.0364C40.6561 41.2732 40.9418 43.9098 42.9782 45.119C45.288 46.4906 48.094 44.9829 50.5119 43.6838C51.9728 42.8989 54.8914 41.3308 54.6454 39.6776C54.4951 38.667 53.1969 37.8573 52.138 37.637C50.6267 37.3225 49.3962 38.1657 49.2551 37.9036C49.1281 37.6677 50.0042 36.7566 51.2168 36.0702C53.6423 34.6972 54.9344 35.6268 56.7307 34.3587C56.9484 34.205 58.6561 32.9618 58.6536 31.1187C58.6522 30.0557 58.0818 28.7655 57.2297 28.5659C56.2658 28.3402 55.3576 29.607 55.1307 29.4031C54.9139 29.2081 55.6126 27.9314 56.4851 26.7718C57.7672 25.0679 58.3563 25.0365 58.8224 23.9647C59.5336 22.3294 58.9251 20.6486 58.8342 20.4082C57.9825 18.156 55.4529 16.6906 54.7222 17.2275Z" fill="white"/>
</g>
<g id="Group_4">
<g id="Group_5">
<g id="Group_6">
<path id="Vector_6" d="M20.5755 53.4096L4.86127 52.1993V7.42659L20.5755 6.24823V53.4096Z" fill="url(#paint2_linear_19_210)"/>
<path id="Vector_7" d="M6.38349 23.753V42.7803H6.07587V47.6501H20.5755V23.753H6.38349Z" fill="#D8DEE8"/>
<g id="Group_7">
<g id="Clip path group">
<mask id="mask0_19_210" style="mask-type:luminance" maskUnits="userSpaceOnUse" x="6" y="8" width="15" height="44">
<g id="SVGID_00000084509285048959617120000003861476960821205645_">
<path id="Vector_8" d="M6.07587 50.2423V9.38601L20.5755 8.39923V51.2585L6.07587 50.2423Z" fill="white"/>
</g>
</mask>
<g mask="url(#mask0_19_210)">
<g id="Group_8">
<path id="Vector_9" d="M25.279 2.98505C25.279 2.98505 25.2943 13.2849 27.5754 18.0129C29.8566 22.741 30.7149 27.3442 28.9983 30.0395C27.2817 32.7348 20.5755 28.6221 20.5755 28.6221C20.5755 28.6221 17.4114 30.8824 15.9809 35.7192C14.5504 40.556 5.25219 44.5864 3.24952 43.2229C1.24685 41.8595 2.10513 5.35715 2.10513 5.35715L25.279 2.98505Z" fill="white"/>
<path id="Vector_10" d="M2.82037 45.9985C2.82037 45.9985 8.45464 48.6587 12.7184 46.2005C16.9822 43.7424 20.5755 39.3249 20.5755 39.3249C20.5755 39.3249 24.9118 42.0151 27.2412 41.8649C29.5705 41.7147 31.2937 34.1474 31.2937 34.1474C31.2937 34.1474 35.1494 32.2073 36.866 28.2708C38.5826 24.3342 43.8517 20.0472 46.7363 19.1491C49.621 18.2511 51.3139 19.9276 51.3139 19.9276L50.5986 54.2398L6.0759 56.6005L2.82037 45.9985Z" fill="white"/>
</g>
</g>
</g>
</g>
</g>
<g id="Group_9">
<path id="Vector_11" d="M31.2937 50.837H49.621V8.88306H31.2937V50.837Z" fill="url(#paint3_linear_19_210)"/>
<path id="Vector_12" d="M48.135 48.9203V10.7705H31.2937L26.2398 25.1764L31.2937 48.9203H48.135Z" fill="#D8DEE8"/>
<g id="Group_10">
<g id="Clip path group_2">
<mask id="mask1_19_210" style="mask-type:luminance" maskUnits="userSpaceOnUse" x="31" y="10" width="18" height="39">
<g id="SVGID_00000119118960925815466630000016083470532944457126_">
<path id="Vector_13" d="M48.135 48.9203L48.135 10.7705L31.2937 10.7705L31.2937 48.9203H48.135Z" fill="white"/>
</g>
</mask>
<g mask="url(#mask1_19_210)">
<g id="Group_11">
<path id="Vector_14" d="M2.82037 45.9985C2.82037 45.9985 8.45464 48.6587 12.7184 46.2005C16.9822 43.7424 20.5755 39.3249 20.5755 39.3249C20.5755 39.3249 24.9118 42.0151 27.2412 41.8649C29.5705 41.7147 31.2937 34.1474 31.2937 34.1474C31.2937 34.1474 35.1494 32.2073 36.866 28.2708C38.5826 24.3342 43.8517 20.0472 46.7363 19.1491C49.621 18.2511 51.3139 19.9276 51.3139 19.9276L50.5986 54.2398L6.0759 56.6005L2.82037 45.9985Z" fill="white"/>
<path id="Vector_15" d="M28.1944 4.26605C28.1944 4.26605 26.6753 11.3234 28.1944 13.194C29.7135 15.0647 30.8711 20.4186 31.2937 21.8695C31.7162 23.3204 35.0063 26.4961 36.7229 23.6047C38.4395 20.7133 41.0144 18.6043 42.3018 17.6311C43.5893 16.6579 51.743 15.6585 52.1722 14.9271C52.6013 14.1957 52.8874 5.89653 52.8874 5.89653L28.1944 4.26605Z" fill="white"/>
</g>
</g>
</g>
</g>
</g>
<g id="Group_12">
<path id="Vector_16" d="M31.2936 50.8369L20.5755 53.4096V6.24823L31.2936 8.88304V10.7705L29.2873 14.8027L28.6743 48.1228L31.2936 48.9203V50.8369Z" fill="url(#paint4_linear_19_210)"/>
<path id="Vector_17" d="M31.2936 42.5293V11.2605L27.5196 9.95242L25.6477 9.53375L25.3247 9.4953V28.5726H20.5755V42.5293H31.2936Z" fill="#97A6B7"/>
<g id="Group_13">
<g id="Clip path group_3">
<mask id="mask2_19_210" style="mask-type:luminance" maskUnits="userSpaceOnUse" x="20" y="8" width="12" height="44">
<g id="SVGID_00000140704047604664571800000006285225373274571144_">
<path id="Vector_18" d="M20.5755 51.2585V8.39923L31.2936 10.7705V48.9234L20.5755 51.2585Z" fill="white"/>
</g>
</mask>
<g mask="url(#mask2_19_210)">
<g id="Group_14">
<path id="Vector_19" d="M25.279 2.98505C25.279 2.98505 25.2942 13.2849 27.5754 18.0129C29.8565 22.741 30.7148 27.3442 28.9982 30.0395C27.2817 32.7348 20.5755 28.6221 20.5755 28.6221C20.5755 28.6221 17.4113 30.8824 15.9808 35.7192C14.5503 40.556 5.25213 44.5864 3.24946 43.2229C1.24678 41.8595 2.10507 5.35715 2.10507 5.35715L25.279 2.98505Z" fill="#D8DEE8"/>
<path id="Vector_20" d="M2.82031 45.9985C2.82031 45.9985 8.45458 48.6587 12.7184 46.2005C16.9821 43.7424 20.5755 39.3249 20.5755 39.3249C20.5755 39.3249 24.9118 42.0151 27.2411 41.8649C29.5704 41.7147 31.2936 34.1474 31.2936 34.1474C31.2936 34.1474 35.1493 32.2073 36.8659 28.2708C38.5825 24.3342 43.8516 20.0472 46.7363 19.1491C49.6209 18.2511 51.3138 19.9276 51.3138 19.9276L50.5986 54.2398L6.07584 56.6005L2.82031 45.9985Z" fill="#D8DEE8"/>
<path id="Vector_21" d="M28.1944 4.26605C28.1944 4.26605 26.6753 11.3234 28.1944 13.194C29.7135 15.0647 30.8711 20.4186 31.2936 21.8695C31.7161 23.3204 35.0063 26.4961 36.7229 23.6047C38.4394 20.7133 41.0143 18.6043 42.3018 17.6311C43.5892 16.6579 51.743 15.6585 52.1721 14.9271C52.6013 14.1957 52.8874 5.89653 52.8874 5.89653L28.1944 4.26605Z" fill="#D8DEE8"/>
</g>
</g>
</g>
</g>
</g>
<g id="Group_15">
<path id="Vector_22" opacity="0.53" d="M39.8574 10.7705H39.5713V50.8369H39.8574V10.7705Z" fill="url(#paint5_linear_19_210)"/>
<path id="Vector_23" opacity="0.53" d="M13.4687 8.89264H13.1826V50.8369H13.4687V8.89264Z" fill="url(#paint6_linear_19_210)"/>
<path id="Vector_24" opacity="0.53" d="M48.135 24.1792H31.2769L31.2605 24.1752L20.5647 21.6012L6.08789 22.8393L6.06378 22.5506L20.5863 21.3087L20.6086 21.3141L31.3104 23.8895H48.135V24.1792Z" fill="url(#paint7_linear_19_210)"/>
</g>
</g>
<g id="Group_16">
<g id="Group_17">
<path id="Vector_25" d="M9.25395 31.5289C9.15219 31.5289 9.05175 31.4818 8.98652 31.3927C8.87719 31.2433 8.90816 31.0324 9.05565 30.9217C9.05636 30.9212 9.1841 30.8253 9.4078 30.6543C9.5543 30.5424 9.76284 30.5717 9.87355 30.7202C9.98417 30.8686 9.95501 31.0798 9.80845 31.1918C9.58121 31.3655 9.45168 31.4627 9.45168 31.4627C9.39215 31.5074 9.32271 31.5289 9.25395 31.5289Z" fill="url(#paint8_linear_19_210)"/>
</g>
<g id="Group_18">
<path id="Vector_26" d="M37.7279 32.8416C37.5306 32.8416 37.3046 32.8131 37.0368 32.7543C36.8573 32.7149 36.7434 32.5357 36.7822 32.354C36.8212 32.1722 36.9984 32.0568 37.1777 32.0962C37.4986 32.1666 37.7542 32.1853 37.9071 32.152C38.0839 32.1107 38.2604 32.2201 38.3044 32.3985C38.349 32.5789 38.2407 32.7616 38.0625 32.8068C38.0596 32.8075 38.0549 32.8086 38.0521 32.8092C37.955 32.8308 37.8463 32.8416 37.7279 32.8416ZM38.8146 32.5287C38.6902 32.5287 38.571 32.4578 38.5141 32.3365C38.4352 32.1686 38.5057 31.9677 38.6715 31.8878C38.9105 31.7728 39.1414 31.6278 39.3581 31.4569C39.503 31.3427 39.7119 31.369 39.8248 31.5156C39.9376 31.6623 39.9117 31.8738 39.7668 31.9881C39.5121 32.1891 39.2397 32.3599 38.9571 32.4959C38.911 32.5181 38.8624 32.5287 38.8146 32.5287ZM36.2581 32.517C36.2228 32.517 36.1869 32.5113 36.1517 32.4993C35.8934 32.4109 35.6089 32.3039 35.3061 32.1809C35.1356 32.1117 35.0528 31.9157 35.1212 31.7431C35.1896 31.5705 35.3831 31.4868 35.5536 31.5559C35.845 31.6742 36.1178 31.7769 36.3644 31.8612C36.5384 31.9208 36.6318 32.1118 36.5731 32.288C36.5263 32.4284 36.3968 32.517 36.2581 32.517ZM34.6154 31.8569C34.5706 31.8569 34.525 31.8477 34.4812 31.8281C34.2238 31.713 33.9509 31.5867 33.6701 31.4528C33.504 31.3736 33.4328 31.173 33.511 31.0047C33.5893 30.8365 33.7873 30.7643 33.9536 30.8436C34.2296 30.9753 34.4975 31.0993 34.75 31.2122C34.918 31.2873 34.994 31.4861 34.9198 31.6562C34.8649 31.7821 34.7431 31.8569 34.6154 31.8569ZM40.201 31.4452C40.1233 31.4452 40.0452 31.4177 39.9821 31.3618C39.844 31.2393 39.83 31.0266 39.951 30.8867C40.1277 30.6824 40.2934 30.4556 40.4434 30.2127C40.5408 30.0549 40.7461 30.0072 40.9017 30.1057C41.0574 30.2042 41.1047 30.412 41.0073 30.5697C40.8384 30.8431 40.6514 31.099 40.4514 31.3303C40.3856 31.4063 40.2935 31.4452 40.201 31.4452ZM33.0159 31.096C32.9664 31.096 32.9162 31.0848 32.8689 31.0611C32.6129 30.9332 32.3459 30.7972 32.0752 30.6568C31.9117 30.5721 31.8471 30.3692 31.9307 30.2037C32.0144 30.0383 32.2148 29.9726 32.3782 30.0575C32.6461 30.1963 32.9102 30.3308 33.1633 30.4574C33.328 30.5397 33.3955 30.7416 33.3143 30.9083C33.2563 31.0271 33.1384 31.096 33.0159 31.096ZM10.3096 30.7184C10.2099 30.7184 10.1113 30.6732 10.0458 30.587C9.93388 30.4396 9.96109 30.2282 10.1067 30.1148C10.3162 29.9517 10.5502 29.7682 10.8024 29.5685C10.9472 29.454 11.1561 29.4798 11.2693 29.6263C11.3824 29.7727 11.3568 29.9843 11.2122 30.0989C10.9583 30.2999 10.7229 30.4845 10.5121 30.6486C10.4517 30.6956 10.3804 30.7184 10.3096 30.7184ZM31.4424 30.2812C31.3901 30.2812 31.3371 30.2687 31.2876 30.2423C31.0269 30.1032 30.7657 29.9618 30.505 29.8191C30.3435 29.7307 30.2834 29.5264 30.3708 29.3628C30.4581 29.1993 30.6598 29.1384 30.8214 29.2268C31.0799 29.3683 31.3391 29.5086 31.5977 29.6466C31.7602 29.7333 31.8224 29.9369 31.7368 30.1014C31.6773 30.2158 31.5618 30.2812 31.4424 30.2812ZM11.7008 29.6168C11.6029 29.6168 11.506 29.5733 11.4404 29.4897C11.3261 29.3442 11.3499 29.1324 11.4935 29.0166C11.7152 28.8381 11.945 28.6515 12.1797 28.459C12.3223 28.3419 12.5317 28.3641 12.6473 28.5086C12.7629 28.653 12.741 28.865 12.5984 28.9821C12.3621 29.1759 12.1307 29.3638 11.9076 29.5436C11.8464 29.5929 11.7733 29.6168 11.7008 29.6168ZM29.888 29.4308C29.8336 29.4308 29.7785 29.4172 29.7275 29.3887C29.467 29.2429 29.2086 29.0969 28.9535 28.9514C28.7935 28.8602 28.7368 28.6548 28.8269 28.4928C28.917 28.3307 29.1201 28.2735 29.2798 28.3647C29.5334 28.5093 29.7903 28.6545 30.0492 28.7993C30.2099 28.8893 30.2682 29.0941 30.1794 29.2569C30.1187 29.368 30.0052 29.4308 29.888 29.4308ZM28.3481 28.5528C28.2919 28.5528 28.2351 28.5384 28.1829 28.5081C27.9214 28.3561 27.6651 28.2061 27.4159 28.059C27.2572 27.9654 27.2035 27.7592 27.296 27.5986C27.3885 27.4379 27.5923 27.3836 27.7507 27.4773C27.9987 27.6236 28.2536 27.7729 28.5138 27.924C28.6731 28.0165 28.7281 28.2222 28.6368 28.3835C28.5754 28.492 28.4633 28.5528 28.3481 28.5528ZM13.0724 28.491C12.9766 28.491 12.8817 28.4494 12.8159 28.369C12.6989 28.2257 12.7187 28.0134 12.8602 27.8949C13.0912 27.7014 13.318 27.5092 13.534 27.3238C13.674 27.2035 13.8837 27.221 14.0027 27.3629C14.1215 27.5047 14.1041 27.7172 13.9641 27.8374C13.7461 28.0246 13.5173 28.2185 13.2842 28.4137C13.2222 28.4657 13.147 28.491 13.0724 28.491ZM26.821 27.6513C26.7634 27.6513 26.7049 27.6362 26.6517 27.6042C26.386 27.4447 26.1315 27.2906 25.8908 27.1436C25.7336 27.0476 25.683 26.8406 25.7778 26.6814C25.8728 26.5222 26.0771 26.4711 26.2343 26.567C26.4735 26.7131 26.7265 26.8663 26.9909 27.025C27.1488 27.1198 27.201 27.3264 27.1073 27.4863C27.0452 27.5924 26.9346 27.6513 26.821 27.6513ZM14.4184 27.3345C14.3257 27.3345 14.2335 27.2955 14.1678 27.2193C14.047 27.0792 14.0612 26.8665 14.1995 26.7442C14.4289 26.5415 14.6493 26.343 14.8548 26.1546C14.9908 26.0297 15.2011 26.0402 15.3245 26.178C15.4478 26.3158 15.4374 26.5287 15.3013 26.6535C15.0929 26.8448 14.8694 27.0459 14.637 27.2514C14.5739 27.3071 14.496 27.3345 14.4184 27.3345ZM25.3074 26.7264C25.2479 26.7264 25.1877 26.7103 25.1334 26.6764C24.8574 26.5044 24.6037 26.344 24.3793 26.1999C24.2242 26.1003 24.1783 25.8922 24.2767 25.7352C24.3752 25.5782 24.5805 25.5317 24.7356 25.6314C24.9574 25.7739 25.2085 25.9325 25.4819 26.103C25.6384 26.2004 25.6871 26.4078 25.5908 26.5662C25.5281 26.6695 25.419 26.7264 25.3074 26.7264ZM15.7253 26.1328C15.6374 26.1328 15.5498 26.0978 15.4844 26.0283C15.3577 25.8937 15.3629 25.6805 15.4959 25.5523C15.7204 25.3358 15.9291 25.1276 16.1163 24.9336C16.2446 24.8005 16.4553 24.7982 16.5865 24.928C16.7179 25.058 16.7204 25.2711 16.592 25.4041C16.3994 25.6039 16.1848 25.8178 15.9545 26.0399C15.8902 26.1019 15.8076 26.1328 15.7253 26.1328ZM23.8176 25.7619C23.7534 25.7619 23.6886 25.7431 23.6314 25.704C23.4899 25.6069 23.3454 25.5066 23.1986 25.4046C23.1007 25.3366 23.0018 25.2679 22.902 25.1989C22.7503 25.0941 22.7112 24.8846 22.8147 24.731C22.9182 24.5774 23.125 24.5379 23.2768 24.6426C23.3771 24.7119 23.4765 24.781 23.5748 24.8493C23.7205 24.9506 23.8638 25.0501 24.0043 25.1464C24.1564 25.2506 24.1962 25.46 24.0933 25.614C24.029 25.7101 23.9242 25.7619 23.8176 25.7619ZM16.9535 24.8494C16.8764 24.8494 16.799 24.8224 16.7361 24.7674C16.5972 24.6458 16.582 24.4331 16.7022 24.2925C16.7976 24.1807 16.8856 24.0728 16.9637 23.9716C17.0701 23.8341 17.1825 23.7071 17.2981 23.5942C17.4302 23.465 17.6407 23.4688 17.7682 23.6024C17.8958 23.7362 17.8922 23.9494 17.7601 24.0785C17.6666 24.1699 17.5749 24.2736 17.4875 24.3867C17.4027 24.4963 17.3077 24.6128 17.2051 24.7329C17.1394 24.8099 17.0467 24.8494 16.9535 24.8494ZM22.3546 24.7622C22.293 24.7622 22.2307 24.7449 22.1749 24.7086C21.906 24.5334 21.6647 24.3849 21.4373 24.2547C21.2774 24.1633 21.221 23.9578 21.3113 23.796C21.4018 23.6341 21.6046 23.577 21.7645 23.6686C22.003 23.8051 22.255 23.9601 22.5349 24.1424C22.6893 24.243 22.7339 24.4513 22.6345 24.6077C22.571 24.7077 22.4639 24.7622 22.3546 24.7622ZM20.8142 23.8946C20.7693 23.8946 20.7237 23.8854 20.6801 23.8659C20.4054 23.7432 20.1434 23.6494 19.9014 23.5869C19.7234 23.541 19.6159 23.3577 19.6613 23.1776C19.7066 22.9974 19.8874 22.8886 20.0656 22.9344C20.3432 23.006 20.6402 23.1121 20.9485 23.2498C21.1165 23.3249 21.1926 23.5236 21.1185 23.6937C21.0637 23.8196 20.9419 23.8946 20.8142 23.8946ZM18.2546 23.6742C18.126 23.6742 18.0036 23.5982 17.9493 23.4711C17.8763 23.3005 17.9538 23.1023 18.1224 23.0284C18.4259 22.8954 18.7558 22.8235 19.1028 22.8148C19.2869 22.8102 19.439 22.9571 19.4436 23.143C19.4481 23.3289 19.303 23.4833 19.1194 23.488C18.8543 23.4946 18.6146 23.5464 18.3865 23.6464C18.3435 23.6653 18.2987 23.6742 18.2546 23.6742Z" fill="url(#paint9_linear_19_210)"/>
</g>
<g id="Group_19">
<path id="Vector_27" d="M41.1222 29.9717C41.0771 29.9717 41.0314 29.9624 40.9876 29.9427C40.8197 29.8674 40.744 29.6684 40.8185 29.4985C40.9191 29.2686 40.9655 29.119 40.966 29.1175C41.0207 28.9402 41.2068 28.841 41.3821 28.8959C41.5573 28.951 41.6555 29.139 41.6014 29.3165C41.5991 29.3239 41.5445 29.5019 41.4264 29.7715C41.3714 29.8971 41.2497 29.9717 41.1222 29.9717Z" fill="url(#paint10_linear_19_210)"/>
</g>
</g>
<g id="Group_20">
<g id="Group_21">
<path id="Vector_28" d="M19.593 11.2004C19.593 15.3144 13.9006 22.8214 11.3246 26.0082C10.6835 26.8012 9.48514 26.8012 8.84408 26.0082C6.268 22.8214 0.575684 15.3143 0.575684 11.2004C0.575684 5.88326 4.83285 1.57288 10.0843 1.57288C15.3358 1.57288 19.593 5.88326 19.593 11.2004Z" fill="url(#paint11_linear_19_210)"/>
<path id="Vector_29" d="M13.8339 14.9971C15.9048 12.9002 15.9048 9.50054 13.8339 7.40369C11.7629 5.30683 8.4052 5.30683 6.33423 7.40369C4.26326 9.50054 4.26326 12.9002 6.33423 14.9971C8.4052 17.0939 11.7629 17.0939 13.8339 14.9971Z" fill="white"/>
<g id="Group_22" opacity="0.3">
<path id="Vector_30" d="M10.0423 22.0553C10.6456 18.0328 13.2691 16.7453 12.8188 12.9471C12.2995 8.56673 8.46884 7.40007 8.37642 3.50152C8.36154 2.87387 8.44587 2.26864 8.60492 1.68909C4.05611 2.40861 0.575684 6.39283 0.575684 11.2004C0.575684 15.3144 6.268 22.8215 8.84408 26.0082C9.2214 26.475 9.79177 26.6667 10.328 26.5839C9.86694 24.8221 9.85299 23.3176 10.0423 22.0553Z" fill="url(#paint12_linear_19_210)"/>
</g>
</g>
<path id="Vector_31" d="M10.0843 32.6599C11.1577 32.6599 12.0279 31.7789 12.0279 30.6921C12.0279 29.6053 11.1577 28.7242 10.0843 28.7242C9.01095 28.7242 8.14081 29.6053 8.14081 30.6921C8.14081 31.7789 9.01095 32.6599 10.0843 32.6599Z" fill="url(#paint13_linear_19_210)"/>
</g>
<g id="Group_23">
<g id="Group_24">
<path id="Vector_32" d="M45.6106 20.085C45.6106 21.9571 43.0202 25.3732 41.848 26.8234C41.5563 27.1842 41.0109 27.1842 40.7192 26.8234C39.547 25.3732 36.9566 21.9571 36.9566 20.085C36.9566 17.6654 38.8939 15.7039 41.2836 15.7039C43.6733 15.7039 45.6106 17.6654 45.6106 20.085Z" fill="url(#paint14_linear_19_210)"/>
<path id="Vector_33" d="M43.6723 20.4256C43.8572 19.0892 42.9371 17.8542 41.6172 17.667C40.2974 17.4798 39.0776 18.4114 38.8927 19.7478C38.7078 21.0841 39.6279 22.3192 40.9478 22.5064C42.2676 22.6935 43.4875 21.7619 43.6723 20.4256Z" fill="white"/>
<g id="Group_25" opacity="0.3">
<path id="Vector_34" d="M41.2645 25.0246C41.539 23.1941 42.7328 22.6082 42.5279 20.8798C42.2916 18.8865 40.5485 18.3556 40.5064 16.5815C40.4996 16.2959 40.538 16.0205 40.6104 15.7568C38.5404 16.0842 36.9566 17.8972 36.9566 20.0849C36.9566 21.957 39.547 25.3732 40.7192 26.8233C40.8909 27.0358 41.1505 27.123 41.3945 27.0853C41.1847 26.2836 41.1783 25.599 41.2645 25.0246Z" fill="url(#paint15_linear_19_210)"/>
</g>
</g>
<path id="Vector_35" d="M41.2836 29.8503C41.772 29.8503 42.168 29.4494 42.168 28.9548C42.168 28.4602 41.772 28.0593 41.2836 28.0593C40.7951 28.0593 40.3992 28.4602 40.3992 28.9548C40.3992 29.4494 40.7951 29.8503 41.2836 29.8503Z" fill="url(#paint16_linear_19_210)"/>
</g>
</g>
<g id="Group_26">
<path id="Vector_36" d="M33.9839 57.2389L27.2575 56.9603L29.1197 52.5428L33.4533 52.8017L34.6128 54.7217L33.9839 57.2389Z" fill="url(#paint17_linear_19_210)"/>
<g id="Group_27">
<path id="Vector_37" d="M40.2939 50.2169C40.3387 50.2169 40.383 50.2199 40.427 50.2244L41.126 50.2169L41.1219 50.4942C41.7991 50.9716 42.2691 52.0156 42.2691 53.2275C42.2691 54.4872 41.7613 55.5657 41.0408 56.0147L41.0375 56.2381H40.2939C39.2031 56.2381 38.3188 54.8902 38.3188 53.2275C38.3188 51.5648 39.2031 50.2169 40.2939 50.2169Z" fill="url(#paint18_linear_19_210)"/>
<path id="Vector_38" d="M41.126 56.2381C42.2168 56.2381 43.1011 54.8902 43.1011 53.2275C43.1011 51.5648 42.2168 50.2169 41.126 50.2169C40.0351 50.2169 39.1508 51.5648 39.1508 53.2275C39.1508 54.8902 40.0351 56.2381 41.126 56.2381Z" fill="url(#paint19_linear_19_210)"/>
</g>
<g id="Group_28">
<path id="Vector_39" d="M20.9933 52.503C21.0482 52.503 21.1024 52.5065 21.1564 52.5115L22.0127 52.503L22.0077 52.8137C22.8373 53.3486 23.4131 54.5181 23.4131 55.8759C23.4131 57.2871 22.791 58.4953 21.9083 58.9984L21.9043 59.2487H20.9933C19.657 59.2487 18.5735 57.7386 18.5735 55.8759C18.5735 54.0131 19.6569 52.503 20.9933 52.503Z" fill="url(#paint20_linear_19_210)"/>
<path id="Vector_40" d="M22.0127 59.2487C23.3491 59.2487 24.4324 57.7386 24.4324 55.8758C24.4324 54.0131 23.3491 52.503 22.0127 52.503C20.6763 52.503 19.5929 54.0131 19.5929 55.8758C19.5929 57.7386 20.6763 59.2487 22.0127 59.2487Z" fill="url(#paint21_linear_19_210)"/>
</g>
<g id="Group_29">
<path id="Vector_41" d="M30.195 54.0692C30.249 54.0692 30.3024 54.0727 30.3555 54.0779L31.1985 54.0692L31.1935 54.3877C32.0103 54.9361 32.5771 56.135 32.5771 57.527C32.5771 58.9738 31.9647 60.2124 31.0958 60.7282L31.0918 60.9848H30.1949C28.8794 60.9848 27.8128 59.4367 27.8128 57.527C27.8128 55.6173 28.8794 54.0692 30.195 54.0692Z" fill="url(#paint22_linear_19_210)"/>
<path id="Vector_42" d="M31.1985 60.9848C32.5141 60.9848 33.5806 59.4366 33.5806 57.527C33.5806 55.6173 32.5141 54.0692 31.1985 54.0692C29.8829 54.0692 28.8163 55.6173 28.8163 57.527C28.8163 59.4366 29.8829 60.9848 31.1985 60.9848Z" fill="url(#paint23_linear_19_210)"/>
<path id="Vector_43" d="M31.5333 59.4696C32.2724 59.4696 32.8716 58.5999 32.8716 57.527C32.8716 56.4541 32.2724 55.5844 31.5333 55.5844C30.7942 55.5844 30.195 56.4541 30.195 57.527C30.195 58.5999 30.7942 59.4696 31.5333 59.4696Z" fill="#D8DEE8"/>
<path id="Vector_44" d="M31.3308 59.3305C31.9581 59.3305 32.4666 58.523 32.4666 57.527C32.4666 56.5309 31.9581 55.7234 31.3308 55.7234C30.7035 55.7234 30.195 56.5309 30.195 57.527C30.195 58.523 30.7035 59.3305 31.3308 59.3305Z" fill="url(#paint24_linear_19_210)"/>
</g>
<path id="Vector_45" d="M53.9516 50.2169V53.8161C53.9516 54.7557 53.1393 55.4833 52.2183 55.3688L43.5747 54.2939V50.2169H53.9516Z" fill="url(#paint25_linear_19_210)"/>
<path id="Vector_46" d="M50.0602 49.7172L47.6871 53.4512C47.3479 53.9849 46.7913 54.3377 46.1688 54.4135L38.3188 55.3685L37.718 51.3489L50.0602 49.7172Z" fill="url(#paint26_linear_19_210)"/>
<g id="Group_30">
<path id="Vector_47" d="M49.5131 51.5361C49.5579 51.5361 49.6022 51.5392 49.6463 51.5436L50.3452 51.5361L50.3411 51.8135C51.0183 52.2909 51.4883 53.3348 51.4883 54.5467C51.4883 55.8064 50.9805 56.8849 50.26 57.3339L50.2567 57.5573H49.5131C48.4223 57.5573 47.538 56.2094 47.538 54.5467C47.538 52.884 48.4223 51.5361 49.5131 51.5361Z" fill="url(#paint27_linear_19_210)"/>
<path id="Vector_48" d="M50.3452 57.5573C51.436 57.5573 52.3203 56.2094 52.3203 54.5467C52.3203 52.884 51.436 51.5361 50.3452 51.5361C49.2544 51.5361 48.3701 52.884 48.3701 54.5467C48.3701 56.2094 49.2544 57.5573 50.3452 57.5573Z" fill="url(#paint28_linear_19_210)"/>
<path id="Vector_49" d="M50.6228 56.2381C51.2356 56.2381 51.7325 55.4808 51.7325 54.5467C51.7325 53.6125 51.2356 52.8553 50.6228 52.8553C50.01 52.8553 49.5132 53.6125 49.5132 54.5467C49.5132 55.4808 50.01 56.2381 50.6228 56.2381Z" fill="#D8DEE8"/>
<path id="Vector_50" d="M50.4549 56.117C50.975 56.117 51.3967 55.4139 51.3967 54.5467C51.3967 53.6794 50.975 52.9764 50.4549 52.9764C49.9348 52.9764 49.5132 53.6794 49.5132 54.5467C49.5132 55.4139 49.9348 56.117 50.4549 56.117Z" fill="url(#paint29_linear_19_210)"/>
</g>
<path id="Vector_51" d="M40.9412 52.5428L57.0655 50.2818C57.3309 50.2446 57.5285 50.0149 57.5285 49.7437V35.3596C57.5285 35.0661 57.2982 34.8256 57.0085 34.8166L40.9412 34.3154V52.5428Z" fill="url(#paint30_linear_19_210)"/>
<path id="Vector_52" d="M28.2845 51.5361L40.9412 52.5428V34.3154L28.9131 34.9584C28.5607 34.9772 28.2845 35.272 28.2845 35.6294V51.5361Z" fill="url(#paint31_linear_19_210)"/>
<path id="Vector_53" opacity="0.3" d="M46.7585 41.2941C49.1023 38.3028 53.7615 40.5101 56.1135 37.1551C56.6437 36.3988 57.0126 35.6275 57.269 34.8969C57.4241 34.9923 57.5285 35.1631 57.5285 35.3596V49.7436C57.5285 50.0149 57.3309 50.2445 57.0655 50.2817L42.4737 52.3279C43.395 51.3087 44.3201 50.0061 44.9898 48.378C46.4602 44.8035 45.2282 43.2472 46.7585 41.2941Z" fill="url(#paint32_linear_19_210)"/>
<path id="Vector_54" d="M38.4947 41.8577C38.9314 43.8424 39.9501 49.567 38.8133 55.7193C38.7287 56.1773 38.3657 56.5306 37.9113 56.604L33.9839 57.2389C33.9839 57.2389 33.9446 53.4743 32.0579 53.2275C30.1712 52.9805 28.4024 54.7715 28.2845 57.8757C28.2845 57.8757 24.1966 58.4329 18.0255 57.0001C18.0255 57.0001 17.2001 56.821 16.8463 55.8758L17.125 51.5461C17.1479 51.1908 17.3106 50.8596 17.5767 50.6268L21.2094 47.4487C21.2094 47.4487 24.5111 42.7127 25.6117 41.7974C25.6117 41.7974 26.2013 40.8422 30.9573 40.7228C34.2328 40.6406 36.4882 40.8604 37.575 41.0052C38.0286 41.0657 38.3953 41.4056 38.4947 41.8577Z" fill="url(#paint33_linear_19_210)"/>
<path id="Vector_55" opacity="0.6" d="M17.334 50.9102L17.5146 51.1101C17.4359 53.3387 16.9589 54.1266 20.9934 54.5467C25.0277 54.9668 24.9041 51.536 24.9041 51.536L30.195 49.1998L34.6128 42.1556C35.4897 41.4404 37.0219 41.245 38.0609 41.1996C38.2761 41.354 38.4347 41.5847 38.4947 41.8577C38.9314 43.8423 39.9501 49.567 38.8133 55.7193C38.7287 56.1772 38.3657 56.5306 37.9113 56.604L33.9839 57.2389C33.9839 57.2389 33.9446 53.4743 32.0579 53.2274C30.1712 52.9805 28.4024 54.7714 28.2845 57.8757C28.2845 57.8757 24.1966 58.4329 18.0255 57.0001C18.0255 57.0001 17.2001 56.821 16.8463 55.8758L17.125 51.5461C17.1398 51.3174 17.2131 51.0991 17.334 50.9102Z" fill="url(#paint34_linear_19_210)"/>
<path id="Vector_56" d="M30.2491 48.1722C30.106 48.4101 29.8385 48.5412 29.5654 48.5073L21.1878 47.4675L21.2093 47.4487C21.2093 47.4487 23.9494 43.5185 25.2692 42.127L32.9943 42.5975C33.2603 42.6137 33.4138 42.9107 33.2751 43.1411L30.2491 48.1722Z" fill="url(#paint35_linear_19_210)"/>
<path id="Vector_57" opacity="0.3" d="M25.2606 45.5308C27.5416 44.6228 29.437 45.6989 31.0057 44.4292C31.6092 43.9407 31.9688 43.2625 32.181 42.5479L32.9943 42.5974C33.2603 42.6136 33.4137 42.9106 33.2751 43.1412L30.2491 48.1722C30.1059 48.4101 29.8385 48.5412 29.5654 48.5073L22.6136 47.6445C23.5266 46.4432 24.4664 45.8469 25.2606 45.5308Z" fill="white"/>
<path id="Vector_58" d="M17.8568 51.4843C17.8655 51.4071 17.9294 51.3487 18.0062 51.3494C20.0938 51.368 22.7188 51.8126 23.5879 51.9705C23.7516 52.0002 23.8596 52.1622 23.8216 52.3262C23.6517 53.0605 23.3699 53.5571 23.1624 53.8453C23.0213 54.0413 22.8043 54.1648 22.5655 54.1838C21.9086 54.2361 20.4516 54.3249 19.7452 54.1546C19.1169 54.0031 18.5155 53.7013 18.1924 53.5219C18.0043 53.4176 17.8713 53.2324 17.8384 53.0178C17.759 52.4991 17.8238 51.7802 17.8568 51.4843Z" fill="url(#paint36_linear_19_210)"/>
<path id="Vector_59" d="M28.0718 51.6883C28.1305 51.5676 28.0741 51.4224 27.9496 51.3757C27.7652 51.3066 27.5124 51.2269 27.3657 51.2444C27.1732 51.2673 25.5458 51.6953 24.8014 51.8925C24.5716 51.9534 24.4129 52.1694 24.4284 52.4094C24.4616 52.9224 24.653 53.7351 25.5232 53.8263C26.7312 53.9528 27.4945 52.8742 28.0718 51.6883Z" fill="url(#paint37_linear_19_210)"/>
<path id="Vector_60" d="M20.2463 54.7218C23.4131 55.1695 24.0555 54.0692 24.0555 54.0692C24.805 54.182 25.8703 54.0333 26.4739 53.9269C26.704 53.8863 26.9271 53.997 27.056 54.1943C27.1523 54.3418 27.3274 54.4912 27.6458 54.5468C28.1655 54.6374 29.0504 54.4371 29.4839 54.3244C28.8531 55.2009 28.4115 56.3372 28.3532 57.871C28.3532 57.871 24.1966 58.4329 18.0255 57.0002C18.0255 57.0002 17.2001 56.8211 16.8463 55.8759L17.0281 53.0523C17.3515 53.5534 18.1973 54.4321 20.2463 54.7218Z" fill="url(#paint38_linear_19_210)"/>
<path id="Vector_61" opacity="0.6" d="M25.3968 55.2786C25.7472 55.2443 26.0461 55.5284 26.0383 55.8848C26.0217 56.6465 26.0986 57.4437 26.1665 57.982C24.3734 57.9861 21.5377 57.8155 18.0255 57.0001C18.0255 57.0001 17.2001 56.821 16.8463 55.8758L16.9523 54.2302C19.4824 55.6827 23.7418 55.4411 25.3968 55.2786Z" fill="url(#paint39_linear_19_210)"/>
<path id="Vector_62" d="M37.1439 43.0088L36.0061 43.2876C35.6342 43.3787 35.3087 43.6059 35.0923 43.9255L32.2757 48.0854C32.0834 48.3693 32.3317 48.7455 32.6644 48.6742L37.5448 47.6289C37.7414 47.5868 37.885 47.4162 37.8937 47.2129C37.9242 46.5001 37.9569 44.8105 37.681 43.3614C37.6332 43.11 37.3897 42.9486 37.1439 43.0088Z" fill="url(#paint40_linear_19_210)"/>
</g>
</g>
</g>
<defs>
<linearGradient id="paint0_linear_19_210" x1="56.3791" y1="19.0877" x2="35.1353" y2="23.5677" gradientUnits="userSpaceOnUse">
<stop offset="0.0036" stop-color="#E38DDD"/>
<stop offset="1" stop-color="#9571F6"/>
</linearGradient>
<linearGradient id="paint1_linear_19_210" x1="60.3591" y1="31.0225" x2="38.6669" y2="31.6205" gradientUnits="userSpaceOnUse">
<stop stop-color="#FF9085"/>
<stop offset="1" stop-color="#FB6FBB"/>
</linearGradient>
<linearGradient id="paint2_linear_19_210" x1="4.86127" y1="29.8289" x2="20.5755" y2="29.8289" gradientUnits="userSpaceOnUse">
<stop stop-color="#FF9085"/>
<stop offset="1" stop-color="#FB6FBB"/>
</linearGradient>
<linearGradient id="paint3_linear_19_210" x1="36.2925" y1="18.9983" x2="54.8982" y2="66.3304" gradientUnits="userSpaceOnUse">
<stop stop-color="#FF9085"/>
<stop offset="1" stop-color="#FB6FBB"/>
</linearGradient>
<linearGradient id="paint4_linear_19_210" x1="16.1834" y1="29.8019" x2="36.081" y2="29.9211" gradientUnits="userSpaceOnUse">
<stop stop-color="#FF9085"/>
<stop offset="1" stop-color="#FB6FBB"/>
</linearGradient>
<linearGradient id="paint5_linear_19_210" x1="39.5712" y1="30.8037" x2="39.8573" y2="30.8037" gradientUnits="userSpaceOnUse">
<stop stop-color="#311944"/>
<stop offset="1" stop-color="#A03976"/>
</linearGradient>
<linearGradient id="paint6_linear_19_210" x1="13.1826" y1="29.8648" x2="13.4687" y2="29.8648" gradientUnits="userSpaceOnUse">
<stop stop-color="#311944"/>
<stop offset="1" stop-color="#A03976"/>
</linearGradient>
<linearGradient id="paint7_linear_19_210" x1="6.06378" y1="22.7439" x2="48.135" y2="22.7439" gradientUnits="userSpaceOnUse">
<stop stop-color="#311944"/>
<stop offset="1" stop-color="#A03976"/>
</linearGradient>
<linearGradient id="paint8_linear_19_210" x1="8.92113" y1="31.0576" x2="41.6175" y2="31.0576" gradientUnits="userSpaceOnUse">
<stop stop-color="#AA80F9"/>
<stop offset="0.9964" stop-color="#6165D7"/>
</linearGradient>
<linearGradient id="paint9_linear_19_210" x1="8.92798" y1="27.8282" x2="41.4108" y2="27.8282" gradientUnits="userSpaceOnUse">
<stop stop-color="#AA80F9"/>
<stop offset="0.9964" stop-color="#6165D7"/>
</linearGradient>
<linearGradient id="paint10_linear_19_210" x1="8.91493" y1="29.4263" x2="41.6162" y2="29.4263" gradientUnits="userSpaceOnUse">
<stop stop-color="#AA80F9"/>
<stop offset="0.9964" stop-color="#6165D7"/>
</linearGradient>
<linearGradient id="paint11_linear_19_210" x1="8.85766" y1="7.70509" x2="18.6422" y2="32.5965" gradientUnits="userSpaceOnUse">
<stop stop-color="#AA80F9"/>
<stop offset="0.9964" stop-color="#6165D7"/>
</linearGradient>
<linearGradient id="paint12_linear_19_210" x1="5.42885" y1="9.05291" x2="15.2134" y2="33.9444" gradientUnits="userSpaceOnUse">
<stop stop-color="#AA80F9"/>
<stop offset="0.9964" stop-color="#6165D7"/>
</linearGradient>
<linearGradient id="paint13_linear_19_210" x1="12.5766" y1="26.8618" x2="6.24908" y2="36.3476" gradientUnits="userSpaceOnUse">
<stop stop-color="#AA80F9"/>
<stop offset="0.9964" stop-color="#6165D7"/>
</linearGradient>
<linearGradient id="paint14_linear_19_210" x1="40.7254" y1="18.4944" x2="45.1779" y2="29.8214" gradientUnits="userSpaceOnUse">
<stop stop-color="#FF9085"/>
<stop offset="1" stop-color="#FB6FBB"/>
</linearGradient>
<linearGradient id="paint15_linear_19_210" x1="39.1651" y1="19.1077" x2="43.6176" y2="30.4348" gradientUnits="userSpaceOnUse">
<stop stop-color="#FF9085"/>
<stop offset="1" stop-color="#FB6FBB"/>
</linearGradient>
<linearGradient id="paint16_linear_19_210" x1="42.4177" y1="27.2118" x2="39.5383" y2="31.5284" gradientUnits="userSpaceOnUse">
<stop stop-color="#FF9085"/>
<stop offset="1" stop-color="#FB6FBB"/>
</linearGradient>
<linearGradient id="paint17_linear_19_210" x1="34.6128" y1="54.8909" x2="27.2575" y2="54.8909" gradientUnits="userSpaceOnUse">
<stop stop-color="#444B8C"/>
<stop offset="0.9964" stop-color="#26264F"/>
</linearGradient>
<linearGradient id="paint18_linear_19_210" x1="42.2691" y1="53.2275" x2="38.3188" y2="53.2275" gradientUnits="userSpaceOnUse">
<stop stop-color="#311944"/>
<stop offset="1" stop-color="#6B3976"/>
</linearGradient>
<linearGradient id="paint19_linear_19_210" x1="43.1011" y1="53.2275" x2="39.1508" y2="53.2275" gradientUnits="userSpaceOnUse">
<stop stop-color="#311944"/>
<stop offset="1" stop-color="#6B3976"/>
</linearGradient>
<linearGradient id="paint20_linear_19_210" x1="23.4131" y1="55.8759" x2="18.5735" y2="55.8759" gradientUnits="userSpaceOnUse">
<stop stop-color="#311944"/>
<stop offset="1" stop-color="#6B3976"/>
</linearGradient>
<linearGradient id="paint21_linear_19_210" x1="24.4324" y1="55.8759" x2="19.5929" y2="55.8759" gradientUnits="userSpaceOnUse">
<stop stop-color="#311944"/>
<stop offset="1" stop-color="#6B3976"/>
</linearGradient>
<linearGradient id="paint22_linear_19_210" x1="32.5771" y1="57.527" x2="27.8128" y2="57.527" gradientUnits="userSpaceOnUse">
<stop stop-color="#311944"/>
<stop offset="1" stop-color="#6B3976"/>
</linearGradient>
<linearGradient id="paint23_linear_19_210" x1="33.5806" y1="57.527" x2="28.8163" y2="57.527" gradientUnits="userSpaceOnUse">
<stop stop-color="#311944"/>
<stop offset="1" stop-color="#6B3976"/>
</linearGradient>
<linearGradient id="paint24_linear_19_210" x1="29.7116" y1="57.3497" x2="31.8938" y2="57.5827" gradientUnits="userSpaceOnUse">
<stop offset="0.0054" stop-color="#D8DEE8"/>
<stop offset="1" stop-color="#F4F7FA"/>
</linearGradient>
<linearGradient id="paint25_linear_19_210" x1="53.9516" y1="52.7988" x2="43.5747" y2="52.7988" gradientUnits="userSpaceOnUse">
<stop stop-color="#444B8C"/>
<stop offset="0.9964" stop-color="#26264F"/>
</linearGradient>
<linearGradient id="paint26_linear_19_210" x1="50.0602" y1="52.5428" x2="37.718" y2="52.5428" gradientUnits="userSpaceOnUse">
<stop stop-color="#444B8C"/>
<stop offset="0.9964" stop-color="#26264F"/>
</linearGradient>
<linearGradient id="paint27_linear_19_210" x1="51.4883" y1="54.5467" x2="47.538" y2="54.5467" gradientUnits="userSpaceOnUse">
<stop stop-color="#311944"/>
<stop offset="1" stop-color="#6B3976"/>
</linearGradient>
<linearGradient id="paint28_linear_19_210" x1="52.3203" y1="54.5467" x2="48.3701" y2="54.5467" gradientUnits="userSpaceOnUse">
<stop stop-color="#311944"/>
<stop offset="1" stop-color="#6B3976"/>
</linearGradient>
<linearGradient id="paint29_linear_19_210" x1="48.4845" y1="54.8152" x2="51.5517" y2="54.4074" gradientUnits="userSpaceOnUse">
<stop offset="0.0054" stop-color="#D8DEE8"/>
<stop offset="1" stop-color="#F4F7FA"/>
</linearGradient>
<linearGradient id="paint30_linear_19_210" x1="57.5285" y1="43.4291" x2="40.9412" y2="43.4291" gradientUnits="userSpaceOnUse">
<stop stop-color="#FFC444"/>
<stop offset="0.9964" stop-color="#F36F56"/>
</linearGradient>
<linearGradient id="paint31_linear_19_210" x1="40.9412" y1="43.4291" x2="28.2845" y2="43.4291" gradientUnits="userSpaceOnUse">
<stop stop-color="#FFC444"/>
<stop offset="0.9964" stop-color="#F36F56"/>
</linearGradient>
<linearGradient id="paint32_linear_19_210" x1="57.5285" y1="43.6124" x2="42.4737" y2="43.6124" gradientUnits="userSpaceOnUse">
<stop stop-color="#FFC444"/>
<stop offset="0.9964" stop-color="#F36F56"/>
</linearGradient>
<linearGradient id="paint33_linear_19_210" x1="39.333" y1="49.3437" x2="16.8463" y2="49.3437" gradientUnits="userSpaceOnUse">
<stop offset="0.0054" stop-color="#D8DEE8"/>
<stop offset="1" stop-color="#F4F7FA"/>
</linearGradient>
<linearGradient id="paint34_linear_19_210" x1="28.2354" y1="49.7506" x2="38.7975" y2="66.2675" gradientUnits="userSpaceOnUse">
<stop offset="0.0054" stop-color="#D8DEE8"/>
<stop offset="1" stop-color="#F4F7FA"/>
</linearGradient>
<linearGradient id="paint35_linear_19_210" x1="33.3272" y1="45.3198" x2="21.1878" y2="45.3198" gradientUnits="userSpaceOnUse">
<stop stop-color="#444B8C"/>
<stop offset="0.9964" stop-color="#26264F"/>
</linearGradient>
<linearGradient id="paint36_linear_19_210" x1="20.7859" y1="50.6455" x2="20.9068" y2="57.6498" gradientUnits="userSpaceOnUse">
<stop stop-color="#444B8C"/>
<stop offset="0.9964" stop-color="#26264F"/>
</linearGradient>
<linearGradient id="paint37_linear_19_210" x1="27.1918" y1="50.3024" x2="23.6273" y2="56.5127" gradientUnits="userSpaceOnUse">
<stop stop-color="#FCB148"/>
<stop offset="0.0521" stop-color="#FDBA46"/>
<stop offset="0.1424" stop-color="#FFC244"/>
<stop offset="0.3183" stop-color="#FFC444"/>
<stop offset="0.4849" stop-color="#FDB946"/>
<stop offset="0.7754" stop-color="#F99C4D"/>
<stop offset="0.8658" stop-color="#F8924F"/>
<stop offset="1" stop-color="#F8924F"/>
</linearGradient>
<linearGradient id="paint38_linear_19_210" x1="29.4838" y1="55.5159" x2="16.8463" y2="55.5159" gradientUnits="userSpaceOnUse">
<stop stop-color="#444B8C"/>
<stop offset="0.9964" stop-color="#26264F"/>
</linearGradient>
<linearGradient id="paint39_linear_19_210" x1="26.1665" y1="56.1061" x2="16.8463" y2="56.1061" gradientUnits="userSpaceOnUse">
<stop stop-color="#444B8C"/>
<stop offset="0.9964" stop-color="#26264F"/>
</linearGradient>
<linearGradient id="paint40_linear_19_210" x1="37.9135" y1="45.8396" x2="32.2085" y2="45.8396" gradientUnits="userSpaceOnUse">
<stop stop-color="#444B8C"/>
<stop offset="0.9964" stop-color="#26264F"/>
</linearGradient>
</defs>
</svg>
