<svg width="66" height="66" viewBox="0 0 66 66" fill="none" xmlns="http://www.w3.org/2000/svg">
<g id="Illustration">
<g id="Group">
<path id="Vector" d="M30.8313 4.95626C15.5224 4.49132 2.26154 15.9163 0.25807 30.9075C-1.93244 47.2982 10.1239 62.0459 24.9586 64.408C43.4106 67.346 61.308 50.3492 59.701 31.9103C58.4902 18.0181 46.3932 5.42891 30.8313 4.95626Z" fill="#F4F7FA"/>
<g id="Group_2">
<g id="Group_3">
<g id="Group_4">
<g id="Group_5">
<path id="Vector_2" d="M31.2772 23.6355L29.5678 23.6385C29.4501 22.5093 29.1786 21.4254 28.7747 20.4071L30.22 19.5689C30.615 19.3398 30.75 18.8232 30.5223 18.4137L29.915 17.3215C29.6859 16.9096 29.1772 16.7583 28.7781 16.9848L27.3507 17.7949C26.6864 16.864 25.8936 16.0247 24.9956 15.3028L25.8165 13.8926C26.0521 13.4879 25.9123 12.9554 25.5037 12.7019L24.4111 12.0239C23.998 11.7677 23.468 11.8888 23.2281 12.2958L22.4053 13.6916C21.348 13.1991 20.2056 12.8439 19.0005 12.6533V10.9981C19.0005 10.5098 18.5988 10.0956 18.1018 10.0729L16.7714 10.0122C16.268 9.98925 15.8586 10.3707 15.8586 10.8644V12.5379C14.6164 12.6414 13.419 12.9206 12.2933 13.3527L11.4053 11.8398C11.1443 11.3952 10.5647 11.2228 10.1099 11.4561L8.89332 12.0801C8.43326 12.316 8.27531 12.8713 8.54138 13.3189L9.46149 14.8666C8.45444 15.5786 7.55417 16.4309 6.79162 17.3973L5.12737 16.4557C4.65552 16.1888 4.05002 16.3272 3.77582 16.7664L3.0442 17.9382C2.76816 18.3803 2.93205 18.954 3.40931 19.2181L5.1314 20.1711C4.6539 21.2708 4.33135 22.4496 4.19102 23.6821L2.12532 23.6857C1.56937 23.6866 1.11719 24.108 1.11719 24.6268V26.0066C1.11719 26.5255 1.56937 26.9404 2.12532 26.9335L4.24588 26.9071C4.4249 28.1108 4.77851 29.2567 5.281 30.3206L3.40931 31.3829C2.93205 31.6538 2.76816 32.2298 3.0442 32.668L3.77582 33.8294C4.05002 34.2647 4.65554 34.3945 5.12737 34.1209L7.02048 33.023C7.77687 33.9177 8.65662 34.7037 9.63281 35.358L8.54138 37.2094C8.27531 37.6608 8.43326 38.2138 8.89332 38.4432L10.1099 39.0499C10.5648 39.2768 11.1444 39.0962 11.4053 38.6479L12.4877 36.7885C13.5566 37.1655 14.6877 37.4047 15.8586 37.4873V39.5602C15.8586 40.0538 16.268 40.4296 16.7715 40.3995L18.1018 40.3199C18.5989 40.2902 19.0006 39.8703 19.0006 39.382V37.3317C20.137 37.1375 21.2177 36.7975 22.2238 36.3351L23.2281 38.0244C23.468 38.4281 23.998 38.5417 24.4111 38.2796L25.5037 37.5862C25.9124 37.3268 26.0521 36.7923 25.8166 36.391L24.8417 34.7301C25.7143 34.0396 26.4912 33.2406 27.1521 32.357L28.7781 33.2568C29.1772 33.4777 29.686 33.3192 29.915 32.904L30.5224 31.8032C30.7501 31.3905 30.615 30.8758 30.22 30.6523L28.6476 29.7627C29.0734 28.7637 29.3715 27.7003 29.5218 26.5925L31.2772 26.5707C31.7297 26.5651 32.0955 26.1828 32.0955 25.7168V24.4777C32.0955 24.0119 31.7297 23.6347 31.2772 23.6355ZM17.4382 33.8362C12.38 34.0239 8.14716 30.0982 8.14716 25.0619C8.14716 20.0256 12.3801 16.0459 17.4382 16.1689C22.3244 16.2878 26.1653 20.2161 26.1653 24.9467C26.1653 29.6774 22.3244 33.6548 17.4382 33.8362Z" fill="#97A6B7"/>
<path id="Vector_3" d="M11.7783 11.3912L10.5608 11.3492L10.141 12.4408L11.7783 11.3912Z" fill="#97A6B7"/>
<path id="Vector_4" d="M23.8508 11.895L25.2547 11.909V12.9446L23.8508 11.895Z" fill="#97A6B7"/>
<path id="Vector_5" d="M29.2011 16.8904L30.6005 16.9469L30.2507 17.7306L29.2011 16.8904Z" fill="#97A6B7"/>
<path id="Vector_6" d="M31.3982 23.6501L32.8116 23.762L32.3498 24.4478L31.3982 23.6501Z" fill="#97A6B7"/>
<path id="Vector_7" d="M29.0472 33.3481L30.4186 33.544L30.5865 32.4244L29.0472 33.3481Z" fill="#97A6B7"/>
<path id="Vector_8" d="M23.7993 38.4L25.0308 38.6239L25.1288 37.7143L23.7993 38.4Z" fill="#97A6B7"/>
<path id="Vector_9" d="M17.6419 40.5831L16.5364 40.3872L17.488 38.9738L17.6419 40.5831Z" fill="#97A6B7"/>
<path id="Vector_10" d="M11.6524 39.3936L10.3649 39.1277L11.3585 37.9242L11.6524 39.3936Z" fill="#97A6B7"/>
<path id="Vector_11" d="M4.41742 16.3312L5.76088 16.3732L5.22908 17.3527L4.41742 16.3312Z" fill="#97A6B7"/>
<path id="Vector_12" d="M1.74451 26.8688L2.97599 27.0507L2.87805 26.0431L1.74451 26.8688Z" fill="#97A6B7"/>
<path id="Vector_13" d="M4.3894 34.2437L5.59292 34.4396L5.69088 33.642L4.3894 34.2437Z" fill="#97A6B7"/>
</g>
<path id="Vector_14" d="M32.6583 23.7464L30.9348 23.7494C30.816 22.611 30.5423 21.5183 30.135 20.4917L31.5923 19.6467C31.9906 19.4157 32.1268 18.8949 31.8972 18.4821L31.2848 17.381C31.0539 16.9657 30.5409 16.8131 30.1385 17.0415L28.6993 17.8582C28.0295 16.9197 27.2301 16.0736 26.3246 15.3458L27.1524 13.924C27.3899 13.5161 27.249 12.9793 26.837 12.7236L25.7353 12.0402C25.3188 11.7818 24.7844 11.9039 24.5425 12.3143L23.7128 13.7214C22.6468 13.225 21.4949 12.8668 20.2799 12.6747V11.006C20.2799 10.5137 19.8749 10.0962 19.3737 10.0733L18.0323 10.0121C17.5247 9.98894 17.1119 10.3736 17.1119 10.8713V12.5583C15.8595 12.6627 14.6521 12.9442 13.5171 13.3798L12.6217 11.8546C12.3586 11.4064 11.7742 11.2326 11.3156 11.4678L10.0889 12.0968C9.62505 12.3347 9.46578 12.8944 9.73407 13.3457L10.6618 14.9061C9.64639 15.6238 8.73866 16.4831 7.9698 17.4574L6.29174 16.5081C5.81599 16.239 5.20547 16.3785 4.92898 16.8212L4.19128 18.0026C3.91296 18.4483 4.0782 19.0267 4.55941 19.293L6.29577 20.2537C5.81431 21.3624 5.48909 22.5508 5.34759 23.7934L3.26479 23.7969C2.70423 23.7979 2.24829 24.2227 2.24829 24.7458V26.1368C2.24829 26.6599 2.70423 27.0782 3.26479 27.0713L5.40292 27.0446C5.58343 28.2582 5.93996 29.4134 6.44663 30.486L4.55941 31.5569C4.07818 31.83 3.91296 32.4107 4.19128 32.8525L4.92898 34.0234C5.20547 34.4622 5.81599 34.5931 6.29174 34.3172L8.20055 33.2104C8.96322 34.1123 9.85025 34.9048 10.8346 35.5644L9.73407 37.4309C9.46578 37.886 9.62505 38.4435 10.0889 38.6748L11.3155 39.2865C11.7742 39.5152 12.3586 39.3331 12.6217 38.8812L13.7131 37.0066C14.7908 37.3867 15.9314 37.6279 17.1119 37.7112V39.8009C17.1119 40.2986 17.5248 40.6774 18.0324 40.647L19.3737 40.5668C19.8749 40.5368 20.2799 40.1136 20.2799 39.6213V37.5543C21.4257 37.3584 22.5154 37.0157 23.5299 36.5495L24.5425 38.2526C24.7844 38.6596 25.3188 38.7741 25.7353 38.5098L26.837 37.8108C27.249 37.5494 27.3899 37.0105 27.1524 36.6059L26.1694 34.9315C27.0493 34.2353 27.8326 33.4298 28.499 32.539L30.1385 33.4462C30.5409 33.6689 31.0539 33.5091 31.2848 33.0905L31.8972 31.9807C32.1268 31.5646 31.9906 31.0457 31.5923 30.8204L30.0069 29.9236C30.4363 28.9165 30.7368 27.8444 30.8884 26.7276L32.6583 26.7056C33.1146 26.6999 33.4834 26.3145 33.4834 25.8448V24.5955C33.4834 24.1258 33.1146 23.7456 32.6583 23.7464ZM18.7046 34.0302C13.6045 34.2194 9.33653 30.2618 9.33653 25.1845C9.33653 20.1071 13.6045 16.095 18.7046 16.219C23.6313 16.3389 27.504 20.2992 27.504 25.0684C27.504 29.8375 23.6313 33.8474 18.7046 34.0302Z" fill="#D8DEE8"/>
</g>
</g>
<g id="Group_6">
<g id="Group_7">
<g id="Group_8">
<path id="Vector_15" d="M36.886 47.2647L35.9664 47.0937C36.0171 46.4746 35.9805 45.8643 35.8661 45.2758L36.728 44.971C36.9635 44.8877 37.0883 44.6235 37.0072 44.3803L36.7908 43.7316C36.7093 43.4869 36.451 43.3542 36.2134 43.4357L35.364 43.7273C35.1007 43.1596 34.7591 42.6281 34.349 42.1492L34.9329 41.4737C35.1005 41.2798 35.0791 40.9794 34.8849 40.8017L34.3657 40.3268C34.1695 40.1473 33.8722 40.1589 33.7021 40.3536L33.1186 41.0212C32.5998 40.6496 32.0212 40.3432 31.3924 40.1191L31.5595 39.2289C31.6088 38.9663 31.4346 38.703 31.1696 38.6406L30.4603 38.4736C30.1919 38.4104 29.9332 38.5743 29.8833 38.8398L29.7143 39.7397C29.0359 39.67 28.3637 39.6992 27.7147 39.818L27.3899 38.9147C27.2944 38.6492 27.0001 38.498 26.7319 38.5776L26.0147 38.7903C25.7434 38.8707 25.6024 39.1534 25.7003 39.421L26.0389 40.3463C25.4254 40.6275 24.8552 40.9949 24.3476 41.4377L23.5476 40.7633C23.3208 40.572 22.9812 40.5853 22.7894 40.7938L22.2776 41.3502C22.0845 41.5601 22.1147 41.8852 22.3447 42.0754L23.1746 42.7618C22.8068 43.305 22.5143 43.9064 22.3144 44.5551L21.2031 44.3484C20.904 44.2928 20.6183 44.4738 20.5659 44.7528L20.4266 45.4948C20.3742 45.7739 20.5755 46.0427 20.8752 46.0951L22.0183 46.295C21.9931 46.9604 22.0675 47.6124 22.2303 48.2353L21.1165 48.6176C20.8325 48.7151 20.6862 49.0083 20.7904 49.2718L21.0666 49.9703C21.1701 50.2321 21.4826 50.3631 21.764 50.2635L22.893 49.8642C23.2094 50.4217 23.6032 50.9333 24.0621 51.3837L23.2882 52.2692C23.0996 52.4851 23.1287 52.7984 23.3529 52.9683L23.9459 53.4174C24.1676 53.5853 24.4976 53.5467 24.6832 53.332L25.453 52.4413C25.9898 52.752 26.5739 52.9949 27.1953 53.1575L26.986 54.2722C26.9362 54.5377 27.1184 54.7811 27.3922 54.8158L28.1157 54.9073C28.386 54.9415 28.6444 54.7563 28.6937 54.4937L28.9007 53.391C29.5315 53.4013 30.1471 53.3276 30.7348 53.1805L31.1044 54.1904C31.1927 54.4317 31.4662 54.5463 31.7148 54.447L32.3724 54.1845C32.6184 54.0863 32.7475 53.8129 32.6613 53.5733L32.3047 52.5817C32.8437 52.2984 33.3422 51.9471 33.7868 51.5387L34.5705 52.1867C34.7628 52.3458 35.0524 52.312 35.2175 52.1118L35.6553 51.5811C35.8194 51.3822 35.7987 51.0917 35.6089 50.9316L34.8531 50.2945C35.1829 49.8002 35.4506 49.2584 35.6433 48.6778L36.5895 48.8433C36.8335 48.886 37.0687 48.7173 37.1158 48.4668L37.2409 47.8003C37.288 47.5497 37.1294 47.31 36.886 47.2647ZM28.4135 51.3533C25.6743 50.9436 23.7942 48.405 24.3027 45.6965C24.8112 42.988 27.4894 41.2751 30.1972 41.852C32.813 42.4092 34.482 44.9097 34.0044 47.4538C33.5268 49.9979 31.0596 51.7492 28.4135 51.3533Z" fill="#97A6B7"/>
<path id="Vector_16" d="M27.6358 38.7112L26.9853 38.5657L26.6493 39.1103L27.6358 38.7112Z" fill="#97A6B7"/>
<path id="Vector_17" d="M34.0775 40.201L34.8311 40.3503L34.7265 40.9072L34.0775 40.201Z" fill="#97A6B7"/>
<path id="Vector_18" d="M36.4504 43.4277L37.1973 43.5994L36.9301 43.9855L36.4504 43.4277Z" fill="#97A6B7"/>
<path id="Vector_19" d="M36.9495 47.2849L37.6984 47.4878L37.3808 47.8099L36.9495 47.2849Z" fill="#97A6B7"/>
<path id="Vector_20" d="M34.706 52.263L35.4238 52.5068L35.6271 51.9217L34.706 52.263Z" fill="#97A6B7"/>
<path id="Vector_21" d="M31.3737 54.4501L32.0134 54.6948L32.1579 54.2155L31.3737 54.4501Z" fill="#97A6B7"/>
<path id="Vector_22" d="M27.8419 55.0024L27.2671 54.7854L27.9216 54.1214L27.8419 55.0024Z" fill="#97A6B7"/>
<path id="Vector_23" d="M24.7408 53.758L24.0753 53.485L24.7311 52.938L24.7408 53.758Z" fill="#97A6B7"/>
<path id="Vector_24" d="M23.1784 40.6246L23.8966 40.7829L23.5117 41.256L23.1784 40.6246Z" fill="#97A6B7"/>
<path id="Vector_25" d="M20.677 46.0219L21.3209 46.244L21.37 45.6923L20.677 46.0219Z" fill="#97A6B7"/>
<path id="Vector_26" d="M21.3548 50.2551L21.9822 50.482L22.1155 50.0629L21.3548 50.2551Z" fill="#97A6B7"/>
</g>
<path id="Vector_27" d="M37.6175 47.4639L36.6903 47.2915C36.7414 46.6673 36.7045 46.052 36.5891 45.4587L37.4582 45.1514C37.6957 45.0675 37.8215 44.8011 37.7397 44.5559L37.5215 43.9019C37.4392 43.6553 37.1788 43.5214 36.9393 43.6036L36.0829 43.8975C35.8174 43.3252 35.4729 42.7894 35.0595 42.3066L35.6482 41.6256C35.8171 41.4302 35.7955 41.1272 35.5997 40.9482L35.0763 40.4694C34.8783 40.2884 34.5786 40.3001 34.4071 40.4964L33.8188 41.1694C33.2957 40.7948 32.7123 40.4859 32.0783 40.2599L32.2468 39.3624C32.2965 39.0977 32.1208 38.8322 31.8536 38.7693L31.1384 38.601C30.8677 38.5373 30.6069 38.7025 30.5567 38.9701L30.3863 39.8774C29.7022 39.8071 29.0245 39.8366 28.3701 39.9562L28.0426 39.0456C27.9463 38.778 27.6496 38.6255 27.3792 38.7057L26.656 38.9202C26.3825 39.0013 26.2403 39.2862 26.3391 39.556L26.6804 40.4888C26.0619 40.7723 25.487 41.1427 24.9751 41.5891L24.1685 40.9091C23.9398 40.7164 23.5974 40.7298 23.404 40.94L22.888 41.5008C22.6933 41.7124 22.7238 42.0401 22.9557 42.2319L23.7925 42.9239C23.4217 43.4715 23.1268 44.0778 22.9252 44.7318L21.8047 44.5234C21.5032 44.4673 21.2151 44.6498 21.1623 44.9311L21.0218 45.6792C20.969 45.9605 21.172 46.2315 21.4742 46.2843L22.6267 46.4859C22.6013 47.1568 22.6764 47.814 22.8406 48.442L21.7175 48.8274C21.4311 48.9257 21.2836 49.2213 21.3887 49.487L21.6672 50.1912C21.7716 50.4551 22.0867 50.5871 22.3704 50.4868L23.5087 50.0843C23.8278 50.6463 24.2248 51.1621 24.6876 51.6162L23.9073 52.5089C23.7171 52.7265 23.7464 53.0424 23.9726 53.2136L24.5705 53.6664C24.7941 53.8357 25.1267 53.7968 25.3139 53.5803L26.0901 52.6824C26.6313 52.9956 27.2203 53.2405 27.8468 53.4044L27.6358 54.5283C27.5856 54.796 27.7693 55.0413 28.0454 55.0763L28.7749 55.1686C29.0474 55.2031 29.308 55.0163 29.3577 54.7516L29.5664 53.6399C30.2024 53.6503 30.823 53.576 31.4156 53.4277L31.7883 54.4459C31.8773 54.6891 32.1531 54.8047 32.4038 54.7047L33.0668 54.4399C33.3148 54.3409 33.445 54.0654 33.3581 53.8238L32.9985 52.8241C33.542 52.5385 34.0446 52.1844 34.4929 51.7726L35.283 52.426C35.477 52.5864 35.769 52.5522 35.9354 52.3505L36.3768 51.8154C36.5423 51.6149 36.5214 51.3221 36.33 51.1607L35.5679 50.5183C35.9005 50.02 36.1704 49.4738 36.3646 48.8885L37.3187 49.0554C37.5647 49.0984 37.8019 48.9284 37.8493 48.6757L37.9754 48.0039C38.0229 47.7512 37.863 47.5095 37.6175 47.4639ZM29.075 51.5856C26.3131 51.1724 24.4173 48.6131 24.93 45.8826C25.4426 43.152 28.143 41.4252 30.8733 42.0068C33.5107 42.5687 35.1936 45.0896 34.7121 47.6544C34.2306 50.2192 31.743 51.9847 29.075 51.5856Z" fill="#D8DEE8"/>
</g>
</g>
</g>
<g id="Group_9">
<g id="Group_10">
<path id="Vector_28" d="M10.9568 60.2446L41.6247 58.1268C41.6616 58.1233 41.6987 58.1232 41.7356 58.1264L59.9995 58.9538C60.4364 58.9936 60.4165 60.1375 59.9207 60.1999L31.2234 64.0425C31.1059 64.0571 30.9871 64.0567 30.8697 64.0415L11.0133 61.2514C10.7483 61.2053 10.6515 60.267 10.9568 60.2446Z" fill="url(#paint0_linear_19_1197)"/>
<path id="Vector_29" d="M11.0174 60.2108L41.6247 57.3225C41.6616 57.3191 41.6987 57.3189 41.7356 57.3222L59.9109 58.9178C60.2446 58.9472 60.2531 59.432 59.9207 59.473L31.2234 63.0144C31.1059 63.0289 30.9871 63.0285 30.8697 63.0134L11.0133 60.4472C10.8726 60.429 10.8762 60.2242 11.0174 60.2108Z" fill="url(#paint1_linear_19_1197)"/>
<path id="Vector_30" d="M31.5269 62.6685C31.4844 62.6685 31.4415 62.6658 31.3994 62.6603L13.6025 60.3603C13.5376 60.3519 13.5393 60.2575 13.6044 60.2514L40.9337 57.6777C40.9398 57.6771 40.9459 57.6768 40.952 57.6768C40.9576 57.6768 40.9632 57.6771 40.9689 57.6776L58.3421 59.2028C58.4227 59.2099 58.4248 59.327 58.3445 59.3369L31.6487 62.6611C31.6084 62.666 31.5675 62.6685 31.5269 62.6685Z" fill="url(#paint2_linear_19_1197)"/>
<path id="Vector_31" d="M21.4021 61.562C21.3957 61.6151 21.2283 61.6384 21.0282 61.6141C20.8282 61.5898 20.6712 61.527 20.6777 61.4739C20.6841 61.4209 20.8515 61.3975 21.0516 61.4219C21.2517 61.4462 21.4086 61.5089 21.4021 61.562Z" fill="url(#paint3_linear_19_1197)"/>
<g id="Group_11">
<path id="Vector_32" d="M35.8746 63.2006L33.1199 63.5625C32.9186 63.5889 32.7538 63.4906 32.7538 63.3425C32.7538 63.1944 32.9186 63.0552 33.1199 63.0316L35.8746 62.7098C36.0448 62.69 36.1816 62.7828 36.1816 62.9171C36.1816 63.0514 36.0448 63.1782 35.8746 63.2006Z" fill="url(#paint4_linear_19_1197)"/>
<path id="Vector_33" d="M38.8837 62.8053L36.6151 63.1033C36.4507 63.1249 36.3162 63.0341 36.3162 62.9004C36.3162 62.7667 36.4507 62.6425 36.6151 62.6233L38.8837 62.3583C39.0249 62.3418 39.1385 62.4277 39.1385 62.5502C39.1385 62.6726 39.0249 62.7867 38.8837 62.8053Z" fill="url(#paint5_linear_19_1197)"/>
<path id="Vector_34" d="M42.6858 62.3058L40.9599 62.5325C40.836 62.5488 40.7348 62.4681 40.7348 62.3521C40.7348 62.2361 40.836 62.1302 40.9599 62.1158L42.6858 61.9141C42.7943 61.9015 42.8816 61.9783 42.8816 62.0857C42.8816 62.193 42.7943 62.2916 42.6858 62.3058Z" fill="url(#paint6_linear_19_1197)"/>
</g>
<path id="Vector_35" opacity="0.6" d="M45.88 59.1045C43.2129 59.5793 41.4416 60.5461 37.6143 60.6236C34.2989 60.6906 34.2744 59.9266 30.421 59.6853C25.3728 59.3691 24.057 60.5953 18.8938 60.4895C17.5474 60.4619 15.7852 60.3404 13.7001 59.9577L11.0174 60.2108C10.8762 60.2242 10.8726 60.429 11.0133 60.4472L30.8697 63.0134C30.9871 63.0286 31.1059 63.0289 31.2234 63.0144L55.5133 60.0169C51.3455 58.6272 48.1541 58.6996 45.88 59.1045Z" fill="white"/>
</g>
<g id="Group_12">
<path id="Vector_36" d="M39.5584 60.4839C37.8133 60.4839 36.0468 60.1749 36.0468 59.5845C36.0468 58.994 37.8133 58.685 39.5584 58.685C41.3035 58.685 43.07 58.994 43.07 59.5845C43.07 60.1749 41.3035 60.4839 39.5584 60.4839ZM39.5584 58.9068C37.2152 58.9068 36.2686 59.385 36.2686 59.5845C36.2686 59.7839 37.2152 60.2621 39.5584 60.2621C41.9016 60.2621 42.8482 59.7839 42.8482 59.5845C42.8482 59.385 41.9015 58.9068 39.5584 58.9068Z" fill="white"/>
<path id="Vector_37" opacity="0.6" d="M39.5584 59.9429C40.4121 59.9429 41.1041 59.7824 41.1041 59.5844C41.1041 59.3865 40.4121 59.226 39.5584 59.226C38.7047 59.226 38.0126 59.3865 38.0126 59.5844C38.0126 59.7824 38.7047 59.9429 39.5584 59.9429Z" fill="white"/>
<path id="Vector_38" opacity="0.29" d="M17.735 27.9468L36.0247 57.8511L36.1918 58.1239L36.4136 58.487L36.8025 59.1228L37.0849 59.5842C37.0849 59.8917 38.1245 60.1416 39.4309 60.1572C39.4731 60.1579 39.5152 60.1579 39.5581 60.1579C40.9245 60.1579 42.0313 59.9013 42.0313 59.5842L42.29 59.1147L42.8084 58.1749L42.985 57.8541L43.2068 57.4519L44.2952 55.477L46.1702 52.0767L48.2826 48.2446L48.4933 47.8616L50.8275 43.6265L52.3114 40.9352L58.8792 29.0211C57.359 27.8566 53.8116 25.3353 48.6405 23.6008C47.8723 23.3427 47.0686 23.1025 46.2294 22.8866C46.0357 22.8363 45.8398 22.7875 45.6416 22.7402C45.493 22.7047 45.3436 22.6699 45.1935 22.6367C45.0753 22.6093 44.9555 22.5834 44.8357 22.5575C44.835 22.5575 44.835 22.5575 44.8342 22.5575C43.0457 22.1746 41.116 21.9091 39.0568 21.8219C38.8092 21.8108 38.5592 21.8027 38.3071 21.7975C34.3752 21.7147 30.8728 22.3032 27.8954 23.1653C27.7948 23.1934 27.695 23.223 27.5967 23.2526C27.5679 23.2614 27.539 23.2696 27.5109 23.2784C27.1937 23.3738 26.8824 23.4729 26.5778 23.5742C25.7446 23.8507 24.9587 24.1457 24.2222 24.4489C21.1154 25.7272 18.8907 27.1527 17.735 27.9468Z" fill="url(#paint7_linear_19_1197)"/>
</g>
</g>
<g id="Group_13">
<g id="Group_14">
<g id="Clip path group">
<mask id="mask0_19_1197" style="mask-type:luminance" maskUnits="userSpaceOnUse" x="20" y="7" width="38" height="38">
<g id="SVGID_00000009583395804441525110000015836171862129102750_">
<path id="Vector_39" d="M52.2245 39.2597C59.452 32.0321 59.452 20.314 52.2245 13.0865C44.997 5.85903 33.2789 5.85903 26.0514 13.0865C18.8239 20.314 18.8239 32.0321 26.0514 39.2597C33.2789 46.4872 44.997 46.4872 52.2245 39.2597Z" fill="white"/>
</g>
</mask>
<g mask="url(#mask0_19_1197)">
<g id="Group_15">
<path id="Vector_40" d="M57.8725 26.1888C57.8725 30.1547 56.6269 33.8337 54.515 36.8619C54.5067 36.8744 54.477 36.8863 54.477 36.8988V36.8993C51.1633 41.7546 45.4852 44.9003 39.1157 44.9003C38.5948 44.9003 38.0958 44.876 37.5857 44.8055C37.5852 44.8055 37.5852 44.8055 37.5852 44.8055C37.5831 44.8055 37.5821 44.8365 37.58 44.8365C37.3289 44.8157 37.0798 44.806 36.8317 44.7754C36.7436 44.7651 36.6553 44.7615 36.5676 44.7491C36.4898 44.7387 36.4125 44.7317 36.3352 44.7198C36.2677 44.7099 36.2008 44.7015 36.1344 44.6906C36.1193 44.688 36.1043 44.6864 36.0892 44.6843C35.9257 44.6574 35.7628 44.6293 35.6004 44.5982C35.5994 44.5982 35.5989 44.5979 35.5978 44.5979C26.938 42.9437 20.3947 35.3305 20.3947 26.1886C20.3947 24.2557 20.6755 22.3909 21.2193 20.6365C21.3044 20.3615 21.4104 20.0896 21.4809 19.8203V19.8198C21.6924 19.3709 21.8342 18.9304 22.0287 18.4982C22.1071 18.3254 22.1937 18.1536 22.2762 17.9834C22.7323 17.0484 23.2668 16.1569 23.8661 15.3168C23.9206 15.2405 23.9771 15.1648 24.0327 15.089C24.2548 14.787 24.4865 14.4923 24.7267 14.2043C25.0863 13.7726 25.465 13.3569 25.8614 12.9595C26.8935 11.9238 28.0461 11.0079 29.2961 10.2353C29.6827 9.99604 30.0792 9.77034 30.484 9.55966C31.4642 9.04803 32.4948 8.62097 33.5673 8.28786C35.3274 7.74041 37.1986 7.44568 39.1387 7.44568C43.6007 7.44568 47.6985 9.00445 50.9167 11.6072C53.2839 13.522 55.2091 16.0007 56.4202 18.8396C56.6911 19.4737 56.8741 20.1254 57.1561 20.7927V20.7933C57.1561 20.7964 57.1239 20.7985 57.1249 20.8016C57.6365 22.5077 57.8725 24.3161 57.8725 26.1888Z" fill="url(#paint8_linear_19_1197)"/>
<g id="Group_16">
<path id="Vector_41" d="M43.2219 32.5079C42.8198 33.0745 41.5755 33.802 42.4197 35.231C43.2567 36.6565 42.3616 36.9237 41.7856 36.7903C41.2071 36.6585 39.4086 36.5849 39.7085 37.4021C40.0074 38.2204 40.5226 38.5271 39.8636 38.8431C39.2051 39.1575 38.9265 39.979 38.2524 41.1096C37.5831 42.2424 35.9921 41.2627 36.4633 42.398C36.9334 43.5339 37.3003 43.4239 37.2562 44.2152C37.2458 44.4326 37.39 44.6558 37.5851 44.868C37.334 44.8472 37.0818 44.8218 36.8317 44.7912C36.7435 44.7808 36.6553 44.7694 36.5676 44.7569C36.4897 44.7466 36.4124 44.7357 36.3351 44.7237C36.2677 44.7138 36.2007 44.7035 36.1343 44.6926C36.1193 44.69 36.1231 44.6874 36.1081 44.6853C35.9472 44.6583 35.8637 44.6292 35.6522 44.5986V44.5981C35.5112 44.4643 35.5996 44.3189 35.6208 44.1623C35.831 42.701 33.815 41.697 33.4771 40.6732C33.1451 39.652 33.4729 39.0428 33.3962 38.1965C33.3173 37.3517 33.5936 36.2315 33.1074 35.5195C32.6212 34.8102 30.6611 34.5725 30.2881 33.1409C29.9124 31.7124 30.7861 29.573 31.1255 29.2087C31.4607 28.8445 29.5026 27.1871 28.5707 27.1342C27.6346 27.0771 28.0091 25.1925 26.4264 25.4794C24.8407 25.7575 21.9919 24.8728 22.5803 23.9212C23.066 23.1371 23.8812 21.4076 21.2198 20.6365C21.3049 20.3616 21.4103 20.0896 21.4808 19.8203V19.8198C21.6923 19.371 21.8341 18.9304 22.0287 18.4982C22.107 18.3254 22.1937 18.1536 22.2762 17.9835C22.7328 17.0484 23.2673 16.1569 23.8661 15.3168C23.9206 15.2406 23.9771 15.1648 24.0326 15.0891C24.2552 14.787 24.4869 14.4918 24.7266 14.2043C25.0862 13.7726 25.4649 13.357 25.8613 12.9595C26.8934 11.9238 28.0461 11.0079 29.2961 10.2353C29.8233 10.6047 30.4253 10.8325 30.9452 10.5518C32.2202 9.83834 31.3796 9.72886 30.8576 9.70238C30.7216 9.69563 30.5899 9.64168 30.484 9.5597C31.4642 9.04806 32.4948 8.621 33.5673 8.28789C33.4879 9.00759 32.5098 10.1637 33.2295 10.0226C34.067 9.86327 34.409 7.60035 35.0239 8.35224C35.6476 9.10723 34.3415 10.0968 35.5682 9.52339C36.7964 8.95571 36.9604 7.68856 38.3292 8.30501C39.7048 8.92925 39.5793 9.66816 39.9632 9.595C40.3457 9.52287 41.5827 10.3541 40.8345 11.0381C40.0795 11.724 39.3873 10.8502 38.2555 10.5866C37.1233 10.3261 37.1508 11.2524 36.6299 11.4641C36.1 11.6685 33.5445 10.4336 32.9171 11.5497C32.2831 12.657 32.0132 13.4296 32.9545 13.4011C33.8947 13.3747 33.9554 13.1313 33.8818 13.8266C33.8065 14.5225 33.9778 15.0434 34.8298 14.3891C35.6792 13.7358 35.4888 13.0986 36.153 13.41C36.8177 13.7223 36.896 13.4395 37.6028 12.9264C38.309 12.4132 39.2384 12.3597 39.4817 13.5111C39.7256 14.6631 39.3089 14.9215 38.0667 14.9796C36.8239 15.0398 36.6833 14.648 36.2874 15.6869C35.8935 16.7262 34.2497 18.0608 32.8066 18.6109C31.3662 19.1619 30.8016 19.9761 30.8348 21.0746C30.8691 22.1752 30.3273 23.3359 29.9657 22.4289C29.6025 21.5193 28.5844 19.9875 27.5455 21.0113C26.5046 22.0372 24.6932 23.8507 26.6951 24.1823C28.6928 24.5201 27.6504 22.6484 28.6601 23.0226C29.6683 23.3993 28.0214 24.2243 28.6954 24.5222C29.3705 24.8226 29.6533 24.682 29.6481 25.602C29.6429 26.5215 29.8718 27.4145 30.6911 27.0243C31.5099 26.6356 32.5617 24.833 33.7464 25.8993C34.9325 26.9683 34.8485 26.8292 35.4707 26.5178C36.0923 26.207 36.4882 27.139 36.743 27.5634C36.9977 27.9874 37.9972 27.5546 38.8072 28.8176C39.6166 30.0806 39.9342 30.3058 40.8574 29.8512C41.781 29.3972 42.1567 29.7345 42.3974 30.3722C42.6371 31.0099 43.2059 30.3867 43.4798 31.2294C43.7523 32.0715 43.6215 31.9407 43.2219 32.5079Z" fill="white"/>
<g id="Group_17">
<path id="Vector_42" d="M46.3831 17.2061C45.7287 15.802 48.9708 15.9597 49.5437 16.0677C50.1202 16.1637 51.4724 15.1067 51.6442 14.6153C51.8206 14.1203 52.1101 14.3553 53.136 14.3413C54.1613 14.3304 53.2553 14.0985 52.1267 13.7264C51.0002 13.3554 51.9633 13.3181 50.925 12.4982C50.4782 12.1391 50.6188 11.834 50.9167 11.6072C53.2839 13.522 55.1753 16.0007 56.3864 18.8396C56.3521 18.8292 56.32 18.8235 56.2899 18.823C55.5717 18.8189 55.4134 17.231 55.0435 16.9218C54.6787 16.613 55.0538 17.794 55.1431 18.2792C55.2329 18.7649 54.9464 18.3565 54.5884 18.8022C54.2288 19.2485 53.5797 19.2568 53.521 18.5874C53.4614 17.9196 52.9907 17.2637 52.0354 16.9586C51.0801 16.6535 50.2535 16.9041 49.4773 17.2035C48.7051 17.4978 47.0421 18.5994 46.3831 17.2061Z" fill="white"/>
<path id="Vector_43" d="M54.5225 36.8988C54.5873 36.4167 54.6932 35.9186 54.4918 35.7365C54.0025 35.2824 53.8957 34.0454 54.0653 33.4185C54.2345 32.7902 55.553 32.826 54.6584 31.7825C53.7612 30.7358 52.9528 29.4936 53.3295 28.7832C53.7062 28.0739 53.5921 28.022 52.8859 28.0262C52.1786 28.0303 51.8688 28.0615 51.1647 27.4326C50.46 26.7954 49.4907 28.9363 46.8386 27.2193C44.1871 25.4852 45.6971 22.5622 46.6907 22.555C47.6907 22.5383 48.8587 22.0335 48.0394 20.814C47.2226 19.59 48.4991 19.4172 49.1228 19.6953C49.7476 19.9703 50.8554 19.2314 51.9845 18.8983C53.1162 18.5667 53.0664 20.4103 53.6948 20.7793C54.3268 21.1487 55.511 20.8555 56.1264 20.2651C56.5659 19.8437 56.6619 20.3351 57.0962 20.8016C57.6078 22.5077 57.8823 24.3161 57.8823 26.1888C57.8823 30.1708 56.6406 33.8632 54.5225 36.8988Z" fill="white"/>
<path id="Vector_44" d="M49.779 14.8691C49.7796 14.8679 50.6058 14.4949 50.3064 13.894C50.0096 13.2928 49.5389 11.4506 49.195 12.0311C48.8489 12.6143 49.3591 13.7466 49.2477 14.2351C49.1353 14.7252 49.1323 14.9817 49.779 14.8691Z" fill="white"/>
<path id="Vector_45" d="M48.9539 14.3067C48.9423 14.113 49.0642 13.3265 48.4453 13.3512C48.4464 13.3499 47.5501 13.724 48.0744 14.3594C48.6012 14.993 48.9673 14.4999 48.9539 14.3067Z" fill="white"/>
</g>
</g>
</g>
</g>
</g>
<g id="Clip path group_2">
<mask id="mask1_19_1197" style="mask-type:luminance" maskUnits="userSpaceOnUse" x="20" y="7" width="38" height="38">
<g id="SVGID_00000009583395804441525110000015836171862129102750__2">
<path id="Vector_46" d="M52.2245 39.2597C59.452 32.0321 59.452 20.314 52.2245 13.0865C44.997 5.85903 33.2789 5.85903 26.0514 13.0865C18.8239 20.314 18.8239 32.0321 26.0514 39.2597C33.2789 46.4872 44.997 46.4872 52.2245 39.2597Z" fill="white"/>
</g>
</mask>
<g mask="url(#mask1_19_1197)">
<path id="Vector_47" opacity="0.3" d="M57.8227 26.156C57.8227 30.1219 56.6021 33.8009 54.4902 36.8292C54.4818 36.8416 54.477 36.8535 54.477 36.866V36.8665C51.0928 41.7219 45.4603 44.8527 39.0908 44.8527C38.5699 44.8527 38.046 44.813 37.5359 44.7425C37.5354 44.7425 37.5354 44.7425 37.5354 44.7425C37.5333 44.7425 37.5323 44.7889 37.5302 44.7889C37.2791 44.7681 37.03 44.7656 36.782 44.735C36.6937 44.7246 36.6055 44.7249 36.5179 44.7124C36.44 44.7021 36.3627 44.697 36.2854 44.6851C36.2179 44.6752 36.151 44.668 36.0846 44.6572C36.0695 44.6546 36.0545 44.6533 36.0394 44.6513C35.876 44.6243 35.713 44.5964 35.5506 44.5653C35.5496 44.5653 35.5491 44.5651 35.548 44.5651C27.5399 43.0354 21.3422 36.4053 20.4543 28.1876C22.3323 33.5743 26.9758 37.6216 32.6847 38.7496H32.6868C32.8269 38.8201 32.9675 38.8059 33.1086 38.8293C33.1216 38.8308 33.1351 38.8354 33.1481 38.8374C33.2052 38.8468 33.2633 38.8563 33.3214 38.8646C33.3878 38.875 33.4548 38.8834 33.5222 38.8922C33.598 38.9031 33.6737 38.9096 33.75 38.9184C33.9643 38.9449 34.1791 38.9937 34.396 39.0114C34.3981 39.0114 34.3991 39.0316 34.4007 39.0316C34.4007 39.0316 34.4007 39.0316 34.4012 39.0316C34.8418 39.0316 35.2808 39.067 35.7307 39.067C38.4808 39.067 41.0727 38.3679 43.3403 37.1614C45.6078 35.955 47.5511 34.2156 49.004 32.1192C49.004 32.1083 49.0217 32.0937 49.0284 32.0829C50.8523 29.4681 51.9197 26.2888 51.9197 22.8641C51.9197 21.2472 51.6823 19.6843 51.2402 18.2112C51.2397 18.2086 51.2338 18.2055 51.2338 18.2028V18.2023C51.0927 17.6264 50.8656 17.0634 50.6321 16.5159C49.586 14.0642 47.957 11.9237 45.9126 10.2705C44.4161 9.0599 42.6998 8.11135 40.8322 7.49335C44.615 7.84153 48.0725 9.31467 50.8668 11.5745C53.234 13.4892 55.1489 15.968 56.36 18.8069C56.6309 19.441 56.8036 20.0927 57.0856 20.76V20.7605C57.0856 20.7636 57.0637 20.7657 57.0647 20.7688C57.5764 22.4749 57.8227 24.2833 57.8227 26.156Z" fill="url(#paint9_linear_19_1197)"/>
</g>
</g>
</g>
</g>
<g id="Group_18">
<g id="Group_19">
<path id="Vector_48" d="M10.1322 50.564C12.2775 54.7981 15.1948 55.2479 16.055 55.2906V55.2941C16.055 55.2941 16.03 55.2961 16.0941 55.2948C16.1583 55.2961 16.1332 55.2941 16.1332 55.2941V55.2906C16.9153 55.2555 18.9457 54.9423 20.871 52.4506C21.2773 51.925 21.6802 51.3021 22.0541 50.564C24.5464 45.6456 22.7342 43.1126 22.7342 43.1126L16.1332 43.0967V43.096L16.0941 43.0967L16.055 43.096V43.0967L13.2425 43.1036L9.443 43.1126C9.443 43.1126 7.63987 45.6456 10.1322 50.564Z" fill="url(#paint10_linear_19_1197)"/>
<path id="Vector_49" d="M16.0839 44.0641C19.7854 44.0641 22.786 43.684 22.786 43.2152C22.786 42.7464 19.7854 42.3663 16.0839 42.3663C12.3824 42.3663 9.38177 42.7464 9.38177 43.2152C9.38177 43.684 12.3824 44.0641 16.0839 44.0641Z" fill="url(#paint11_linear_19_1197)"/>
<path id="Vector_50" opacity="0.3" d="M10.1322 50.564C12.2775 54.7981 15.1948 55.2479 16.055 55.2907V55.2941C16.055 55.2941 16.03 55.2962 16.0941 55.2948C16.1583 55.2962 16.1332 55.2941 16.1332 55.2941V55.2907C16.9153 55.2555 18.9457 54.9423 20.871 52.4507C20.86 50.1563 15.5367 48.5973 13.8735 47.5337C11.7696 46.1885 13.4624 43.2154 13.4624 43.2154C13.381 43.1767 13.3017 43.1395 13.2224 43.1036L9.43294 43.1126C9.43294 43.1126 7.63989 45.6456 10.1322 50.564Z" fill="url(#paint12_linear_19_1197)"/>
</g>
<path id="Vector_51" d="M26.281 35.7579C28.2111 35.7579 29.7758 33.7558 29.7758 31.286C29.7758 28.8162 28.2111 26.8141 26.281 26.8141C24.3508 26.8141 22.7861 28.8162 22.7861 31.286C22.7861 33.7558 24.3508 35.7579 26.281 35.7579Z" fill="url(#paint13_linear_19_1197)"/>
<path id="Vector_52" d="M4.20929 32.2935C4.20929 37.8569 9.71336 42.3662 16.5026 42.3662C17.5455 42.3662 18.5575 42.26 19.5246 42.0593C24.8528 40.9562 28.7958 37.0022 28.7958 32.2935C28.7958 26.7308 23.2917 22.2208 16.5026 22.2208C14.5952 22.2208 12.7893 22.5767 11.1778 23.212C7.05479 24.8379 4.20929 28.2939 4.20929 32.2935Z" fill="url(#paint14_linear_19_1197)"/>
<path id="Vector_53" d="M24.7119 36.8914L15.2333 37.7187C13.138 37.9016 11.3304 36.2624 11.2571 34.0344L11.1789 31.6571C11.1453 30.6345 11.9282 29.7816 12.9145 29.7561L26.4267 29.4076C27.2114 29.3874 27.84 30.1006 27.84 30.9976V33.0844C27.84 35.0423 26.4597 36.7389 24.7119 36.8914Z" fill="#F4F7FA"/>
<path id="Vector_54" d="M24.9394 35.532L14.7972 36.2786C13.2993 36.3889 12.0196 35.2049 11.9699 33.6229L11.9369 32.573C11.905 31.5584 12.6794 30.7086 13.6536 30.6788L25.7445 30.3091C26.5373 30.2849 27.1733 30.9974 27.1745 31.8973L27.1758 32.8292C27.1776 34.234 26.1867 35.4402 24.9394 35.532Z" fill="url(#paint15_linear_19_1197)"/>
<path id="Vector_55" d="M18.9933 34.6234C19.0887 34.4665 19.1465 34.2933 19.1433 34.1101C19.1331 33.5164 18.5381 33.0636 17.8068 33.1006C17.0671 33.1379 16.4722 33.6609 16.4859 34.2669C16.4901 34.4539 16.5572 34.623 16.6625 34.7702L18.9933 34.6234Z" fill="#D8DEE8"/>
<path id="Vector_56" d="M25.2342 34.2303C25.3221 34.0813 25.3763 33.9166 25.3754 33.7424C25.3727 33.1775 24.8403 32.7454 24.1798 32.7787C23.5122 32.8124 22.9701 33.308 22.9756 33.884C22.9773 34.0617 23.0359 34.2226 23.1292 34.3629L25.2342 34.2303Z" fill="#D8DEE8"/>
<path id="Vector_57" opacity="0.3" d="M4.20929 32.2935C4.20929 37.8569 9.71336 42.3662 16.5026 42.3662C17.5455 42.3662 18.5575 42.26 19.5246 42.0593C20.4808 39.0413 15.0774 35.7315 11.9697 33.6228C8.16265 31.0394 11.1778 23.212 11.1778 23.212C7.05479 24.8379 4.20929 28.2939 4.20929 32.2935Z" fill="url(#paint16_linear_19_1197)"/>
<path id="Vector_58" d="M5.88695 37.5117C7.8171 37.5117 9.3818 35.5096 9.3818 33.0398C9.3818 30.57 7.8171 28.5679 5.88695 28.5679C3.95679 28.5679 2.39209 30.57 2.39209 33.0398C2.39209 35.5096 3.95679 37.5117 5.88695 37.5117Z" fill="url(#paint17_linear_19_1197)"/>
</g>
<g id="Group_20">
<g id="Group_21">
<path id="Vector_59" d="M37.413 33.0833C37.4929 32.9595 37.6386 32.6961 37.6479 32.3424C37.666 31.6551 37.1562 31.119 37.0877 31.1498C37.0508 31.1664 37.0976 31.3678 37.1239 31.457C37.1785 31.6428 37.2372 31.6608 37.2323 31.7461C37.2222 31.9218 36.9685 31.9286 36.8347 32.1617C36.7384 32.3296 36.7307 32.5688 36.8347 32.758C37.0074 33.072 37.3966 33.0831 37.413 33.0833Z" fill="white"/>
<path id="Vector_60" d="M48.3019 48.0113L48.106 47.3371L48.924 46.7309L49.4339 46.5403L49.132 47.4837L48.3019 48.0113Z" fill="url(#paint18_linear_19_1197)"/>
<path id="Vector_61" d="M47.2894 61.5904C47.2894 61.5904 47.7368 62.7159 47.6191 63.2151C48.0994 63.2057 48.4103 63.1445 48.4103 63.1445C48.4103 63.1445 48.2172 62.6311 48.1795 62.3768C48.1286 62.0333 48.1324 61.4774 48.1324 61.4774L47.2894 61.5904Z" fill="url(#paint19_linear_19_1197)"/>
<path id="Vector_62" d="M42.3575 64.2229C42.3864 64.2578 42.4377 64.3308 42.442 64.4297C42.4444 64.4834 42.4321 64.5276 42.4167 64.5682C42.3404 64.769 42.2206 64.7955 42.0913 65.0085C42.0123 65.1386 42.0272 65.1779 41.9548 65.2366C41.8594 65.314 41.744 65.3185 41.644 65.3196C41.475 65.3216 41.2316 65.3155 40.9252 65.279C41.0858 65.0721 41.2565 64.8618 41.4381 64.6495C41.5178 64.5565 41.5973 64.4656 41.6766 64.3768L42.1487 64.2173C42.2183 64.2192 42.2879 64.2211 42.3575 64.2229Z" fill="#26264F"/>
<path id="Vector_63" d="M41.9649 61.9308C41.9649 61.9308 41.695 63.3388 42.0384 63.7331C42.3309 64.1274 41.8971 63.8461 41.8971 63.8461L41.3791 64.2982L41.0683 64.8351C41.0683 64.8351 41.3544 63.457 41.2781 62.9101C41.2018 62.3633 41.1636 61.9944 41.1636 61.9944L41.9649 61.9308Z" fill="url(#paint20_linear_19_1197)"/>
<path id="Vector_64" d="M40.9474 46.5289C40.9474 46.5289 40.2224 47.1775 40.2224 49.8484C40.2224 52.5192 40.5659 58.3188 40.5659 58.3188L41.1154 62.471C41.1154 62.471 41.6851 62.4912 42.0667 62.3768C42.4101 60.8124 42.9696 58.1662 42.7025 55.9532C42.5881 53.5494 43.6564 50.5352 43.6564 50.5352C43.6564 50.5352 44.5721 53.5876 45.2208 55.1138C45.8694 56.6399 47.1043 61.4212 47.2188 61.7646C47.9778 61.8334 48.3019 61.6327 48.3019 61.6327C48.3019 61.6327 47.8153 56.4873 47.3575 54.5414C46.8996 52.5955 46.9377 47.9025 46.1746 46.567C44.4577 45.8802 40.9474 46.5289 40.9474 46.5289Z" fill="url(#paint21_linear_19_1197)"/>
<path id="Vector_65" d="M40.9474 46.5289C40.9474 46.5289 40.2224 47.1775 40.2224 49.8484C40.2224 52.5192 40.5658 58.3188 40.5658 58.3188L41.1153 62.471C41.1153 62.471 41.6851 62.4912 42.0666 62.3768C42.41 60.8124 42.9696 58.1662 42.7025 55.9532C42.5881 53.5494 43.6564 50.5352 43.6564 50.5352C43.6564 50.5352 44.5721 53.5876 45.2207 55.1138C45.8694 56.64 47.1043 61.4212 47.2188 61.7646C47.9777 61.8334 48.3019 61.6327 48.3019 61.6327C48.3019 61.6327 47.8152 56.4874 47.3574 54.5414C46.8995 52.5955 46.9377 47.9025 46.1746 46.567C44.4577 45.8803 40.9474 46.5289 40.9474 46.5289Z" fill="url(#paint22_linear_19_1197)"/>
<path id="Vector_66" opacity="0.25" d="M44.7133 51.4227C44.9394 52.892 45.3915 53.6832 46.5218 54.7004C47.4259 55.3786 46.7478 56.848 47.0869 57.9782C47.1999 58.3173 47.539 58.6563 47.652 58.9954C48.0726 59.8366 47.6798 60.8656 47.8705 61.7562C48.1673 61.7152 48.3019 61.6327 48.3019 61.6327C48.3019 61.6327 47.8153 56.4874 47.3574 54.5414C46.8996 52.5955 46.9377 47.9025 46.1746 46.567C44.4576 45.8803 40.9474 46.5289 40.9474 46.5289C40.9474 46.5289 40.2224 47.1775 40.2224 49.8484C40.2224 50.0651 40.2247 50.3026 40.2289 50.5558C40.9815 51.2218 42.5207 51.3698 43.47 50.6315C43.5274 50.5885 43.5884 50.5621 43.6515 50.5493C43.6544 50.5409 43.6564 50.5352 43.6564 50.5352C43.6564 50.5352 43.6579 50.5404 43.6604 50.5484C44.0924 50.4696 44.6153 51.0306 44.7133 51.4227Z" fill="url(#paint23_linear_19_1197)"/>
<g id="Group_22">
<path id="Vector_67" d="M47.5014 63.6422C47.5014 63.6422 47.3899 63.6422 47.3991 63.7863C47.4085 63.9303 47.349 64.4257 47.9158 64.449C48.4826 64.4722 48.57 64.4088 48.5886 64.4088C48.6072 64.4088 48.4399 63.9349 48.4399 63.9349L48.2587 63.7026L47.7708 63.6515L47.5014 63.6422Z" fill="#26264F"/>
<path id="Vector_68" d="M48.7582 64.1395C48.7461 64.0199 48.6792 63.8316 48.6118 63.68C48.5117 63.4549 48.5939 63.3706 48.4982 63.1655C48.4652 63.0946 48.433 63.0274 48.3632 62.9608C48.3471 62.9455 48.1907 62.8009 47.9629 62.8083C47.9181 62.8097 47.849 62.8127 47.7745 62.8525C47.6866 62.8993 47.6425 62.9697 47.6049 63.0314C47.5458 63.1285 47.5594 63.1583 47.4684 63.4364C47.461 63.4588 47.445 63.5073 47.4327 63.5743C47.4232 63.6255 47.4194 63.6686 47.4178 63.698C47.5664 63.698 48.1379 63.7212 48.2587 63.8095C48.3795 63.8978 48.4399 64.0464 48.4399 64.1951C48.4399 64.3438 48.5143 64.4135 48.5886 64.4088C48.655 64.4047 48.7869 64.2817 48.7582 64.1395Z" fill="#444B8C"/>
</g>
<path id="Vector_69" d="M41.8924 63.5354C42.0201 63.5374 42.1138 63.639 42.1844 63.8838C42.255 64.1287 42.5941 64.3454 42.1985 64.2936C41.8029 64.2417 41.5156 64.8022 41.3744 65.0094C41.2331 65.2166 40.8538 65.4007 40.8632 65.1982C40.8726 64.9957 41.04 64.9011 41.0871 64.6939C41.1342 64.4866 41.6012 63.5308 41.8924 63.5354Z" fill="#444B8C"/>
<path id="Vector_70" d="M48.6021 46.8513C48.696 46.5903 49.2819 44.8758 48.335 43.3123C47.5598 42.0324 46.2184 41.6148 46.0271 41.5583C44.8628 41.2145 44.2793 41.6562 43.912 41.2497C43.2886 40.5598 43.9947 38.2099 45.3606 37.7392C46.9003 37.2086 48.7473 39.2488 49.4958 40.5888C50.4777 42.3468 50.236 44.0941 50.1792 44.4539C50.0315 45.389 49.6882 46.1023 49.4339 46.5403C49.1566 46.6439 48.8794 46.7476 48.6021 46.8513Z" fill="url(#paint24_linear_19_1197)"/>
<path id="Vector_71" d="M44.5815 37.4075C43.2072 37.3525 42.1473 37.3743 41.5486 37.9726C40.9162 38.6045 41.5553 39.318 41.418 40.971C41.2078 43.5018 39.5951 44.1201 39.4738 46.6876C39.4328 47.5526 39.5792 48.2597 39.6929 48.6855C40.0469 49.1263 40.6261 49.7484 41.4811 50.2685C42.7251 51.0254 43.4466 50.8934 45.2332 51.3824C48.1557 52.1822 48.4157 53.1347 49.8648 52.892C51.3294 52.6467 52.6143 51.4143 52.4591 50.7375C52.3661 50.3321 51.7757 50.447 51.096 49.8287C50.2199 49.032 50.5578 48.2715 49.8917 47.4153C48.935 46.1854 47.6022 46.9372 46.7869 45.8714C45.9622 44.7932 46.2893 42.6686 46.9845 41.5105C47.4385 40.7541 47.633 39.8677 48.0194 39.0746C48.0515 39.0087 48.0887 38.9006 48.0723 38.7656C48.0096 38.249 47.1486 37.9689 46.4964 37.7633C45.5018 37.4498 44.6945 37.412 44.5815 37.4075Z" fill="url(#paint25_linear_19_1197)"/>
<path id="Vector_72" d="M43.4239 37.3507L43.695 37.2673C43.695 37.2673 43.7658 37.6342 44.6374 37.6801C45.1211 37.6801 45.4338 37.4091 45.4338 37.4091L45.619 37.5441C45.619 37.5441 45.2127 38.0516 44.5665 38.0387C43.7325 38.0221 43.4239 37.3507 43.4239 37.3507Z" fill="url(#paint26_linear_19_1197)"/>
<g id="Group_23">
<path id="Vector_73" d="M43.9758 36.2344C44.0281 35.8313 44.3467 35.5731 44.4162 35.5178C44.7073 35.2864 44.7665 35.2631 44.8665 35.2441L45.003 35.2234C45.003 35.2234 45.0104 35.2236 45.0179 35.2241C45.0979 35.2289 45.3374 35.3224 45.381 35.353C45.5201 35.4509 45.4177 36.1438 44.9959 37.0056C44.9793 37.0786 44.9627 37.1516 44.9461 37.2245C45.3137 37.2891 45.4048 37.3555 45.4077 37.4084C45.414 37.5231 45.0115 37.6695 44.6384 37.679C44.1706 37.6909 43.6739 37.4897 43.6834 37.3394C43.6872 37.2787 43.7755 37.2036 44.1151 37.13C44.1682 37.0553 44.2213 36.9807 44.2744 36.9061C44.2262 36.8477 43.9374 36.5313 43.9758 36.2344Z" fill="white"/>
<path id="Vector_74" d="M44.5541 36.0826C44.6602 36.0191 44.7411 36.1556 44.6911 36.2749C44.6411 36.3942 44.4732 36.4689 44.3713 36.3977C44.2694 36.3266 44.4113 36.168 44.5541 36.0826Z" fill="white"/>
<path id="Vector_75" d="M58.3072 36.0806C56.9105 34.5649 53.6607 34.9806 51.8582 36.1978C51.0206 36.7635 50.5907 37.4315 49.601 37.4876C48.8486 37.5303 47.6517 37.2474 47.0214 36.4323C46.942 36.3297 46.6244 35.899 46.1474 35.356C45.9372 35.1166 45.728 34.8919 45.4039 34.8411C45.3216 34.8282 45.0476 34.7836 44.8665 34.9605C44.7198 35.1038 44.6838 35.3531 44.7272 35.5327C44.7532 35.6402 44.7867 35.6515 44.7819 35.7218C44.7685 35.9194 44.4086 36.0055 44.4286 36.105C44.4429 36.1761 44.6302 36.15 44.6625 36.2393C44.6978 36.3371 44.4922 36.4213 44.4037 36.6672C44.2382 36.7781 44.1335 37.0539 44.0973 37.423C44.0441 37.9656 44.0986 38.4065 44.2015 38.7385C44.6964 40.3371 45.0505 41.4806 45.9074 42.1192C47.0419 42.9646 48.0635 42.184 50.9494 42.0606C54.9011 41.8916 55.8864 43.231 57.3066 42.3147C59.0801 41.1705 59.7573 37.6542 58.3072 36.0806Z" fill="url(#paint27_linear_19_1197)"/>
</g>
<path id="Vector_76" d="M37.58 32.987C37.5447 33.3176 37.4256 34.7803 38.4344 36.0153C39.3772 37.1692 40.7122 37.3998 40.9604 37.4373C42.1608 37.6186 42.6785 37.1013 43.0979 37.4538C43.8098 38.052 43.4315 40.4763 42.1429 41.1294C40.6902 41.8655 38.5816 40.097 37.657 38.8719C36.4439 37.2647 36.4444 35.5008 36.4514 35.1365C36.4698 34.19 36.7124 33.4365 36.9045 32.9679C36.9834 32.9441 37.1035 32.9178 37.2508 32.9229C37.3911 32.9278 37.5043 32.9594 37.58 32.987Z" fill="url(#paint28_linear_19_1197)"/>
<path id="Vector_77" opacity="0.25" d="M49.9088 51.9247C49.5574 51.5644 49.9442 50.8379 49.4251 50.2978C48.9434 49.7964 48.3979 50.2015 47.6223 49.7701C46.6275 49.2169 46.9017 48.204 45.9514 47.6595C45.2681 47.2679 44.947 47.6889 43.8848 47.4836C42.8244 47.2787 41.5328 46.5476 40.8948 45.2411C40.6237 44.686 40.5238 44.1341 40.5105 43.6408C40.0336 44.4929 39.5389 45.3095 39.4738 46.6875C39.4328 47.5526 39.5792 48.2597 39.6929 48.6855C40.0469 49.1263 40.6261 49.7483 41.4811 50.2684C42.7251 51.0253 43.4466 50.8934 45.2332 51.3824C48.1557 52.1822 48.4157 53.1347 49.8648 52.892C50.8008 52.7353 51.6614 52.1753 52.1216 51.6149C50.771 52.2161 50.1638 52.1862 49.9088 51.9247Z" fill="url(#paint29_linear_19_1197)"/>
</g>
</g>
</g>
</g>
<defs>
<linearGradient id="paint0_linear_19_1197" x1="35.4698" y1="55.5745" x2="35.5163" y2="58.596" gradientUnits="userSpaceOnUse">
<stop stop-color="#444B8C"/>
<stop offset="0.9964" stop-color="#26264F"/>
</linearGradient>
<linearGradient id="paint1_linear_19_1197" x1="34.9452" y1="61.5706" x2="39.7705" y2="46.9605" gradientUnits="userSpaceOnUse">
<stop stop-color="#444B8C"/>
<stop offset="0.9964" stop-color="#26264F"/>
</linearGradient>
<linearGradient id="paint2_linear_19_1197" x1="13.5547" y1="60.1727" x2="58.4037" y2="60.1727" gradientUnits="userSpaceOnUse">
<stop stop-color="#FF9085"/>
<stop offset="1" stop-color="#FB6FBB"/>
</linearGradient>
<linearGradient id="paint3_linear_19_1197" x1="20.6777" y1="61.4739" x2="21.4021" y2="61.562" gradientUnits="userSpaceOnUse">
<stop stop-color="#FF9085"/>
<stop offset="1" stop-color="#FB6FBB"/>
</linearGradient>
<linearGradient id="paint4_linear_19_1197" x1="34.4625" y1="62.9962" x2="34.5122" y2="64.2771" gradientUnits="userSpaceOnUse">
<stop stop-color="#444B8C"/>
<stop offset="0.9964" stop-color="#26264F"/>
</linearGradient>
<linearGradient id="paint5_linear_19_1197" x1="37.7329" y1="62.8695" x2="37.7826" y2="64.1503" gradientUnits="userSpaceOnUse">
<stop stop-color="#444B8C"/>
<stop offset="0.9964" stop-color="#26264F"/>
</linearGradient>
<linearGradient id="paint6_linear_19_1197" x1="41.8273" y1="62.7108" x2="41.8769" y2="63.9917" gradientUnits="userSpaceOnUse">
<stop stop-color="#444B8C"/>
<stop offset="0.9964" stop-color="#26264F"/>
</linearGradient>
<linearGradient id="paint7_linear_19_1197" x1="58.8792" y1="40.9738" x2="17.735" y2="40.9738" gradientUnits="userSpaceOnUse">
<stop offset="0.0036" stop-color="#E38DDD"/>
<stop offset="1" stop-color="#9571F6"/>
</linearGradient>
<linearGradient id="paint8_linear_19_1197" x1="44.0949" y1="38.0448" x2="30.8914" y2="6.35635" gradientUnits="userSpaceOnUse">
<stop stop-color="#FFC444"/>
<stop offset="0.9964" stop-color="#F36F56"/>
</linearGradient>
<linearGradient id="paint9_linear_19_1197" x1="20.4544" y1="26.173" x2="57.8227" y2="26.173" gradientUnits="userSpaceOnUse">
<stop stop-color="#FFC444"/>
<stop offset="0.9964" stop-color="#F36F56"/>
</linearGradient>
<linearGradient id="paint10_linear_19_1197" x1="16.2639" y1="5.41459" x2="15.9332" y2="82.7706" gradientUnits="userSpaceOnUse">
<stop stop-color="#AA80F9"/>
<stop offset="0.9964" stop-color="#6165D7"/>
</linearGradient>
<linearGradient id="paint11_linear_19_1197" x1="16.1099" y1="37.1255" x2="16.0639" y2="47.8867" gradientUnits="userSpaceOnUse">
<stop stop-color="#444B8C"/>
<stop offset="0.9964" stop-color="#26264F"/>
</linearGradient>
<linearGradient id="paint12_linear_19_1197" x1="15.0261" y1="5.53881" x2="14.6963" y2="82.694" gradientUnits="userSpaceOnUse">
<stop stop-color="#AA80F9"/>
<stop offset="0.9964" stop-color="#6165D7"/>
</linearGradient>
<linearGradient id="paint13_linear_19_1197" x1="29.7758" y1="31.286" x2="22.7861" y2="31.286" gradientUnits="userSpaceOnUse">
<stop stop-color="#444B8C"/>
<stop offset="0.9964" stop-color="#26264F"/>
</linearGradient>
<linearGradient id="paint14_linear_19_1197" x1="28.7958" y1="32.2935" x2="4.20929" y2="32.2935" gradientUnits="userSpaceOnUse">
<stop stop-color="#AA80F9"/>
<stop offset="0.9964" stop-color="#6165D7"/>
</linearGradient>
<linearGradient id="paint15_linear_19_1197" x1="11.9359" y1="33.2971" x2="27.1758" y2="33.2971" gradientUnits="userSpaceOnUse">
<stop stop-color="#444B8C"/>
<stop offset="0.9964" stop-color="#26264F"/>
</linearGradient>
<linearGradient id="paint16_linear_19_1197" x1="12.2332" y1="-35.8024" x2="11.7152" y2="85.393" gradientUnits="userSpaceOnUse">
<stop stop-color="#AA80F9"/>
<stop offset="0.9964" stop-color="#6165D7"/>
</linearGradient>
<linearGradient id="paint17_linear_19_1197" x1="9.38182" y1="33.0398" x2="2.39209" y2="33.0398" gradientUnits="userSpaceOnUse">
<stop stop-color="#444B8C"/>
<stop offset="0.9964" stop-color="#26264F"/>
</linearGradient>
<linearGradient id="paint18_linear_19_1197" x1="48.6585" y1="46.8452" x2="48.9761" y2="47.4984" gradientUnits="userSpaceOnUse">
<stop stop-color="#FFC444"/>
<stop offset="0.9964" stop-color="#F36F56"/>
</linearGradient>
<linearGradient id="paint19_linear_19_1197" x1="47.8498" y1="63.4788" x2="47.8498" y2="61.4297" gradientUnits="userSpaceOnUse">
<stop stop-color="#FFC444"/>
<stop offset="0.9964" stop-color="#F36F56"/>
</linearGradient>
<linearGradient id="paint20_linear_19_1197" x1="41.604" y1="64.0628" x2="41.604" y2="61.5932" gradientUnits="userSpaceOnUse">
<stop stop-color="#FFC444"/>
<stop offset="0.9964" stop-color="#F36F56"/>
</linearGradient>
<linearGradient id="paint21_linear_19_1197" x1="40.2224" y1="54.362" x2="48.3019" y2="54.362" gradientUnits="userSpaceOnUse">
<stop stop-color="#311944"/>
<stop offset="1" stop-color="#893976"/>
</linearGradient>
<linearGradient id="paint22_linear_19_1197" x1="39.9657" y1="48.3392" x2="45.7865" y2="58.1159" gradientUnits="userSpaceOnUse">
<stop stop-color="#311944"/>
<stop offset="1" stop-color="#893976"/>
</linearGradient>
<linearGradient id="paint23_linear_19_1197" x1="42.2572" y1="46.9749" x2="48.078" y2="56.7516" gradientUnits="userSpaceOnUse">
<stop stop-color="#311944"/>
<stop offset="1" stop-color="#893976"/>
</linearGradient>
<linearGradient id="paint24_linear_19_1197" x1="53.6635" y1="68.7116" x2="56.11" y2="78.5649" gradientUnits="userSpaceOnUse">
<stop offset="0.0036" stop-color="#E38DDD"/>
<stop offset="1" stop-color="#9571F6"/>
</linearGradient>
<linearGradient id="paint25_linear_19_1197" x1="47.1242" y1="53.2213" x2="43.1809" y2="40.0114" gradientUnits="userSpaceOnUse">
<stop offset="0.0036" stop-color="#E38DDD"/>
<stop offset="1" stop-color="#9571F6"/>
</linearGradient>
<linearGradient id="paint26_linear_19_1197" x1="43.7536" y1="36.2312" x2="44.9468" y2="38.1276" gradientUnits="userSpaceOnUse">
<stop offset="0.0036" stop-color="#E38DDD"/>
<stop offset="1" stop-color="#9571F6"/>
</linearGradient>
<linearGradient id="paint27_linear_19_1197" x1="44.3401" y1="26.8803" x2="55.3294" y2="44.347" gradientUnits="userSpaceOnUse">
<stop stop-color="#444B8C"/>
<stop offset="0.9964" stop-color="#26264F"/>
</linearGradient>
<linearGradient id="paint28_linear_19_1197" x1="44.944" y1="53.8722" x2="41.0007" y2="40.6622" gradientUnits="userSpaceOnUse">
<stop offset="0.0036" stop-color="#E38DDD"/>
<stop offset="1" stop-color="#9571F6"/>
</linearGradient>
<linearGradient id="paint29_linear_19_1197" x1="40.1329" y1="38.276" x2="46.3762" y2="51.1145" gradientUnits="userSpaceOnUse">
<stop stop-color="#FF9085"/>
<stop offset="1" stop-color="#FB6FBB"/>
</linearGradient>
</defs>
</svg>
