<svg width="61" height="61" viewBox="0 0 61 61" fill="none" xmlns="http://www.w3.org/2000/svg">
<g id="Illustration">
<g id="Acknowledgment_received">
<path id="Vector" d="M27.1109 0.0051944C19.2252 0.142769 7.02452 3.10402 3.5127 10.7139C2.28615 13.3718 2.3692 17.2792 2.53527 25.0939C2.58408 27.3908 2.66502 30.7387 3.23344 34.8926C4.41422 43.5216 5.21805 49.3959 8.26028 52.8164C15.8832 61.3872 43.4189 61.1395 55.1775 45.7093C61.5918 37.2921 62.5786 25.3182 56.7135 15.4224C50.256 4.52733 37.668 -0.179 27.1109 0.0051944Z" fill="#F4F7FA"/>
<g id="Group">
<g id="Group_2">
<g id="Clip path group">
<mask id="mask0_19_20" style="mask-type:luminance" maskUnits="userSpaceOnUse" x="2" y="23" width="34" height="36">
<g id="SVGID_00000127018625687863951250000007817494161444211609_">
<path id="Vector_2" d="M34.7145 55.5895L28.5173 58.9335C28.5173 58.9335 25.6139 56.4232 25.9068 53.3879C26.5045 47.1948 20.9709 47.11 18.6586 46.7321C15.1715 46.1621 12.3502 44.1578 15.2877 41.0373C18.2252 37.9169 11.5749 34.3669 5.80887 34.248C1.96991 34.1689 -1.08482 24.0327 9.35576 23.3026C16.663 22.7916 19.1333 29.4064 21.1849 32.4538C23.2365 35.5013 28.2008 33.1662 28.714 37.9645C29.1524 42.0631 27.8229 45.9415 31.1349 47.1348C34.4469 48.328 36.0818 50.7875 34.7145 55.5895Z" fill="white"/>
</g>
</mask>
<g mask="url(#mask0_19_20)">
<path id="Vector_3" d="M34.7146 55.5895L28.5173 58.9335C28.5173 58.9335 25.6139 56.4232 25.9068 53.3879C26.5045 47.1948 20.9709 47.11 18.6587 46.7321C15.1715 46.1621 12.7456 44.3034 14.8077 41.1359C17.1409 37.552 11.5749 34.3669 5.80888 34.248C0.166416 34.1317 -2.88006 24.1583 9.35577 23.3026C16.663 22.7916 19.1333 29.4064 21.1849 32.4538C23.2365 35.5013 28.2008 33.1662 28.714 37.9645C29.1524 42.0631 27.823 45.9415 31.1349 47.1348C34.4469 48.328 36.0818 50.7875 34.7146 55.5895Z" fill="url(#paint0_linear_19_20)"/>
</g>
</g>
<g id="Clip path group_2">
<mask id="mask1_19_20" style="mask-type:luminance" maskUnits="userSpaceOnUse" x="2" y="23" width="34" height="36">
<g id="SVGID_00000127018625687863951250000007817494161444211609__2">
<path id="Vector_4" d="M34.7145 55.5895L28.5173 58.9335C28.5173 58.9335 25.6139 56.4232 25.9068 53.3879C26.5045 47.1948 20.9709 47.11 18.6586 46.7321C15.1715 46.1621 12.3502 44.1578 15.2877 41.0373C18.2252 37.9169 11.5749 34.3669 5.80887 34.248C1.96991 34.1689 -1.08482 24.0327 9.35576 23.3026C16.663 22.7916 19.1333 29.4064 21.1849 32.4538C23.2365 35.5013 28.2008 33.1662 28.714 37.9645C29.1524 42.0631 27.8229 45.9415 31.1349 47.1348C34.4469 48.328 36.0818 50.7875 34.7145 55.5895Z" fill="white"/>
</g>
</mask>
<g mask="url(#mask1_19_20)">
<g id="Group_3" opacity="0.5">
<path id="Vector_5" d="M32.3466 57.6049L32.205 57.651C32.1761 57.5644 29.2474 48.9041 23.723 41.1833C18.6336 34.0705 10.2354 26.3229 -0.870826 29.8064L-0.915955 29.6661C4.02801 28.1154 8.85535 28.6227 13.4321 31.1741C17.0881 33.2121 20.592 36.5519 23.8465 41.1008C29.383 48.8395 32.3176 57.5181 32.3466 57.6049Z" fill="#BEB8F2"/>
<path id="Vector_6" d="M15.298 32.3217L15.1592 32.3758C13.3364 27.8178 8.33666 22.6438 8.28638 22.592L8.39388 22.49C8.44438 22.542 13.4644 27.737 15.298 32.3217Z" fill="#BEB8F2"/>
<path id="Vector_7" d="M12.2013 30.7043C6.29803 30.3707 2.90258 33.8914 2.869 33.927L2.75995 33.8267C2.79401 33.7905 6.23415 30.2197 12.2098 30.5573L12.2013 30.7043Z" fill="#BEB8F2"/>
<path id="Vector_8" d="M27.0562 46.4252C22.2234 41.1224 13.0076 44.1552 12.9203 44.1922L12.8528 44.0611C12.935 44.0168 22.2913 40.9768 27.167 46.3267L27.0562 46.4252Z" fill="#BEB8F2"/>
<path id="Vector_9" d="M25.6686 43.822L25.5259 43.8648C24.1858 39.5087 26.993 34.4991 27.0215 34.449L27.1515 34.5211C27.1233 34.5707 24.3471 39.5268 25.6686 43.822Z" fill="#BEB8F2"/>
<path id="Vector_10" d="M31.7138 56.2983C30.2135 54.0289 25.7472 54.001 25.7022 54.0009L25.7023 53.8537C25.889 53.8537 30.2941 53.8814 31.8387 56.2178L31.7138 56.2983Z" fill="#BEB8F2"/>
<path id="Vector_11" d="M31.0482 54.2382L30.9072 54.286C30.2021 52.2594 31.8969 48.6633 32.4538 47.4816C32.5325 47.3146 32.6004 47.1705 32.6075 47.1425L32.7527 47.1756C32.7434 47.2153 32.6986 47.3113 32.589 47.5438C32.0384 48.7121 30.3627 52.2676 31.0482 54.2382Z" fill="#BEB8F2"/>
</g>
</g>
</g>
</g>
<g id="Group_4">
<path id="Vector_12" d="M21.7283 31.7814C20.9286 33.1475 21.5024 34.569 22.0807 35.5333C22.2341 35.5404 22.3205 35.583 22.4731 35.6238C23.8505 35.9923 24.5176 35.8596 25.9333 36.0111C26.238 36.0437 27.1619 35.8707 27.5348 35.7761L28.2271 35.5888C28.2271 35.5888 29.664 32.2456 27.8395 31.2332C26.015 30.2207 26.9719 26.8746 27.2576 25.0402C27.433 23.9138 27.148 23.3431 27.1451 22.919C27.1154 18.4293 28.5519 17.1742 27.6341 15.7201C26.621 14.1149 24.5805 15.1851 23.3851 13.4964C22.0351 11.5895 23.7307 8.94465 22.045 7.42206C21.7559 7.16101 21.4518 6.90057 20.9588 6.72979C19.742 6.30829 18.7003 6.96759 17.8717 5.91806C16.2063 3.80841 13.3256 2.96013 11.4332 4.98678C9.5656 6.98695 11.3761 11.1901 16.3562 14.7095C19.6089 17.6111 19.6055 18.4407 19.1951 20.4447C18.9076 21.8484 17.1867 25.4661 19.172 27.0177C21.1574 28.5695 22.6426 30.2198 21.7283 31.7814Z" fill="url(#paint1_linear_19_20)"/>
<g id="Group_5">
<g id="Clip path group_3">
<mask id="mask2_19_20" style="mask-type:luminance" maskUnits="userSpaceOnUse" x="10" y="3" width="19" height="34">
<g id="SVGID_00000168831571561359620590000007514743376910163614_">
<path id="Vector_13" d="M22.9098 36.7114L28.1045 35.7077C28.1045 35.7077 29.6641 32.2459 27.8396 31.2334C26.0151 30.221 26.9719 26.8749 27.2577 25.0405C28.0329 20.0633 22.1218 20.2818 22.562 13.823C22.6791 12.1052 23.5281 8.85375 22.045 7.42236C20.3554 5.79161 18.9374 7.26811 17.8718 5.91833C16.2064 3.80871 13.3256 2.96045 11.4333 4.98708C9.56565 6.98727 11.3761 11.1904 16.3562 14.7098C19.609 17.6114 19.6055 18.441 19.1951 20.445C18.9076 21.8487 17.1867 25.4664 19.1721 27.0181C21.1574 28.5697 22.6426 30.22 21.7283 31.7817C20.3372 34.1579 22.9098 36.7114 22.9098 36.7114Z" fill="white"/>
</g>
</mask>
<g mask="url(#mask2_19_20)">
<g id="Group_6" opacity="0.5">
<path id="Vector_14" d="M25.1892 36.034L25.2938 36.0262C25.256 35.4552 25.2101 34.88 25.1575 34.3164C24.7677 30.1436 23.9664 26.1629 22.7758 22.4848C21.7669 19.3683 20.4651 16.4249 18.9065 13.7365C17.6531 11.5744 16.2275 9.56474 14.6694 7.76328C13.574 6.4969 12.425 5.34566 11.2542 4.34171C11.0502 4.1667 10.8306 3.9984 10.6183 3.83564C10.3354 3.6188 10.0429 3.39454 9.78492 3.15271L9.70929 3.22066C9.9708 3.46581 10.2653 3.69158 10.5501 3.90991C10.7614 4.07185 10.9798 4.23935 11.1817 4.41255C12.3489 5.41337 13.4945 6.56114 14.5867 7.82395C16.141 9.62094 17.5631 11.6259 18.8137 13.7829C20.3691 16.4658 21.6683 19.4033 22.6752 22.5139C23.8638 26.1857 24.6638 30.1601 25.053 34.3264C25.1056 34.8892 25.1514 35.4637 25.1892 36.034Z" fill="#FCFDFE"/>
<path id="Vector_15" d="M20.5607 17.1279L20.6582 17.0909C19.0087 13.2823 21.1608 6.4541 21.1828 6.38559L21.0822 6.36017C21.0602 6.42902 18.898 13.2888 20.5607 17.1279Z" fill="#FCFDFE"/>
<path id="Vector_16" d="M24.1482 28.1716L24.2496 28.1452C23.4615 25.4306 18.1475 23.1466 18.0939 23.1238L18.0483 23.2113C18.1014 23.2338 23.3725 25.4994 24.1482 28.1716Z" fill="#FCFDFE"/>
<path id="Vector_17" d="M24.4493 29.75L24.5538 29.7403C24.3911 27.9065 25.2397 25.3066 26.9432 22.4197C27.0288 22.2745 27.0288 22.2745 27.0275 22.2563L26.9229 22.2648L26.9752 22.2606L26.9255 22.2466C26.921 22.2569 26.8887 22.3117 26.8512 22.3752C25.138 25.2787 24.285 27.8977 24.4493 29.75Z" fill="#FCFDFE"/>
<path id="Vector_18" d="M25.104 34.9931L25.2017 34.9565C24.3985 33.0797 21.2685 32.2263 21.2371 32.2179L21.2059 32.3103C21.237 32.3185 24.3192 33.1593 25.104 34.9931Z" fill="#FCFDFE"/>
<path id="Vector_19" d="M25.3468 36.0478C25.8515 34.4687 26.8643 32.9619 28.4431 31.4412L28.3678 31.3756C26.7769 32.908 25.7558 34.4279 25.2462 36.0224L25.3468 36.0478Z" fill="#FCFDFE"/>
<path id="Vector_20" d="M15.4851 8.89908L15.5803 8.85719C14.5335 6.78885 13.9615 4.38387 13.7735 3.5936C13.728 3.40229 13.7118 3.33501 13.7017 3.31256L13.6047 3.35081C13.6122 3.36804 13.6382 3.47741 13.6711 3.61587C13.8596 4.40869 14.4335 6.82131 15.4851 8.89908Z" fill="#FCFDFE"/>
<path id="Vector_21" d="M17.7348 12.0212L17.8129 11.9557C16.246 10.3786 11.5527 10.239 11.3537 10.2338L11.3487 10.3299C11.397 10.3312 16.1971 10.4736 17.7348 12.0212Z" fill="#FCFDFE"/>
</g>
</g>
</g>
</g>
</g>
<g id="Group_7">
<path id="Vector_22" d="M25.2642 46.4885C25.6166 46.4028 24.9812 44.6283 25.7475 42.1759C25.939 41.5632 26.7485 38.1499 29.387 37.7537C29.8991 37.6768 30.4113 37.5998 30.9235 37.5229C31.232 36.3312 31.2993 35.1516 29.6875 34.8932C27.1845 34.4921 26.7134 30.4977 27.2345 29.0056C27.8795 27.1589 29.2881 22.8323 25.4305 22.1548C22.219 21.5906 20.0065 21.8453 19.4018 18.1184C18.7971 14.3914 16.3658 12.302 12.7498 12.9429C8.94452 13.6173 5.31327 9.21125 2.34013 11.1656C-2.84035 14.5712 2.96401 22.2711 9.85916 23.9033C16.7543 25.5355 13.1713 28.2134 13.3083 31.3044C13.3374 31.5907 13.405 32.0322 13.585 32.5384C14.6928 35.6547 18.14 35.8187 20.8668 38.162C24.5857 41.3577 24.6707 46.6329 25.2642 46.4885Z" fill="url(#paint2_linear_19_20)"/>
<g id="Group_8">
<g id="Clip path group_4">
<mask id="mask3_19_20" style="mask-type:luminance" maskUnits="userSpaceOnUse" x="0" y="10" width="32" height="30">
<g id="SVGID_00000152953388288717304790000016561615805213299384_">
<path id="Vector_23" d="M22.3941 39.4754L30.7319 38.4563C31.0946 37.2935 31.4878 35.1821 29.6874 34.8936C27.1843 34.4924 26.7132 30.498 27.2343 29.0059C27.8793 27.1592 29.2879 22.8326 25.4303 22.155C22.2189 21.5909 20.0064 21.8457 19.4017 18.1187C18.797 14.3918 16.3656 12.3023 12.7496 12.9432C8.94434 13.6176 5.3131 9.21151 2.33996 11.166C-2.84054 14.5715 2.96384 22.2714 9.85894 23.9036C16.7541 25.5358 13.1711 28.2136 13.3081 31.3047C13.495 35.5247 19.4634 33.9334 21.2339 35.3964C22.6219 36.5434 22.5725 38.3515 22.3941 39.4754Z" fill="white"/>
</g>
</mask>
<g mask="url(#mask3_19_20)">
<g id="Group_9" opacity="0.5">
<path id="Vector_24" d="M26.1833 37.7691L26.3569 37.7149C22.4543 25.9105 12.4099 16.0903 0.143354 12.0867L0.0797119 12.2478C12.2945 16.2345 22.2969 26.0138 26.1833 37.7691Z" fill="#FCFDFE"/>
<path id="Vector_25" d="M23.4627 31.5187L23.6434 31.4974C23.1251 26.6417 27.1671 22.3317 27.208 22.2888L27.0739 22.1772C27.0324 22.2207 22.9362 26.5864 23.4627 31.5187Z" fill="#FCFDFE"/>
<path id="Vector_26" d="M25.4017 35.6175L25.5522 35.5185C22.5896 31.4811 12.9573 31.9973 12.8604 32.003L12.867 32.173C12.9629 32.1674 22.4954 31.6569 25.4017 35.6175Z" fill="#FCFDFE"/>
<path id="Vector_27" d="M15.9201 21.7582L16.0788 21.6714C14.0341 18.2849 15.9466 12.4765 15.9662 12.4182L15.7931 12.3709C15.7732 12.4299 13.8376 18.3091 15.9201 21.7582Z" fill="#FCFDFE"/>
<path id="Vector_28" d="M9.54559 16.7367L9.62493 16.5815C5.32141 14.7301 -0.821383 16.7588 -0.882996 16.7796L-0.82564 16.9398C-0.764836 16.9192 5.30914 14.914 9.54559 16.7367Z" fill="#FCFDFE"/>
</g>
</g>
</g>
</g>
</g>
</g>
<g id="Group_10">
<g id="Clip path group_5">
<mask id="mask4_19_20" style="mask-type:luminance" maskUnits="userSpaceOnUse" x="30" y="30" width="29" height="27">
<g id="SVGID_00000001629229787915317080000006373630365516143008_">
<path id="Vector_29" d="M58.8567 30.3924H30.8564V56.9379H58.8567V30.3924Z" fill="white"/>
</g>
</mask>
<g mask="url(#mask4_19_20)">
<g id="Group_11">
<g id="Group_12">
<g id="Clip path group_6">
<mask id="mask5_19_20" style="mask-type:luminance" maskUnits="userSpaceOnUse" x="33" y="43" width="24" height="26">
<g id="SVGID_00000183239814528539722950000005131075627009875901_">
<path id="Vector_30" d="M33.4928 65.9011L37.697 68.1697C37.697 68.1697 39.6667 66.4667 39.468 64.4076C39.0625 60.2063 42.8164 60.1487 44.3851 59.8923C46.7507 59.5057 48.6647 58.1459 46.6719 56.029C44.6791 53.9122 49.1906 51.5039 53.1022 51.4232C56.9301 51.3443 58.9968 44.5784 50.6961 43.9979C45.7389 43.6513 44.063 48.1387 42.6713 50.2061C41.2795 52.2734 37.9117 50.6893 37.5635 53.9445C37.2662 56.7249 38.1681 59.356 35.9212 60.1655C33.6744 60.975 32.5653 62.6435 33.4928 65.9011Z" fill="white"/>
</g>
</mask>
<g mask="url(#mask5_19_20)">
<path id="Vector_31" d="M33.4928 65.9011L37.697 68.1697C37.697 68.1697 39.6667 66.4667 39.468 64.4076C39.0625 60.2063 42.8164 60.1487 44.3851 59.8923C46.7507 59.5057 48.3964 58.2447 46.9975 56.0959C45.4147 53.6646 49.1906 51.5039 53.1022 51.4232C56.9301 51.3443 58.9968 44.5784 50.6961 43.9979C45.7389 43.6513 44.063 48.1387 42.6713 50.2061C41.2795 52.2734 37.9117 50.6893 37.5635 53.9445C37.2662 56.7249 38.1681 59.356 35.9212 60.1655C33.6744 60.975 32.5653 62.6435 33.4928 65.9011Z" fill="url(#paint3_linear_19_20)"/>
</g>
</g>
<g id="Clip path group_7">
<mask id="mask6_19_20" style="mask-type:luminance" maskUnits="userSpaceOnUse" x="33" y="43" width="24" height="26">
<g id="SVGID_00000183239814528539722950000005131075627009875901__2">
<path id="Vector_32" d="M33.4928 65.9011L37.697 68.1697C37.697 68.1697 39.6667 66.4667 39.468 64.4076C39.0625 60.2063 42.8164 60.1487 44.3851 59.8923C46.7507 59.5057 48.6647 58.1459 46.6719 56.029C44.6791 53.9122 49.1906 51.5039 53.1022 51.4232C56.9301 51.3443 58.9968 44.5784 50.6961 43.9979C45.7389 43.6513 44.063 48.1387 42.6713 50.2061C41.2795 52.2734 37.9117 50.6893 37.5635 53.9445C37.2662 56.7249 38.1681 59.356 35.9212 60.1655C33.6744 60.975 32.5653 62.6435 33.4928 65.9011Z" fill="white"/>
</g>
</mask>
<g mask="url(#mask6_19_20)">
<g id="Group_13" opacity="0.5">
<path id="Vector_33" d="M35.0992 67.2684L35.1953 67.2997C35.2149 67.2409 37.2017 61.3658 40.9495 56.1281C44.4021 51.3028 50.0993 46.0469 57.6337 48.4101L57.6643 48.3148C54.3104 47.2629 51.0355 47.6071 47.9307 49.3378C45.4505 50.7204 43.0735 52.9862 40.8657 56.0721C37.1097 61.3219 35.119 67.2095 35.0992 67.2684Z" fill="#BEB8F2"/>
<path id="Vector_34" d="M46.6649 50.1165L46.759 50.1532C47.9956 47.061 51.3874 43.551 51.4215 43.5159L51.3486 43.4467C51.3143 43.482 47.9088 47.0062 46.6649 50.1165Z" fill="#BEB8F2"/>
<path id="Vector_35" d="M48.7656 49.0193C52.7704 48.793 55.0738 51.1814 55.0966 51.2055L55.1706 51.1374C55.1475 51.1129 52.8137 48.6905 48.7599 48.9195L48.7656 49.0193Z" fill="#BEB8F2"/>
<path id="Vector_36" d="M38.6882 59.6842C41.9668 56.0868 48.2187 58.1442 48.2779 58.1693L48.3237 58.0804C48.268 58.0503 41.9207 55.988 38.613 59.6173L38.6882 59.6842Z" fill="#BEB8F2"/>
<path id="Vector_37" d="M39.6296 57.9182L39.7264 57.9472C40.6355 54.9921 38.7311 51.5936 38.7118 51.5596L38.6236 51.6085C38.6427 51.6422 40.526 55.0043 39.6296 57.9182Z" fill="#BEB8F2"/>
</g>
</g>
</g>
</g>
<g id="Group_14">
<path id="Vector_38" d="M42.3026 49.7499C42.8451 50.6766 42.4559 51.6409 42.0635 52.2952C41.9595 52.2999 41.9008 52.3289 41.7973 52.3566C40.8629 52.6065 40.4103 52.5165 39.4499 52.6193C39.2432 52.6414 38.6165 52.524 38.3635 52.4599L37.8938 52.3328C37.8938 52.3328 36.919 50.0648 38.1567 49.378C39.3945 48.6912 38.7453 46.4211 38.5515 45.1767C38.4325 44.4126 38.6259 44.0254 38.6278 43.7377C38.648 40.6919 37.6735 39.8404 38.2961 38.854C38.9834 37.765 40.3676 38.491 41.1787 37.3454C42.0944 36.0518 40.9442 34.2576 42.0878 33.2247C42.2839 33.0476 42.4902 32.8709 42.8246 32.7551C43.6501 32.4691 44.3567 32.9164 44.9189 32.2044C46.0487 30.7732 48.0029 30.1977 49.2867 31.5726C50.5537 32.9295 49.3255 35.7809 45.947 38.1684C43.7404 40.1369 43.7427 40.6996 44.0211 42.0591C44.2161 43.0114 45.3836 45.4656 44.0368 46.5183C42.6899 47.5709 41.6823 48.6905 42.3026 49.7499Z" fill="url(#paint4_linear_19_20)"/>
<g id="Group_15">
<g id="Clip path group_8">
<mask id="mask7_19_20" style="mask-type:luminance" maskUnits="userSpaceOnUse" x="37" y="30" width="13" height="24">
<g id="SVGID_00000155841052363655966130000002075098638716380338_">
<path id="Vector_39" d="M41.5011 53.0942L37.977 52.4133C37.977 52.4133 36.919 50.0648 38.1568 49.3779C39.3945 48.6911 38.7453 46.4211 38.5515 45.1767C38.0256 41.8002 42.0357 41.9484 41.737 37.5668C41.6576 36.4015 41.0816 34.1957 42.0878 33.2247C43.234 32.1184 44.1959 33.12 44.9188 32.2044C46.0486 30.7732 48.0029 30.1978 49.2867 31.5726C50.5537 32.9295 49.3254 35.7809 45.947 38.1684C43.7403 40.1369 43.7427 40.6996 44.0211 42.0591C44.2161 43.0114 45.3836 45.4656 44.0367 46.5182C42.6899 47.5709 41.6823 48.6904 42.3026 49.7498C43.2463 51.3619 41.5011 53.0942 41.5011 53.0942Z" fill="white"/>
</g>
</mask>
<g mask="url(#mask7_19_20)">
<g id="Group_16" opacity="0.5">
<path id="Vector_40" d="M39.9548 52.6348L39.8839 52.6295C39.9095 52.2422 39.9406 51.8519 39.9763 51.4696C40.2408 48.6388 40.7843 45.9383 41.5921 43.4431C42.2765 41.3289 43.1596 39.3321 44.217 37.5083C45.0673 36.0416 46.0343 34.6782 47.0914 33.4561C47.8344 32.597 48.6139 31.816 49.4082 31.135C49.5466 31.0162 49.6955 30.9021 49.8396 30.7917C50.0315 30.6446 50.2299 30.4924 50.4049 30.3284L50.4563 30.3745C50.2788 30.5408 50.0791 30.6939 49.8859 30.8421C49.7425 30.9519 49.5944 31.0655 49.4574 31.183C48.6655 31.862 47.8884 32.6406 47.1474 33.4973C46.093 34.7164 45.1283 36.0765 44.2799 37.5398C43.2247 39.3599 42.3434 41.3527 41.6603 43.4628C40.8539 45.9538 40.3112 48.65 40.0472 51.4764C40.0115 51.8582 39.9804 52.2479 39.9548 52.6348Z" fill="#FCFDFE"/>
<path id="Vector_41" d="M43.0947 39.809L43.0285 39.7839C44.1475 37.2002 42.6876 32.568 42.6727 32.5215L42.7409 32.5043C42.7559 32.551 44.2227 37.2046 43.0947 39.809Z" fill="#FCFDFE"/>
<path id="Vector_42" d="M40.661 47.3011L40.5922 47.2832C41.1268 45.4416 44.7318 43.8921 44.7682 43.8767L44.7991 43.936C44.7631 43.9513 41.1872 45.4883 40.661 47.3011Z" fill="#FCFDFE"/>
<path id="Vector_43" d="M40.4567 48.3718L40.3858 48.3652C40.4962 47.1212 39.9205 45.3575 38.7649 43.399C38.7068 43.3005 38.7068 43.3005 38.7077 43.2881L38.7786 43.2939L38.7432 43.291L38.7768 43.2816C38.7799 43.2885 38.8018 43.3257 38.8273 43.3688C39.9895 45.3385 40.5682 47.1152 40.4567 48.3718Z" fill="#FCFDFE"/>
<path id="Vector_44" d="M40.0125 51.9287L39.9463 51.9039C40.4912 50.6306 42.6145 50.0517 42.6359 50.046L42.657 50.1087C42.6359 50.1143 40.5449 50.6847 40.0125 51.9287Z" fill="#FCFDFE"/>
<path id="Vector_45" d="M39.8478 52.6442C39.5055 51.5729 38.8184 50.5507 37.7473 49.5191L37.7984 49.4746C38.8777 50.5141 39.5704 51.5453 39.9161 52.627L39.8478 52.6442Z" fill="#FCFDFE"/>
<path id="Vector_46" d="M46.538 34.2267L46.4734 34.1983C47.1835 32.7951 47.5716 31.1636 47.6991 30.6275C47.7299 30.4977 47.741 30.4521 47.7479 30.4368L47.8136 30.4628C47.8086 30.4745 47.7909 30.5487 47.7686 30.6426C47.6407 31.1804 47.2514 32.8171 46.538 34.2267Z" fill="#FCFDFE"/>
<path id="Vector_47" d="M45.0118 36.3448L44.9588 36.3003C46.0218 35.2304 49.2056 35.1357 49.3407 35.1322L49.3441 35.1974C49.3113 35.1983 46.0549 35.2949 45.0118 36.3448Z" fill="#FCFDFE"/>
</g>
</g>
</g>
</g>
</g>
<g id="Group_17">
<path id="Vector_48" d="M39.904 59.7273C39.6649 59.6692 40.096 58.4654 39.5761 56.8017C39.4462 56.3861 38.897 54.0705 37.1071 53.8017C36.7597 53.7495 36.4122 53.6973 36.0648 53.6451C35.8555 52.8367 35.8098 52.0364 36.9032 51.8612C38.6013 51.5891 38.9209 48.8793 38.5673 47.8671C38.1298 46.6143 37.1742 43.6792 39.7912 43.2195C41.9698 42.8368 43.4707 43.0096 43.881 40.4813C44.2912 37.9529 45.9406 36.5355 48.3936 36.9702C50.9751 37.4277 53.4385 34.4387 55.4555 35.7646C58.9699 38.0749 55.0323 43.2984 50.3547 44.4057C45.6771 45.513 48.1077 47.3296 48.0148 49.4266C47.995 49.6208 47.9491 49.9203 47.8271 50.2637C47.0756 52.3778 44.737 52.4891 42.8871 54.0787C40.3643 56.2466 40.3067 59.8253 39.904 59.7273Z" fill="url(#paint5_linear_19_20)"/>
<g id="Group_18">
<g id="Clip path group_9">
<mask id="mask8_19_20" style="mask-type:luminance" maskUnits="userSpaceOnUse" x="35" y="35" width="22" height="20">
<g id="SVGID_00000005254900925471953400000002292106811566906525_">
<path id="Vector_49" d="M41.851 54.9692L36.1946 54.2779C35.9486 53.4891 35.6819 52.0567 36.9032 51.861C38.6013 51.5888 38.9209 48.879 38.5673 47.8668C38.1298 46.614 37.1742 43.6789 39.7912 43.2192C41.9698 42.8366 43.4707 43.0094 43.881 40.481C44.2912 37.9527 45.9406 36.5352 48.3937 36.97C50.9751 37.4275 53.4385 34.4385 55.4555 35.7643C58.9699 38.0746 55.0323 43.2981 50.3547 44.4054C45.6771 45.5127 48.1077 47.3294 48.0148 49.4263C47.888 52.2891 43.8391 51.2096 42.638 52.2021C41.6964 52.9802 41.7299 54.2068 41.851 54.9692Z" fill="white"/>
</g>
</mask>
<g mask="url(#mask8_19_20)">
<g id="Group_19" opacity="0.5">
<path id="Vector_50" d="M39.2804 53.8119L39.1626 53.7751C41.8101 45.7671 48.6242 39.1052 56.9457 36.3892L56.9889 36.4984C48.7024 39.203 41.9169 45.8371 39.2804 53.8119Z" fill="#FCFDFE"/>
<path id="Vector_51" d="M41.126 49.5717L41.0034 49.5572C41.3551 46.2631 38.613 43.3393 38.5852 43.3101L38.6762 43.2344C38.7043 43.2639 41.4832 46.2256 41.126 49.5717Z" fill="#FCFDFE"/>
<path id="Vector_52" d="M39.8106 52.3522L39.7085 52.2851C41.7183 49.5461 48.2528 49.8963 48.3186 49.9002L48.3141 50.0155C48.249 50.0117 41.7822 49.6654 39.8106 52.3522Z" fill="#FCFDFE"/>
<path id="Vector_53" d="M46.2429 42.9501L46.1352 42.8913C47.5223 40.5939 46.2249 36.6535 46.2116 36.614L46.329 36.5819C46.3425 36.6219 47.6556 40.6103 46.2429 42.9501Z" fill="#FCFDFE"/>
<path id="Vector_54" d="M50.5673 39.5436L50.5135 39.4383C53.4329 38.1823 57.6002 39.5586 57.642 39.5727L57.6031 39.6814C57.5618 39.6674 53.4412 38.3071 50.5673 39.5436Z" fill="#FCFDFE"/>
</g>
</g>
</g>
</g>
</g>
</g>
</g>
</g>
</g>
<g id="Group_20">
<g id="Group_21">
<g id="Group_22">
<g id="Group_23">
<path id="Vector_55" d="M56.7397 56.8308L12.8406 56.456V57.5649C12.8406 57.8659 13.0321 58.1218 13.2914 58.1674L25.7048 60.351C25.8521 60.3769 26.0015 60.3838 26.1501 60.3715L56.2627 57.8818C56.5315 57.8596 56.7397 57.6029 56.7397 57.2936V56.8308Z" fill="#BFC8D6"/>
<g id="Group_24">
<path id="Vector_56" d="M40.5848 55.0537L12.6833 57.0823C12.1841 57.1186 11.7781 56.7329 11.7781 56.2207V35.6998C11.7781 35.1876 12.1841 34.7723 12.6833 34.7723H40.5848C40.9961 34.7723 41.3287 35.1477 41.3287 35.6107V54.1612C41.3287 54.6243 40.9961 55.0238 40.5848 55.0537Z" fill="#BFC8D6"/>
<path id="Vector_57" d="M41.0297 55.0537L13.1283 57.0823C12.629 57.1186 12.223 56.7329 12.223 56.2207V35.6998C12.223 35.1876 12.629 34.7723 13.1283 34.7723H41.0297C41.441 34.7723 41.7736 35.1477 41.7736 35.6107V54.1612C41.7736 54.6243 41.441 55.0238 41.0297 55.0537Z" fill="white"/>
<path id="Vector_58" d="M40.1605 53.7459L14.1733 55.508C13.767 55.5355 13.4368 55.2189 13.4368 54.8008V36.8347C13.4368 36.4166 13.7669 36.0762 14.1733 36.0744L40.1605 35.9638C40.4998 35.9624 40.7743 36.2699 40.7743 36.6508V53.0147C40.7743 53.3955 40.4998 53.7229 40.1605 53.7459Z" fill="url(#paint6_linear_19_20)"/>
<path id="Vector_59" d="M28.0644 35.3337C28.0644 35.5243 27.9208 35.6794 27.7434 35.6799C27.5659 35.6805 27.4218 35.526 27.4218 35.3349C27.4218 35.1438 27.5659 34.9888 27.7434 34.9886C27.9208 34.9885 28.0644 35.143 28.0644 35.3337Z" fill="white"/>
<path id="Vector_60" opacity="0.48" d="M13.1282 57.0823L40.8884 55.064L41.0297 55.0537C41.2184 55.04 41.39 54.9479 41.5211 54.8081C39.5234 54.7001 38.2826 53.9999 37.4822 53.2765C35.8749 51.8236 36.1537 50.3908 34.4203 49.4356C32.2584 48.2441 30.5585 49.7539 28.9179 48.2643C27.9233 47.3612 28.4116 46.6877 27.1877 45.3382C25.8322 43.8434 24.9497 44.3459 23.5874 43.0006C21.8649 41.2996 22.7264 39.9761 21.2427 38.7549C19.4427 37.2733 17.5016 38.6446 15.7881 37.2237C15.0491 36.6108 14.6436 35.7199 14.4319 34.7723H13.1283C12.629 34.7723 12.223 35.1876 12.223 35.6998V56.2207C12.223 56.7328 12.6289 57.1185 13.1282 57.0823Z" fill="white"/>
</g>
<path id="Vector_61" d="M42.3443 54.9412L12.8406 57.0765L25.7048 59.3393C25.8521 59.3652 26.0015 59.3721 26.1501 59.3598L56.7397 56.8307L42.8136 54.9557C42.6579 54.9347 42.5008 54.9299 42.3443 54.9412Z" fill="url(#paint7_linear_19_20)"/>
<path id="Vector_62" d="M17.1457 57.0948L41.7084 55.2906L49.3103 56.3059L24.9592 58.2345L17.1457 57.0948Z" fill="#D8DEE8"/>
</g>
</g>
</g>
<g id="Group_25">
<g id="Clip path group_10">
<mask id="mask9_19_20" style="mask-type:luminance" maskUnits="userSpaceOnUse" x="0" y="15" width="49" height="42">
<g id="SVGID_00000124872563788404371090000013842189428483293572_">
<path id="Vector_63" d="M47.6182 35.1029L34.4194 39.1396C34.4194 39.1396 34.7888 24.9665 34.7592 25.3367C34.7297 25.7068 16.3268 13.5376 9.19769 15.939C2.06864 18.3404 -5.22621 34.3454 5.21866 41.8993C15.6636 49.4531 18.2725 41.4286 16.3878 56.2483L38.8318 54.7387L48.0133 42.9642L47.6182 35.1029Z" fill="white"/>
</g>
</mask>
<g mask="url(#mask9_19_20)">
<g id="Group_26">
<path id="Vector_64" d="M42.4219 39.22C42.4219 39.22 42.8345 38.7328 43.6086 38.7097C44.3826 38.6867 45.4374 38.233 45.8903 38.1931C45.9996 38.1835 46.0538 38.1525 46.0631 38.1131C46.0822 38.032 45.5794 37.9137 45.1333 37.8991C44.3424 37.8731 43.8811 38.1728 43.7745 38.0187C43.6552 37.8465 44.1657 37.3764 44.0722 37.2711C43.9997 37.1895 43.6527 37.4515 43.2811 37.6113C43.0174 37.7247 41.986 38.9428 41.986 38.9428L42.4219 39.22Z" fill="url(#paint8_linear_19_20)"/>
<path id="Vector_65" d="M42.4471 38.3356C42.639 38.7181 42.8309 39.1006 43.0228 39.4832C42.833 40.5131 42.4461 42.0341 41.581 43.701C40.65 45.4948 38.5277 49.5838 34.7911 49.9548C31.9413 50.2378 29.5506 48.2226 28.6456 47.4515C27.8086 46.7383 27.0577 46.1093 26.6932 45.106C26.1182 43.5235 26.6987 41.5723 28.0915 39.7349C28.7772 38.8304 30.2039 39.0252 30.6092 40.0818C31.2486 41.7489 32.3269 42.9068 33.5658 43.133C34.9588 43.3874 36.51 42.4555 37.1702 42.0596C38.152 41.471 38.4023 41.0183 39.6235 40.0858C40.7525 39.2237 41.7754 38.6662 42.4471 38.3356Z" fill="url(#paint9_linear_19_20)"/>
<g id="Group_27" opacity="0.3">
<path id="Vector_66" d="M31.1031 46.9129C32.1703 46.6756 32.5732 45.6968 34.0361 45.609C35.8861 45.4981 36.6809 46.9769 37.8642 46.5869C38.83 46.2686 38.9905 45.056 39.6639 43.4951C40.1862 42.2843 41.0921 40.6916 42.7807 39.0005C42.8614 39.1614 42.9421 39.3223 43.0228 39.4832C42.833 40.5131 42.4461 42.0342 41.581 43.701C40.65 45.4948 38.5278 49.5838 34.7911 49.9549C31.9413 50.2378 29.5506 48.2226 28.6456 47.4515C27.8086 46.7383 27.0578 46.1093 26.6932 45.106C26.5924 44.8284 26.5273 44.5393 26.4957 44.2416C28.7024 46.7299 30.145 47.1259 31.1031 46.9129Z" fill="url(#paint10_linear_19_20)"/>
</g>
<path id="Vector_67" d="M17.5819 53.9225C17.5593 52.8323 17.5001 46.8168 20.4489 42.491C21.1248 41.4995 22.3207 39.7451 24.6167 38.5844C25.5118 38.1319 26.3189 37.8986 26.8732 37.7716C27.528 37.8677 28.1829 37.9639 28.8377 38.06C29.4644 38.6241 30.3158 39.5088 31.0676 40.7606C31.5436 41.5532 32.3314 42.865 32.5138 44.5583C32.7265 46.5317 31.9323 47.3095 31.28 50.3829C30.9262 52.0498 30.8146 53.4475 30.7756 54.3682C28.5103 54.5605 26.2449 54.7528 23.9796 54.945C23.9438 53.8845 23.8497 52.7051 23.661 51.4317C23.4658 50.1139 23.2027 48.9203 22.9177 47.8659C22.6132 49.064 22.3451 50.4634 22.201 52.0347C22.1013 53.1222 22.0755 54.1328 22.0948 55.0499C21.8196 55.157 20.27 55.7306 18.7765 54.945C18.1931 54.6382 17.8109 54.2254 17.5819 53.9225Z" fill="url(#paint11_linear_19_20)"/>
<path id="Vector_68" d="M28.4745 34.0853C29.5278 32.4632 30.0545 31.6521 30.0769 30.8264C30.1257 29.022 28.7312 27.4478 27.4404 26.6981C25.6289 25.6461 23.6048 25.9761 22.3238 26.1849C20.678 26.4532 20.6994 26.8495 19.8662 26.7751C17.5633 26.5695 17.3086 23.5335 14.716 21.9792C11.8553 20.2643 8.17393 21.5675 7.25643 21.9331C2.36748 23.8812 1.22027 28.9859 1.11174 29.5108C0.10603 34.374 2.873 38.9529 6.22793 41.0193C7.18724 41.6101 9.64145 43.1217 11.6137 42.2542C13.5128 41.4188 13.3525 39.0865 15.9682 37.8488C16.3336 37.6759 17.441 37.1519 18.8708 37.2242C20.4854 37.3058 20.987 38.0709 22.6906 38.1023C24.0719 38.1277 25.1064 37.6498 25.3123 37.5514C26.6074 36.9324 27.2476 35.9747 28.4745 34.0853Z" fill="url(#paint12_linear_19_20)"/>
<g id="Group_28" opacity="0.3">
<path id="Vector_69" d="M0.836852 31.0162C1.9493 35.7498 3.04512 37.2142 4.00221 37.2573C5.34135 37.3177 6.08901 34.582 8.13731 34.5516C9.97966 34.5242 10.5162 36.7204 12.1956 36.6609C14.3184 36.5858 14.5043 33.0398 16.8605 32.4409C19.6648 31.728 21.6348 36.1834 24.9526 35.9395C25.9575 35.8656 27.1937 35.3515 28.5583 33.7073C28.5173 33.7735 28.4757 33.8406 28.4329 33.9097C27.2465 35.8241 26.6268 36.795 25.3452 37.4406C25.1415 37.5433 24.1173 38.0426 22.7358 38.0459C21.0319 38.0499 20.5142 37.2954 18.8982 37.2473C17.4672 37.2047 16.3712 37.7515 16.0095 37.932C13.4208 39.2237 13.6307 41.5521 11.7497 42.4268C9.79641 43.3351 7.31056 41.8748 6.33889 41.304C3.20033 39.4603 0.517895 35.4633 0.836852 31.0162Z" fill="url(#paint13_linear_19_20)"/>
</g>
<path id="Vector_70" d="M28.5132 34.8531C28.5132 34.8531 28.5683 36.2543 28.5132 37.1948C28.4728 37.8834 29.0757 38.2756 29.0757 38.2756C29.0757 38.2756 29.4067 38.8359 27.6165 38.9295C25.8262 39.0231 24.0842 38.9295 24.0842 38.9295C24.0842 38.9295 25.8345 37.7797 26.2344 37.4741C26.6342 37.1686 26.8488 34.8842 26.5928 33.4374L28.5132 34.8531Z" fill="url(#paint14_linear_19_20)"/>
<path id="Vector_71" d="M28.9714 30.3319C28.9714 30.3319 29.8826 32.5016 29.8778 33.8126C29.8729 35.1235 28.9448 35.876 28.2408 35.5522C27.5368 35.2284 26.4762 33.865 26.4762 33.865C26.4762 33.865 26.3337 34.2321 25.7938 33.865C25.2538 33.498 24.8528 31.4367 25.9028 32.0216C25.9028 32.0216 25.7366 31.4439 25.9955 30.6059C26.2543 29.7679 28.6644 28.8634 28.9714 30.3319Z" fill="url(#paint15_linear_19_20)"/>
<g id="Group_29" opacity="0.3">
<path id="Vector_72" d="M21.4045 51.1379C22.1942 49.914 20.9901 48.8529 21.5016 46.9157C21.9381 45.2627 23.3596 43.9723 23.882 44.1809C24.6039 44.4691 23.1855 47.4497 24.6107 48.8349C25.5568 49.7544 26.79 49.032 28.0598 49.8425C28.8971 50.3769 29.7385 51.5713 29.8042 54.4507C27.8626 54.6155 25.9211 54.7803 23.9796 54.9451C23.9438 53.8846 23.8497 52.7051 23.661 51.4318C23.4658 50.1139 23.2026 48.9203 22.9177 47.866C22.6132 49.0641 22.3451 50.4635 22.201 52.0348C22.1012 53.1223 22.0755 54.1329 22.0948 55.05C21.8196 55.1571 20.27 55.7307 18.7765 54.9451C18.6931 54.9012 18.6142 54.855 18.5389 54.8075C18.5772 54.1723 18.7421 53.4466 19.2184 52.8171C19.9926 51.7941 20.8332 52.0234 21.4045 51.1379Z" fill="url(#paint16_linear_19_20)"/>
</g>
<path id="Vector_73" d="M27.4683 34.9555C26.1931 34.9555 25.7128 33.1507 25.7077 33.131C25.6957 33.0841 25.7244 33.0364 25.7719 33.0245C25.8192 33.0126 25.8677 33.0409 25.8798 33.0878C25.8849 33.1074 26.4019 35.0474 27.7505 34.748C27.7984 34.7376 27.8459 34.7671 27.8566 34.8143C27.8673 34.8615 27.8373 34.9085 27.7894 34.9191C27.6772 34.9439 27.5702 34.9555 27.4683 34.9555Z" fill="white"/>
<path id="Vector_74" d="M28.2152 35.0184C28.4603 34.9554 28.6307 34.7968 28.5957 34.664C28.5608 34.5312 28.3337 34.4746 28.0886 34.5376C27.8435 34.6006 27.6731 34.7592 27.7081 34.892C27.743 35.0248 27.9701 35.0813 28.2152 35.0184Z" fill="white"/>
<path id="Vector_75" d="M25.8098 33.4888C26.0389 33.4299 26.1472 33.0887 26.0519 32.7266C25.9565 32.3645 25.6936 32.1187 25.4645 32.1775C25.2355 32.2363 25.1272 32.5775 25.2225 32.9396C25.3179 33.3017 25.5808 33.5476 25.8098 33.4888Z" fill="white"/>
<path id="Vector_76" d="M25.4195 32.4764C25.4195 32.4764 25.4088 32.451 25.3888 32.4034C25.3699 32.3561 25.3433 32.2865 25.3127 32.1972C25.2528 32.0184 25.1758 31.7597 25.1239 31.4406C25.0709 31.1225 25.0455 30.7414 25.1008 30.3383C25.128 30.137 25.1784 29.931 25.2572 29.7314C25.3352 29.5317 25.441 29.3388 25.5708 29.1631C25.699 28.9857 25.8585 28.8334 26.0245 28.6981C26.0671 28.6654 26.1095 28.6329 26.1517 28.6005C26.1962 28.5714 26.2405 28.5426 26.2845 28.5139L26.3504 28.4711L26.4187 28.4335C26.4641 28.4087 26.5092 28.3841 26.554 28.3596C26.6023 28.3341 26.6453 28.3165 26.6909 28.2951C26.739 28.2772 26.7863 28.2566 26.8337 28.2417C26.9282 28.211 27.0224 28.1854 27.1158 28.1698C27.3021 28.1361 27.4831 28.131 27.6468 28.1458C27.6863 28.148 27.7269 28.1539 27.7668 28.1605C27.8065 28.1664 27.8453 28.1722 27.8817 28.1822C27.9183 28.1916 27.9546 28.1983 27.9887 28.2094C28.0227 28.221 28.0557 28.2322 28.0877 28.2431C28.1202 28.2525 28.1487 28.2696 28.1778 28.2818C28.2061 28.2957 28.2348 28.3065 28.2599 28.3217C28.3093 28.3532 28.3573 28.3782 28.3957 28.408C28.4336 28.4383 28.4674 28.4654 28.4969 28.489C28.5244 28.5145 28.5455 28.5387 28.5638 28.5571C28.5996 28.5946 28.6187 28.6146 28.6187 28.6146C28.6366 28.6334 28.6358 28.6629 28.6168 28.6805C28.598 28.6981 28.5684 28.6974 28.5505 28.6791L28.5461 28.6746C28.5461 28.6746 28.5282 28.6564 28.4946 28.6221C28.4775 28.6053 28.4579 28.583 28.4323 28.5597C28.4049 28.5383 28.3734 28.5136 28.3382 28.486C28.3026 28.4589 28.2578 28.4365 28.2122 28.4077C28.189 28.3939 28.1621 28.3843 28.1358 28.3717C28.1087 28.3607 28.0825 28.345 28.0519 28.3367C28.0221 28.3268 27.9913 28.3167 27.9595 28.3062C27.9277 28.2961 27.8935 28.2903 27.8592 28.2818C27.8248 28.2727 27.7892 28.2678 27.7528 28.2628C27.7167 28.2571 27.6794 28.2518 27.6385 28.2499C27.4822 28.2374 27.3121 28.2441 27.1363 28.2777C27.0482 28.2932 26.9597 28.3184 26.8709 28.3482C26.8263 28.3627 26.7842 28.3818 26.7401 28.3984C26.6968 28.4192 26.6479 28.4403 26.6081 28.4622C26.5651 28.4862 26.5219 28.5104 26.4783 28.5349L26.4128 28.5718L26.35 28.6136C26.308 28.6415 26.2657 28.6696 26.2233 28.6979C26.1833 28.7293 26.1431 28.7609 26.1027 28.7926C25.9456 28.9236 25.7955 29.0696 25.6761 29.2388C25.555 29.4064 25.4571 29.5894 25.3852 29.7792C25.3127 29.9687 25.2667 30.1648 25.2429 30.357C25.1942 30.742 25.2219 31.1086 25.2766 31.4154C25.3298 31.7232 25.4072 31.9734 25.4667 32.1452C25.4972 32.2311 25.5233 32.2975 25.5418 32.3423C25.5608 32.386 25.5709 32.4094 25.5709 32.4094L25.5723 32.4127C25.5903 32.4542 25.5708 32.5023 25.5287 32.5201C25.4866 32.5379 25.4379 32.5186 25.4199 32.4771L25.4195 32.4764Z" fill="white"/>
</g>
</g>
</g>
</g>
</g>
<g id="Group_30">
<g id="Group_31">
<g id="Group_32">
<path id="Vector_77" d="M56.5039 19.2667L55.0644 18.8482C55.2469 17.8806 55.2886 16.9128 55.2026 15.9668L56.628 15.626C57.0175 15.5329 57.26 15.1367 57.1705 14.7402L56.9317 13.6828C56.8416 13.2839 56.4511 13.0329 56.0587 13.1229L54.6554 13.4448C54.3284 12.5074 53.8704 11.6144 53.2946 10.7932L54.3372 9.82316C54.6363 9.54482 54.6515 9.06776 54.3708 8.75636L53.6202 7.92378C53.3364 7.60904 52.8602 7.57922 52.5568 7.85846L51.5162 8.81609C50.7492 8.14637 49.8762 7.56975 48.9095 7.11459L49.3222 5.73868C49.444 5.33277 49.2092 4.88958 48.7965 4.74832L47.692 4.37025C47.274 4.22717 46.8343 4.4435 46.7112 4.85385L46.294 6.24488C45.2227 6.02502 44.1452 5.96224 43.0901 6.04419L42.7199 4.56794C42.6111 4.13413 42.1663 3.84811 41.7253 3.93001L40.5458 4.14907C40.0998 4.23192 39.8284 4.65456 39.9407 5.09214L40.3292 6.60531C39.3041 6.94914 38.3339 7.43591 37.4512 8.05147L36.2852 6.85894C35.9547 6.52082 35.4105 6.48677 35.0703 6.7843L34.1623 7.5782C33.8198 7.87774 33.8146 8.39498 34.1505 8.73206L35.3622 9.94829C34.6862 10.7448 34.1208 11.6453 33.6954 12.6353L31.9559 12.1295C31.4878 11.9934 31.0021 12.2323 30.8727 12.6636L30.5287 13.8105C30.3993 14.2418 30.6765 14.6981 31.1461 14.8293L32.9374 15.3295C32.788 16.3742 32.7998 17.4138 32.9575 18.4219L31.1173 18.844C30.6481 18.9517 30.3666 19.3901 30.4896 19.8223L30.8158 20.968C30.938 21.3973 31.4153 21.6544 31.8806 21.5431L33.7477 21.0967C34.1613 22.0266 34.7057 22.8967 35.3642 23.6809L33.984 24.9512C33.6475 25.2608 33.6425 25.7594 33.9725 26.0634L34.8451 26.8673C35.1714 27.1679 35.7043 27.1605 36.0357 26.8522L37.4103 25.5731C38.2159 26.1497 39.1083 26.6271 40.0731 26.9841L39.5563 28.7072C39.4332 29.1175 39.6841 29.5306 40.1153 29.6296L41.2548 29.8911C41.6806 29.9888 42.1233 29.7387 42.2451 29.3328L42.7563 27.6284C43.7612 27.7468 44.7555 27.7304 45.7176 27.5938L46.1416 29.2453C46.2429 29.64 46.6606 29.8649 47.0736 29.7487L48.1661 29.4414C48.5747 29.3265 48.8256 28.9166 48.7274 28.525L48.321 26.9043C49.2277 26.5451 50.0807 26.0723 50.8573 25.5006L52.0015 26.649C52.2823 26.9309 52.75 26.9244 53.0463 26.6357L53.832 25.8702C54.1265 25.5832 54.1412 25.1221 53.8644 24.8391L52.7629 23.7124C53.3703 22.9868 53.8863 22.1762 54.2891 21.2925L55.7719 21.7066C56.1542 21.8134 56.5573 21.5856 56.6735 21.1983L56.9824 20.1683C57.0987 19.781 56.8849 19.3775 56.5039 19.2667ZM42.313 24.338C38.009 23.2485 35.4253 18.9429 36.681 14.7564C37.9367 10.57 42.4916 8.30426 46.7181 9.65214C50.8009 10.9542 53.054 15.1655 51.8745 19.0978C50.695 23.0302 46.4706 25.3906 42.313 24.338Z" fill="#97A6B7"/>
<path id="Vector_78" d="M43.1457 4.28692L42.1315 3.95221L41.506 4.75618L43.1457 4.28692Z" fill="#97A6B7"/>
<path id="Vector_79" d="M53.1808 7.67865L54.3589 8.036L54.1007 8.89681L53.1808 7.67865Z" fill="#97A6B7"/>
<path id="Vector_80" d="M56.4383 13.1486L57.602 13.5402L57.1121 14.1055L56.4383 13.1486Z" fill="#97A6B7"/>
<path id="Vector_81" d="M56.602 19.3087L57.7637 19.7498L57.204 20.2061L56.602 19.3087Z" fill="#97A6B7"/>
<path id="Vector_82" d="M52.2052 26.7911L53.3106 27.2917L53.7311 26.4025L52.2052 26.7911Z" fill="#97A6B7"/>
<path id="Vector_83" d="M46.5288 29.6982L47.5095 30.1876L47.8187 29.4556L46.5288 29.6982Z" fill="#97A6B7"/>
<path id="Vector_84" d="M40.8022 29.9966L39.9206 29.5615L41.0739 28.621L40.8022 29.9966Z" fill="#97A6B7"/>
<path id="Vector_85" d="M36.0577 27.5329L35.0405 26.9948L36.1768 26.2391L36.0577 27.5329Z" fill="#97A6B7"/>
<path id="Vector_86" d="M35.7188 6.58057L36.839 6.9463L36.1472 7.62962L35.7188 6.58057Z" fill="#97A6B7"/>
<path id="Vector_87" d="M30.8418 14.6817L31.8329 15.1362L32.0016 14.2745L30.8418 14.6817Z" fill="#97A6B7"/>
<path id="Vector_88" d="M31.229 21.4635L32.193 21.9227L32.4744 21.2838L31.229 21.4635Z" fill="#97A6B7"/>
</g>
<path id="Vector_89" d="M57.6386 19.6991L56.1872 19.2771C56.3711 18.3016 56.4132 17.3259 56.3264 16.3722L57.7636 16.0287C58.1564 15.9348 58.4009 15.5353 58.3106 15.1357L58.0697 14.0696C57.9789 13.6675 57.5852 13.4144 57.1896 13.5051L55.7747 13.8296C55.4449 12.8845 54.9831 11.9843 54.4025 11.1564L55.4537 10.1784C55.7553 9.89781 55.7705 9.41686 55.4875 9.1029L54.7307 8.2635C54.4445 7.94617 53.9644 7.91609 53.6584 8.1976L52.6093 9.16301C51.8359 8.4878 50.9557 7.90643 49.981 7.44754L50.3971 6.06041C50.5198 5.65119 50.283 5.20437 49.8669 5.06195L48.7532 4.68075C48.3318 4.53649 47.8885 4.75456 47.7644 5.16827L47.3437 6.57063C46.2636 6.34893 45.1773 6.2856 44.1134 6.36817L43.7401 4.87987C43.6303 4.44252 43.1818 4.15415 42.7372 4.23669L41.5479 4.4575C41.0982 4.54102 40.8246 4.96709 40.9379 5.40825L41.3297 6.93377C40.2961 7.28036 39.3179 7.77108 38.4278 8.39163L37.2522 7.18932C36.9189 6.84845 36.3703 6.8141 36.0272 7.11402L35.1117 7.91437C34.7664 8.21632 34.7612 8.73781 35.0998 9.07764L36.3217 10.3039C35.6401 11.1069 35.07 12.0146 34.6411 13.0127L32.8872 12.5028C32.4152 12.3655 31.9256 12.6064 31.7951 13.0412L31.4483 14.1975C31.3179 14.6323 31.5973 15.0923 32.0708 15.2245L33.877 15.7289C33.7263 16.7821 33.7384 17.8302 33.8974 18.8465L32.042 19.272C31.5689 19.3805 31.285 19.8226 31.4091 20.2583L31.738 21.4133C31.8613 21.8462 32.3425 22.1053 32.8117 21.9931L34.6942 21.5432C35.1112 22.4807 35.6602 23.3579 36.3241 24.1485L34.9325 25.4291C34.5933 25.7413 34.5883 26.2439 34.9211 26.5504L35.8009 27.3609C36.1299 27.664 36.6672 27.6566 37.0013 27.3457L38.3873 26.0563C39.1995 26.6376 40.0993 27.1189 41.0722 27.4789L40.5511 29.2159C40.427 29.6297 40.68 30.0462 41.1148 30.1459L42.2638 30.4096C42.6931 30.5081 43.1395 30.256 43.2622 29.8468L43.7776 28.1286C44.7908 28.248 45.7934 28.2314 46.7634 28.0937L47.191 29.7588C47.2932 30.1566 47.7144 30.3835 48.1308 30.2663L49.2323 29.9566C49.6443 29.8407 49.8972 29.4275 49.7982 29.0327L49.3884 27.3988C50.3025 27.0367 51.1626 26.5601 51.9456 25.9837L53.0992 27.1415C53.3824 27.4257 53.854 27.4192 54.1527 27.1281L54.9448 26.3564C55.2418 26.0671 55.2566 25.6022 54.9776 25.3169L53.8668 24.1809C54.4793 23.4495 54.9995 22.6323 55.4056 21.7413L56.9007 22.1589C57.2861 22.2666 57.6926 22.037 57.8097 21.6466L58.1212 20.6081C58.2383 20.2176 58.0228 19.8108 57.6386 19.6991ZM43.3304 24.8112C38.9908 23.7126 36.3855 19.3718 37.6515 15.1513C38.9174 10.9307 43.5099 8.64666 47.7714 10.0057C51.8881 11.3186 54.16 15.5643 52.9709 19.5286C51.7818 23.493 47.5225 25.8725 43.3304 24.8112Z" fill="#D8DEE8"/>
</g>
<g id="Group_33">
<g id="Clip path group_11">
<mask id="mask10_19_20" style="mask-type:luminance" maskUnits="userSpaceOnUse" x="33" y="4" width="21" height="22">
<g id="SVGID_00000031205570865405798630000009339616607846486953_">
<path id="Vector_90" d="M48.4921 8.8465V4.96704H33.8651V17.5158H36.6839C37.1387 21.7396 40.7776 25.0826 45.1996 25.0826C49.9294 25.0826 53.7019 21.0683 53.7343 16.6285C53.7599 13.1317 51.591 10.1346 48.4921 8.8465Z" fill="white"/>
</g>
</mask>
<g mask="url(#mask10_19_20)">
<g id="Group_34">
<path id="Vector_91" d="M40.8575 10.1253L41.3055 9.82362C41.3055 9.82362 41.3649 9.25226 41.6136 9.05601C41.8624 8.85976 42.5362 8.64883 42.6119 8.96924C42.6876 9.28963 42.3382 10.3069 41.911 10.419C41.4839 10.5312 41.0459 10.7982 41.0459 10.7982L40.8575 10.1253Z" fill="url(#paint17_linear_19_20)"/>
<path id="Vector_92" d="M42.7977 11.2414C42.7977 11.2414 41.4816 10.9333 40.4554 11.9259C39.4292 12.9186 38.2224 14.5071 38.1149 14.2787C38.0073 14.0502 40.0511 11.487 41.3379 10.7394C41.1757 10.2588 40.8242 9.74084 40.8242 9.74084C40.8242 9.74084 34.871 11.4016 35.028 14.1357C35.185 16.8698 36.7604 17.2675 37.1872 17.2675C37.614 17.2675 38.6778 17.7882 41.6623 16.3998C44.6468 15.0114 42.7977 11.2414 42.7977 11.2414Z" fill="url(#paint18_linear_19_20)"/>
<g id="Group_35">
<path id="Vector_93" d="M43.3988 9.39525C43.4296 9.35228 43.4193 9.29281 43.3758 9.2624L42.3806 8.56707C42.3371 8.53667 42.2769 8.54687 42.2461 8.58984L41.0761 10.2233C41.0453 10.2663 41.0556 10.3258 41.0991 10.3562L42.0943 11.0515C42.1378 11.0819 42.198 11.0717 42.2288 11.0287L43.3988 9.39525Z" fill="url(#paint19_linear_19_20)"/>
<g id="Group_36">
<path id="Vector_94" d="M42.2618 11.0517C42.231 11.0947 42.1708 11.1049 42.1272 11.0745L41.1321 10.3792C41.0885 10.3488 41.0782 10.2893 41.109 10.2463L42.279 8.61285C42.3098 8.56988 42.37 8.55968 42.4135 8.59008L43.4087 9.28541C43.4522 9.31582 43.4626 9.37529 43.4318 9.41826L42.2618 11.0517Z" fill="url(#paint20_linear_19_20)"/>
<path id="Vector_95" d="M42.2794 10.8201C42.2487 10.863 42.1884 10.8732 42.1449 10.8428L41.3474 10.2856C41.3038 10.2552 41.2935 10.1957 41.3243 10.1527L42.2846 8.812C42.3154 8.76902 42.3756 8.75885 42.4191 8.78923L43.2167 9.34649C43.2602 9.3769 43.2705 9.43637 43.2398 9.47934L42.2794 10.8201Z" fill="white"/>
<path id="Vector_96" d="M42.9754 9.08951C42.965 9.10408 42.9446 9.10753 42.9298 9.09723L42.7198 8.95044C42.705 8.94014 42.7015 8.91998 42.7119 8.90542L42.7208 8.89311C42.7312 8.87855 42.7516 8.87508 42.7664 8.88539L42.9764 9.03217C42.9912 9.04248 42.9947 9.06264 42.9842 9.07719L42.9754 9.08951Z" fill="white"/>
</g>
</g>
<path id="Vector_97" d="M41.3488 23.1699C41.3089 26.2496 41.0961 29.7124 40.5855 33.4745C40.0809 37.1927 39.3738 40.5523 38.6024 43.5066C38.9583 43.6012 39.3142 43.6957 39.67 43.7903C40.5729 42.9588 41.7119 41.6499 42.2614 39.8002C42.6025 38.6522 42.4889 38.0623 42.7052 36.6502C43.0497 34.4019 43.7475 33.224 44.4687 31.411C45.1168 29.7818 45.8829 27.3909 46.2937 24.1949C44.6454 23.8533 42.9971 23.5116 41.3488 23.1699Z" fill="url(#paint21_linear_19_20)"/>
<path id="Vector_98" opacity="0.3" d="M41.0837 37.9582C41.4409 36.9838 41.8757 36.6837 42.0697 35.6627C42.239 34.7721 42.0066 34.4829 41.9993 33.5758C41.9848 31.7683 42.8938 31.1696 43.1966 29.6804C43.3608 28.8731 42.2872 26.8347 41.3024 25.0736C41.3254 24.4242 41.3408 23.789 41.3488 23.1699C42.9971 23.5116 44.6454 23.8532 46.2937 24.1949C45.8829 27.3909 45.1168 29.7819 44.4687 31.411C43.7475 33.224 43.0497 34.402 42.7052 36.6502C42.4888 38.0623 42.6025 38.6523 42.2614 39.8003C41.7119 41.6499 40.5729 42.9588 39.67 43.7903C39.6364 43.7814 39.6028 43.7724 39.5692 43.7635C40.4793 42.5919 40.7619 41.5968 40.802 40.8103C40.8434 39.9972 40.6375 39.1757 41.0837 37.9582Z" fill="url(#paint22_linear_19_20)"/>
<path id="Vector_99" d="M44.7758 23.5318C44.9936 27.4487 45.1728 31.4385 45.3085 35.4989C45.4104 38.5458 45.4853 41.5541 45.535 44.5229C45.8985 44.5672 46.262 44.6115 46.6255 44.6558C46.9768 44.0099 47.4434 43.0224 47.7629 41.7567C48.1511 40.2195 48.0612 39.3066 48.2315 37.7134C48.4225 35.9265 48.6999 35.5372 49.1914 33.283C50.1889 28.7083 50.6876 26.4208 49.5749 24.998C49.2137 24.536 48.0814 23.3773 44.7758 23.5318Z" fill="url(#paint23_linear_19_20)"/>
<path id="Vector_100" d="M49.8101 11.8533C48.8698 11.5922 47.4918 11.2868 45.804 11.1925C43.3156 11.0536 42.0709 10.9921 41.3404 11.5571C39.0749 13.3094 41.2219 19.5724 40.4146 22.8633C39.7353 25.6324 39.7103 25.6806 39.7103 25.6806C39.5497 25.9901 39.2895 26.4203 39.3934 26.9327C39.475 27.3357 39.7838 27.7988 40.2033 27.9413C41.0751 28.2376 41.5748 26.8609 43.0206 26.4457C44.5317 26.0119 46.2225 26.8738 48.3604 27.9639C49.721 28.6575 50.1856 29.1 50.6624 28.8804C51.5804 28.4577 51.3283 26.14 51.2258 25.1937C50.8187 21.4333 50.3604 17.0305 49.8101 11.8533Z" fill="url(#paint24_linear_19_20)"/>
<path id="Vector_101" opacity="0.3" d="M40.9076 26.6197C41.1535 26.1988 41.1432 25.5631 41.6824 25.2633C41.9968 25.0884 42.2418 25.1701 42.6684 25.1589C43.94 25.1254 44.1834 24.3353 45.0631 24.2894C46.4254 24.2183 47.0798 26.0487 47.8451 25.785C48.3447 25.6128 48.6664 24.6259 48.4086 23.872C48.0491 22.8211 46.8174 22.965 45.2039 21.5417C44.5137 20.9328 43.5234 19.834 43.7953 19.3505C44.0809 18.8426 45.4362 19.5878 46.4365 18.8288C47.0202 18.3859 46.9457 17.8385 47.4225 16.8463C47.6809 16.3086 48.6271 14.9106 50.0344 13.9681C50.4868 18.2417 50.8753 21.9565 51.2258 25.1937C51.3283 26.14 51.5804 28.4577 50.6623 28.8804C50.1856 29.1 49.721 28.6576 48.3604 27.9639C46.2225 26.8739 44.5317 26.0119 43.0205 26.4458C41.5748 26.8609 41.0751 28.2376 40.2033 27.9414C39.9309 27.8488 39.7067 27.6208 39.5595 27.3622C40.3371 27.2241 40.7224 26.9368 40.9076 26.6197Z" fill="url(#paint25_linear_19_20)"/>
<g id="Group_37">
<path id="Vector_102" d="M45.1767 9.32196C45.1751 9.50885 45.0037 10.4449 45.6383 10.8987C46.2786 11.3566 47.084 11.3317 47.324 11.3905C47.8805 11.5267 47.9521 11.523 47.9644 11.5776C48.0243 11.8436 46.5069 12.7504 44.9392 12.5319C43.9798 12.3981 43.1068 11.8575 43.1604 11.5736C43.2144 11.2879 43.8124 11.4412 44.098 10.9243C44.2967 10.5647 44.4344 10.0543 44.1711 9.6315C44.4261 9.15959 44.9217 9.79385 45.1767 9.32196Z" fill="url(#paint26_linear_19_20)"/>
<g id="Group_38">
<path id="Vector_103" d="M43.1462 9.28307C42.8757 9.00481 42.7962 8.47229 43.0237 8.10265C43.2195 7.78454 43.5784 7.69984 43.7933 7.64902C44.4159 7.50191 45.2443 7.66748 45.5914 8.20844C45.797 8.52904 45.528 9.27798 45.4879 9.41165C45.4424 9.56279 45.3343 9.62567 45.2419 9.74685C45.1138 9.91489 44.9139 10.1817 44.5886 10.6268C44.5452 10.512 44.4831 10.3709 44.3936 10.2207C44.3591 10.1628 44.2214 9.93732 44.0331 9.75914C43.6557 9.40195 43.4027 9.54674 43.1462 9.28307Z" fill="url(#paint27_linear_19_20)"/>
<path id="Vector_104" d="M45.0812 10.2264C45.0812 10.2264 44.7481 10.9483 43.9153 10.9935C43.1696 11.034 42.8613 9.40804 43.2915 9.00405C43.435 8.8693 43.7449 8.78354 44.0103 8.82406C44.1671 8.84802 44.2261 8.90413 44.483 8.93828C44.72 8.96985 44.7818 8.93697 44.8582 8.98635C44.9537 9.04817 45.0389 9.21742 44.9524 9.71372C45.0764 9.55577 45.2392 9.48144 45.3661 9.52314C45.3863 9.52985 45.4413 9.5579 45.4762 9.60623C45.6025 9.78111 45.4585 10.0408 45.0812 10.2264Z" fill="url(#paint28_linear_19_20)"/>
<path id="Vector_105" d="M44.8797 8.88437C44.8472 8.9149 44.9723 9.03341 45.0031 9.21853C45.063 9.57787 44.7457 10.0555 44.3725 10.1372C44.1519 10.1855 44.0743 10.0599 43.7005 10.0653C43.469 10.0686 43.2823 10.1199 43.1658 10.16C43.0981 10.57 43.2554 10.952 43.5459 11.1034C43.8586 11.2664 44.2128 11.1028 44.3608 11.0344C44.4599 10.9886 44.7773 10.8427 44.9135 10.5229C45.0555 10.1895 44.8559 10.0225 45.0367 9.78701C45.1278 9.6682 45.259 9.60583 45.367 9.38401C45.3964 9.32372 45.4145 9.27134 45.4252 9.2363C45.2099 9.05918 44.9267 8.84014 44.8797 8.88437Z" fill="url(#paint29_linear_19_20)"/>
</g>
</g>
<path id="Vector_106" d="M47.8803 12.916C48.2603 12.3468 49.0163 11.7882 49.7115 11.8378C51.742 11.9825 54.2449 17.3847 52.5288 19.5244C51.2188 21.1577 47.1719 21.237 43.4784 18.4114C43.4784 18.0984 43.4784 17.7853 43.4784 17.4723C45.2959 17.7862 46.8026 17.9947 47.9155 18.1331C48.6096 18.2195 49.3011 18.2973 49.4298 18.0288C49.6245 17.6225 48.2343 17.0414 47.7042 15.5246C47.6312 15.3155 47.1664 13.9855 47.8803 12.916Z" fill="url(#paint30_linear_19_20)"/>
<path id="Vector_107" d="M42.1638 17.6721C42.1473 17.6748 41.2311 17.0914 41.3609 17.4358C41.4906 17.7802 41.7561 17.9004 41.7561 17.9004C41.7561 17.9004 41.273 18.0606 40.9486 18.4557C40.6242 18.8509 40.5323 19.0859 40.7432 19.1179C40.954 19.15 42.6959 18.3481 43.1442 18.3619C43.5925 18.3756 43.6898 18.3543 43.6898 18.3543L43.7169 17.7242C43.7169 17.7242 42.5787 17.604 42.1638 17.6721Z" fill="url(#paint31_linear_19_20)"/>
<path id="Vector_108" d="M41.3942 9.73557C41.3942 9.73557 41.5526 9.73125 41.6319 9.82096C41.7112 9.91066 42.0986 9.64709 42.2472 9.35269C42.3957 9.05828 42.2127 8.74939 42.0805 8.81369C41.9483 8.87799 41.2752 9.12224 41.372 9.70439L41.3942 9.73557Z" fill="url(#paint32_linear_19_20)"/>
</g>
</g>
</g>
</g>
</g>
<g id="Group_39">
<g id="Group_40">
<path id="Vector_109" d="M35.8519 21.1377C35.8366 21.1418 35.8205 21.1435 35.8026 21.1435L29.859 21.0538L27.4091 21.0161L25.3953 20.9859L14.3165 20.7429C13.2583 20.727 12.408 19.8763 12.4224 18.8445L12.5828 7.71086C12.5972 6.73359 13.3949 5.97592 14.3844 5.96168C14.4277 5.96 14.471 5.96951 14.5151 5.97201L14.65 5.98739C14.6509 5.98739 14.6517 5.98739 14.6517 5.98739L29.9023 7.01717C30.8459 7.06495 31.6054 7.87778 31.6029 8.83828L31.5834 17.6692L35.9078 20.7901C36.0462 20.8898 35.9995 21.1008 35.8519 21.1377Z" fill="url(#paint33_linear_19_20)"/>
<g id="Group_41">
<path id="Vector_110" d="M36.332 20.7884L32.0078 17.6669L32.0275 8.83364C32.0297 7.87333 31.2699 7.05641 30.3265 7.00791L14.9395 5.96351C13.8894 5.90954 13.0222 6.69106 13.0075 7.71031L12.847 18.8442C12.8321 19.8762 13.6823 20.7266 14.7409 20.7427L27.833 21.0162L30.283 21.0534L36.2269 21.1436C36.4116 21.1464 36.4849 20.8987 36.332 20.7884Z" fill="url(#paint34_linear_19_20)"/>
</g>
<path id="Vector_111" d="M22.5804 17.7977C22.1691 17.8185 21.7864 17.6708 21.5734 17.4069L17.9973 12.9752C17.6622 12.5599 17.8427 11.9911 18.4005 11.7048C18.9577 11.4187 19.6809 11.5232 20.0156 11.9383L22.4957 15.0146L25.7681 9.87119C26.0618 9.4096 26.7674 9.19785 27.3437 9.39805C27.9198 9.59818 28.1491 10.1343 27.8558 10.5956L23.627 17.2478C23.4333 17.5524 23.0483 17.762 22.6217 17.795C22.608 17.7961 22.5942 17.797 22.5804 17.7977Z" fill="white"/>
</g>
<path id="Vector_112" opacity="0.2" d="M30.7491 20.9857L14.7411 20.7426C13.6829 20.7267 12.8326 19.876 12.847 18.8443L13.0074 7.7106C13.0218 6.73333 13.8195 5.97566 14.809 5.96143C14.8285 5.974 14.8471 5.98741 14.8658 6.00166C15.7764 6.66044 16.5588 7.70392 16.7735 9.35752C17.3675 13.9253 19.7012 13.7577 22.0773 14.051C23.2712 14.1986 24.3583 14.4626 25.4403 15.1406C26.5112 15.8119 27.5779 16.8889 28.7388 18.6607C29.4805 19.7922 30.0974 20.5138 30.7398 20.979C30.7432 20.9815 30.7466 20.984 30.7491 20.9857Z" fill="url(#paint35_linear_19_20)"/>
</g>
</g>
</g>
<defs>
<linearGradient id="paint0_linear_19_20" x1="4.03936" y1="25.8851" x2="35.1856" y2="54.2416" gradientUnits="userSpaceOnUse">
<stop stop-color="#AA80F9"/>
<stop offset="0.9964" stop-color="#6165D7"/>
</linearGradient>
<linearGradient id="paint1_linear_19_20" x1="15.576" y1="2.68178" x2="30.5026" y2="41.0707" gradientUnits="userSpaceOnUse">
<stop stop-color="#AA80F9"/>
<stop offset="0.9964" stop-color="#6165D7"/>
</linearGradient>
<linearGradient id="paint2_linear_19_20" x1="7.82164" y1="12.3028" x2="31.0768" y2="42.4891" gradientUnits="userSpaceOnUse">
<stop offset="0.0036" stop-color="#E38DDD"/>
<stop offset="1" stop-color="#9571F6"/>
</linearGradient>
<linearGradient id="paint3_linear_19_20" x1="54.3027" y1="45.7499" x2="33.1733" y2="64.9868" gradientUnits="userSpaceOnUse">
<stop stop-color="#AA80F9"/>
<stop offset="0.9964" stop-color="#6165D7"/>
</linearGradient>
<linearGradient id="paint4_linear_19_20" x1="46.4763" y1="30.0089" x2="36.3502" y2="56.0517" gradientUnits="userSpaceOnUse">
<stop stop-color="#AA80F9"/>
<stop offset="0.9964" stop-color="#6165D7"/>
</linearGradient>
<linearGradient id="paint5_linear_19_20" x1="51.7369" y1="36.536" x2="35.9608" y2="57.0142" gradientUnits="userSpaceOnUse">
<stop offset="0.0036" stop-color="#E38DDD"/>
<stop offset="1" stop-color="#9571F6"/>
</linearGradient>
<linearGradient id="paint6_linear_19_20" x1="28.1972" y1="43.4875" x2="-17.7544" y2="105.58" gradientUnits="userSpaceOnUse">
<stop stop-color="#FFC444"/>
<stop offset="0.9964" stop-color="#F36F56"/>
</linearGradient>
<linearGradient id="paint7_linear_19_20" x1="12.8406" y1="57.1505" x2="56.7397" y2="57.1505" gradientUnits="userSpaceOnUse">
<stop offset="0.494" stop-color="#EBEFF2"/>
<stop offset="1" stop-color="white"/>
</linearGradient>
<linearGradient id="paint8_linear_19_20" x1="44.7933" y1="37.7726" x2="40.4216" y2="41.1879" gradientUnits="userSpaceOnUse">
<stop stop-color="#AB316D"/>
<stop offset="1" stop-color="#792D3D"/>
</linearGradient>
<linearGradient id="paint9_linear_19_20" x1="39.9023" y1="46.6006" x2="29.7922" y2="37.7801" gradientUnits="userSpaceOnUse">
<stop stop-color="#FF9085"/>
<stop offset="1" stop-color="#FB6FBB"/>
</linearGradient>
<linearGradient id="paint10_linear_19_20" x1="39.8069" y1="46.7099" x2="29.6789" y2="37.8739" gradientUnits="userSpaceOnUse">
<stop stop-color="#FF9085"/>
<stop offset="1" stop-color="#FB6FBB"/>
</linearGradient>
<linearGradient id="paint11_linear_19_20" x1="32.549" y1="46.562" x2="17.577" y2="46.562" gradientUnits="userSpaceOnUse">
<stop stop-color="#FF9085"/>
<stop offset="1" stop-color="#FB6FBB"/>
</linearGradient>
<linearGradient id="paint12_linear_19_20" x1="28.6534" y1="25.8673" x2="1.45289" y2="34.8948" gradientUnits="userSpaceOnUse">
<stop stop-color="#311944"/>
<stop offset="1" stop-color="#6B3976"/>
</linearGradient>
<linearGradient id="paint13_linear_19_20" x1="29.4998" y1="28.679" x2="2.50149" y2="38.2805" gradientUnits="userSpaceOnUse">
<stop stop-color="#311944"/>
<stop offset="1" stop-color="#6B3976"/>
</linearGradient>
<linearGradient id="paint14_linear_19_20" x1="26.4759" y1="42.3549" x2="26.7602" y2="33.0707" gradientUnits="userSpaceOnUse">
<stop stop-color="#AB316D"/>
<stop offset="1" stop-color="#792D3D"/>
</linearGradient>
<linearGradient id="paint15_linear_19_20" x1="28.4263" y1="35.6948" x2="25.8265" y2="27.0765" gradientUnits="userSpaceOnUse">
<stop stop-color="#AB316D"/>
<stop offset="1" stop-color="#792D3D"/>
</linearGradient>
<linearGradient id="paint16_linear_19_20" x1="32.549" y1="49.7556" x2="17.577" y2="49.7556" gradientUnits="userSpaceOnUse">
<stop stop-color="#FF9085"/>
<stop offset="1" stop-color="#FB6FBB"/>
</linearGradient>
<linearGradient id="paint17_linear_19_20" x1="41.5987" y1="10.8178" x2="41.8428" y2="8.70515" gradientUnits="userSpaceOnUse">
<stop stop-color="#FFC444"/>
<stop offset="0.9964" stop-color="#F36F56"/>
</linearGradient>
<linearGradient id="paint18_linear_19_20" x1="38.7932" y1="17.2962" x2="39.698" y2="9.46739" gradientUnits="userSpaceOnUse">
<stop stop-color="#AA80F9"/>
<stop offset="0.9964" stop-color="#6165D7"/>
</linearGradient>
<linearGradient id="paint19_linear_19_20" x1="42.4945" y1="7.58542" x2="42.2472" y2="9.77855" gradientUnits="userSpaceOnUse">
<stop stop-color="#311944"/>
<stop offset="1" stop-color="#893976"/>
</linearGradient>
<linearGradient id="paint20_linear_19_20" x1="41.694" y1="9.42957" x2="42.8372" y2="10.2484" gradientUnits="userSpaceOnUse">
<stop stop-color="#311944"/>
<stop offset="1" stop-color="#893976"/>
</linearGradient>
<linearGradient id="paint21_linear_19_20" x1="37.8397" y1="40.3984" x2="43.871" y2="26.6326" gradientUnits="userSpaceOnUse">
<stop stop-color="#AB316D"/>
<stop offset="1" stop-color="#792D3D"/>
</linearGradient>
<linearGradient id="paint22_linear_19_20" x1="37.8397" y1="40.3985" x2="43.8709" y2="26.6326" gradientUnits="userSpaceOnUse">
<stop stop-color="#AB316D"/>
<stop offset="1" stop-color="#792D3D"/>
</linearGradient>
<linearGradient id="paint23_linear_19_20" x1="41.0786" y1="41.7038" x2="48.7489" y2="28.7575" gradientUnits="userSpaceOnUse">
<stop stop-color="#AB316D"/>
<stop offset="1" stop-color="#792D3D"/>
</linearGradient>
<linearGradient id="paint24_linear_19_20" x1="49.7138" y1="24.999" x2="42.6721" y2="17.3064" gradientUnits="userSpaceOnUse">
<stop stop-color="#AA80F9"/>
<stop offset="0.9964" stop-color="#6165D7"/>
</linearGradient>
<linearGradient id="paint25_linear_19_20" x1="49.2407" y1="25.4321" x2="42.1989" y2="17.7395" gradientUnits="userSpaceOnUse">
<stop stop-color="#AA80F9"/>
<stop offset="0.9964" stop-color="#6165D7"/>
</linearGradient>
<linearGradient id="paint26_linear_19_20" x1="46.7268" y1="14.0047" x2="43.8825" y2="8.0085" gradientUnits="userSpaceOnUse">
<stop stop-color="#FFC444"/>
<stop offset="0.9964" stop-color="#F36F56"/>
</linearGradient>
<linearGradient id="paint27_linear_19_20" x1="46.3102" y1="12.3595" x2="43.9318" y2="7.85834" gradientUnits="userSpaceOnUse">
<stop stop-color="#311944"/>
<stop offset="1" stop-color="#6B3976"/>
</linearGradient>
<linearGradient id="paint28_linear_19_20" x1="44.2699" y1="9.16337" x2="44.7279" y2="16.0404" gradientUnits="userSpaceOnUse">
<stop stop-color="#FFC444"/>
<stop offset="0.9964" stop-color="#F36F56"/>
</linearGradient>
<linearGradient id="paint29_linear_19_20" x1="45.7653" y1="12.65" x2="43.3845" y2="8.1443" gradientUnits="userSpaceOnUse">
<stop stop-color="#311944"/>
<stop offset="1" stop-color="#6B3976"/>
</linearGradient>
<linearGradient id="paint30_linear_19_20" x1="48.6181" y1="20.6206" x2="47.6101" y2="11.8992" gradientUnits="userSpaceOnUse">
<stop stop-color="#AA80F9"/>
<stop offset="0.9964" stop-color="#6165D7"/>
</linearGradient>
<linearGradient id="paint31_linear_19_20" x1="40.6298" y1="18.2229" x2="43.7169" y2="18.2229" gradientUnits="userSpaceOnUse">
<stop stop-color="#FFC444"/>
<stop offset="0.9964" stop-color="#F36F56"/>
</linearGradient>
<linearGradient id="paint32_linear_19_20" x1="41.9375" y1="9.75726" x2="41.7117" y2="8.89144" gradientUnits="userSpaceOnUse">
<stop stop-color="#FFC444"/>
<stop offset="0.9964" stop-color="#F36F56"/>
</linearGradient>
<linearGradient id="paint33_linear_19_20" x1="12.4223" y1="13.5525" x2="35.9905" y2="13.5525" gradientUnits="userSpaceOnUse">
<stop stop-color="#311944"/>
<stop offset="1" stop-color="#893976"/>
</linearGradient>
<linearGradient id="paint34_linear_19_20" x1="12.8468" y1="13.5523" x2="36.4146" y2="13.5523" gradientUnits="userSpaceOnUse">
<stop stop-color="#FF9085"/>
<stop offset="1" stop-color="#FB6FBB"/>
</linearGradient>
<linearGradient id="paint35_linear_19_20" x1="12.8468" y1="13.4735" x2="30.7491" y2="13.4735" gradientUnits="userSpaceOnUse">
<stop stop-color="#FF9085"/>
<stop offset="1" stop-color="#FB6FBB"/>
</linearGradient>
</defs>
</svg>
