<svg width="40" height="40" viewBox="0 0 40 40" fill="none" xmlns="http://www.w3.org/2000/svg">
<g id="refrigerator">
<path id="Vector" d="M24.5937 39.6875H6.53125C6.03125 39.6875 5.59375 39.2812 5.59375 38.75V3.9375C5.59375 2.96875 5.96875 2.03125 6.65625 1.34375C7.34375 0.6875 8.28125 0.3125 9.25 0.3125H30.7188C32.75 0.3125 34.375 1.96875 34.375 3.96875V38.7812C34.375 39.2812 33.9688 39.7188 33.4375 39.7188H24.5937V39.6875ZM32.5312 37.8438V3.96875C32.5312 2.96875 31.7188 2.15625 30.7188 2.15625H25.5312V37.8438H32.5312ZM23.3437 37.8438V2.15625H9.25C8.25 2.15625 7.46875 2.96875 7.4375 3.9375V37.8125H23.3437V37.8438ZM26.4375 29.0312V10.7188H28.3125V29.0312H26.4375ZM20.875 29.0312V10.7188H22.75V29.0312H20.875ZM10.6875 24.25C10.1875 24.25 9.75 23.8438 9.75 23.3125V14.4375C9.75 13.9375 10.1563 13.5 10.6875 13.5H18.875C19.375 13.5 19.8125 13.9062 19.8125 14.4375V23.3125C19.8125 23.8125 19.4062 24.25 18.875 24.25H10.6875ZM17.9688 22.375V21.625H11.625V22.375H17.9688ZM17.9688 19.75V15.375H15.8125V17.4375H13.9375V15.375H11.625V19.7812H17.9688V19.75Z" fill="#2E3138"/>
</g>
</svg>
