<svg width="41" height="40" viewBox="0 0 41 40" fill="none" xmlns="http://www.w3.org/2000/svg">
<g id="sofa">
<path id="Vector" fill-rule="evenodd" clip-rule="evenodd" d="M14.9437 7.08302C14.9959 7.08302 15.0488 7.08304 15.1025 7.08304H25.1025C25.1561 7.08304 25.209 7.08302 25.2613 7.08302C26.658 7.08281 27.5471 7.08269 28.3136 7.23516C31.4541 7.85982 33.909 10.3148 34.5336 13.4552C34.6498 14.0387 34.6773 14.6931 34.6838 15.5884C36.6086 16.1318 38.0191 17.901 38.0191 19.9997V24.0738C38.0191 26.6233 36.6895 28.8623 34.6858 30.1352V31.6663C34.6858 32.3567 34.1261 32.9163 33.4358 32.9163C32.7455 32.9163 32.1858 32.3567 32.1858 31.6663V31.1243C31.7508 31.2067 31.3021 31.2497 30.8431 31.2497H9.36172C8.90286 31.2497 8.45404 31.2067 8.01912 31.1243V31.6663C8.01912 32.3567 7.45947 32.9163 6.76912 32.9163C6.07877 32.9163 5.51912 32.3567 5.51912 31.6663V30.1352C3.51544 28.8623 2.18579 26.6233 2.18579 24.0738V19.9997C2.18579 17.901 3.59631 16.1318 5.52106 15.5884C5.52754 14.6931 5.55519 14.0387 5.67124 13.4552C6.29592 10.3148 8.75086 7.85982 11.8913 7.23516C12.6579 7.08269 13.5469 7.08281 14.9437 7.08302ZM8.02192 15.5897C9.94424 16.1347 11.3525 17.9028 11.3525 19.9997V21.9997C11.3525 22.0457 11.3898 22.083 11.4358 22.083H28.7691C28.8151 22.083 28.8525 22.0457 28.8525 21.9997V19.9997C28.8525 17.9028 30.2606 16.1347 32.183 15.5897C32.1763 14.7406 32.1541 14.3067 32.0818 13.943C31.6543 11.7942 29.9746 10.1145 27.8258 9.68712C27.3331 9.58909 26.7113 9.58304 25.1025 9.58304H15.1025C13.4937 9.58304 12.8719 9.58909 12.3791 9.68712C10.2303 10.1145 8.55061 11.7942 8.12321 13.943C8.05086 14.3067 8.02861 14.7406 8.02192 15.5897ZM6.76912 17.9163C5.61852 17.9163 4.68579 18.8492 4.68579 19.9997V24.0738C4.68579 26.6562 6.77927 28.7497 9.36172 28.7497H30.8431C33.4256 28.7497 35.5191 26.6562 35.5191 24.0738V19.9997C35.5191 18.8492 34.5865 17.9163 33.4358 17.9163C32.2851 17.9163 31.3525 18.8492 31.3525 19.9997V21.9997C31.3525 23.4265 30.1958 24.583 28.7691 24.583H11.4358C10.0091 24.583 8.85246 23.4265 8.85246 21.9997V19.9997C8.85246 18.8492 7.91972 17.9163 6.76912 17.9163Z" fill="#2E3138"/>
</g>
</svg>
