<svg width="60" height="60" viewBox="0 0 60 60" fill="none" xmlns="http://www.w3.org/2000/svg">
<path d="M29.9664 0.32959C39.9132 0.32959 48.0047 8.42173 48.0047 18.3678C48.0047 31.0306 30.7219 44.1965 29.9664 59.603C29.211 44.1965 11.9282 31.0306 11.9282 18.3678C11.9282 8.42173 20.0197 0.32959 29.9664 0.32959Z" fill="#F4B740"/>
<path d="M24.7834 20.3334C24.875 19.9251 24.7084 19.3417 24.4167 19.0501L22.3917 17.0251C21.7584 16.3917 21.5084 15.7167 21.6917 15.1334C21.8834 14.5501 22.475 14.1501 23.3584 14.0001L25.9584 13.5667C26.3334 13.5001 26.7917 13.1667 26.9667 12.8251L28.4 9.95008C28.8167 9.12508 29.3834 8.66675 30 8.66675C30.6167 8.66675 31.1834 9.12508 31.6 9.95008L33.0334 12.8251C33.1417 13.0417 33.3667 13.2501 33.6084 13.3917L24.6334 22.3667C24.5167 22.4834 24.3167 22.3751 24.35 22.2084L24.7834 20.3334Z" fill="#FFF8E1"/>
<path d="M35.5834 19.0501C35.2834 19.3501 35.1167 19.9251 35.2167 20.3334L35.7917 22.8417C36.0334 23.8834 35.8834 24.6667 35.3667 25.0417C35.1584 25.1917 34.9084 25.2667 34.6167 25.2667C34.1917 25.2667 33.6917 25.1084 33.1417 24.7834L30.7 23.3334C30.3167 23.1084 29.6834 23.1084 29.3 23.3334L26.8584 24.7834C25.9334 25.3251 25.1417 25.4167 24.6334 25.0417C24.4417 24.9001 24.3 24.7084 24.2084 24.4584L34.3417 14.3251C34.725 13.9417 35.2667 13.7667 35.7917 13.8584L36.6334 14.0001C37.5167 14.1501 38.1084 14.5501 38.3 15.1334C38.4834 15.7167 38.2334 16.3917 37.6 17.0251L35.5834 19.0501Z" fill="#FFF8E1"/>
</svg>
