<svg width="551" height="423" viewBox="0 0 551 423" fill="none" xmlns="http://www.w3.org/2000/svg">
<g clip-path="url(#clip0)">
<g opacity="0.3" filter="url(#filter0_f)">
<path d="M259.5 410C382.383 410 482 404.404 482 397.5C482 390.596 382.383 385 259.5 385C136.617 385 37 390.596 37 397.5C37 404.404 136.617 410 259.5 410Z" fill="#FFD200"/>
</g>
<path opacity="0.45" d="M275.5 388C417.091 388 531.873 380.537 531.873 371.332C531.873 362.127 417.091 354.664 275.5 354.664C133.909 354.664 19.1275 362.127 19.1275 371.332C19.1275 380.537 133.909 388 275.5 388Z" fill="#E6E6E6"/>
<path d="M232.721 250.544L213.333 351.769H307.915L288.526 250.544H232.721Z" fill="#C9C9C9"/>
<path d="M450.351 36H81.0834V276.728H450.351V36Z" fill="#E6E6E6"/>
<path d="M320.253 341.757H200.395V362.185H320.253V341.757Z" fill="#E6E6E6"/>
<path opacity="0.56" d="M450.351 36H81.0834V249.061H450.351V36Z" fill="white"/>
<path d="M109.444 65.4509C113.737 65.4509 117.217 61.9648 117.217 57.6644C117.217 53.3641 113.737 49.8779 109.444 49.8779C105.151 49.8779 101.671 53.3641 101.671 57.6644C101.671 61.9648 105.151 65.4509 109.444 65.4509Z" fill="#24285B"/>
<path d="M132.552 65.4509C136.845 65.4509 140.325 61.9648 140.325 57.6644C140.325 53.3641 136.845 49.8779 132.552 49.8779C128.259 49.8779 124.779 53.3641 124.779 57.6644C124.779 61.9648 128.259 65.4509 132.552 65.4509Z" fill="#5EEAD4"/>
<path d="M154.32 65.4509C158.613 65.4509 162.093 61.9648 162.093 57.6644C162.093 53.3641 158.613 49.8779 154.32 49.8779C150.027 49.8779 146.547 53.3641 146.547 57.6644C146.547 61.9648 150.027 65.4509 154.32 65.4509Z" fill="#FFD200"/>
<path opacity="0.16" d="M431.897 249.078C431.157 252.415 430.363 255.752 429.553 259.071C428.323 265.252 426.153 271.207 423.119 276.728H377.855C377.816 276.559 377.786 276.388 377.767 276.216C377.608 274.803 379.988 260.66 381.786 249.06C383.072 240.532 384.042 233.381 383.46 233.575C373.237 236.824 361.304 239.879 352.456 233.787C349.889 231.837 347.595 229.551 345.635 226.99L303.843 176.916C302.292 175.15 300.758 172.166 302.503 170.489C304.248 168.811 306.469 170.047 308.267 171.107L327.656 182.566C332.944 185.656 341.016 192.913 347.186 193.16C357.021 193.689 371.228 183.113 376.956 175.839C383.548 167.47 387.091 157.052 388.924 146.547C390.687 136.712 391.374 125.747 398.425 118.685C403.237 113.882 411.045 110.474 411.221 103.677C411.433 95.59 403.413 88.3862 408.701 80.1053C414.817 70.5002 424.564 76.9448 426.838 85.5258C428.513 91.9704 428.319 98.7505 428.9 105.372C430.081 118.738 434.506 131.574 437.238 144.693C444.376 179.123 439.688 214.718 431.897 249.078Z" fill="#A5A5A5"/>
<path opacity="0.58" d="M142.229 343.17C142.229 343.17 127.564 339.162 124.373 325.514C124.373 325.514 147.093 320.905 147.746 344.406L142.229 343.17Z" fill="#5EEAD4"/>
<path opacity="0.73" d="M144.026 341.722C144.026 341.722 133.786 325.495 142.793 310.328C142.793 310.328 160.066 321.311 152.399 341.757L144.026 341.722Z" fill="#5EEAD4"/>
<path d="M146.67 341.722C146.67 341.722 152.082 324.595 168.439 321.346C168.439 321.346 171.506 332.47 157.863 341.775L146.67 341.722Z" fill="#5EEAD4"/>
<path d="M136.024 341.334L139.003 361.709L157.722 361.78L160.489 341.44L136.024 341.334Z" fill="#24285B"/>
<path d="M139.497 107.721H35.3436V218.48H139.497V107.721Z" fill="#E6E6E6"/>
<path d="M354.324 140.402C355.045 140.131 355.685 139.681 356.184 139.094C356.683 138.507 357.026 137.803 357.18 137.048V135.282C356.95 134.187 356.739 133.075 356.457 131.998C355.804 129.076 354.608 126.302 352.932 123.823C352.601 123.388 352.235 122.981 351.839 122.605C351.207 121.988 350.399 121.583 349.528 121.447C348.656 121.311 347.763 121.45 346.974 121.845C343.624 123.504 339.792 123.911 336.169 122.993C333.83 122.28 331.749 120.897 330.183 119.015C328.617 117.133 327.635 114.833 327.356 112.399C327.08 109.958 327.445 107.487 328.414 105.231C328.613 104.7 328.778 104.158 328.907 103.606C329.051 103.16 329.08 102.685 328.99 102.225C328.901 101.765 328.696 101.335 328.396 100.976C326.77 98.7661 324.644 96.9742 322.193 95.7466C319.742 94.5189 317.035 93.8906 314.295 93.9129C313.931 93.8895 313.567 93.9383 313.222 94.0564C312.877 94.1746 312.559 94.3599 312.286 94.6015C311.332 95.392 310.577 96.396 310.083 97.5325C308.788 100.75 306.294 103.335 303.128 104.739C299.962 106.143 296.374 106.256 293.126 105.054C291.351 104.332 289.745 103.247 288.41 101.871C287.075 100.494 286.04 98.8542 285.371 97.0558C285.305 96.8633 285.228 96.6746 285.142 96.4908C284.823 95.5768 284.18 94.8122 283.335 94.3432C282.489 93.8742 281.501 93.7336 280.559 93.9482C276.605 94.3451 272.804 95.683 269.472 97.8503C268.83 98.2755 268.238 98.7732 267.709 99.3335C267.125 99.9068 266.712 100.632 266.516 101.427C266.32 102.222 266.349 103.056 266.599 103.836C267.66 107.766 267.512 111.926 266.176 115.772C265.586 117.398 264.608 118.855 263.327 120.016C262.046 121.176 260.5 122.004 258.826 122.428C255.713 123.411 252.361 123.318 249.308 122.163C248.814 121.987 248.303 121.863 247.809 121.687C247.091 121.427 246.311 121.391 245.572 121.583C244.833 121.776 244.169 122.187 243.667 122.764C242.558 123.884 241.656 125.193 241.006 126.63C239.605 129.307 238.782 132.248 238.591 135.264C238.553 136.403 238.821 137.531 239.366 138.531C239.791 139.392 240.52 140.065 241.411 140.42C244.13 141.507 246.548 143.233 248.461 145.452C250.209 147.434 251.212 149.963 251.299 152.606C251.386 155.248 250.551 157.838 248.937 159.931C247.072 162.501 244.535 164.505 241.605 165.722C240.746 165.969 239.984 166.477 239.425 167.176C238.866 167.875 238.538 168.73 238.485 169.624C238.366 171.262 238.551 172.909 239.031 174.479C239.736 177.142 240.861 179.676 242.363 181.983C242.803 182.806 243.449 183.5 244.236 183.998C245.024 184.496 245.927 184.781 246.857 184.826C247.623 184.838 248.385 184.724 249.114 184.491C252.389 183.466 255.883 183.362 259.213 184.191C260.625 184.551 261.915 185.282 262.95 186.309C264.682 188.019 265.862 190.211 266.337 192.6C266.811 194.99 266.559 197.467 265.612 199.711C265.294 200.523 264.924 201.3 264.66 202.13C264.42 202.811 264.369 203.546 264.511 204.254C264.654 204.963 264.986 205.62 265.471 206.155C266.632 207.481 268.031 208.577 269.595 209.386C272.542 211.05 275.768 212.157 279.113 212.653C279.868 212.75 280.632 212.75 281.387 212.653C282.224 212.547 283.015 212.207 283.669 211.674C284.323 211.14 284.815 210.433 285.089 209.634C286.145 206.872 287.983 204.479 290.376 202.747L291.187 202.182C292.534 201.3 294.045 200.699 295.629 200.417C297.575 200.101 299.569 200.256 301.443 200.871C303.316 201.485 305.016 202.54 306.399 203.948C307.999 205.526 309.264 207.412 310.118 209.492C310.53 210.505 311.199 211.393 312.057 212.07C312.463 212.375 312.928 212.594 313.422 212.712C313.916 212.831 314.429 212.847 314.93 212.759C319.182 212.303 323.232 210.705 326.651 208.133C327.676 207.418 328.415 206.363 328.738 205.154C329.061 203.945 328.946 202.661 328.414 201.529C327.577 199.779 327.136 197.865 327.121 195.924C327.105 193.984 327.517 192.063 328.326 190.3C329.061 188.486 330.284 186.913 331.859 185.753C333.433 184.594 335.297 183.894 337.244 183.731C339.998 183.374 342.797 183.658 345.423 184.561C346.708 185.014 348.103 185.049 349.41 184.662C350.717 184.276 351.869 183.487 352.703 182.407C354.756 179.812 356.12 176.739 356.668 173.473C356.828 172.539 356.916 171.595 356.933 170.648C356.963 169.955 356.833 169.264 356.551 168.629C356.27 167.995 355.845 167.435 355.311 166.993C354.598 166.345 353.782 165.82 352.896 165.439C350.941 164.635 349.212 163.364 347.86 161.736C346.508 160.109 345.574 158.175 345.139 156.103C344.704 154.03 344.783 151.883 345.367 149.848C345.951 147.813 347.023 145.953 348.49 144.428C350.1 142.655 352.096 141.277 354.324 140.402ZM307.439 187.122C304.231 188.054 300.908 188.524 297.568 188.516C292.852 188.522 288.185 187.561 283.855 185.691C276.208 182.433 269.956 176.573 266.202 169.146C262.449 161.719 261.435 153.203 263.34 145.1C265.246 136.997 269.947 129.829 276.615 124.861C283.283 119.893 291.489 117.445 299.784 117.948C308.079 118.451 315.93 121.873 321.951 127.61C327.972 133.348 331.776 141.032 332.691 149.306C333.607 157.579 331.575 165.911 326.955 172.83C322.334 179.749 315.422 184.811 307.439 187.122Z" fill="#C9C9C9"/>
<path d="M233.814 190.017C234.324 190.08 234.841 190.011 235.316 189.816C235.792 189.621 236.209 189.307 236.529 188.905L237.057 187.881C237.251 187.157 237.463 186.433 237.621 185.709C238.131 183.763 238.257 181.735 237.992 179.741C237.939 179.38 237.85 179.025 237.727 178.682C237.545 178.118 237.189 177.626 236.711 177.278C236.233 176.929 235.657 176.74 235.066 176.739C232.556 176.693 230.144 175.755 228.262 174.091C227.073 172.944 226.248 171.471 225.891 169.857C225.533 168.242 225.659 166.558 226.252 165.015C226.826 163.475 227.799 162.116 229.073 161.078C229.355 160.825 229.62 160.554 229.866 160.266C230.092 160.039 230.257 159.757 230.343 159.448C230.43 159.138 230.435 158.812 230.359 158.5C230.204 157.606 229.956 156.73 229.619 155.887C228.428 153.39 226.495 151.324 224.084 149.972C223.66 149.719 223.154 149.643 222.674 149.76C221.864 149.937 221.109 150.306 220.471 150.837C218.718 152.332 216.456 153.091 214.157 152.956C211.858 152.822 209.7 151.803 208.133 150.113C207.308 149.147 206.69 148.022 206.317 146.807C205.945 145.592 205.825 144.314 205.965 143.051C205.965 142.909 205.965 142.786 205.965 142.645C206.055 142.003 205.908 141.35 205.551 140.81C205.194 140.27 204.651 139.88 204.026 139.714C201.542 138.751 198.869 138.382 196.218 138.637C195.706 138.693 195.203 138.812 194.719 138.99C194.196 139.15 193.727 139.452 193.366 139.864C193.005 140.276 192.766 140.78 192.675 141.32C192.126 144.018 190.767 146.482 188.779 148.383C187.938 149.184 186.912 149.764 185.792 150.072C184.673 150.38 183.495 150.406 182.363 150.149C180.208 149.773 178.241 148.685 176.776 147.059L176.018 146.317C175.671 145.944 175.22 145.683 174.723 145.57C174.227 145.456 173.707 145.495 173.233 145.682C172.226 146.007 171.288 146.516 170.466 147.182C168.808 148.342 167.414 149.84 166.376 151.579C166.008 152.248 165.825 153.004 165.848 153.768C165.83 154.416 166.057 155.046 166.482 155.534C167.741 157.012 168.635 158.766 169.091 160.654C169.546 162.379 169.38 164.209 168.622 165.823C167.865 167.437 166.564 168.733 164.949 169.482C163.049 170.448 160.919 170.863 158.797 170.683C158.232 170.614 157.658 170.714 157.15 170.972C156.641 171.23 156.221 171.633 155.942 172.131C155.365 173.066 154.97 174.103 154.778 175.186C154.385 176.976 154.272 178.816 154.444 180.641C154.45 181.262 154.615 181.87 154.924 182.408C155.233 182.946 155.674 183.396 156.206 183.714C156.654 183.964 157.144 184.132 157.651 184.208C159.919 184.607 162.035 185.621 163.768 187.139C164.501 187.78 165.044 188.61 165.337 189.54C165.852 191.093 165.888 192.766 165.442 194.34C164.996 195.915 164.087 197.318 162.834 198.368C162.393 198.739 161.935 199.092 161.512 199.516C161.163 199.851 160.91 200.273 160.78 200.739C160.65 201.205 160.647 201.697 160.771 202.165C161.054 203.313 161.55 204.397 162.234 205.36C163.492 207.244 165.073 208.888 166.905 210.216C167.33 210.502 167.793 210.728 168.28 210.887C168.809 211.083 169.382 211.126 169.934 211.01C170.486 210.895 170.994 210.626 171.4 210.234C172.886 208.916 174.724 208.063 176.688 207.779C176.903 207.734 177.121 207.704 177.34 207.691C178.414 207.572 179.501 207.681 180.53 208.009C181.769 208.407 182.894 209.095 183.814 210.017C184.734 210.938 185.421 212.065 185.818 213.306C186.301 214.73 186.481 216.24 186.347 217.738C186.285 218.468 186.407 219.202 186.699 219.874C186.851 220.181 187.063 220.454 187.324 220.676C187.585 220.897 187.888 221.063 188.215 221.163C190.884 222.199 193.784 222.491 196.605 222.011C197.432 221.898 198.192 221.496 198.75 220.875C199.308 220.254 199.629 219.456 199.655 218.62C199.688 217.319 200.009 216.04 200.594 214.877C201.18 213.714 202.014 212.695 203.039 211.893C204.035 211.041 205.246 210.48 206.539 210.271C207.833 210.063 209.158 210.215 210.371 210.71C212.116 211.349 213.69 212.383 214.972 213.73C215.602 214.392 216.425 214.839 217.324 215.007C218.222 215.175 219.151 215.056 219.978 214.665C221.995 213.754 223.747 212.345 225.072 210.569C225.449 210.064 225.79 209.533 226.094 208.98C226.323 208.574 226.456 208.122 226.484 207.657C226.511 207.191 226.432 206.726 226.252 206.296C226.02 205.689 225.693 205.123 225.283 204.619C224.365 203.54 223.724 202.252 223.417 200.868C223.11 199.484 223.145 198.045 223.521 196.678C223.897 195.311 224.6 194.057 225.571 193.025C226.542 191.993 227.75 191.215 229.09 190.759C230.59 190.16 232.204 189.906 233.814 190.017ZM191.511 203.471C189.314 203.039 187.189 202.296 185.201 201.264C182.391 199.828 179.906 197.827 177.904 195.385C174.962 191.785 173.132 187.404 172.638 182.779C172.143 178.153 173.005 173.483 175.119 169.341C177.139 165.431 180.207 162.162 183.979 159.9C187.75 157.639 192.076 156.475 196.471 156.539C200.866 156.603 205.157 157.893 208.861 160.263C212.565 162.634 215.537 165.991 217.442 169.959C219.348 173.926 220.113 178.348 219.65 182.726C219.187 187.105 217.515 191.268 214.823 194.748C212.13 198.228 208.522 200.888 204.405 202.428C200.287 203.969 195.822 204.33 191.511 203.471Z" fill="#C9C9C9"/>
<path d="M121.271 194.891H53.5515V199.622H121.271V194.891Z" fill="#A5A5A5"/>
<path opacity="0.23" d="M108.492 194.891H66.3305V199.622H108.492V194.891Z" fill="white"/>
<path opacity="0.02" d="M104.579 145.788C108.21 145.788 111.154 142.84 111.154 139.203C111.154 135.565 108.21 132.617 104.579 132.617C100.948 132.617 98.0045 135.565 98.0045 139.203C98.0045 142.84 100.948 145.788 104.579 145.788Z" fill="#A5A5A5"/>
<path opacity="0.36" d="M71.3185 179.106C74.9495 179.106 77.893 176.158 77.893 172.52C77.893 168.883 74.9495 165.934 71.3185 165.934C67.6875 165.934 64.744 168.883 64.744 172.52C64.744 176.158 67.6875 179.106 71.3185 179.106Z" fill="#A5A5A5"/>
<path opacity="0.16" d="M104.579 179.106C108.21 179.106 111.154 176.158 111.154 172.52C111.154 168.883 108.21 165.934 104.579 165.934C100.948 165.934 98.0045 168.883 98.0045 172.52C98.0045 176.158 100.948 179.106 104.579 179.106Z" fill="#A5A5A5"/>
<path opacity="0.84" d="M71.3185 145.788C74.9495 145.788 77.893 142.84 77.893 139.203C77.893 135.565 74.9495 132.617 71.3185 132.617C67.6875 132.617 64.744 135.565 64.744 139.203C64.744 142.84 67.6875 145.788 71.3185 145.788Z" fill="#A5A5A5"/>
<path opacity="0.23" d="M87.7287 186.857C91.3597 186.857 94.3032 183.908 94.3032 180.271C94.3032 176.634 91.3597 173.685 87.7287 173.685C84.0976 173.685 81.1541 176.634 81.1541 180.271C81.1541 183.908 84.0976 186.857 87.7287 186.857Z" fill="#A5A5A5"/>
<path d="M87.7287 139.749C91.3597 139.749 94.3032 136.801 94.3032 133.163C94.3032 129.526 91.3597 126.578 87.7287 126.578C84.0976 126.578 81.1541 129.526 81.1541 133.163C81.1541 136.801 84.0976 139.749 87.7287 139.749Z" fill="#A5A5A5"/>
<path opacity="0.52" d="M63.8979 162.985C67.5289 162.985 70.4724 160.037 70.4724 156.399C70.4724 152.762 67.5289 149.813 63.8979 149.813C60.2668 149.813 57.3233 152.762 57.3233 156.399C57.3233 160.037 60.2668 162.985 63.8979 162.985Z" fill="#A5A5A5"/>
<path opacity="0.09" d="M110.942 162.985C114.573 162.985 117.517 160.037 117.517 156.399C117.517 152.762 114.573 149.813 110.942 149.813C107.311 149.813 104.368 152.762 104.368 156.399C104.368 160.037 107.311 162.985 110.942 162.985Z" fill="#A5A5A5"/>
<path opacity="0.23" d="M43.8041 117.626C44.9917 117.626 45.9545 116.662 45.9545 115.472C45.9545 114.283 44.9917 113.318 43.8041 113.318C42.6165 113.318 41.6537 114.283 41.6537 115.472C41.6537 116.662 42.6165 117.626 43.8041 117.626Z" fill="#A5A5A5"/>
<path opacity="0.23" d="M53.5514 117.626C54.739 117.626 55.7018 116.662 55.7018 115.472C55.7018 114.283 54.739 113.318 53.5514 113.318C52.3638 113.318 51.401 114.283 51.401 115.472C51.401 116.662 52.3638 117.626 53.5514 117.626Z" fill="#A5A5A5"/>
<path opacity="0.23" d="M63.3163 117.626C64.5039 117.626 65.4667 116.662 65.4667 115.472C65.4667 114.283 64.5039 113.318 63.3163 113.318C62.1287 113.318 61.1659 114.283 61.1659 115.472C61.1659 116.662 62.1287 117.626 63.3163 117.626Z" fill="#A5A5A5"/>
<path d="M314.277 172.114C312.225 170.415 310.395 168.463 308.831 166.305C307.668 164.15 306.169 156.858 304.354 157.035C302.538 157.211 304.689 161.343 304.354 165.316C304.019 169.288 302.204 163.833 301.375 165.81C300.547 167.788 302.873 170.118 304.354 172.114C307.131 174.936 310.074 177.589 313.167 180.059L314.277 172.114Z" fill="#F4A28C"/>
<path d="M389.33 131.168C389.33 131.168 365.376 191.2 356.122 187.881C346.868 184.562 313.149 169.324 313.149 169.324L309.624 178.011C309.624 178.011 343.801 224.977 364.265 217.014C384.729 209.051 412.12 167.576 412.12 167.576L389.33 131.168Z" fill="#5EEAD4"/>
<path opacity="0.46" d="M389.33 131.168C389.33 131.168 365.376 191.2 356.122 187.881C346.868 184.562 313.149 169.324 313.149 169.324L309.624 178.011C309.624 178.011 343.801 224.977 364.265 217.014C384.729 209.051 412.12 167.576 412.12 167.576L389.33 131.168Z" fill="white"/>
<path d="M399.024 366.265C399.024 366.265 396.962 371.738 391.973 372.074C386.985 372.409 385.628 377.265 390.07 378.589C394.512 379.913 406.092 374.369 406.092 374.369L405.933 365.258L399.024 366.265Z" fill="#5EEAD4"/>
<path d="M463.571 365.258C463.571 365.258 462.267 371.738 457.296 372.074C452.326 372.409 450.968 377.265 455.41 378.589C459.852 379.913 471.432 374.369 471.432 374.369L471.15 365.258H463.571Z" fill="#5EEAD4"/>
<path d="M420.352 114.272L435.951 114.766C435.951 114.766 484.088 118.138 491.385 146.459C498.682 174.78 465.246 241.804 465.246 241.804H402.109C402.109 241.804 347.485 119.074 420.352 114.272Z" fill="#5EEAD4"/>
<path d="M420.352 114.272C420.352 114.272 419.206 175.434 419.4 174.551C419.594 173.668 435.898 114.766 435.898 114.766L420.352 114.272Z" fill="#24285B"/>
<path d="M419.841 80.6007C418.868 85.3014 418.536 90.1124 418.853 94.9025C418.925 95.4704 419.109 96.0183 419.394 96.5143C419.679 97.0103 420.06 97.4444 420.515 97.7913C420.969 98.1381 421.488 98.3908 422.041 98.5344C422.594 98.6781 423.17 98.7099 423.736 98.628C425.57 98.4911 427.326 97.8269 428.792 96.715C430.258 95.6032 431.373 94.0909 432.003 92.3599L435.528 85.1738C436.065 83.6611 436.122 82.0187 435.689 80.4726C435.257 78.9264 434.357 77.5525 433.113 76.5397C428.618 72.5141 420.651 75.3921 419.841 80.6007Z" fill="#F4A28C"/>
<path d="M434.823 86.4801L435.951 114.766L420.352 114.271L425.798 93.8782L434.823 86.4801Z" fill="#F4A28C"/>
<path d="M421.92 81.2011C424.553 81.6294 427.228 81.742 429.887 81.5366C428.985 82.6093 428.415 83.9232 428.249 85.3163C428.083 86.7094 428.328 88.1207 428.953 89.3761C429.537 90.6065 430.53 91.5951 431.762 92.1718C432.994 92.7486 434.388 92.8775 435.704 92.5366L436.867 81.5013C437.082 79.9255 436.868 78.321 436.247 76.8572C435.627 75.3934 434.623 74.1247 433.342 73.1851C432.221 72.3617 431.043 71.6183 429.817 70.9604C426.803 69.3007 421.92 70.8721 419.241 68.4002C418.981 68.1524 418.661 67.9763 418.313 67.8891C417.964 67.8019 417.599 67.8065 417.253 67.9025C416.907 67.9985 416.592 68.1826 416.338 68.4369C416.084 68.6912 415.9 69.007 415.804 69.3536C414.905 72.6554 414.888 78.0053 419.188 80.3713C420.042 80.8086 420.968 81.0896 421.92 81.2011Z" fill="#24285B"/>
<path d="M465.246 241.768C465.246 241.768 456.768 303.566 474.059 365.257H461.245C461.245 365.257 438.331 328.885 432.496 253.81L465.246 241.768Z" fill="#24285B"/>
<path d="M428.072 89.0228C428.072 89.0228 428.513 85.721 430.963 86.2684C433.413 86.8157 432.725 91.5654 429.359 91.5654L428.072 89.0228Z" fill="#F4A28C"/>
<path d="M419.012 85.9854L416.227 89.0046C416.067 89.1751 415.953 89.3837 415.896 89.6105C415.839 89.8374 415.84 90.0752 415.9 90.3013C415.96 90.5275 416.077 90.7346 416.239 90.9032C416.401 91.0717 416.603 91.1961 416.827 91.2646L420.035 92.2711L419.012 85.9854Z" fill="#F4A28C"/>
<path opacity="0.31" d="M424.406 98.292C426.362 98.0155 428.197 97.182 429.694 95.8907C429.694 95.8907 428.865 101.011 422.643 105.408L424.406 98.292Z" fill="#CE8172"/>
<path d="M402.109 241.768C402.109 241.768 386.686 329.856 396.38 365.257H408.807C408.807 365.257 413.09 283.579 434.047 264.51L465.246 241.768H402.109Z" fill="#24285B"/>
<path opacity="0.08" d="M463.307 134.011C463.307 134.011 437.678 143.775 451.656 183.202C465.633 222.629 460.469 227.343 445.698 224.713C437.855 223.335 432.32 212.353 428.901 206.138C426.168 201.194 424.053 195.968 421.427 190.971C419.136 186.61 413.09 186.769 408.789 187.016C401.304 187.428 393.842 188.017 386.404 188.782C387.005 190.854 388.399 192.606 390.282 193.655C394.011 196.303 398.011 198.547 402.215 200.347C405.346 201.691 408.767 202.214 412.156 201.865C412.156 201.865 410.111 231.881 426.257 241.751H465.281L485.604 220.563V167.4L463.307 134.011Z" fill="black"/>
<path d="M465.951 131.539C468.497 129.575 471.677 128.618 474.882 128.853C478.088 129.087 481.095 130.496 483.33 132.81C492.002 141.638 504.076 161.661 498.911 201.494C491.138 261.402 449.858 260.537 415.857 199.552L426.221 192.93C426.221 192.93 457.349 236.118 470.939 214.718C483.277 195.296 441.961 150.343 465.951 131.539Z" fill="#5EEAD4"/>
<path opacity="0.46" d="M465.951 131.539C468.497 129.575 471.677 128.618 474.882 128.853C478.088 129.087 481.095 130.496 483.33 132.81C492.002 141.638 504.076 161.661 498.911 201.494C491.138 261.402 449.858 260.537 415.857 199.552L426.221 192.93C426.221 192.93 457.349 236.118 470.939 214.718C483.277 195.296 441.961 150.343 465.951 131.539Z" fill="white"/>
<path d="M424.635 193.955C424.184 192.636 423.593 191.369 422.872 190.176C422.24 189.517 421.482 188.991 420.644 188.63C419.805 188.269 418.902 188.08 417.99 188.075L413.671 187.651C411.865 187.33 410.006 187.457 408.26 188.022C407.774 188.167 407.343 188.458 407.028 188.856C406.713 189.254 406.527 189.74 406.497 190.247C406.575 190.64 406.759 191.005 407.03 191.301C407.3 191.597 407.646 191.812 408.031 191.924C408.803 192.134 409.594 192.264 410.393 192.313C412.06 192.553 413.637 193.222 414.969 194.256C416.301 195.29 417.342 196.652 417.99 198.21L424.635 193.955Z" fill="#F4A28C"/>
<path d="M348.085 191.059L340.4 147.606H394.812L399.535 184.649L424.494 185.003V191.059H348.085Z" fill="#FFD200"/>
<path d="M369.747 173.898C372.755 173.898 375.194 171.455 375.194 168.442C375.194 165.429 372.755 162.986 369.747 162.986C366.739 162.986 364.301 165.429 364.301 168.442C364.301 171.455 366.739 173.898 369.747 173.898Z" fill="white"/>
<path d="M431.439 91.6359C433.201 91.6359 434.629 90.2051 434.629 88.4401C434.629 86.6751 433.201 85.2443 431.439 85.2443C429.677 85.2443 428.248 86.6751 428.248 88.4401C428.248 90.2051 429.677 91.6359 431.439 91.6359Z" fill="#C9C9C9"/>
<path d="M430.927 89.1287C430.927 89.1287 429.623 98.4513 426.239 99.9344C424.041 100.799 421.598 100.799 419.4 99.9344" stroke="#C9C9C9" stroke-width="1.015" stroke-miterlimit="10"/>
<path d="M419.312 101.4C420.061 101.4 420.669 100.791 420.669 100.04C420.669 99.2891 420.061 98.6804 419.312 98.6804C418.562 98.6804 417.955 99.2891 417.955 100.04C417.955 100.791 418.562 101.4 419.312 101.4Z" fill="#C9C9C9"/>
<path d="M436.938 80.2649L415.787 63.2794C415.787 63.2794 416.174 62.5378 417.884 63.6502C419.594 64.7625 426.151 69.4945 426.151 69.4945C426.151 69.4945 428.83 65.0274 434.559 69.1237C440.287 73.22 439.247 77.4928 436.938 80.2649Z" fill="#5EEAD4"/>
<path d="M430.258 88.4045C430.258 88.4045 433.783 76.3098 433.36 73.1493C432.986 71.0789 432.155 69.1184 430.927 67.411C431.932 67.3488 432.933 67.5749 433.813 68.0628C434.694 68.5507 435.417 69.2801 435.898 70.1654C435.898 70.1654 439.423 74.1734 433.043 88.9165L430.258 88.4045Z" fill="#C9C9C9"/>
<path d="M451.339 150.802H434.629V162.985H451.339V150.802Z" fill="white"/>
<path opacity="0.08" d="M444.729 149.142H442.243V153.292H444.729V149.142Z" fill="black"/>
</g>
<defs>
<filter id="filter0_f" x="-83" y="265" width="685" height="265" filterUnits="userSpaceOnUse" color-interpolation-filters="sRGB">
<feFlood flood-opacity="0" result="BackgroundImageFix"/>
<feBlend mode="normal" in="SourceGraphic" in2="BackgroundImageFix" result="shape"/>
<feGaussianBlur stdDeviation="60" result="effect1_foregroundBlur"/>
</filter>
<clipPath id="clip0">
<rect width="551" height="423" fill="white"/>
</clipPath>
</defs>
</svg>
