<svg width="103" height="65" viewBox="0 0 103 65" fill="none" xmlns="http://www.w3.org/2000/svg">
<g id="truck (1)">
<path id="Vector" d="M72.8702 39.0304C80.5698 38.4931 84.953 47.4579 79.999 53.421C78.4335 55.3054 76.4305 56.2652 74.0056 56.4858C71.8241 56.5393 69.8536 56.0908 68.1244 54.681C61.719 49.4591 65.0225 39.833 72.8702 39.0304Z" fill="#0A8B6C"/>
<path id="Vector_2" d="M32.7279 38.9329C37.9262 38.4613 42.1646 42.9324 41.9995 47.991C41.844 52.7546 38.5143 55.9837 33.924 56.4832C31.723 56.5932 29.8379 56.1171 28.0891 54.7355C21.8518 49.8073 24.5912 39.7679 32.7279 38.9329Z" fill="#0A8B6C"/>
<path id="Vector_3" d="M60.2873 17.1265L74.6817 17.1494C77.6494 17.1515 78.7942 17.5852 80.5395 20.3112L85.2122 27.928C87.002 30.8433 88.022 32.2602 88.03 35.6839L88.0367 42.8165C88.0369 43.6925 88.0869 44.5986 87.9583 45.4669C87.6975 47.2283 85.8433 48.5013 84.1486 48.4834C84.0755 47.5751 84.1629 46.66 84.0922 45.7495C83.6117 39.5582 78.1974 35.8554 72.2332 36.3688C66.872 36.8301 62.5387 41.4793 62.2273 46.7947C62.2117 47.0593 62.2677 48.0066 62.1436 48.1677L57.5249 48.1676C57.5372 48.0658 57.7033 48.02 57.7955 47.9709C60.473 46.546 60.309 44.0944 60.3099 41.5462L60.2873 17.1265Z" fill="#0A8B6C"/>
<path id="Vector_4" d="M57.525 48.1684C57.307 48.2671 56.9448 48.2509 56.7127 48.2584L48.316 48.2756C47.0782 48.2774 45.7994 48.2166 44.5688 48.3537C44.4122 47.7965 44.5007 47.0708 44.4192 46.4853C42.5114 32.7649 24.2018 33.2743 22.2233 45.6846C22.0933 46.5 22.0593 47.3387 21.9867 48.1612C15.1943 48.8719 16.0393 44.4797 16.0384 39.6851L16.0393 23.4533C16.0401 21.1742 15.7245 18.4873 16.6177 16.3274C18.8435 10.9441 24.6588 11.3395 29.3562 11.339L48.4224 11.3451C50.0674 11.3461 51.7654 11.2618 53.4056 11.3698C56.5198 11.5748 59.372 13.2991 60.0269 16.4668C60.0665 16.6585 60.0859 16.8695 60.1632 17.0497L60.1984 17.1266L60.31 41.5463C60.3092 44.0945 60.4732 46.5462 57.7956 47.971C57.7035 48.0201 57.5374 48.0659 57.525 48.1684Z" fill="#B5CDC1"/>
</g>
</svg>
