<svg width="102" height="65" viewBox="0 0 102 65" fill="none" xmlns="http://www.w3.org/2000/svg">
<g id="car">
<path id="Vector" d="M23.9789 49.6354C22.6121 45.9581 24.3965 41.6739 28.1581 40.3247L29.2048 40.0158C30.524 39.6168 32.7326 40.0158 33.8835 40.6376C37.0575 42.3521 38.8053 47.0226 36.9451 50.2764L36.8976 50.3492L36.8983 50.3553C34.612 55.3874 26.3278 55.5079 23.9789 49.6354Z" fill="#B5CDC1"/>
<path id="Vector_2" d="M65.4985 50.3422C64.6967 48.9558 64.471 46.8523 64.8715 45.3049C66.4847 39.0713 74.7921 37.8439 77.9098 43.4173C78.9507 45.278 79.4215 48.8253 77.9792 50.5942L77.9777 50.6261C77.9031 50.829 77.7173 51.0648 77.5903 51.2403C75.7885 53.729 72.0106 54.903 69.1582 53.6758C67.758 53.0733 66.0709 51.8066 65.4985 50.3422Z" fill="#B5CDC1"/>
<path id="Vector_3" d="M20.3867 28.2551L20.8269 28.0835C20.8892 27.8017 21.1066 27.4867 21.2661 27.2477L25.4091 21.3889C29.225 15.7477 31.4823 10.9729 39.1616 9.9082C40.0462 9.78557 40.9996 9.84697 41.8932 9.84633L55.1588 9.84568C57.6131 9.84617 60.1959 9.64179 62.5933 10.2344C66.5543 11.2135 69.6839 13.5871 71.9777 16.922L78.2503 26.348C78.674 26.9597 79.1741 27.5394 79.5585 28.1728L20.3867 28.2551Z" fill="#B5CDC1"/>
<path id="Vector_4" d="M79.5584 28.226L81.0566 28.2406C81.7251 28.2476 82.4033 28.2085 83.0686 28.2824C90.6781 29.1294 94.0023 38.9418 88.3171 44.3009C86.9466 45.5927 84.7984 46.6911 82.8675 46.6394C81.8858 46.6133 82.0253 45.9018 81.8877 45.1328L81.6414 44.0462C78.9364 34.1987 64.6622 34.2274 61.871 44.1057C61.3653 45.8958 61.428 46.6138 59.2635 46.6178L42.7848 46.6176C41.2851 46.6189 41.0134 46.424 40.6832 45.0051C39.4403 39.6639 34.8919 36.0001 29.285 36.7272L29.2137 36.736C25.0918 37.2677 21.4844 40.6149 20.6317 44.6871C20.2651 46.4373 20.4273 46.9373 18.2899 46.4965C14.5481 45.7246 12.1066 42.5333 11.3673 38.9056L11.3402 38.7369C10.6849 34.0309 14.1574 29.0423 18.9188 28.2939C19.3929 28.2196 19.8953 28.2277 20.375 28.2141L20.3866 28.258L79.5584 28.226Z" fill="#0A8B6C"/>
</g>
</svg>
