<svg width="103" height="67" viewBox="0 0 103 67" fill="none" xmlns="http://www.w3.org/2000/svg">
<g id="delivery (1)">
<path id="Vector" d="M59.2156 16.1199C61.1712 15.9762 63.1821 16.0687 65.1434 16.0702L68.5837 16.0739C74.4266 16.0865 76.675 18.0224 78.721 23.2942L79.9141 26.452C80.7684 28.7821 81.1257 29.5827 83.2285 31.0356L85.7829 32.727C90.1905 35.6054 90.2267 37.4864 90.2218 42.6309L90.2173 44.6872C90.2024 48.3683 87.2775 51.4541 83.6598 51.9858C83.5587 52.8437 83.4258 53.7188 83.1496 54.5401C80.3217 62.9524 67.4691 61.2694 67.0957 51.915C66.5122 51.8339 65.9175 51.8542 65.3295 51.853L54.4624 51.8512C54.5371 51.5596 54.5526 51.2397 54.5897 50.9502L58.2708 22.0375L59.2156 16.1199ZM66.382 22.5943C65.5499 22.8902 64.7023 23.503 64.3089 24.3159L64.246 24.4459C63.7774 25.4078 64.0273 27.7455 64.0267 28.8543L64.0281 30.9787C64.0355 34.6072 66.059 34.3306 69.1088 34.3347L74.6957 34.3469C77.4152 33.9255 77.0554 31.9738 76.3676 29.9869L75.5127 27.5267C75.1158 26.3471 74.8391 25.0252 74.2645 23.9212C73.3178 22.1032 71.4073 22.5752 69.6868 22.5741C68.5963 22.5735 67.4656 22.5078 66.382 22.5943Z" fill="#0A8B6C"/>
<path id="Vector_2" d="M23.8052 51.9253L23.7265 51.9211C22.632 51.9338 21.5898 51.8557 20.57 51.4199L20.0938 51.2105C13.8588 48.2542 16.1328 41.1503 16.9679 35.8737L20.4642 11.2958C20.8986 8.88181 22.7093 6.69555 25.0517 5.9053L25.7118 5.69917C26.2064 5.56548 26.7186 5.51114 27.2289 5.4895L47.9082 5.50024C49.6648 5.5012 51.4125 5.45808 53.1604 5.65957C57.3218 6.13917 59.8475 10.0622 59.2475 14.0842C59.1498 14.739 58.5905 15.9118 59.2155 16.1202L58.2707 22.0378L54.5895 50.9505C54.5525 51.24 54.537 51.56 54.4623 51.8413L40.9628 51.8435L40.7119 53.4433C39.2492 58.8694 33.3815 61.7818 28.3662 59.0911C28.1918 58.9974 28.0004 58.9082 27.8557 58.7713C27.6821 58.7418 27.3383 58.4451 27.1903 58.3305C25.0377 56.6626 24.1388 54.5546 23.8052 51.9253Z" fill="#B5CDC1"/>
<path id="Vector_3" d="M31.8398 31.5074L43.0624 31.5093C44.4164 31.5103 46.3425 31.294 47.0168 32.8208C47.1707 33.169 47.2109 33.6721 47.0782 34.0322L47.0282 34.1622C46.5207 35.4495 45.4698 35.6508 44.2691 35.6521L42.3207 35.6479L30.3679 35.6497C28.9925 35.651 27.1578 35.6111 27.0777 33.6988C26.9993 31.8273 28.8026 31.5215 30.267 31.5131L31.8398 31.5074Z" fill="#FEFEFE"/>
<path id="Vector_4" d="M47.9733 22.7879L50.0537 22.7696C50.429 22.7661 50.8886 22.7212 51.2534 22.815C52.432 23.1183 53.1968 24.4822 52.8305 25.6527L52.8034 25.7339C51.8893 28.5678 48.6225 27.0573 46.4632 26.9988L32.628 26.9849L30.1253 26.986C29.6821 26.9855 29.1985 27.0253 28.7628 26.9421C26.9711 26.5997 26.3535 24.0707 28.0622 23.1317L28.1822 23.0676C29.0073 22.5737 30.326 22.7897 31.2474 22.7897L47.9733 22.7879Z" fill="#FEFEFE"/>
<path id="Vector_5" d="M23.8057 51.9253V51.5529C23.8089 46.7861 27.7699 42.6898 32.5826 42.7081C37.5312 42.727 40.9967 47.073 40.9661 51.8405L40.7124 53.4433C39.2497 58.8694 33.382 61.7818 28.3667 59.0911C28.1923 58.9975 28.0009 58.9082 27.8561 58.7713C27.6825 58.7418 27.3387 58.4451 27.1908 58.3305C25.0382 56.6626 24.1392 54.5546 23.8057 51.9253Z" fill="#0A8B6C"/>
</g>
</svg>
