<svg width="94" height="75" viewBox="0 0 94 75" fill="none" xmlns="http://www.w3.org/2000/svg">
<path d="M69.4256 34.5238L69.5484 34.5199C74.039 34.3773 78.7097 36.2213 81.9718 39.3108C94.3842 51.0661 87.2792 70.8806 69.6545 71.233L69.6037 71.2242C69.3636 71.2627 69.0576 71.2258 68.8106 71.2189C59.4221 70.9527 51.4336 63.295 50.9733 53.8403C50.7377 48.9964 52.9329 44.1278 56.1448 40.6066C59.4689 36.9622 64.5283 34.7421 69.4256 34.5238ZM71.6745 44.5181C68.9909 45.1308 69.3857 47.3911 70.7508 49.2449C70.8343 49.358 70.8798 49.5009 70.9987 49.5812C70.0357 49.6459 69.0657 49.6268 68.1009 49.6296L61.6608 49.6387C61.1079 49.64 60.5036 49.582 59.9852 49.7974C57.8646 50.6787 57.3933 53.3574 59.4146 54.163L59.7506 54.2677C60.1811 54.3906 60.6186 54.3709 61.0618 54.3717L62.7014 54.3736C63.5284 54.3743 71.0955 54.307 71.2595 54.3948C71.5971 54.5754 70.6445 55.8943 70.4903 56.0833C69.9966 56.7473 69.42 57.4798 69.5391 58.3637C69.7249 59.743 70.9458 60.681 72.3329 60.4337C73.1593 60.2864 73.8778 59.4769 74.4749 58.9443L78.9955 55.0009C81.4061 52.9225 81.6601 51.9195 78.9086 49.6121L75.1306 46.2854C74.0863 45.3379 73.1763 44.4569 71.6745 44.5181Z" fill="#0A8B6C"/>
<path d="M34.7781 6.17226L37.7234 4.9404C38.7888 4.45583 39.7976 3.84976 40.8706 3.38603C44.1507 1.96871 45.7781 3.11658 48.766 4.24489L55.0875 6.47394L70.2793 11.4424C74.1326 12.7137 75.1427 13.8056 75.1504 18.1682L75.1516 22.7616C75.1418 25.455 73.7402 27.1972 71.2393 27.9107C70.9757 27.9859 71.0245 28.0498 70.9318 28.3105C69.9888 30.965 68.7754 30.641 66.2996 31.2633C63.9002 31.8665 61.4525 32.5968 59.2537 33.7462C52.3369 37.362 47.6252 45.3023 47.3752 53.0306L47.3367 55.0158C47.3327 55.639 47.3771 56.4698 47.1583 57.0499C46.0151 60.0822 39.5411 56.4817 37.7009 55.7317L25.8505 50.8677C22.0904 49.2797 19.4907 48.7714 19.4787 43.7042L19.476 29.4949C19.4731 28.9747 19.4997 28.4312 19.4397 27.9152C17.7783 27.1193 16.8324 26.9392 15.8205 25.0682C14.9278 23.4173 15.1881 21.3608 15.1849 19.5597C15.1829 18.4601 15.0806 17.2489 15.238 16.1632L15.2487 16.0845C15.6146 13.5298 17.6579 11.9616 20.0299 11.3677C20.1601 11.3352 20.3593 11.2574 20.4906 11.2706C21.0773 11.1816 21.6906 10.9136 22.2505 10.7137L34.7781 6.17226Z" fill="#B5CDC1"/>
<path d="M34.7777 6.17236L34.8452 6.22606C35.3093 6.58176 36.0423 6.80793 36.5786 7.05687L47.6437 12.0417L57.9061 16.3129C58.7196 16.6075 59.5244 16.9223 60.3855 17.0395L48.5803 22.4791C46.6717 23.3686 47.478 23.2405 45.722 22.3148L40.2737 19.76L21.0955 11.4768C20.9057 11.4113 20.6531 11.3821 20.4902 11.2707C21.0769 11.1817 21.6902 10.9137 22.2501 10.7138L34.7777 6.17236Z" fill="#0A8B6C"/>
</svg>
