<svg width="103" height="69" viewBox="0 0 103 69" fill="none" xmlns="http://www.w3.org/2000/svg">
<path d="M24.4789 53.9996C23.1121 50.3223 24.8965 46.0381 28.6581 44.689L29.7048 44.3801C31.024 43.9811 33.2326 44.3801 34.3835 45.0018C37.5575 46.7164 39.3053 51.3868 37.4451 54.6407L37.3976 54.7134L37.3983 54.7195C35.112 59.7516 26.8278 59.8722 24.4789 53.9996Z" fill="#B5CDC1"/>
<path d="M65.9985 54.7065C65.1967 53.3201 64.971 51.2165 65.3715 49.6692C66.9847 43.4355 75.2921 42.2082 78.4098 47.7816C79.4507 49.6423 79.9215 53.1896 78.4792 54.9584L78.4777 54.9903C78.4031 55.1933 78.2173 55.4291 78.0903 55.6046C76.2885 58.0933 72.5106 59.2673 69.6582 58.0401C68.258 57.4375 66.5709 56.1709 65.9985 54.7065Z" fill="#B5CDC1"/>
<path d="M20.8867 32.6194L21.3269 32.4477C21.3892 32.1659 21.6066 31.851 21.7661 31.612L25.9091 25.7532C29.725 20.112 31.9823 15.3371 39.6616 14.2725C40.5462 14.1498 41.4996 14.2112 42.3932 14.2106L55.6588 14.2099C58.1131 14.2104 60.6959 14.006 63.0933 14.5987C67.0543 15.5777 70.1839 17.9514 72.4777 21.2863L78.7503 30.7122C79.174 31.3239 79.6741 31.9037 80.0585 32.537L20.8867 32.6194Z" fill="#B5CDC1"/>
<path d="M80.0584 32.5902L81.5566 32.6048C82.2251 32.6119 82.9033 32.5728 83.5686 32.6467C91.1781 33.4936 94.5023 43.3061 88.8171 48.6652C87.4466 49.957 85.2984 51.0553 83.3675 51.0037C82.3858 50.9776 82.5253 50.266 82.3877 49.4971L82.1414 48.4105C79.4364 38.5629 65.1622 38.5916 62.371 48.4699C61.8653 50.2601 61.928 50.978 59.7635 50.9821L43.2848 50.9819C41.7851 50.9832 41.5134 50.7883 41.1832 49.3693C39.9403 44.0282 35.3919 40.3643 29.785 41.0914L29.7137 41.1002C25.5918 41.6319 21.9844 44.9792 21.1317 49.0513C20.7651 50.8016 20.9273 51.3015 18.7899 50.8607C15.0481 50.0889 12.6066 46.8976 11.8673 43.2698L11.8402 43.1012C11.1849 38.3951 14.6574 33.4066 19.4188 32.6582C19.8929 32.5838 20.3953 32.592 20.875 32.5784L20.8866 32.6223L80.0584 32.5902Z" fill="#0A8B6C"/>
<path d="M74.9999 21.5316C72.5149 21.5316 70.4849 19.5133 70.4849 17.0166C70.4849 14.52 72.5149 12.5133 74.9999 12.5133C77.4849 12.5133 79.5149 14.5316 79.5149 17.0283C79.5149 19.525 77.4849 21.5316 74.9999 21.5316ZM74.9999 14.2633C73.4832 14.2633 72.2349 15.5 72.2349 17.0283C72.2349 18.5566 73.4715 19.7933 74.9999 19.7933C76.5282 19.7933 77.7649 18.5566 77.7649 17.0283C77.7649 15.5 76.5165 14.2633 74.9999 14.2633Z" fill="#0A8B6C"/>
<path d="M75.0005 31.5534C73.2738 31.5534 71.5354 30.9 70.1821 29.605C66.7404 26.2917 62.9371 21.0067 64.3721 14.7184C65.6671 9.01337 70.6488 6.45837 75.0005 6.45837C75.0005 6.45837 75.0005 6.45837 75.0121 6.45837C79.3638 6.45837 84.3455 9.01337 85.6405 14.73C87.0638 21.0184 83.2605 26.2917 79.8188 29.605C78.4655 30.9 76.7271 31.5534 75.0005 31.5534ZM75.0005 8.20837C71.6055 8.20837 67.2421 10.0167 66.0871 15.1034C64.8271 20.5984 68.2804 25.335 71.4071 28.3334C73.4255 30.2817 76.5871 30.2817 78.6055 28.3334C81.7205 25.335 85.1738 20.5984 83.9371 15.1034C82.7704 10.0167 78.3955 8.20837 75.0005 8.20837Z" fill="#0A8B6C"/>
</svg>
